<svg xmlns="http://www.w3.org/2000/svg" xmlns:xlink="http://www.w3.org/1999/xlink" viewBox="0 0 1755 803"><defs><style>.cls-1{fill:#121f4b;}.cls-2{fill:#e7eab7;}.cls-3{fill:url(#linear-gradient);}.cls-4{fill:#ff931e;}.cls-5{fill:#ff1d25;}</style><linearGradient id="linear-gradient" x1="813.39" y1="29.442" x2="873.99" y2="216.558" gradientUnits="userSpaceOnUse"><stop offset="0.372" stop-color="#121f4b"/><stop offset="1" stop-color="#121f4b" stop-opacity="0"/></linearGradient></defs><title>story board</title><g id="Layer_1" data-name="Layer 1"><rect class="cls-1" y="2" width="1754" height="803"/></g><g id="Layer_3" data-name="Layer 3"><path class="cls-2" d="M814.077,60.466,596,613.547S578.916,700.068,836.861,697s266.081-98.028,266.081-98.028L917.418,62Z"/><rect class="cls-3" x="593" y="-1" width="503" height="253"/><circle class="cls-4" cx="703.406" cy="288.579" r="59.421"/><circle class="cls-5" cx="1005" cy="301" r="56"/><polyline class="cls-4" points="690.86 363.855 632.955 359.03 561.297 221.264 508.459 253.835 616.549 404.389 684.105 420.796 705.337 581 865.541 580.035 780.613 389.913 837.554 303.055 813.426 194 764.207 194.965 787.369 285.683 750.696 359.03 698.581 362.89"/><polyline class="cls-5" points="1017.525 371.657 1068.636 363.026 1122.004 235.191 1171.415 260.183 1086.621 402.116 1027.799 421.765 1020.938 565.764 878.458 576.918 939.696 401.549 882.569 328.609 895.84 229.86 939.664 227.028 925.877 309.405 963.975 371.853 1010.59 371.378"/></g></svg>