<svg xmlns="http://www.w3.org/2000/svg" viewBox="0 0 1755 803"><defs><style>.cls-1{fill:#ff931e;}.cls-2{fill:#ff1d25;}.cls-3{fill:#0071bc;}.cls-4{fill:#f0f;}.cls-5{fill:lime;}.cls-6{fill:#2e3192;}.cls-7{fill:#f2f2f2;}</style></defs><title>story board</title><g id="Layer_1" data-name="Layer 1"><rect class="cls-1" x="-2.986" y="-2" width="1763.986" height="803"/></g><g id="Layer_3" data-name="Layer 3"><polygon class="cls-2" points="618.993 394 1120.021 394 1120.021 572 620.208 572 618.993 394"/><polygon class="cls-3" points="1032.948 502.101 632.321 502.101 688.178 409.648 1088.805 409.648 1032.948 502.101"/><polygon class="cls-4" points="781.993 492 799.993 464 933.993 463 930.993 491 781.993 492"/><polyline class="cls-5" points="632.548 502.101 632.548 522 1033.855 522 1098.528 415.869 1096.87 193.658 1086.92 192 1088.578 409.236 1032.196 502.101 632.548 502.101"/><polygon class="cls-6" points="1086.879 192 686.252 192 688.178 409.648 1088.805 409.648 1086.879 192"/><circle class="cls-7" cx="740.991" cy="325.871" r="26.222"/><path class="cls-7" d="M704.993,419.484c0-.711-7-25.761-7-25.761s21.535-37.693,18.218-37.693h44.774l22.142,37.248-.584,31.407L765.96,395.7l-9.95-18.308L760.221,428H718.265l2.921-41.457-7.193,8.1Z"/><polygon class="cls-7" points="696.397 432.293 730.552 408.184 730.552 452.384 700.416 476.493 696.397 432.293"/><polygon class="cls-7" points="712.47 408.184 730.552 408.184 698.406 428.275 700.416 476.493 688.361 476.493 686.082 427.915 712.47 408.184"/><polygon class="cls-7" points="756.993 423 775.993 441 799.801 470.944 808.217 459.232 818.761 470.224 799.585 490.256 760.993 459 748.993 446 740.993 471 730.993 513 746.993 516 738.993 527 709.993 524 719.993 477 719.993 428 756.993 423"/></g></svg>