<svg xmlns="http://www.w3.org/2000/svg" viewBox="0 0 1755 803"><defs><style>.cls-1{fill:#ff931e;}.cls-2{fill:#ff1d25;}.cls-3{fill:#0071bc;}.cls-4{fill:#f0f;}.cls-5{fill:lime;}.cls-6{fill:#2e3192;}.cls-7{fill:#f2f2f2;}</style></defs><title>story board</title><g id="Layer_3" data-name="Layer 3"><rect class="cls-1" x="-3" y="-2" width="1762" height="803"/><polygon class="cls-2" points="618 403 1119.028 403 1119.028 581 619.215 581 618 403"/><polygon class="cls-3" points="1031.955 511.101 631.328 511.101 687.185 418.648 1087.812 418.648 1031.955 511.101"/><polygon class="cls-4" points="781 501 799 473 933 472 930 500 781 501"/><polyline class="cls-5" points="631.555 511.101 631.555 531 1032.862 531 1097.535 424.869 1095.877 202.658 1085.927 201 1087.585 418.236 1031.203 511.101 631.555 511.101"/><polygon class="cls-6" points="1088.886 203 688.259 203 690.185 420.648 1090.812 420.648 1088.886 203"/><circle class="cls-7" cx="769.998" cy="311.871" r="26.222"/><path class="cls-7" d="M774,345s16-16,23-8c7.508,8.581-4,15-4,15l1.446,16.984L804,397s6,25,10,36-50,13-64,1,12.144-19.5,13-40-8-28-18-41-1.844-12.312,0-16C749,329,754,343,774,345Z"/><polygon class="cls-7" points="791 345.195 810.117 331.896 834.221 292 846.688 295.325 819.26 341.039 791.831 356 791 345.195"/><polygon class="cls-7" points="757.688 347.195 738.571 333.896 714.468 294 702 297.325 729.429 343.039 756.857 358 757.688 347.195"/><polygon class="cls-7" points="803.329 431.22 813.136 470.878 826.153 471.618 821.982 480.139 803.343 483.689 790.844 426.515 803.329 431.22"/><polygon class="cls-7" points="771.918 428.036 749.983 462.501 758.431 472.433 749.385 475.293 733.954 464.254 766.707 415.754 771.918 428.036"/></g></svg>