<?xml version="1.0" encoding="utf-8"?>
<!-- Generator: Adobe Illustrator 23.0.6, SVG Export Plug-In . SVG Version: 6.00 Build 0)  -->
<svg version="1.1" id="Layer_1" xmlns="http://www.w3.org/2000/svg" xmlns:xlink="http://www.w3.org/1999/xlink" x="0px" y="0px"
	 viewBox="0 0 129.7 148.2" style="enable-background:new 0 0 129.7 148.2;" xml:space="preserve">
<style type="text/css">
	.st0{fill:#FFFFFF;}
</style>
<path class="st0" d="M2.9,54.2C2.9,31.5,22,0,42.4,0c11.1,0,20.7,8.6,20.5,22.9c-0.3,16-8.4,25.6-18,42.6c-3.7,6.6,20-1.4,19.5,11.2
	c-0.8,22-46.5,82.3-61.5,69.8C-11,135,27.2,81.2,77.2,63.5c19.6-6.9,40.5-12.1,40.5-12.1l-4.9,10c0,0-22.1,1-46.6,12.7
	C28,92.3,0.4,136.2,6.7,141c7,5.3,49.8-44,50.1-62.4c0.1-7.8-24.4-3.1-20.6-10.4c9.5-18,14.9-32.5,14.9-44.1S47.8,5,42.7,4.7
	C32.4,4.1,19.4,25.9,19.4,56.1s8.3,53.3,38.5,53.3c25.7-0.1,30.5-17.9,31.6-26.4c3.1-25-12.4-36.1-10.8-51.8
	C81,10,98.2,10.8,113.8,10.8c14.4,0,15.8-6.4,15.8-6.4s1.7,20.5-14.4,20.5c-12.5,0-28.3-5.1-29.1,7.4c-0.8,14.9,17.8,26.1,16.6,50.6
	c-1.1,21-19.2,32.1-45.3,32.1S2.9,95,2.9,54.2z"/>
</svg>
