<svg id="Layer_1" data-name="Layer 1" xmlns="http://www.w3.org/2000/svg" viewBox="0 0 140.177 172.581"><defs><style>.cls-1{fill:#ff6365;stroke-width:2.144px;}.cls-1,.cls-10,.cls-11,.cls-13,.cls-14,.cls-15,.cls-17,.cls-18,.cls-19,.cls-20,.cls-21,.cls-22,.cls-3,.cls-7,.cls-8,.cls-9{stroke:#001741;}.cls-1,.cls-10,.cls-11,.cls-13,.cls-14,.cls-15,.cls-17,.cls-18,.cls-19,.cls-20,.cls-21,.cls-22,.cls-3,.cls-7,.cls-9{stroke-miterlimit:10;}.cls-2{fill:#001741;}.cls-3,.cls-4{fill:#fbe2e0;}.cls-13,.cls-14,.cls-15,.cls-3,.cls-7,.cls-8{stroke-width:2.496px;}.cls-5{fill:#fb97ae;}.cls-14,.cls-6{fill:#7b3122;}.cls-7,.cls-8{fill:#bde8fb;}.cls-15,.cls-17,.cls-19,.cls-8{stroke-linecap:round;}.cls-8{stroke-linejoin:round;}.cls-9{fill:#f1d4d2;stroke-width:0.865px;}.cls-10{fill:#8ccef1;stroke-width:0.941px;}.cls-11,.cls-13,.cls-15,.cls-18{fill:none;}.cls-11{stroke-width:0.709px;}.cls-12,.cls-22{fill:#fff;}.cls-16,.cls-17{fill:#ffc350;}.cls-17,.cls-18,.cls-19,.cls-20,.cls-21{stroke-width:2.687px;}.cls-19{fill:#ffc735;}.cls-20{fill:#f4c680;}.cls-21{fill:#ccc;}.cls-22{stroke-width:1.565px;}</style></defs><title>builder</title><circle class="cls-1" cx="66.322" cy="106.259" r="65.25"/><path class="cls-2" d="M39.1,47.215a62.061,62.061,0,1,0,92.192,56.756c.032.879.054,1.769.054,2.658A65.246,65.246,0,1,1,39.1,47.215Z"/><path class="cls-2" d="M56.263,152.823l-8.27,15.333s-19.74-4.925-18.407-11.106c3.06-14.192.515-23.013,7.149-33.087,5.021-7.623,8.014-.527,21.078,2.023s18.695-1.768,18.695-1.768l2.08,42-18.6,3.348Z"/><polygon class="cls-3" points="68.8 74.704 51.472 73.908 51.771 48.459 69.099 49.256 68.8 74.704"/><path class="cls-4" d="M76.886,37.441C75.862,51.16,68.514,59.951,62.1,59.379,57.333,58.955,44.606,50.158,40.2,32.99,36.5,18.567,46,8.674,60.866,9.445S77.965,22.992,76.886,37.441Z"/><ellipse class="cls-5" cx="73.683" cy="41.082" rx="2.497" ry="2.968" transform="translate(-2.695 5.259) rotate(-4.014)"/><path class="cls-6" d="M51.421,28.512c-.37-.351-.709-2.913,4.15-3.325s5.5.4,4.429,1.9S51.791,28.864,51.421,28.512Z"/><path class="cls-2" d="M64.292,30.918c-.4.173-.781,2.236-.063,5.063.8,3.154,3.53,5.775,3.229,6.65-.832,2.413-6.475,2.093-6.692.531-.279-2.013,1.545-2.874.7-2.8-2.776.228-2.855,3.605-1.829,4.457,2.122,1.762,8.753,1.573,9.509-1.685.453-1.951-2.128-3.385-3.219-6.408C64.731,33.415,64.712,30.738,64.292,30.918Z"/><path class="cls-7" d="M75.58,64.637a44.521,44.521,0,0,0-4.34-5.393L64.484,63.6a27.11,27.11,0,0,0-6.42,11.413c-1.324,4.823-.49,35.174.13,42.551.45,5.366.286,14.764,5.169,17.691,4.945,2.963,15.685,1.794,14.239-4.961-6.524-30.473,1.022-47.724,1.022-47.724"/><path class="cls-8" d="M77.136,83.7s10.349,8.208,18,9c9.237.957,26-5,26-5L117.1,79.414s-15.747,1.451-17.961.288C87.581,73.632,86,67.176,79.984,64.451a54.1,54.1,0,0,1-6.419-3.627"/><path class="cls-9" d="M52.38,30.671c.73-1.429,6.964-2.128,8.5-.87,1.8,1.469,2.717,6.867-2.7,7.782C51.273,38.75,51.65,32.1,52.38,30.671Z"/><path class="cls-9" d="M75.434,28.479c-1-1.254-7.249-.688-8.5.852-1.467,1.8-1.285,7.273,4.2,7.084C78.138,36.173,76.435,29.732,75.434,28.479Z"/><line class="cls-10" x1="44.116" y1="29.972" x2="51.928" y2="31.517"/><path class="cls-11" d="M61.335,30.68a3.325,3.325,0,0,1,2.413-.949,6.976,6.976,0,0,1,2.543.376"/><path class="cls-12" d="M60.1,32.768c.1.964-1.522,2.2-3.4,2.327s-3.273-.738-3.39-1.85,1.6-1.983,3.475-2.115S59.979,31.568,60.1,32.768Z"/><path class="cls-12" d="M74.808,31.556c.125.941-1.075,2.393-2.949,2.524s-3.648-1.024-3.719-1.89c-.127-1.538,1.448-1.873,3.322-2S74.647,30.339,74.808,31.556Z"/><ellipse class="cls-2" cx="56.219" cy="33.198" rx="1.269" ry="1.329" transform="translate(0.873 67.832) rotate(-62.6)"/><ellipse class="cls-2" cx="70.78" cy="32.132" rx="1.194" ry="1.251" transform="translate(-2.076 5.033) rotate(-4.014)"/><ellipse class="cls-5" cx="51.524" cy="42.892" rx="3.647" ry="4.335" transform="matrix(0.998, -0.07, 0.07, 0.998, -2.876, 3.712)"/><path class="cls-13" d="M76.406,33.923c-1.355,17.24-6.323,24.09-12.162,25.109-6.55,1.143-19.407-10.242-24.25-28.322C36.142,16.327,45.788,6.393,60.658,7.164S77.363,21.749,76.406,33.923Z"/><path class="cls-14" d="M42.655,16.037s-10.6,7.142.79,23.778c1.75,2.557-1.582-10.549-.562-14.62,1.236-4.939,3.627-8.405,4.062-9.757C48.647,10.144,42.655,16.037,42.655,16.037Z"/><path class="cls-7" d="M56.194,62.614c3.035,1.33,5.506,17.744,5.24,30.433-.112,5.357.8,18.592-.864,28.618-1.51,9.114-3.693,15.373-7.957,15.981a44.405,44.405,0,0,1-14.447-2.05c-6.285-2.088-7.016-7.059-5.048-14.79,1.736-6.822,3.8-15.362,3.829-21.195.09-17.5-3.676-26.2-3.676-26.2l10-15.344L47.886,59.6Z"/><path class="cls-7" d="M74.98,61.423c.289-1.249-2.5-5.025-4.137-2.879a22.719,22.719,0,0,1-4.774,4.407,2.065,2.065,0,0,0-.524,3.092l3.27,4.195S73.924,65.982,74.98,61.423Z"/><line class="cls-15" x1="67.277" y1="76.835" x2="66.928" y2="84.43"/><path class="cls-7" d="M64.252,80.705l9.806.277s-.207,9.577-4.978,9.706C62.9,90.856,64.252,80.705,64.252,80.705Z"/><circle class="cls-12" cx="56.31" cy="107.918" r="1.438"/><circle class="cls-12" cx="55.196" cy="116.976" r="1.438"/><path class="cls-7" d="M45.912,56.426l.874-.544c.843-.524,2.191-1.318,2.936-.363a43.965,43.965,0,0,0,6.4,6.453,2.264,2.264,0,0,1-.058,3.39l-3.94,3.63a28.647,28.647,0,0,1-6.405-9.106C44.888,58.107,45.05,56.962,45.912,56.426Z"/><path class="cls-3" d="M123.029,85.516s3.461,1.082,10.437.563c8.868-.66,5.471-12.29.142-11.24-4.5.886,2.138-4.29-2.856-7.966-5.056-3.721-1.917,8.7-6.793,10.079-.4.112-7.075,3.065-6.85,3.788C117.784,82.907,123.029,85.516,123.029,85.516Z"/><path class="cls-8" d="M118.362,88.889c.987,1.05,8.323-.558,9.272-1.728s-.859-9.632-2.632-10.528-8.548,1.157-8.842,2.3S117.344,87.806,118.362,88.889Z"/><path class="cls-16" d="M38.048,31.989s4.262-2.361,13.294-3.445,10.028,1.06,20.087-.331A15.307,15.307,0,0,0,83.986,17.83l-9.1-2.815"/><path class="cls-17" d="M38.336,31.794S34.9,19.2,39.75,10.93s21.4-12.093,27.375-7.822c6.327,4.519,8.763,15.3,8.763,15.3"/><path class="cls-18" d="M38.048,31.989s4.262-2.361,13.294-3.445,15.273.326,20.087-.331,15.3-7.754,12.213-10.567S74.833,14.8,74.833,14.8"/><path class="cls-19" d="M45.225,14.73s9.067-7.079,15.636-5.166"/><path class="cls-8" d="M44.474,57.2c-17.236.834-25.874,49.694-14.595,52.072,8.031,1.693,25.243-4.854,25.243-4.854l-1.7-8.346-15.9-1.413L42.3,81.786"/><path class="cls-20" d="M93.505,102.189c-3.859-3.107-18.2-14.966-38.379-31.779C34.076,52.874,14.371,35.4,14.371,35.4L9.354,41.5S29.435,57.715,49.809,77.91s29.061,29.313,40.108,36.424C94.09,117.021,101.39,108.538,93.505,102.189Z"/><path class="cls-3" d="M56.153,98.813c3.129-2.352-4.724-15.415,2.661-14.265,6.718,1.046,8.681-7.87,12.344-2.573,4.195,6.066.752,7.974-2.447,11.691a45.018,45.018,0,0,1-6.165,5.75Z"/><path class="cls-7" d="M56.818,90.293c-1.617-.406-6.421,4.077-6.607,5.838s2.609,9.287,4.891,9.038,10.437-5.7,10-7.016S58.485,90.711,56.818,90.293Z"/><path class="cls-21" d="M29.9,25.237c3.528,2.51,4.732,5.755,3.236,7.53-1.921,2.28-4.671,1.921-6.767,4.5-1.208,1.485-1.41,4.338-1.547,5.925-.277,3.187-4.9,10.15-11.235,8.344-9.2-2.622-5.233,7.371-5.318,15.889-.047,4.723-6.522-2.659-5.774-13.8C3.534,38.055,19.019,31.5,19.019,31.5a63.71,63.71,0,0,1,3.356-5.855C24.732,22.086,26.367,22.727,29.9,25.237Z"/><path class="cls-22" d="M55.6,46.972s3.393,2.459,6.524,2.769a10.935,10.935,0,0,0,5.985-1.555s-1.022,5.05-3.536,5.716C61.667,54.672,57.441,52.234,55.6,46.972Z"/></svg>