<svg id="Layer_1" data-name="Layer 1" xmlns="http://www.w3.org/2000/svg" viewBox="0 0 135.742 171.395"><defs><style>.cls-1{fill:#ff6365;stroke-width:2.144px;}.cls-1,.cls-10,.cls-11,.cls-14,.cls-15,.cls-16,.cls-17,.cls-18,.cls-20,.cls-21,.cls-22,.cls-23,.cls-24,.cls-3,.cls-4,.cls-5,.cls-6,.cls-8,.cls-9{stroke:#001741;}.cls-1,.cls-10,.cls-11,.cls-14,.cls-15,.cls-16,.cls-17,.cls-18,.cls-20,.cls-21,.cls-22,.cls-23,.cls-24,.cls-3,.cls-4,.cls-6,.cls-8,.cls-9{stroke-miterlimit:10;}.cls-2{fill:#001741;}.cls-12,.cls-24,.cls-3,.cls-8{fill:#fbe2e0;}.cls-3{stroke-width:2.58px;}.cls-4,.cls-5{fill:#bde8fb;}.cls-4,.cls-5,.cls-6,.cls-8{stroke-width:2.496px;}.cls-20,.cls-22,.cls-24,.cls-5,.cls-6{stroke-linecap:round;}.cls-5{stroke-linejoin:round;}.cls-11,.cls-16,.cls-17,.cls-21,.cls-22,.cls-6{fill:none;}.cls-23,.cls-7{fill:#fff;}.cls-9{fill:#f4c680;}.cls-10,.cls-11,.cls-9{stroke-width:2.687px;}.cls-10{fill:#ccc;}.cls-13{fill:#fb97ae;}.cls-14{fill:#f1d4d2;stroke-width:0.835px;}.cls-15{fill:#8ccef1;stroke-width:0.908px;}.cls-16{stroke-width:0.685px;}.cls-17,.cls-18{stroke-width:2.409px;}.cls-18{fill:#7b3122;}.cls-19,.cls-20{fill:#ffc350;}.cls-20,.cls-21{stroke-width:2.594px;}.cls-22{stroke-width:1.5px;}.cls-23{stroke-width:1.51px;}</style></defs><title>builder</title><circle class="cls-1" cx="66.322" cy="105.073" r="65.25"/><path class="cls-2" d="M39.1,46.029a62.061,62.061,0,1,0,92.192,56.756c.032.879.054,1.769.054,2.658A65.246,65.246,0,1,1,39.1,46.029Z"/><path class="cls-2" d="M56.263,151.637l-8.27,15.333s-19.74-4.925-18.407-11.106c3.06-14.192.515-23.013,7.149-33.087,5.021-7.624,8.014-.527,21.078,2.022s18.695-1.767,18.695-1.767l2.08,42-18.6,3.349Z"/><polygon class="cls-3" points="68.8 73.518 50.285 72.667 50.524 47.216 69.039 48.067 68.8 73.518"/><path class="cls-4" d="M75.58,63.45a44.559,44.559,0,0,0-4.34-5.392l-6.756,4.36a27.1,27.1,0,0,0-6.42,11.413c-1.324,4.823-.49,35.173.13,42.551.45,5.366.286,14.764,5.169,17.69,4.945,2.963,15.685,1.795,14.239-4.96-6.524-30.474,1.022-47.725,1.022-47.725"/><path class="cls-5" d="M76.982,82.184s9.168,7.573,16.836,8.2c9.255.755,26.914-13.009,26.914-13.009l-6.606-8.509s-16,6.411-19.378,5.146c-5.043-1.891-10.163-10.243-16.24-12.836a30.318,30.318,0,0,0-5.6-1.786"/><path class="cls-4" d="M56.194,61.428c3.035,1.33,5.506,17.744,5.24,30.432-.112,5.358.8,18.593-.864,28.619-1.51,9.113-3.693,15.372-7.957,15.981a44.405,44.405,0,0,1-14.447-2.05c-6.285-2.088-7.016-7.059-5.048-14.791,1.736-6.821,3.8-15.361,3.829-21.194.09-17.5-3.676-26.2-3.676-26.2l10-15.344,4.614,1.53Z"/><path class="cls-4" d="M74.142,60.656c.29-1.249-2.5-5.026-4.136-2.879a22.746,22.746,0,0,1-4.774,4.407,2.064,2.064,0,0,0-.524,3.092l3.27,4.194S73.087,65.215,74.142,60.656Z"/><line class="cls-6" x1="67.277" y1="75.649" x2="66.928" y2="83.244"/><path class="cls-4" d="M64.252,79.519l9.806.276s-.207,9.578-4.978,9.707C62.9,89.669,64.252,79.519,64.252,79.519Z"/><circle class="cls-7" cx="56.31" cy="106.732" r="1.438"/><circle class="cls-7" cx="55.196" cy="115.79" r="1.438"/><path class="cls-4" d="M45.912,55.239l.874-.543c.843-.524,2.191-1.319,2.936-.363a43.965,43.965,0,0,0,6.4,6.453,2.264,2.264,0,0,1-.058,3.39l-3.94,3.63A28.658,28.658,0,0,1,45.719,58.7C44.888,56.921,45.05,55.775,45.912,55.239Z"/><path class="cls-8" d="M121.428,74.064s-.987,2.251,5.208-1c1.926-1.011,5.4-.127,7.3-4.014,2.033-4.153-1.769-14.085-6.83-10.07-3.593,2.85.04-3.708-6-5.095-6.119-1.4,1.7,8.744-2.226,11.949-.319.261-5.273,5.626-4.779,6.2C115.578,73.755,121.428,74.064,121.428,74.064Z"/><path class="cls-5" d="M116.663,80.417c1.3.636,7.407-3.888,7.883-5.317s-4-9.307-5.975-9.521-8.024,3.814-7.9,4.985S115.329,79.762,116.663,80.417Z"/><path class="cls-5" d="M44.474,56.009C27.238,56.843,18.6,105.7,29.879,108.081c8.031,1.693,25.243-4.854,25.243-4.854l-1.7-8.346-15.9-1.413L42.3,80.6"/><path class="cls-9" d="M94.376,102.29C75.585,85.36,67.021,79.914,53.632,68.8,32.55,51.3,16.422,35.313,16.422,35.313L6.934,43.685a228.41,228.41,0,0,1,41.86,30.884c14.241,13.287,24,23.628,40,36.837a7.8,7.8,0,0,0,4.465-3.721A12.062,12.062,0,0,0,94.376,102.29Z"/><path class="cls-8" d="M56.153,97.627c3.129-2.352-4.724-15.415,2.661-14.265,6.718,1.046,8.681-7.87,12.344-2.573,4.195,6.065.752,7.974-2.447,11.691a45.018,45.018,0,0,1-6.165,5.75Z"/><path class="cls-4" d="M56.818,89.107C55.2,88.7,50.4,93.184,50.211,94.945s2.609,9.287,4.891,9.038,10.437-5.7,10-7.016S58.485,89.525,56.818,89.107Z"/><path class="cls-10" d="M31.12,23.964c3.528,2.51,4.065,6.4,2.569,8.175-1.921,2.28-4.67,1.921-6.767,4.5-1.207,1.484-1.246,3.973-1.383,5.56-.277,3.187-4.9,10.15-11.235,8.344C5.1,47.919,6.934,59.685,8.822,66.8c1.212,4.565-6.522-2.659-5.774-13.8C4.092,37.427,20.7,30.662,20.7,30.662a15.528,15.528,0,0,1,2.233-5.395C25.291,21.708,27.592,21.454,31.12,23.964Z"/><path class="cls-7" d="M29.632,27.685a18.879,18.879,0,0,0,4.651,2.605s.213-3.584-2.326-5.674c-3.163-2.605-5.3-1.954-5.3-1.954S26.469,25.081,29.632,27.685Z"/><path class="cls-11" d="M31.12,23.964c3.528,2.51,4.065,6.4,2.569,8.175-1.921,2.28-4.67,1.921-6.767,4.5-1.207,1.484-1.246,3.973-1.383,5.56-.277,3.187-4.9,10.15-11.235,8.344C5.1,47.919,6.934,59.685,8.822,66.8c1.212,4.565-6.522-2.659-5.774-13.8C4.092,37.427,20.7,30.662,20.7,30.662a15.528,15.528,0,0,1,2.233-5.395C25.291,21.708,27.592,21.454,31.12,23.964Z"/><path class="cls-12" d="M76.362,35.815c-.571,13.265-7.392,21.968-13.6,21.611-3.251-.186-10.563-4.6-14.857-9.768-2.645-3.181-5.659-10.188-7.063-15.023C36.833,18.834,45.691,9,60.059,9.294S76.964,21.844,76.362,35.815Z"/><ellipse class="cls-13" cx="72.989" cy="39.967" rx="2.41" ry="2.864" transform="translate(-3.674 7.602) rotate(-5.816)"/><path class="cls-2" d="M63.945,31c-.392.183-.276,1.5.524,4.28.893,3.1,3.31,5.057,3.038,5.934-.749,2.418-6.353,2.276-6.617.735-.339-1.986,1.442-2.9.6-2.8-2.745.313-2.718,3.663-1.674,4.476,2.158,1.68,8.725,1.286,9.373-1.967.388-1.948-2.215-3.289-3.391-6.252C64.516,32.165,64.355,30.81,63.945,31Z"/><path class="cls-14" d="M52.973,31.083c.7-1.382,6.712-2.084,8.2-.877,1.742,1.41,2.652,6.616-2.568,7.522C51.94,38.886,52.275,32.465,52.973,31.083Z"/><path class="cls-14" d="M75.213,28.867c-.972-1.206-7-.633-8.2.859C65.6,31.47,65.8,36.751,71.1,36.544,77.857,36.28,76.186,30.072,75.213,28.867Z"/><line class="cls-15" x1="44.517" y1="31.399" x2="52.541" y2="31.902"/><path class="cls-16" d="M61.616,31.052a3.211,3.211,0,0,1,2.324-.926,6.741,6.741,0,0,1,2.456.352"/><path class="cls-7" d="M61.1,33.471c0,.935-1.68,1.956-3.493,1.9s-3.069-1.033-3.071-2.113,1.734-1.744,3.547-1.684S61.105,32.307,61.1,33.471Z"/><path class="cls-7" d="M74.565,31.583c.222.889-.836,2.389-2.628,2.67s-3.592-.684-3.732-1.511c-.249-1.468,1.238-1.92,3.03-2.2S74.371,30.8,74.565,31.583Z"/><ellipse class="cls-2" cx="57.448" cy="32.712" rx="1.224" ry="1.283" transform="translate(2.132 68.912) rotate(-62.86)"/><ellipse class="cls-2" cx="70.751" cy="31.616" rx="1.152" ry="1.207" transform="translate(-2.159 5.36) rotate(-4.273)"/><ellipse class="cls-13" cx="51.874" cy="41.579" rx="3.52" ry="4.184" transform="translate(-3.946 5.471) rotate(-5.816)"/><path class="cls-17" d="M75.793,32.436c-.784,16.672-4.94,23.037-10.541,24.2-4.3.89-8.666-1.344-16.317-7.57-3.725-3.032-6.714-13.155-8.365-18.622C36.417,16.683,45.421,6.808,59.789,7.1S76.346,20.663,75.793,32.436Z"/><path class="cls-18" d="M42.692,16.206S35.165,31.3,44.175,39.12c2.259,1.96-1.846-10.128-.986-14.086,1.043-4.8,3.244-8.219,3.622-9.536C48.293,10.34,42.692,16.206,42.692,16.206Z"/><path class="cls-19" d="M37.525,30.791s4.122-2.263,12.844-3.275,9.674,1.061,19.387-.244a18.885,18.885,0,0,0,13.753-9.184L73.141,14.547"/><path class="cls-20" d="M37.8,30.6s-3.269-12.167,1.443-20.131S59.942-1.118,65.7,3.026c6.089,4.386,8.4,14.8,8.4,14.8"/><path class="cls-21" d="M37.525,30.791s4.122-2.263,12.844-3.275,15.749.93,20.4.314S85.559,20.4,82.594,17.678s-9.5-3.334-9.5-3.334"/><path class="cls-22" d="M46.934,11.871S57.325,5.2,62.078,8.4c3.534,2.378,4.73,7.314,4.73,7.314"/><path class="cls-23" d="M57.057,46.1A23.012,23.012,0,0,0,63.7,47.4a14.408,14.408,0,0,0,6.08-1.847s-1.214,5.816-5.047,7.336C62.035,53.958,58.309,49.416,57.057,46.1Z"/><path class="cls-24" d="M125.073,63.313a12.124,12.124,0,0,0,.558,3.628,6.9,6.9,0,0,0,2.047,2.884"/></svg>