<svg xmlns="http://www.w3.org/2000/svg" viewBox="0 0 1755 803"><defs><style>.cls-1{fill:#f0f;}.cls-2{fill:#fff;}</style></defs><title>story board</title><g id="Layer_3" data-name="Layer 3"><rect class="cls-1" x="1" width="1753" height="803"/><rect class="cls-2" x="873" y="-39" width="17" height="363"/><polygon class="cls-2" points="882 322 780 287 786.496 348.093 758 465 772 467 813 373 839 485 857 484 847 380 922 376 894 450 913 452 949 379 968 476 984 476 964 310 882 322"/><path class="cls-2" d="M800.2,248.615c-4.42,2.336-75.674,55.842-75.674,55.842l39.23,33.555,69.533-42.641Z"/><polygon class="cls-2" points="784 274 785 225 805 269 784 274"/><polygon class="cls-2" points="813 281 832 232 834 269 813 281"/><path class="cls-2" d="M932.866,334.255c2.971-1.082,50.485-19.4,50.485-19.4l41.279,45.881-43.782-27.805Z"/></g></svg>