<svg xmlns="http://www.w3.org/2000/svg" viewBox="0 0 1755 803"><defs><style>.cls-1{fill:#f0f;}.cls-2{fill:#fff;}</style></defs><title>story board</title><g id="Layer_3" data-name="Layer 3"><rect class="cls-1" x="1" y="1" width="1753" height="803"/><rect class="cls-2" x="873" y="-33" width="17" height="363"/><path class="cls-2" d="M777.2,473.615c-4.42,2.336-75.674,55.842-75.674,55.842l39.23,33.555,69.533-42.641Z"/><polygon class="cls-2" points="761 499 762 450 782 494 761 499"/><polygon class="cls-2" points="790 506 809 457 811 494 790 506"/><path class="cls-2" d="M757.158,582.967a1.294,1.294,0,0,1,.017-1.444c2.973-4.345,18.624-27.16,22.689-31.734,17.345-19.515,59.937-47.2,65.827-36.158,7.417,13.907,25.032,7.417,38.012,9.271s21.324-15.761,40.794-4.635a56.668,56.668,0,0,1,24.92,28.411,1.28,1.28,0,0,0,.4.566l25.337,20.813a1.3,1.3,0,0,1,.441.7c.913,3.759,7.034,31.416-9.378,35.735-17.615,4.636-95.495,40.794-111.256,25.96-2.025-1.906-72.316-13.907-76.025-16.688C775.58,611.244,760.069,587.455,757.158,582.967Z"/></g></svg>