<svg xmlns="http://www.w3.org/2000/svg" xmlns:xlink="http://www.w3.org/1999/xlink" viewBox="0 0 1755 803"><defs><style>.cls-1{fill:url(#linear-gradient);}.cls-2{fill:url(#linear-gradient-2);}.cls-3{fill:url(#radial-gradient);}.cls-4{clip-path:url(#clip-path);}.cls-5{fill:url(#linear-gradient-4);}.cls-6{fill:url(#linear-gradient-5);}.cls-7{fill:url(#linear-gradient-6);}.cls-8{fill:url(#linear-gradient-7);}.cls-9{fill:url(#linear-gradient-8);}.cls-10{fill:url(#linear-gradient-9);}.cls-11{fill:url(#linear-gradient-10);}.cls-12{fill:url(#linear-gradient-11);}.cls-13{fill:url(#linear-gradient-12);}.cls-14{fill:url(#linear-gradient-13);}.cls-15{fill:url(#linear-gradient-14);}.cls-16{fill:url(#linear-gradient-15);}.cls-17{fill:url(#linear-gradient-16);}.cls-18{fill:url(#linear-gradient-17);}.cls-19{fill:url(#linear-gradient-18);}.cls-20{fill:url(#linear-gradient-19);}.cls-21{fill:url(#linear-gradient-20);}.cls-22{fill:url(#linear-gradient-21);}.cls-23{fill:url(#linear-gradient-22);}.cls-24{fill:url(#linear-gradient-23);}.cls-25{fill:url(#linear-gradient-24);}.cls-26{fill:url(#linear-gradient-25);}.cls-27{fill:url(#linear-gradient-26);}.cls-28{fill:url(#linear-gradient-27);}.cls-29{fill:url(#linear-gradient-28);}.cls-30{fill:url(#linear-gradient-29);}.cls-31{fill:url(#linear-gradient-30);}.cls-32{fill:url(#linear-gradient-31);}.cls-33{fill:url(#linear-gradient-32);}.cls-34{fill:url(#linear-gradient-33);}.cls-35{fill:url(#linear-gradient-34);}.cls-36{fill:url(#linear-gradient-35);}.cls-37{fill:url(#linear-gradient-36);}.cls-38{fill:url(#linear-gradient-37);}.cls-39{fill:url(#linear-gradient-38);}.cls-40{fill:url(#linear-gradient-39);}.cls-41{fill:url(#linear-gradient-40);}.cls-42{fill:url(#linear-gradient-41);}.cls-43{fill:url(#linear-gradient-42);}.cls-44{fill:url(#linear-gradient-43);}.cls-45{fill:url(#linear-gradient-44);}.cls-46{fill:url(#linear-gradient-45);}.cls-47{fill:url(#linear-gradient-46);}.cls-48{fill:url(#linear-gradient-47);}.cls-49{fill:url(#linear-gradient-48);}.cls-50{fill:url(#linear-gradient-49);}.cls-51{fill:url(#linear-gradient-50);}.cls-52{fill:url(#linear-gradient-51);}.cls-53{fill:url(#linear-gradient-52);}.cls-54{fill:url(#linear-gradient-53);}.cls-55{fill:url(#linear-gradient-54);}.cls-56{fill:url(#linear-gradient-55);}.cls-57{fill:url(#linear-gradient-56);}.cls-58{fill:url(#linear-gradient-57);}.cls-59{fill:url(#linear-gradient-58);}.cls-60{fill:url(#linear-gradient-59);}.cls-61{fill:url(#linear-gradient-60);}.cls-62{fill:url(#linear-gradient-61);}.cls-63{fill:url(#linear-gradient-62);}.cls-64{fill:url(#linear-gradient-63);}.cls-65{fill:url(#linear-gradient-64);}.cls-66{fill:url(#linear-gradient-65);}.cls-67{fill:url(#linear-gradient-66);}.cls-68{fill:url(#linear-gradient-67);}.cls-69{fill:url(#linear-gradient-68);}.cls-70{fill:url(#linear-gradient-69);}.cls-71{fill:url(#linear-gradient-70);}.cls-72{fill:url(#linear-gradient-71);}.cls-73{fill:url(#linear-gradient-72);}.cls-74{fill:url(#linear-gradient-73);}.cls-75{fill:url(#linear-gradient-74);}.cls-76{fill:url(#linear-gradient-75);}.cls-77{fill:url(#linear-gradient-76);}.cls-78{fill:url(#linear-gradient-77);}.cls-79{fill:url(#linear-gradient-78);}.cls-80{fill:url(#linear-gradient-79);}.cls-81{fill:url(#linear-gradient-80);}.cls-82{fill:url(#linear-gradient-81);}.cls-83{fill:url(#linear-gradient-82);}.cls-84{fill:url(#linear-gradient-83);}.cls-85{fill:url(#linear-gradient-84);}.cls-86{fill:url(#linear-gradient-85);}.cls-87{fill:url(#linear-gradient-86);}.cls-88{fill:url(#linear-gradient-87);}.cls-89{fill:url(#linear-gradient-88);}.cls-90{fill:url(#linear-gradient-89);}.cls-91{fill:url(#linear-gradient-90);}.cls-92{fill:url(#linear-gradient-91);}.cls-93{fill:url(#linear-gradient-92);}.cls-94{fill:url(#linear-gradient-93);}.cls-95{fill:url(#linear-gradient-94);}.cls-96{fill:url(#linear-gradient-95);}.cls-97{clip-path:url(#clip-path-2);}.cls-98{fill:url(#linear-gradient-97);}.cls-99{fill:url(#linear-gradient-98);}.cls-100{fill:url(#linear-gradient-99);}.cls-101{fill:url(#linear-gradient-100);}.cls-102{fill:url(#linear-gradient-101);}.cls-103{fill:url(#linear-gradient-102);}.cls-104{fill:url(#linear-gradient-103);}.cls-105{fill:url(#linear-gradient-104);}.cls-106{fill:url(#linear-gradient-105);}.cls-107{fill:url(#linear-gradient-106);}.cls-108{fill:url(#linear-gradient-107);}.cls-109{fill:url(#linear-gradient-108);}.cls-110{fill:url(#linear-gradient-109);}.cls-111{fill:url(#linear-gradient-110);}.cls-112{fill:url(#linear-gradient-111);}.cls-113{fill:url(#linear-gradient-112);}.cls-114{fill:url(#linear-gradient-113);}.cls-115{fill:url(#linear-gradient-114);}.cls-116{fill:url(#linear-gradient-115);}.cls-117{fill:url(#linear-gradient-116);}.cls-118{fill:url(#linear-gradient-117);}.cls-119{fill:url(#linear-gradient-118);}.cls-120{fill:url(#linear-gradient-119);}.cls-121{fill:url(#linear-gradient-120);}.cls-122{fill:url(#linear-gradient-121);}.cls-123{fill:url(#linear-gradient-122);}.cls-124{fill:url(#linear-gradient-123);}.cls-125{fill:url(#linear-gradient-124);}.cls-126{fill:url(#linear-gradient-125);}.cls-127{fill:url(#linear-gradient-126);}.cls-128{fill:url(#linear-gradient-127);}.cls-129{fill:url(#linear-gradient-128);}.cls-130{fill:url(#linear-gradient-129);}.cls-131{fill:url(#linear-gradient-130);}.cls-132{fill:url(#linear-gradient-131);}.cls-133{fill:url(#linear-gradient-132);}.cls-134{fill:url(#linear-gradient-133);}.cls-135{fill:url(#linear-gradient-134);}.cls-136{fill:url(#linear-gradient-135);}.cls-137{fill:url(#linear-gradient-136);}.cls-138{fill:url(#linear-gradient-137);}.cls-139{fill:url(#linear-gradient-138);}.cls-140{fill:url(#linear-gradient-139);}.cls-141{fill:url(#linear-gradient-140);}.cls-142{fill:url(#linear-gradient-141);}.cls-143{fill:url(#linear-gradient-142);}.cls-144{fill:url(#linear-gradient-143);}.cls-145{fill:url(#linear-gradient-144);}.cls-146{fill:url(#linear-gradient-145);}.cls-147{fill:url(#linear-gradient-146);}.cls-148{fill:url(#linear-gradient-147);}.cls-149{fill:url(#linear-gradient-148);}.cls-150{fill:url(#linear-gradient-149);}.cls-151{fill:url(#linear-gradient-150);}.cls-152{fill:url(#linear-gradient-151);}.cls-153{fill:url(#linear-gradient-152);}.cls-154{fill:url(#linear-gradient-153);}.cls-155{fill:url(#linear-gradient-154);}.cls-156{fill:url(#linear-gradient-155);}.cls-157{fill:url(#linear-gradient-156);}.cls-158{fill:url(#linear-gradient-157);}.cls-159{fill:url(#linear-gradient-158);}.cls-160{fill:url(#linear-gradient-159);}.cls-161{fill:url(#linear-gradient-160);}.cls-162{fill:url(#linear-gradient-161);}.cls-163{fill:url(#linear-gradient-162);}.cls-164{fill:url(#linear-gradient-163);}.cls-165{fill:url(#linear-gradient-164);}.cls-166{fill:url(#linear-gradient-165);}.cls-167{fill:url(#linear-gradient-166);}.cls-168{fill:url(#linear-gradient-167);}.cls-169{fill:url(#linear-gradient-168);}.cls-170{fill:url(#linear-gradient-169);}.cls-171{fill:url(#linear-gradient-170);}.cls-172{fill:url(#linear-gradient-171);}.cls-173{fill:url(#linear-gradient-172);}.cls-174{fill:url(#linear-gradient-173);}.cls-175{fill:url(#linear-gradient-174);}.cls-176{fill:url(#linear-gradient-175);}.cls-177{fill:url(#linear-gradient-176);}.cls-178{fill:url(#linear-gradient-177);}.cls-179{fill:url(#linear-gradient-178);}.cls-180{fill:url(#linear-gradient-179);}.cls-181{fill:url(#linear-gradient-180);}.cls-182{fill:url(#linear-gradient-181);}.cls-183{fill:url(#linear-gradient-182);}.cls-184{fill:url(#linear-gradient-183);}.cls-185{fill:url(#linear-gradient-184);}.cls-186{fill:url(#linear-gradient-185);}.cls-187{fill:url(#linear-gradient-186);}.cls-188{fill:url(#linear-gradient-187);}.cls-189{fill:url(#linear-gradient-188);}.cls-190{fill:#fcee21;}.cls-191{fill:url(#radial-gradient-2);}</style><linearGradient id="linear-gradient" x1="503.349" y1="656.61" x2="566.976" y2="345.169" gradientUnits="userSpaceOnUse"><stop offset="0.124" stop-color="#121f4b"/><stop offset="0.287" stop-color="#11224f"/><stop offset="0.453" stop-color="#0f2b5b"/><stop offset="0.619" stop-color="#0c396f"/><stop offset="0.786" stop-color="#084e8c"/><stop offset="0.952" stop-color="#0268b0"/><stop offset="1" stop-color="#0071bc"/></linearGradient><linearGradient id="linear-gradient-2" x1="1369.223" y1="969.796" x2="1185.037" y2="25.426" gradientUnits="userSpaceOnUse"><stop offset="0.372" stop-color="#121f4b"/><stop offset="1" stop-color="#0071bc"/></linearGradient><radialGradient id="radial-gradient" cx="877" cy="739.098" r="685.054" gradientUnits="userSpaceOnUse"><stop offset="0" stop-color="#0071bc"/><stop offset="0.872" stop-color="#121f4b"/></radialGradient><clipPath id="clip-path"><path id="SVGID" class="cls-1" d="M1093,933l-1240.875-3L-150,692C-.349,547.539,216.61,454,470.083,454c249.13,0,472.181,88.95,621.841,229.159Z"/></clipPath><linearGradient id="linear-gradient-4" x1="480.011" y1="651.842" x2="543.639" y2="340.401" xlink:href="#linear-gradient"/><linearGradient id="linear-gradient-5" x1="412.871" y1="638.125" x2="476.499" y2="326.684" xlink:href="#linear-gradient"/><linearGradient id="linear-gradient-6" x1="412.732" y1="638.097" x2="476.36" y2="326.656" xlink:href="#linear-gradient"/><linearGradient id="linear-gradient-7" x1="412.594" y1="638.069" x2="476.222" y2="326.627" xlink:href="#linear-gradient"/><linearGradient id="linear-gradient-8" x1="412.456" y1="638.04" x2="476.084" y2="326.599" xlink:href="#linear-gradient"/><linearGradient id="linear-gradient-9" x1="412.318" y1="638.012" x2="475.945" y2="326.571" xlink:href="#linear-gradient"/><linearGradient id="linear-gradient-10" x1="412.179" y1="637.984" x2="475.807" y2="326.543" xlink:href="#linear-gradient"/><linearGradient id="linear-gradient-11" x1="412.041" y1="637.956" x2="475.669" y2="326.514" xlink:href="#linear-gradient"/><linearGradient id="linear-gradient-12" x1="411.903" y1="637.927" x2="475.531" y2="326.486" xlink:href="#linear-gradient"/><linearGradient id="linear-gradient-13" x1="412.998" y1="638.151" x2="476.626" y2="326.71" xlink:href="#linear-gradient"/><linearGradient id="linear-gradient-14" x1="412.848" y1="638.121" x2="476.476" y2="326.679" xlink:href="#linear-gradient"/><linearGradient id="linear-gradient-15" x1="412.698" y1="638.09" x2="476.326" y2="326.649" xlink:href="#linear-gradient"/><linearGradient id="linear-gradient-16" x1="412.548" y1="638.059" x2="476.176" y2="326.618" xlink:href="#linear-gradient"/><linearGradient id="linear-gradient-17" x1="412.398" y1="638.029" x2="476.026" y2="326.587" xlink:href="#linear-gradient"/><linearGradient id="linear-gradient-18" x1="413.458" y1="638.245" x2="477.086" y2="326.804" xlink:href="#linear-gradient"/><linearGradient id="linear-gradient-19" x1="413.296" y1="638.212" x2="476.924" y2="326.771" xlink:href="#linear-gradient"/><linearGradient id="linear-gradient-20" x1="413.134" y1="638.179" x2="476.761" y2="326.738" xlink:href="#linear-gradient"/><linearGradient id="linear-gradient-21" x1="412.972" y1="638.146" x2="476.599" y2="326.705" xlink:href="#linear-gradient"/><linearGradient id="linear-gradient-22" x1="412.809" y1="638.113" x2="476.437" y2="326.671" xlink:href="#linear-gradient"/><linearGradient id="linear-gradient-23" x1="412.647" y1="638.08" x2="476.275" y2="326.638" xlink:href="#linear-gradient"/><linearGradient id="linear-gradient-24" x1="412.485" y1="638.046" x2="476.113" y2="326.605" xlink:href="#linear-gradient"/><linearGradient id="linear-gradient-25" x1="413.48" y1="638.25" x2="477.108" y2="326.809" xlink:href="#linear-gradient"/><linearGradient id="linear-gradient-26" x1="413.306" y1="638.214" x2="476.934" y2="326.773" xlink:href="#linear-gradient"/><linearGradient id="linear-gradient-27" x1="414.295" y1="638.416" x2="477.923" y2="326.975" xlink:href="#linear-gradient"/><linearGradient id="linear-gradient-28" x1="414.107" y1="638.378" x2="477.735" y2="326.937" xlink:href="#linear-gradient"/><linearGradient id="linear-gradient-29" x1="413.92" y1="638.34" x2="477.548" y2="326.898" xlink:href="#linear-gradient"/><linearGradient id="linear-gradient-30" x1="413.733" y1="638.301" x2="477.36" y2="326.86" xlink:href="#linear-gradient"/><linearGradient id="linear-gradient-31" x1="413.545" y1="638.263" x2="477.173" y2="326.822" xlink:href="#linear-gradient"/><linearGradient id="linear-gradient-32" x1="413.358" y1="638.225" x2="476.986" y2="326.784" xlink:href="#linear-gradient"/><linearGradient id="linear-gradient-33" x1="413.171" y1="638.186" x2="476.798" y2="326.745" xlink:href="#linear-gradient"/><linearGradient id="linear-gradient-34" x1="414.086" y1="638.373" x2="477.714" y2="326.932" xlink:href="#linear-gradient"/><linearGradient id="linear-gradient-35" x1="415.003" y1="638.561" x2="478.631" y2="327.12" xlink:href="#linear-gradient"/><linearGradient id="linear-gradient-36" x1="414.789" y1="638.517" x2="478.417" y2="327.076" xlink:href="#linear-gradient"/><linearGradient id="linear-gradient-37" x1="414.575" y1="638.473" x2="478.203" y2="327.032" xlink:href="#linear-gradient"/><linearGradient id="linear-gradient-38" x1="414.361" y1="638.43" x2="477.989" y2="326.988" xlink:href="#linear-gradient"/><linearGradient id="linear-gradient-39" x1="414.147" y1="638.386" x2="477.775" y2="326.945" xlink:href="#linear-gradient"/><linearGradient id="linear-gradient-40" x1="413.933" y1="638.342" x2="477.561" y2="326.901" xlink:href="#linear-gradient"/><linearGradient id="linear-gradient-41" x1="414.781" y1="638.516" x2="478.409" y2="327.074" xlink:href="#linear-gradient"/><linearGradient id="linear-gradient-42" x1="415.627" y1="638.688" x2="479.255" y2="327.247" xlink:href="#linear-gradient"/><linearGradient id="linear-gradient-43" x1="415.385" y1="638.639" x2="479.013" y2="327.198" xlink:href="#linear-gradient"/><linearGradient id="linear-gradient-44" x1="415.143" y1="638.59" x2="478.771" y2="327.148" xlink:href="#linear-gradient"/><linearGradient id="linear-gradient-45" x1="414.902" y1="638.54" x2="478.529" y2="327.099" xlink:href="#linear-gradient"/><linearGradient id="linear-gradient-46" x1="414.66" y1="638.491" x2="478.287" y2="327.049" xlink:href="#linear-gradient"/><linearGradient id="linear-gradient-47" x1="416.494" y1="638.865" x2="480.121" y2="327.424" xlink:href="#linear-gradient"/><linearGradient id="linear-gradient-48" x1="416.222" y1="638.81" x2="479.85" y2="327.369" xlink:href="#linear-gradient"/><linearGradient id="linear-gradient-49" x1="415.951" y1="638.755" x2="479.579" y2="327.313" xlink:href="#linear-gradient"/><linearGradient id="linear-gradient-50" x1="415.68" y1="638.699" x2="479.308" y2="327.258" xlink:href="#linear-gradient"/><linearGradient id="linear-gradient-51" x1="415.409" y1="638.644" x2="479.037" y2="327.203" xlink:href="#linear-gradient"/><linearGradient id="linear-gradient-52" x1="417.153" y1="639" x2="480.78" y2="327.559" xlink:href="#linear-gradient"/><linearGradient id="linear-gradient-53" x1="416.851" y1="638.938" x2="480.479" y2="327.497" xlink:href="#linear-gradient"/><linearGradient id="linear-gradient-54" x1="416.549" y1="638.877" x2="480.177" y2="327.436" xlink:href="#linear-gradient"/><linearGradient id="linear-gradient-55" x1="416.248" y1="638.815" x2="479.875" y2="327.374" xlink:href="#linear-gradient"/><linearGradient id="linear-gradient-56" x1="415.946" y1="638.754" x2="479.574" y2="327.312" xlink:href="#linear-gradient"/><linearGradient id="linear-gradient-57" x1="417.583" y1="639.088" x2="481.211" y2="327.647" xlink:href="#linear-gradient"/><linearGradient id="linear-gradient-58" x1="417.25" y1="639.02" x2="480.878" y2="327.579" xlink:href="#linear-gradient"/><linearGradient id="linear-gradient-59" x1="416.917" y1="638.952" x2="480.544" y2="327.511" xlink:href="#linear-gradient"/><linearGradient id="linear-gradient-60" x1="418.499" y1="639.275" x2="482.127" y2="327.834" xlink:href="#linear-gradient"/><linearGradient id="linear-gradient-61" x1="418.132" y1="639.2" x2="481.76" y2="327.759" xlink:href="#linear-gradient"/><linearGradient id="linear-gradient-62" x1="417.766" y1="639.125" x2="481.394" y2="327.684" xlink:href="#linear-gradient"/><linearGradient id="linear-gradient-63" x1="417.4" y1="639.05" x2="481.027" y2="327.609" xlink:href="#linear-gradient"/><linearGradient id="linear-gradient-64" x1="418.883" y1="639.353" x2="482.51" y2="327.912" xlink:href="#linear-gradient"/><linearGradient id="linear-gradient-65" x1="418.482" y1="639.272" x2="482.11" y2="327.83" xlink:href="#linear-gradient"/><linearGradient id="linear-gradient-66" x1="419.924" y1="639.566" x2="483.552" y2="328.125" xlink:href="#linear-gradient"/><linearGradient id="linear-gradient-67" x1="419.488" y1="639.477" x2="483.116" y2="328.036" xlink:href="#linear-gradient"/><linearGradient id="linear-gradient-68" x1="419.052" y1="639.388" x2="482.68" y2="327.947" xlink:href="#linear-gradient"/><linearGradient id="linear-gradient-69" x1="418.616" y1="639.299" x2="482.244" y2="327.858" xlink:href="#linear-gradient"/><linearGradient id="linear-gradient-70" x1="419.937" y1="639.569" x2="483.565" y2="328.128" xlink:href="#linear-gradient"/><linearGradient id="linear-gradient-71" x1="421.239" y1="639.835" x2="484.867" y2="328.394" xlink:href="#linear-gradient"/><linearGradient id="linear-gradient-72" x1="420.729" y1="639.731" x2="484.357" y2="328.289" xlink:href="#linear-gradient"/><linearGradient id="linear-gradient-73" x1="420.218" y1="639.626" x2="483.846" y2="328.185" xlink:href="#linear-gradient"/><linearGradient id="linear-gradient-74" x1="421.419" y1="639.872" x2="485.047" y2="328.43" xlink:href="#linear-gradient"/><linearGradient id="linear-gradient-75" x1="422.589" y1="640.111" x2="486.217" y2="328.67" xlink:href="#linear-gradient"/><linearGradient id="linear-gradient-76" x1="422" y1="639.99" x2="485.628" y2="328.549" xlink:href="#linear-gradient"/><linearGradient id="linear-gradient-77" x1="421.411" y1="639.87" x2="485.038" y2="328.429" xlink:href="#linear-gradient"/><linearGradient id="linear-gradient-78" x1="424.149" y1="640.429" x2="487.777" y2="328.988" xlink:href="#linear-gradient"/><linearGradient id="linear-gradient-79" x1="423.477" y1="640.292" x2="487.104" y2="328.851" xlink:href="#linear-gradient"/><linearGradient id="linear-gradient-80" x1="422.804" y1="640.155" x2="486.432" y2="328.713" xlink:href="#linear-gradient"/><linearGradient id="linear-gradient-81" x1="425.363" y1="640.677" x2="488.991" y2="329.236" xlink:href="#linear-gradient"/><linearGradient id="linear-gradient-82" x1="424.603" y1="640.522" x2="488.231" y2="329.081" xlink:href="#linear-gradient"/><linearGradient id="linear-gradient-83" x1="427.038" y1="641.02" x2="490.665" y2="329.578" xlink:href="#linear-gradient"/><linearGradient id="linear-gradient-84" x1="426.186" y1="640.846" x2="489.814" y2="329.404" xlink:href="#linear-gradient"/><linearGradient id="linear-gradient-85" x1="428.472" y1="641.312" x2="492.099" y2="329.871" xlink:href="#linear-gradient"/><linearGradient id="linear-gradient-86" x1="430.681" y1="641.764" x2="494.309" y2="330.323" xlink:href="#linear-gradient"/><linearGradient id="linear-gradient-87" x1="429.636" y1="641.55" x2="493.264" y2="330.109" xlink:href="#linear-gradient"/><linearGradient id="linear-gradient-88" x1="428.591" y1="641.337" x2="492.219" y2="329.896" xlink:href="#linear-gradient"/><linearGradient id="linear-gradient-89" x1="433.555" y1="642.351" x2="497.183" y2="330.91" xlink:href="#linear-gradient"/><linearGradient id="linear-gradient-90" x1="432.303" y1="642.095" x2="495.931" y2="330.654" xlink:href="#linear-gradient"/><linearGradient id="linear-gradient-91" x1="436.971" y1="643.049" x2="500.599" y2="331.608" xlink:href="#linear-gradient"/><linearGradient id="linear-gradient-92" x1="435.5" y1="642.748" x2="499.128" y2="331.307" xlink:href="#linear-gradient"/><linearGradient id="linear-gradient-93" x1="439.775" y1="643.622" x2="503.403" y2="332.181" xlink:href="#linear-gradient"/><linearGradient id="linear-gradient-94" x1="443.808" y1="644.446" x2="507.436" y2="333.005" xlink:href="#linear-gradient"/><linearGradient id="linear-gradient-95" x1="453.35" y1="646.395" x2="516.978" y2="334.954" xlink:href="#linear-gradient"/><clipPath id="clip-path-2"><path id="SVGID-2" data-name="SVGID" class="cls-2" d="M1957,926,716.125,923,714,685c149.651-144.461,366.61-238,620.083-238,249.13,0,472.181,88.95,621.841,229.159Z"/></clipPath><linearGradient id="linear-gradient-97" x1="1389.964" y1="965.751" x2="1205.778" y2="21.381" xlink:href="#linear-gradient-2"/><linearGradient id="linear-gradient-98" x1="1415.116" y1="960.845" x2="1230.931" y2="16.475" xlink:href="#linear-gradient-2"/><linearGradient id="linear-gradient-99" x1="1415.065" y1="960.855" x2="1230.879" y2="16.485" xlink:href="#linear-gradient-2"/><linearGradient id="linear-gradient-100" x1="1415.013" y1="960.865" x2="1230.828" y2="16.495" xlink:href="#linear-gradient-2"/><linearGradient id="linear-gradient-101" x1="1414.962" y1="960.875" x2="1230.776" y2="16.505" xlink:href="#linear-gradient-2"/><linearGradient id="linear-gradient-102" x1="1414.91" y1="960.885" x2="1230.725" y2="16.515" xlink:href="#linear-gradient-2"/><linearGradient id="linear-gradient-103" x1="1414.859" y1="960.895" x2="1230.673" y2="16.525" xlink:href="#linear-gradient-2"/><linearGradient id="linear-gradient-104" x1="1414.807" y1="960.905" x2="1230.622" y2="16.535" xlink:href="#linear-gradient-2"/><linearGradient id="linear-gradient-105" x1="1414.756" y1="960.915" x2="1230.57" y2="16.545" xlink:href="#linear-gradient-2"/><linearGradient id="linear-gradient-106" x1="1415.389" y1="960.792" x2="1231.203" y2="16.422" xlink:href="#linear-gradient-2"/><linearGradient id="linear-gradient-107" x1="1415.331" y1="960.803" x2="1231.145" y2="16.433" xlink:href="#linear-gradient-2"/><linearGradient id="linear-gradient-108" x1="1415.273" y1="960.815" x2="1231.087" y2="16.444" xlink:href="#linear-gradient-2"/><linearGradient id="linear-gradient-109" x1="1415.215" y1="960.826" x2="1231.029" y2="16.456" xlink:href="#linear-gradient-2"/><linearGradient id="linear-gradient-110" x1="1415.157" y1="960.837" x2="1230.971" y2="16.467" xlink:href="#linear-gradient-2"/><linearGradient id="linear-gradient-111" x1="1415.788" y1="960.714" x2="1231.602" y2="16.344" xlink:href="#linear-gradient-2"/><linearGradient id="linear-gradient-112" x1="1415.723" y1="960.727" x2="1231.537" y2="16.357" xlink:href="#linear-gradient-2"/><linearGradient id="linear-gradient-113" x1="1415.658" y1="960.739" x2="1231.472" y2="16.369" xlink:href="#linear-gradient-2"/><linearGradient id="linear-gradient-114" x1="1415.593" y1="960.752" x2="1231.407" y2="16.382" xlink:href="#linear-gradient-2"/><linearGradient id="linear-gradient-115" x1="1415.528" y1="960.765" x2="1231.343" y2="16.395" xlink:href="#linear-gradient-2"/><linearGradient id="linear-gradient-116" x1="1415.463" y1="960.777" x2="1231.278" y2="16.407" xlink:href="#linear-gradient-2"/><linearGradient id="linear-gradient-117" x1="1415.398" y1="960.79" x2="1231.213" y2="16.42" xlink:href="#linear-gradient-2"/><linearGradient id="linear-gradient-118" x1="1416.009" y1="960.671" x2="1231.823" y2="16.301" xlink:href="#linear-gradient-2"/><linearGradient id="linear-gradient-119" x1="1415.937" y1="960.685" x2="1231.751" y2="16.315" xlink:href="#linear-gradient-2"/><linearGradient id="linear-gradient-120" x1="1416.559" y1="960.564" x2="1232.373" y2="16.194" xlink:href="#linear-gradient-2"/><linearGradient id="linear-gradient-121" x1="1416.479" y1="960.579" x2="1232.293" y2="16.209" xlink:href="#linear-gradient-2"/><linearGradient id="linear-gradient-122" x1="1416.399" y1="960.595" x2="1232.214" y2="16.225" xlink:href="#linear-gradient-2"/><linearGradient id="linear-gradient-123" x1="1416.32" y1="960.61" x2="1232.134" y2="16.24" xlink:href="#linear-gradient-2"/><linearGradient id="linear-gradient-124" x1="1416.24" y1="960.626" x2="1232.054" y2="16.256" xlink:href="#linear-gradient-2"/><linearGradient id="linear-gradient-125" x1="1416.16" y1="960.642" x2="1231.974" y2="16.271" xlink:href="#linear-gradient-2"/><linearGradient id="linear-gradient-126" x1="1416.08" y1="960.657" x2="1231.894" y2="16.287" xlink:href="#linear-gradient-2"/><linearGradient id="linear-gradient-127" x1="1416.672" y1="960.542" x2="1232.486" y2="16.171" xlink:href="#linear-gradient-2"/><linearGradient id="linear-gradient-128" x1="1417.278" y1="960.423" x2="1233.092" y2="16.053" xlink:href="#linear-gradient-2"/><linearGradient id="linear-gradient-129" x1="1417.182" y1="960.442" x2="1232.996" y2="16.072" xlink:href="#linear-gradient-2"/><linearGradient id="linear-gradient-130" x1="1417.086" y1="960.461" x2="1232.9" y2="16.091" xlink:href="#linear-gradient-2"/><linearGradient id="linear-gradient-131" x1="1416.99" y1="960.48" x2="1232.804" y2="16.11" xlink:href="#linear-gradient-2"/><linearGradient id="linear-gradient-132" x1="1416.893" y1="960.498" x2="1232.708" y2="16.128" xlink:href="#linear-gradient-2"/><linearGradient id="linear-gradient-133" x1="1416.797" y1="960.517" x2="1232.612" y2="16.147" xlink:href="#linear-gradient-2"/><linearGradient id="linear-gradient-134" x1="1417.373" y1="960.405" x2="1233.187" y2="16.035" xlink:href="#linear-gradient-2"/><linearGradient id="linear-gradient-135" x1="1417.958" y1="960.291" x2="1233.772" y2="15.921" xlink:href="#linear-gradient-2"/><linearGradient id="linear-gradient-136" x1="1417.844" y1="960.313" x2="1233.658" y2="15.943" xlink:href="#linear-gradient-2"/><linearGradient id="linear-gradient-137" x1="1417.73" y1="960.335" x2="1233.544" y2="15.965" xlink:href="#linear-gradient-2"/><linearGradient id="linear-gradient-138" x1="1417.621" y1="960.386" x2="1233.436" y2="16.016" xlink:href="#linear-gradient-2"/><linearGradient id="linear-gradient-139" x1="1417.502" y1="960.38" x2="1233.316" y2="16.01" xlink:href="#linear-gradient-2"/><linearGradient id="linear-gradient-140" x1="1418.753" y1="960.136" x2="1234.567" y2="15.766" xlink:href="#linear-gradient-2"/><linearGradient id="linear-gradient-141" x1="1418.62" y1="960.162" x2="1234.434" y2="15.792" xlink:href="#linear-gradient-2"/><linearGradient id="linear-gradient-142" x1="1418.486" y1="960.188" x2="1234.301" y2="15.818" xlink:href="#linear-gradient-2"/><linearGradient id="linear-gradient-143" x1="1418.353" y1="960.214" x2="1234.168" y2="15.844" xlink:href="#linear-gradient-2"/><linearGradient id="linear-gradient-144" x1="1418.22" y1="960.24" x2="1234.034" y2="15.87" xlink:href="#linear-gradient-2"/><linearGradient id="linear-gradient-145" x1="1419.448" y1="960" x2="1235.263" y2="15.63" xlink:href="#linear-gradient-2"/><linearGradient id="linear-gradient-146" x1="1419.294" y1="960.03" x2="1235.109" y2="15.66" xlink:href="#linear-gradient-2"/><linearGradient id="linear-gradient-147" x1="1419.141" y1="960.06" x2="1234.955" y2="15.69" xlink:href="#linear-gradient-2"/><linearGradient id="linear-gradient-148" x1="1418.987" y1="960.09" x2="1234.801" y2="15.72" xlink:href="#linear-gradient-2"/><linearGradient id="linear-gradient-149" x1="1418.833" y1="960.12" x2="1234.647" y2="15.75" xlink:href="#linear-gradient-2"/><linearGradient id="linear-gradient-150" x1="1420.022" y1="959.888" x2="1235.836" y2="15.518" xlink:href="#linear-gradient-2"/><linearGradient id="linear-gradient-151" x1="1419.846" y1="959.923" x2="1235.66" y2="15.552" xlink:href="#linear-gradient-2"/><linearGradient id="linear-gradient-152" x1="1419.67" y1="959.957" x2="1235.484" y2="15.587" xlink:href="#linear-gradient-2"/><linearGradient id="linear-gradient-153" x1="1420.85" y1="959.727" x2="1236.664" y2="15.357" xlink:href="#linear-gradient-2"/><linearGradient id="linear-gradient-154" x1="1420.651" y1="959.766" x2="1236.465" y2="15.395" xlink:href="#linear-gradient-2"/><linearGradient id="linear-gradient-155" x1="1420.452" y1="959.804" x2="1236.266" y2="15.434" xlink:href="#linear-gradient-2"/><linearGradient id="linear-gradient-156" x1="1420.252" y1="959.843" x2="1236.067" y2="15.473" xlink:href="#linear-gradient-2"/><linearGradient id="linear-gradient-157" x1="1421.388" y1="959.622" x2="1237.202" y2="15.252" xlink:href="#linear-gradient-2"/><linearGradient id="linear-gradient-158" x1="1421.164" y1="959.666" x2="1236.978" y2="15.295" xlink:href="#linear-gradient-2"/><linearGradient id="linear-gradient-159" x1="1422.294" y1="959.445" x2="1238.109" y2="15.075" xlink:href="#linear-gradient-2"/><linearGradient id="linear-gradient-160" x1="1422.044" y1="959.494" x2="1237.859" y2="15.124" xlink:href="#linear-gradient-2"/><linearGradient id="linear-gradient-161" x1="1421.794" y1="959.543" x2="1237.609" y2="15.172" xlink:href="#linear-gradient-2"/><linearGradient id="linear-gradient-162" x1="1421.544" y1="959.591" x2="1237.359" y2="15.221" xlink:href="#linear-gradient-2"/><linearGradient id="linear-gradient-163" x1="1422.607" y1="959.384" x2="1238.421" y2="15.014" xlink:href="#linear-gradient-2"/><linearGradient id="linear-gradient-164" x1="1423.675" y1="959.176" x2="1239.49" y2="14.806" xlink:href="#linear-gradient-2"/><linearGradient id="linear-gradient-165" x1="1423.369" y1="959.235" x2="1239.184" y2="14.865" xlink:href="#linear-gradient-2"/><linearGradient id="linear-gradient-166" x1="1423.064" y1="959.295" x2="1238.878" y2="14.925" xlink:href="#linear-gradient-2"/><linearGradient id="linear-gradient-167" x1="1424.073" y1="959.098" x2="1239.887" y2="14.728" xlink:href="#linear-gradient-2"/><linearGradient id="linear-gradient-168" x1="1425.076" y1="958.903" x2="1240.89" y2="14.532" xlink:href="#linear-gradient-2"/><linearGradient id="linear-gradient-169" x1="1424.709" y1="958.974" x2="1240.523" y2="14.604" xlink:href="#linear-gradient-2"/><linearGradient id="linear-gradient-170" x1="1424.342" y1="959.046" x2="1240.156" y2="14.676" xlink:href="#linear-gradient-2"/><linearGradient id="linear-gradient-171" x1="1426.612" y1="958.603" x2="1242.427" y2="14.233" xlink:href="#linear-gradient-2"/><linearGradient id="linear-gradient-172" x1="1426.179" y1="958.687" x2="1241.994" y2="14.317" xlink:href="#linear-gradient-2"/><linearGradient id="linear-gradient-173" x1="1425.746" y1="958.772" x2="1241.561" y2="14.402" xlink:href="#linear-gradient-2"/><linearGradient id="linear-gradient-174" x1="1427.928" y1="958.346" x2="1243.743" y2="13.976" xlink:href="#linear-gradient-2"/><linearGradient id="linear-gradient-175" x1="1427.425" y1="958.444" x2="1243.239" y2="14.074" xlink:href="#linear-gradient-2"/><linearGradient id="linear-gradient-176" x1="1429.555" y1="958.029" x2="1245.369" y2="13.659" xlink:href="#linear-gradient-2"/><linearGradient id="linear-gradient-177" x1="1428.976" y1="958.142" x2="1244.79" y2="13.772" xlink:href="#linear-gradient-2"/><linearGradient id="linear-gradient-178" x1="1431.026" y1="957.742" x2="1246.84" y2="13.372" xlink:href="#linear-gradient-2"/><linearGradient id="linear-gradient-179" x1="1433.053" y1="957.347" x2="1248.867" y2="12.977" xlink:href="#linear-gradient-2"/><linearGradient id="linear-gradient-180" x1="1432.311" y1="957.492" x2="1248.125" y2="13.121" xlink:href="#linear-gradient-2"/><linearGradient id="linear-gradient-181" x1="1431.568" y1="957.636" x2="1247.383" y2="13.266" xlink:href="#linear-gradient-2"/><linearGradient id="linear-gradient-182" x1="1436.046" y1="956.763" x2="1251.86" y2="12.393" xlink:href="#linear-gradient-2"/><linearGradient id="linear-gradient-183" x1="1435.123" y1="956.943" x2="1250.938" y2="12.573" xlink:href="#linear-gradient-2"/><linearGradient id="linear-gradient-184" x1="1439.469" y1="956.095" x2="1255.284" y2="11.725" xlink:href="#linear-gradient-2"/><linearGradient id="linear-gradient-185" x1="1438.352" y1="956.313" x2="1254.166" y2="11.943" xlink:href="#linear-gradient-2"/><linearGradient id="linear-gradient-186" x1="1442.459" y1="955.512" x2="1258.273" y2="11.142" xlink:href="#linear-gradient-2"/><linearGradient id="linear-gradient-187" x1="1446.45" y1="954.734" x2="1262.264" y2="10.364" xlink:href="#linear-gradient-2"/><linearGradient id="linear-gradient-188" x1="1455.844" y1="952.902" x2="1271.659" y2="8.531" xlink:href="#linear-gradient-2"/><radialGradient id="radial-gradient-2" cx="841.609" cy="222.658" r="940.779" gradientTransform="translate(0 90.754) scale(1 0.592)" gradientUnits="userSpaceOnUse"><stop offset="0" stop-color="#0071bc"/><stop offset="0.177" stop-color="#065798"/><stop offset="0.377" stop-color="#0b3f77"/><stop offset="0.568" stop-color="#0f2d5f"/><stop offset="0.745" stop-color="#112350"/><stop offset="0.892" stop-color="#121f4b"/></radialGradient></defs><title>story board</title><g id="Layer_3" data-name="Layer 3"><rect class="cls-3" x="-3" y="-1" width="1760" height="803"/><path id="SVGID-3" data-name="SVGID" class="cls-1" d="M1093,933l-1240.875-3L-150,692C-.349,547.539,216.61,454,470.083,454c249.13,0,472.181,88.95,621.841,229.159Z"/><g class="cls-4"><rect class="cls-5" x="-150" y="454" width="1243" height="479"/><path class="cls-6" d="M1039.27,453h-12.08v-.11a436.833,436.833,0,0,1-34.647,93.357c-30.089,59.5-73.628,113.085-127.429,158.086C757.511,794.335,608.859,850,444.663,850S131.815,794.335,24.213,704.333c-53.8-45-97.341-98.585-127.429-158.086a436.726,436.726,0,0,1-34.647-93.357V453Z"/><path class="cls-7" d="M1034.008,453h-11.974v-1a432.9,432.9,0,0,1-34.34,92.53c-29.822,58.975-72.976,112.085-126.3,156.688C754.742,790.426,607.406,845.6,444.663,845.6S134.584,790.426,27.933,701.221c-53.325-44.6-96.479-97.713-126.3-156.688A432.9,432.9,0,0,1-132.708,452v1Z"/><path class="cls-8" d="M1028.746,453h-11.867v-1.884a429.027,429.027,0,0,1-34.033,91.7C953.29,601.268,910.521,653.9,857.672,698.109,751.974,786.517,605.953,841.2,444.663,841.2S137.352,786.517,31.654,698.109C-21.195,653.9-63.963,601.268-93.519,542.82a428.977,428.977,0,0,1-34.034-91.7V453Z"/><path class="cls-9" d="M1023.484,453h-11.76v-2.771A425.178,425.178,0,0,1,978,541.107C948.707,599.029,906.324,651.191,853.951,695,749.205,782.609,604.5,836.8,444.663,836.8S140.121,782.609,35.375,695C-17,651.191-59.381,599.029-88.671,541.107A425.178,425.178,0,0,1-122.4,450.229V453Z"/><path class="cls-10" d="M1018.222,453h-11.653v-3.658a421.306,421.306,0,0,1-33.42,90.052c-29.024,57.395-71.022,109.083-122.919,152.49C746.437,778.7,603.047,832.4,444.663,832.4S142.89,778.7,39.1,691.884c-51.9-43.407-93.895-95.1-122.919-152.49a421.36,421.36,0,0,1-33.42-90.052V453Z"/><path class="cls-11" d="M1012.96,453h-11.546v-4.545A417.457,417.457,0,0,1,968.3,537.681c-28.757,56.868-70.37,108.082-121.79,151.091C743.668,774.791,601.594,828,444.663,828s-299-53.2-401.846-139.223C-8.6,645.763-50.217,594.549-78.974,537.681a417.457,417.457,0,0,1-33.114-89.226V453Z"/><path class="cls-12" d="M1007.7,453H996.259v-5.432a413.618,413.618,0,0,1-32.807,88.4C934.961,592.31,893.733,643.049,842.789,685.66,740.9,770.883,600.141,823.594,444.663,823.594S148.427,770.883,46.537,685.66C-4.407,643.049-45.634,592.31-74.126,535.968a413.618,413.618,0,0,1-32.807-88.4V453Z"/><path class="cls-13" d="M1002.436,453H991.1v-6.319a409.688,409.688,0,0,1-32.5,87.573c-28.225,55.816-69.067,106.081-119.535,148.294-100.937,84.426-240.38,136.645-394.4,136.645S151.2,766.974,50.258,682.548C-.21,640.335-41.052,590.07-69.277,534.254a409.741,409.741,0,0,1-32.5-87.573V453Z"/><path class="cls-14" d="M997.174,453H984.528v-1.578q-.73,2.808-1.5,5.6-1.543,5.589-3.247,11.127-3.406,11.075-7.445,21.93a413.4,413.4,0,0,1-18.579,42.459C925.8,587.83,885.34,637.621,835.347,679.436c-99.985,83.629-238.112,135.356-390.684,135.356s-290.7-51.727-390.684-135.356C3.987,637.621-36.47,587.83-64.429,532.541a413.4,413.4,0,0,1-18.579-42.459q-4.035-10.853-7.445-21.93-1.7-5.536-3.246-11.127-.772-2.794-1.5-5.6V453Z"/><path class="cls-15" d="M991.912,453H979.386v-2.519q-.723,2.783-1.488,5.55-1.527,5.536-3.215,11.021-3.374,10.969-7.374,21.722a409.562,409.562,0,0,1-18.4,42.054c-27.692,54.762-67.763,104.079-117.28,145.5C732.594,759.157,595.782,810.39,444.663,810.39S156.732,759.157,57.7,676.324C8.184,634.907-31.888,585.59-59.58,530.828a409.554,409.554,0,0,1-18.4-42.054q-4-10.75-7.375-21.722-1.686-5.484-3.215-11.021-.765-2.769-1.488-5.55V453Z"/><path class="cls-16" d="M986.65,453h-12.4v-3.459q-.717,2.754-1.474,5.5-1.514,5.484-3.184,10.915-3.342,10.865-7.3,21.513a405.442,405.442,0,0,1-18.225,41.65c-27.426,54.236-67.112,103.078-116.152,144.1-98.081,82.037-233.577,132.778-383.243,132.778S159.5,755.248,61.421,673.211c-49.04-41.018-88.727-89.86-116.153-144.1a405.66,405.66,0,0,1-18.225-41.65q-3.959-10.647-7.3-21.513-1.671-5.431-3.185-10.915-.756-2.742-1.474-5.5V453Z"/><path class="cls-17" d="M981.388,453H969.1v-4.4q-.709,2.728-1.459,5.443-1.5,5.43-3.154,10.809-3.309,10.76-7.232,21.3A401.745,401.745,0,0,1,939.209,527.4c-27.159,53.709-66.46,102.077-115.024,142.7C727.057,751.34,592.876,801.588,444.663,801.588S162.27,751.34,65.141,670.1c-48.564-40.62-87.864-88.988-115.024-142.7a401.52,401.52,0,0,1-18.048-41.246q-3.921-10.543-7.233-21.3-1.654-5.379-3.154-10.809-.748-2.715-1.459-5.443V453Z"/><path class="cls-18" d="M976.126,453H963.962v-5.34q-.7,2.7-1.445,5.389-1.485,5.378-3.123,10.7-3.278,10.651-7.162,21.094a397.513,397.513,0,0,1-17.871,40.841c-26.894,53.183-65.809,101.077-113.9,141.3-96.176,80.444-229.042,130.2-375.8,130.2s-279.625-49.755-375.8-130.2c-48.088-40.222-87-88.116-113.9-141.3a397.513,397.513,0,0,1-17.871-40.841q-3.882-10.44-7.162-21.094-1.638-5.326-3.122-10.7-.743-2.688-1.445-5.389V453Z"/><path class="cls-19" d="M970.864,453H957.389v-.945q-1.469,5.323-3.091,10.6-3.245,10.547-7.091,20.885a393.6,393.6,0,0,1-17.7,40.437c-26.627,52.656-65.157,100.076-112.769,139.9-95.223,79.647-226.774,128.91-372.08,128.91s-276.856-49.263-372.08-128.91c-47.612-39.824-86.142-87.244-112.769-139.9a393.6,393.6,0,0,1-17.695-40.437q-3.843-10.336-7.09-20.885-1.623-5.274-3.092-10.6V453Z"/><path class="cls-20" d="M965.6,453h-13.34v-1.939q-1.455,5.271-3.061,10.492-3.212,10.442-7.02,20.676a389.574,389.574,0,0,1-17.517,40.033c-26.361,52.13-64.506,99.075-111.642,138.5-94.271,78.851-224.506,127.621-368.359,127.621S170.575,739.614,76.3,660.763c-47.136-39.426-85.281-86.371-111.642-138.5a389.574,389.574,0,0,1-17.517-40.033q-3.806-10.231-7.02-20.676-1.606-5.221-3.061-10.492V453Z"/><path class="cls-21" d="M960.34,453H947.135v-2.933q-1.44,5.217-3.03,10.386-3.18,10.335-6.949,20.468a385.643,385.643,0,0,1-17.341,39.628c-26.094,51.6-63.854,98.074-110.513,137.1-93.32,78.054-222.239,126.332-364.639,126.332S173.344,735.705,80.025,657.651c-46.66-39.028-84.419-85.5-110.514-137.1A385.861,385.861,0,0,1-47.83,480.921q-3.767-10.129-6.949-20.468-1.588-5.169-3.03-10.386V453Z"/><path class="cls-22" d="M955.078,453h-13.07v-3.927q-1.427,5.165-3,10.28-3.147,10.23-6.878,20.259a382.062,382.062,0,0,1-17.164,39.224c-25.829,51.076-63.2,97.073-109.386,135.7C713.214,731.8,585.61,779.581,444.663,779.581S176.112,731.8,83.745,654.538C37.562,615.909.188,569.912-25.641,518.836A381.837,381.837,0,0,1-42.8,479.612q-3.729-10.026-6.878-20.259-1.573-5.117-3-10.28V453Z"/><path class="cls-23" d="M949.816,453H936.88v-4.921q-1.41,5.11-2.968,10.174-3.114,10.125-6.807,20.05a377.827,377.827,0,0,1-16.987,38.82c-25.562,50.549-62.551,96.072-108.258,134.3-91.415,76.462-217.7,123.754-357.2,123.754s-265.782-47.292-357.2-123.754C41.759,613.2,4.77,567.672-20.792,517.123A377.827,377.827,0,0,1-37.779,478.3q-3.69-9.923-6.807-20.05-1.557-5.062-2.968-10.174V453Z"/><path class="cls-24" d="M944.554,453h-12.8v-5.915q-1.4,5.058-2.937,10.068-3.083,10.02-6.736,19.841a373.916,373.916,0,0,1-16.81,38.415c-25.3,50.024-61.9,95.073-107.131,132.9C707.677,723.979,582.7,770.779,444.663,770.779s-263.014-46.8-353.476-122.465c-45.231-37.832-81.835-82.881-107.131-132.9a373.691,373.691,0,0,1-16.809-38.415q-3.653-9.819-6.737-19.841-1.541-5.01-2.937-10.068V453Z"/><path class="cls-25" d="M939.292,453H926.626v-6.909q-1.381,5-2.906,9.962-3.051,9.914-6.666,19.632A369.776,369.776,0,0,1,900.421,513.7c-25.029,49.5-61.248,94.072-106,131.506-89.51,74.868-213.167,121.176-349.755,121.176S184.418,720.07,94.908,645.2c-44.755-37.434-80.974-82.009-106-131.506a369.776,369.776,0,0,1-16.633-38.011q-3.613-9.715-6.665-19.632-1.525-4.957-2.907-9.962V453Z"/><path class="cls-26" d="M934.03,453H920.1v-2.963q-.719,2.463-1.473,4.916-3.017,9.809-6.594,19.424a365.961,365.961,0,0,1-16.456,37.606c-24.763,48.97-60.6,93.071-104.875,130.107C702.14,716.162,579.8,761.976,444.663,761.976S187.187,716.162,98.629,642.09C54.35,605.054,18.517,560.953-6.247,511.983A366.4,366.4,0,0,1-22.7,474.377q-3.574-9.613-6.594-19.424-.755-2.452-1.473-4.916V453Z"/><path class="cls-27" d="M928.768,453H914.984v-4.01q-.711,2.438-1.457,4.863-2.985,9.7-6.524,19.215a362.039,362.039,0,0,1-16.279,37.2c-24.5,48.444-59.944,92.07-103.747,128.708-87.606,73.275-208.632,118.6-342.314,118.6s-254.708-45.322-342.314-118.6C58.547,602.34,23.1,558.714-1.4,510.27a362.257,362.257,0,0,1-16.279-37.2q-3.537-9.51-6.524-19.215-.745-2.425-1.457-4.863V453Z"/><path class="cls-28" d="M923.506,453H908.43v-.247q-2.952,9.6-6.452,19.006a358.335,358.335,0,0,1-16.1,36.8c-24.231,47.917-59.293,91.069-102.62,127.308C696.6,708.344,576.892,753.174,444.663,753.174S192.724,708.344,106.07,635.865C62.744,599.626,27.681,556.474,3.45,508.557a358.553,358.553,0,0,1-16.1-36.8q-3.5-9.407-6.452-19.006V453Z"/><path class="cls-29" d="M918.244,453h-14.91v-1.347q-2.919,9.492-6.382,18.8a354,354,0,0,1-15.925,36.394c-23.964,47.39-58.641,90.068-101.492,125.909-85.7,71.683-204.1,116.019-334.872,116.019S195.492,704.436,109.791,632.753C66.94,596.912,32.263,554.234,8.3,506.844A354.222,354.222,0,0,1-7.626,470.45q-3.459-9.3-6.382-18.8V453Z"/><path class="cls-30" d="M912.982,453H898.238v-2.447q-2.888,9.387-6.311,18.588a350.407,350.407,0,0,1-15.748,35.989c-23.7,46.864-57.99,89.068-100.365,124.511-84.749,70.886-201.828,114.73-331.151,114.73s-246.4-43.844-331.151-114.73C71.137,594.2,36.846,551.994,13.147,505.13A350.407,350.407,0,0,1-2.6,469.141q-3.42-9.2-6.311-18.588V453Z"/><path class="cls-31" d="M907.72,453H893.141v-3.547q-2.854,9.282-6.239,18.38a346.38,346.38,0,0,1-15.572,35.584c-23.432,46.338-57.338,88.067-99.236,123.112C688.3,696.619,572.533,739.97,444.663,739.97s-243.634-43.351-327.43-113.441C75.334,591.484,41.428,549.755,18,503.417A346.373,346.373,0,0,1,2.425,467.833q-3.382-9.1-6.24-18.38V453Z"/><path class="cls-32" d="M902.458,453H888.045v-4.647q-2.823,9.177-6.169,18.171a342.451,342.451,0,0,1-15.394,35.18c-23.166,45.811-56.687,87.066-98.109,121.713C685.528,692.71,571.08,735.569,444.663,735.569S203.8,692.71,120.953,623.417C79.531,588.77,46.01,547.515,22.844,501.7A342.669,342.669,0,0,1,7.45,466.524q-3.343-8.993-6.169-18.171V453Z"/><path class="cls-33" d="M897.2,453H882.949v-5.747q-2.79,9.071-6.1,17.962a338.659,338.659,0,0,1-15.218,34.776c-22.9,45.284-56.035,86.065-96.981,120.314C682.76,688.8,569.627,731.167,444.663,731.167S206.567,688.8,124.674,620.3c-40.946-34.249-74.082-75.03-96.981-120.314a338.434,338.434,0,0,1-15.217-34.776q-3.306-8.889-6.1-17.962V453Z"/><path class="cls-34" d="M891.934,453H877.852v-6.847q-2.757,8.965-6.027,17.753a334.635,334.635,0,0,1-15.04,34.372c-22.633,44.757-55.384,85.064-95.854,118.914-80.94,67.7-192.758,109.574-316.268,109.574S209.335,684.893,128.4,617.192c-40.47-33.85-73.221-74.157-95.854-118.914A334.635,334.635,0,0,1,17.5,463.906q-3.267-8.786-6.027-17.753V453Z"/><path class="cls-35" d="M886.672,453h-15.31v-3.528q-.714,2.205-1.458,4.4-1.49,4.386-3.1,8.727a330.625,330.625,0,0,1-14.864,33.968C829.57,540.8,797.2,580.628,757.21,614.08c-79.987,66.9-190.49,108.285-312.547,108.285S212.1,680.984,132.116,614.08C92.122,580.628,59.757,540.8,37.39,496.565A330.625,330.625,0,0,1,22.526,462.6q-1.614-4.341-3.1-8.727-.744-2.193-1.457-4.4V453Z"/><path class="cls-36" d="M881.41,453H864.841v-.335q-1.471,4.333-3.067,8.624a326.663,326.663,0,0,1-14.686,33.562c-22.1,43.705-54.081,83.063-93.6,116.117-79.036,66.107-188.223,107-308.827,107s-229.791-40.889-308.826-107c-39.518-33.054-71.5-72.412-93.6-116.117a326.663,326.663,0,0,1-14.686-33.562q-1.6-4.29-3.067-8.624V453Z"/><path class="cls-37" d="M876.148,453H859.779v-1.54q-1.454,4.281-3.03,8.52a322.558,322.558,0,0,1-14.51,33.158c-21.834,43.178-53.429,82.062-92.47,114.718-78.084,65.311-185.955,105.706-305.106,105.706S217.641,673.167,139.557,607.856c-39.041-32.656-70.636-71.54-92.47-114.718a322.776,322.776,0,0,1-14.51-33.158q-1.575-4.238-3.03-8.52V453Z"/><path class="cls-38" d="M870.886,453H854.717v-2.745q-1.437,4.23-2.993,8.416a319.072,319.072,0,0,1-14.333,32.754c-21.568,42.651-52.777,81.061-91.343,113.319-77.131,64.514-183.687,104.417-301.385,104.417s-224.254-39.9-301.385-104.417C104.713,572.486,73.5,534.076,51.935,491.425A318.846,318.846,0,0,1,37.6,458.671q-1.557-4.186-2.993-8.416V453Z"/><path class="cls-39" d="M865.624,453h-15.97v-3.95q-1.418,4.177-2.956,8.312a314.741,314.741,0,0,1-14.156,32.35c-21.3,42.125-52.125,80.061-90.215,111.919C666.148,665.349,560.908,704.76,444.663,704.76S223.178,665.349,147,601.631c-38.089-31.858-68.913-69.794-90.215-111.919a314.741,314.741,0,0,1-14.156-32.35q-1.537-4.134-2.956-8.312V453Z"/><path class="cls-40" d="M860.362,453h-15.77v-5.155q-1.4,4.125-2.919,8.208A311.037,311.037,0,0,1,827.694,488c-21.036,41.6-51.474,79.06-89.088,110.52C663.38,661.441,559.455,700.358,444.663,700.358S225.947,661.441,150.72,598.519C113.107,567.059,82.668,529.6,61.632,488a310.812,310.812,0,0,1-13.978-31.946q-1.52-4.082-2.92-8.208V453Z"/><path class="cls-41" d="M855.1,453H839.529v-6.36q-1.383,4.074-2.882,8.105a306.77,306.77,0,0,1-13.8,31.54c-20.769,41.072-50.822,78.06-87.959,109.122C660.611,657.532,558,695.957,444.663,695.957s-215.948-38.425-290.222-100.55c-37.138-31.062-67.191-68.05-87.96-109.122a306.77,306.77,0,0,1-13.8-31.54q-1.5-4.032-2.882-8.105V453Z"/><path class="cls-42" d="M849.838,453H833.073v-3.554q-.711,2-1.451,3.99A302.97,302.97,0,0,1,818,484.572c-20.5,40.545-50.171,77.059-86.832,107.723-73.322,61.328-174.616,99.261-286.5,99.261s-213.179-37.933-286.5-99.261C121.5,561.631,91.832,525.117,71.329,484.572A303.407,303.407,0,0,1,57.7,453.436q-.739-1.99-1.451-3.99V453Z"/><path class="cls-43" d="M844.576,453H826.6v-.873a299.259,299.259,0,0,1-13.447,30.732c-20.237,40.019-49.52,76.058-85.705,106.324-72.37,60.532-172.348,97.972-282.781,97.972s-210.411-37.44-282.781-97.972c-36.185-30.266-65.468-66.3-85.7-106.324A299.266,299.266,0,0,1,62.73,452.127V453Z"/><path class="cls-44" d="M839.314,453H821.571v-2.182A295.249,295.249,0,0,1,808.3,481.146c-19.97,39.492-48.868,75.057-84.577,104.925-71.418,59.735-170.08,96.682-279.06,96.682S237.021,645.806,165.6,586.071C129.894,556.2,101,520.638,81.026,481.146a295.467,295.467,0,0,1-13.271-30.328V453Z"/><path class="cls-45" d="M834.052,453H816.545v-3.491a291.224,291.224,0,0,1-13.093,29.924C783.747,518.4,755.235,553.489,720,582.958c-70.465,58.94-167.812,95.394-275.339,95.394S239.789,641.9,169.324,582.958c-35.233-29.469-63.745-64.56-83.449-103.525a291.232,291.232,0,0,1-13.094-29.924V453Z"/><path class="cls-46" d="M828.79,453H811.52v-4.8A287.512,287.512,0,0,1,798.6,477.72c-19.438,38.439-47.565,73.055-82.321,102.126-69.514,58.143-165.545,94.105-271.619,94.105s-202.1-35.962-271.618-94.105c-34.757-29.071-62.884-63.687-82.322-102.126A287.512,287.512,0,0,1,77.806,448.2V453Z"/><path class="cls-47" d="M823.528,453H806.5v-6.108a283.6,283.6,0,0,1-12.74,29.114c-19.172,37.913-46.914,72.055-81.194,100.728C644,634.08,549.284,669.55,444.663,669.55s-199.337-35.47-267.9-92.816c-34.28-28.673-62.022-62.815-81.193-100.728a283.383,283.383,0,0,1-12.74-29.114V453Z"/><path class="cls-48" d="M818.266,453h-19.63v-.117q-1.468,3.63-3.041,7.22-3.143,7.179-6.689,14.19c-18.9,37.386-46.262,71.054-80.066,99.329-67.609,56.55-161.009,91.526-264.177,91.526S248.1,630.172,180.486,573.622c-33.8-28.275-61.16-61.943-80.066-99.329q-3.544-7.01-6.689-14.19-1.572-3.59-3.041-7.22V453Z"/><path class="cls-49" d="M813,453H793.65v-1.529q-1.448,3.579-3,7.118-3.1,7.079-6.6,13.991c-18.639,36.859-45.611,70.053-78.939,97.93-66.656,55.753-158.741,90.237-260.456,90.237s-193.8-34.484-260.456-90.237c-33.328-27.877-60.3-61.071-78.938-97.93q-3.5-6.91-6.6-13.991-1.548-3.538-3-7.118V453Z"/><path class="cls-50" d="M807.742,453H788.665v-2.941q-1.428,3.528-2.955,7.017-3.054,6.976-6.5,13.791C760.836,507.2,734.25,539.919,701.4,567.4c-65.7,54.956-156.474,88.948-256.735,88.948S253.632,622.354,187.928,567.4c-32.852-27.479-59.438-60.2-77.811-96.531q-3.444-6.813-6.5-13.791-1.527-3.489-2.954-7.017V453Z"/><path class="cls-51" d="M802.48,453h-18.8v-4.352q-1.407,3.477-2.912,6.915-3.009,6.876-6.406,13.591c-18.107,35.806-44.307,68.051-76.683,95.131-64.752,54.161-154.207,87.659-253.015,87.659s-188.262-33.5-253.014-87.659c-32.376-27.08-58.577-59.325-76.683-95.131q-3.4-6.714-6.407-13.591-1.5-3.438-2.912-6.915V453Z"/><path class="cls-52" d="M797.218,453H778.694v-5.764q-1.386,3.426-2.869,6.813-2.966,6.775-6.313,13.392c-17.84,35.279-43.655,67.05-75.555,93.732-63.8,53.364-151.939,86.37-249.294,86.37s-185.494-33.006-249.294-86.37c-31.9-26.682-57.715-58.453-75.555-93.732q-3.345-6.615-6.312-13.392-1.483-3.387-2.869-6.813V453Z"/><path class="cls-53" d="M791.956,453H770.882v-.464q-2.922,6.674-6.218,13.191c-17.574,34.753-43,66.05-74.428,92.334-62.848,52.567-149.671,85.081-245.573,85.081S261.938,610.628,199.09,558.061c-31.423-26.284-56.853-57.581-74.427-92.334q-3.3-6.516-6.219-13.191V453Z"/><path class="cls-54" d="M786.694,453H765.939v-1.977q-2.877,6.571-6.124,12.991c-17.308,34.227-42.352,65.05-73.3,90.935-61.895,51.771-147.4,83.792-241.852,83.792S264.706,606.72,202.811,554.949c-30.948-25.885-55.992-56.708-73.3-90.935q-3.244-6.417-6.124-12.991V453Z"/><path class="cls-55" d="M781.432,453H761v-3.491q-2.834,6.472-6.03,12.792c-17.042,33.7-41.7,64.049-72.173,89.536-60.943,50.974-145.135,82.5-238.131,82.5s-177.188-31.528-238.131-82.5C176.06,526.35,151.4,496,134.36,462.3q-3.2-6.318-6.03-12.792V453Z"/><path class="cls-56" d="M776.17,453H756.054v-5q-2.788,6.37-5.936,12.592c-16.775,33.173-41.049,63.048-71.044,88.137-59.991,50.177-142.868,81.213-234.411,81.213S270.244,598.9,210.253,548.725c-30-25.089-54.27-54.964-71.045-88.137q-3.145-6.221-5.936-12.592v5Z"/><path class="cls-57" d="M770.908,453h-19.8v-6.517q-2.743,6.268-5.841,12.392c-16.509,32.646-40.4,62.047-69.917,86.737-59.039,49.382-140.6,79.925-230.69,79.925s-171.651-30.543-230.69-79.925c-29.519-24.69-53.408-54.091-69.916-86.737q-3.1-6.122-5.842-12.392V453Z"/><path class="cls-58" d="M765.646,453H743.381v-1.9q-1.437,3.048-2.96,6.06c-16.242,32.12-39.746,61.046-68.789,85.338-58.086,48.585-138.332,78.636-226.969,78.636S275.781,591.085,217.694,542.5c-29.043-24.292-52.546-53.218-68.789-85.338q-1.523-3.012-2.96-6.06V453Z"/><path class="cls-59" d="M760.384,453h-21.9v-3.512q-1.413,3-2.911,5.96c-15.977,31.594-39.1,60.046-67.662,83.94-57.134,47.789-136.064,77.346-223.248,77.346s-166.114-29.557-223.248-77.346c-28.567-23.894-51.685-52.346-67.661-83.94q-1.5-2.961-2.912-5.96V453Z"/><path class="cls-60" d="M755.122,453H733.587v-5.126q-1.39,2.949-2.863,5.861c-15.71,31.067-38.443,59.045-66.534,82.541-56.182,46.992-133.8,76.057-219.527,76.057s-163.345-29.065-219.527-76.057c-28.091-23.5-50.824-51.474-66.534-82.541q-1.473-2.913-2.863-5.861V453Z"/><path class="cls-61" d="M749.859,453H725.876v-.978c-15.444,30.541-37.792,58.044-65.406,81.142-55.23,46.2-131.529,74.768-215.807,74.768s-160.577-28.573-215.806-74.768c-27.615-23.1-49.963-50.6-65.406-81.142V453Z"/><path class="cls-62" d="M744.6,453h-23.57v-2.691c-15.177,30.014-37.14,57.043-64.278,79.743-54.278,45.4-129.261,73.478-212.086,73.478s-157.808-28.079-212.086-73.478c-27.138-22.7-49.1-49.729-64.278-79.743V453Z"/><path class="cls-63" d="M739.335,453H716.179v-4.4c-14.912,29.487-36.488,56.042-63.151,78.343-53.325,44.6-126.993,72.19-208.365,72.19S289.624,571.542,236.3,526.939c-26.662-22.3-48.239-48.856-63.15-78.343V453Z"/><path class="cls-64" d="M734.073,453H711.33v-6.118c-14.645,28.961-35.836,55.042-62.023,76.945-52.373,43.806-124.725,70.9-204.644,70.9s-152.271-27.095-204.644-70.9c-26.186-21.9-47.378-47.984-62.023-76.945V453Z"/><path class="cls-65" d="M728.811,453h-25.1v-2.533q-1.424,2.632-2.92,5.23-2.992,5.2-6.275,10.248a234.1,234.1,0,0,1-14.233,19.6,254,254,0,0,1-34.7,35.174c-51.42,43.01-122.457,69.612-200.923,69.612s-149.5-26.6-200.923-69.612a254.109,254.109,0,0,1-34.7-35.174,234.1,234.1,0,0,1-14.233-19.6q-3.281-5.052-6.275-10.248-1.5-2.6-2.919-5.23V453Z"/><path class="cls-66" d="M723.549,453H698.914v-4.344q-1.4,2.583-2.866,5.133-2.937,5.1-6.159,10.058A229.749,229.749,0,0,1,675.92,483.08,249.4,249.4,0,0,1,641.866,517.6c-50.469,42.213-120.191,68.322-197.2,68.322s-146.734-26.109-197.2-68.322a249.412,249.412,0,0,1-34.055-34.523,229.749,229.749,0,0,1-13.969-19.233q-3.221-4.957-6.159-10.058-1.468-2.55-2.865-5.133V453Z"/><path class="cls-67" d="M718.287,453H691.305v-1.119q-2.881,5-6.043,9.868a225.561,225.561,0,0,1-13.7,18.87,244.708,244.708,0,0,1-33.412,33.872c-49.517,41.416-117.923,67.033-193.482,67.033S300.7,555.907,251.181,514.491a244.644,244.644,0,0,1-33.411-33.872,225.347,225.347,0,0,1-13.706-18.87q-3.159-4.865-6.043-9.868V453Z"/><path class="cls-68" d="M713.025,453H686.562v-3.027q-2.826,4.906-5.926,9.678a221.233,221.233,0,0,1-13.443,18.507,239.947,239.947,0,0,1-32.769,33.221C585.86,552,518.769,577.123,444.663,577.123S303.466,552,254.9,511.379a239.947,239.947,0,0,1-32.769-33.221,220.994,220.994,0,0,1-13.442-18.507q-3.1-4.77-5.927-9.678V453Z"/><path class="cls-69" d="M707.763,453H681.819v-4.935q-2.772,4.809-5.81,9.488A217.061,217.061,0,0,1,662.83,475.7,235.292,235.292,0,0,1,630.7,508.266c-47.612,39.824-113.387,64.456-186.04,64.456s-138.428-24.632-186.04-64.456A235.292,235.292,0,0,1,226.5,475.7a216.822,216.822,0,0,1-13.178-18.145q-3.039-4.677-5.811-9.488V453Z"/><path class="cls-70" d="M702.5,453H677.076v-6.844q-2.716,4.714-5.694,9.3a212.873,212.873,0,0,1-12.915,17.782,230.6,230.6,0,0,1-31.485,31.917c-46.659,39.027-111.119,63.166-182.319,63.166S309,544.181,262.344,505.154a230.587,230.587,0,0,1-31.484-31.917,212.658,212.658,0,0,1-12.916-17.782q-2.976-4.583-5.694-9.3V453Z"/><path class="cls-71" d="M697.239,453H669.608v-4.165q-1.395,2.277-2.853,4.522A208.244,208.244,0,0,1,654.1,470.776a225.938,225.938,0,0,1-30.841,31.266c-45.708,38.231-108.852,61.877-178.6,61.877s-132.891-23.646-178.6-61.877a225.89,225.89,0,0,1-30.842-31.266,208.471,208.471,0,0,1-12.652-17.419q-1.458-2.244-2.852-4.522V453Z"/><path class="cls-72" d="M691.977,453H662.128v-1.74a203.877,203.877,0,0,1-12.388,17.055,221.185,221.185,0,0,1-30.2,30.615c-44.755,37.434-106.584,60.588-174.878,60.588S314.541,536.364,269.785,498.93a221.241,221.241,0,0,1-30.2-30.615A204.1,204.1,0,0,1,227.2,451.26V453Z"/><path class="cls-73" d="M686.715,453H657.5v-3.838a199.463,199.463,0,0,1-12.124,16.692,216.488,216.488,0,0,1-29.557,29.964c-43.8,36.638-104.316,59.3-171.157,59.3s-127.354-22.66-171.157-59.3a216.48,216.48,0,0,1-29.556-29.964,199.475,199.475,0,0,1-12.125-16.692V453Z"/><path class="cls-74" d="M681.453,453H652.874v-5.936a195.24,195.24,0,0,1-11.861,16.33A211.776,211.776,0,0,1,612.1,492.706c-42.85,35.841-102.048,58.009-167.436,58.009s-124.585-22.168-167.436-58.009a211.776,211.776,0,0,1-28.914-29.312,195.467,195.467,0,0,1-11.861-16.33V453Z"/><path class="cls-75" d="M676.191,453H645.517v-3.948q-1.4,2.026-2.845,4.024-2.9,3.991-6.022,7.857a207.017,207.017,0,0,1-28.272,28.66c-41.9,35.045-99.78,56.721-163.715,56.721s-121.817-21.676-163.715-56.721a207.073,207.073,0,0,1-28.272-28.66q-3.12-3.864-6.022-7.857-1.45-2-2.844-4.024V453Z"/><path class="cls-76" d="M670.929,453H638.172v-2.207q-2.835,3.9-5.885,7.679a202.425,202.425,0,0,1-27.629,28.009c-40.947,34.249-97.513,55.432-159.995,55.432S325.615,520.73,284.669,486.481a202.312,202.312,0,0,1-27.629-28.009q-3.051-3.775-5.886-7.679V453Z"/><path class="cls-77" d="M665.667,453h-32v-4.489q-2.769,3.811-5.749,7.5a197.664,197.664,0,0,1-26.986,27.358c-39.994,33.452-95.245,54.142-156.274,54.142s-116.28-20.69-156.274-54.142A197.664,197.664,0,0,1,261.4,456.011q-2.979-3.687-5.749-7.5V453Z"/><path class="cls-78" d="M660.405,453H629.172v-6.771q-2.7,3.72-5.612,7.321a192.911,192.911,0,0,1-26.344,26.707c-39.042,32.655-92.977,52.853-152.553,52.853s-113.511-20.2-152.553-52.853a192.911,192.911,0,0,1-26.344-26.707q-2.907-3.6-5.611-7.321V453Z"/><path class="cls-79" d="M655.143,453H619.2v-1.91a188.263,188.263,0,0,1-25.7,26.055C555.406,509,502.786,528.709,444.663,528.709S333.921,509,295.831,477.145a188.255,188.255,0,0,1-25.7-26.055V453Z"/><path class="cls-80" d="M649.881,453H614.833v-4.371a183.5,183.5,0,0,1-25.059,25.4c-37.137,31.062-88.441,50.275-145.111,50.275S336.689,505.1,299.552,474.033a183.558,183.558,0,0,1-25.059-25.4V453Z"/><path class="cls-81" d="M644.619,453H610.47v-6.832a178.792,178.792,0,0,1-24.416,24.752c-36.185,30.266-86.174,48.986-141.391,48.986s-105.2-18.72-141.39-48.986a178.743,178.743,0,0,1-24.417-24.752V453Z"/><path class="cls-82" d="M639.357,453H600.679v-2.908q-2.8,3.135-5.78,6.152-5.952,6.031-12.566,11.564c-35.233,29.47-83.907,47.7-137.67,47.7s-102.437-18.227-137.669-47.7q-6.608-5.526-12.566-11.564-2.976-3.017-5.78-6.152V453Z"/><path class="cls-83" d="M634.1,453H596.462v-5.541q-2.727,3.05-5.624,5.985-5.79,5.87-12.226,11.252C544.331,493.369,496.973,511.1,444.663,511.1S345,493.369,310.714,464.7q-6.428-5.376-12.226-11.252-2.9-2.934-5.624-5.985V453Z"/><path class="cls-84" d="M628.833,453H586.778v-2.355q-5.63,5.706-11.887,10.939C541.563,489.46,495.52,506.7,444.663,506.7s-96.9-17.242-130.228-45.118q-6.249-5.228-11.887-10.939V453Z"/><path class="cls-85" d="M623.571,453H582.717v-5.155q-5.469,5.543-11.547,10.627c-32.376,27.08-77.1,43.829-126.507,43.829s-94.131-16.749-126.507-43.829q-6.071-5.077-11.547-10.627V453Z"/><path class="cls-86" d="M618.309,453H573.2v-2.685q-2.8,2.58-5.749,5.045c-31.424,26.283-74.836,42.54-122.787,42.54S353.3,481.643,321.877,455.36q-2.946-2.465-5.75-5.045V453Z"/><path class="cls-87" d="M613.047,453H563.729v-.753C533.257,477.734,491.161,493.5,444.663,493.5S356.069,477.734,325.6,452.247V453Z"/><path class="cls-88" d="M607.785,453H560.008v-3.865c-29.519,24.691-70.3,39.962-115.345,39.962s-85.825-15.271-115.345-39.962V453Z"/><path class="cls-89" d="M602.523,453H556.287v-6.977C527.72,469.917,488.255,484.7,444.663,484.7s-83.057-14.779-111.624-38.673V453Z"/><path class="cls-90" d="M597.261,453H541.73v-1.851q-5.654,3.9-11.748,7.347a163.478,163.478,0,0,1-25.921,11.768,180.876,180.876,0,0,1-118.8,0A163.519,163.519,0,0,1,359.344,458.5q-6.088-3.44-11.747-7.347V453Z"/><path class="cls-91" d="M592,453H538.383v-5.247q-5.458,3.767-11.343,7.094a157.946,157.946,0,0,1-25.027,11.362,174.642,174.642,0,0,1-114.7,0,157.986,157.986,0,0,1-25.027-11.362q-5.878-3.322-11.342-7.094V453Z"/><path class="cls-92" d="M586.737,453H524.1v-1.8a152.327,152.327,0,0,1-24.133,10.957,168.425,168.425,0,0,1-110.6,0A152.368,152.368,0,0,1,365.228,451.2V453Z"/><path class="cls-93" d="M581.475,453H521.156v-5.452a146.612,146.612,0,0,1-23.239,10.55,162.171,162.171,0,0,1-106.507,0,146.664,146.664,0,0,1-23.24-10.55V453Z"/><path class="cls-94" d="M576.213,453H507.368v-3.591q-5.592,2.541-11.5,4.634a155.934,155.934,0,0,1-102.41,0q-5.9-2.088-11.5-4.634V453Z"/><path class="cls-95" d="M570.951,453H493.82v-3.013a149.7,149.7,0,0,1-98.314,0V453Z"/><path class="cls-96" d="M565.689,453H469.054v-1.169a145.707,145.707,0,0,1-48.782,0V453Z"/></g><path id="SVGID-4" data-name="SVGID" class="cls-2" d="M1957,926,716.125,923,714,685c149.651-144.461,366.61-238,620.083-238,249.13,0,472.181,88.95,621.841,229.159Z"/><g class="cls-97"><rect class="cls-98" x="714" y="447" width="1243" height="479"/><path class="cls-99" d="M1903.27,446h-12.08v-.11a436.833,436.833,0,0,1-34.647,93.357c-30.089,59.5-73.628,113.085-127.429,158.086-107.6,90-256.255,145.669-420.451,145.669s-312.848-55.667-420.45-145.669c-53.8-45-97.341-98.585-127.429-158.086a436.726,436.726,0,0,1-34.647-93.357V446Z"/><path class="cls-100" d="M1898.008,446h-11.974v-1a432.9,432.9,0,0,1-34.34,92.53c-29.822,58.975-72.976,112.085-126.3,156.688C1618.742,783.426,1471.406,838.6,1308.663,838.6s-310.079-55.174-416.73-144.379c-53.325-44.6-96.479-97.713-126.3-156.688A432.9,432.9,0,0,1,731.292,445v1Z"/><path class="cls-101" d="M1892.746,446h-11.867v-1.884a429.027,429.027,0,0,1-34.033,91.7c-29.556,58.448-72.325,111.084-125.174,155.289-105.7,88.408-251.719,143.09-413.009,143.09s-307.311-54.682-413.009-143.09C842.805,646.9,800.037,594.268,770.481,535.82a428.977,428.977,0,0,1-34.034-91.7V446Z"/><path class="cls-102" d="M1887.484,446h-11.76v-2.771A425.178,425.178,0,0,1,1842,534.107c-29.29,57.922-71.673,110.084-124.046,153.89-104.746,87.612-249.451,141.8-409.288,141.8S1004.121,775.609,899.375,688C847,644.191,804.619,592.029,775.329,534.107A425.178,425.178,0,0,1,741.6,443.229V446Z"/><path class="cls-103" d="M1882.222,446h-11.653v-3.658a421.306,421.306,0,0,1-33.42,90.052c-29.024,57.395-71.022,109.083-122.919,152.49C1610.437,771.7,1467.047,825.4,1308.663,825.4S1006.89,771.7,903.1,684.884c-51.9-43.407-93.895-95.1-122.919-152.49a421.36,421.36,0,0,1-33.42-90.052V446Z"/><path class="cls-104" d="M1876.96,446h-11.546v-4.545a417.457,417.457,0,0,1-33.114,89.226c-28.757,56.868-70.37,108.082-121.79,151.091C1607.668,767.791,1465.594,821,1308.663,821s-299-53.2-401.846-139.223c-51.421-43.009-93.034-94.223-121.791-151.091a417.457,417.457,0,0,1-33.114-89.226V446Z"/><path class="cls-105" d="M1871.7,446h-11.439v-5.432a413.618,413.618,0,0,1-32.807,88.4c-28.491,56.342-69.719,107.081-120.663,149.692-101.889,85.223-242.648,137.934-398.126,137.934S1012.427,763.883,910.537,678.66c-50.944-42.611-92.171-93.35-120.663-149.692a413.618,413.618,0,0,1-32.807-88.4V446Z"/><path class="cls-106" d="M1866.436,446H1855.1v-6.319a409.688,409.688,0,0,1-32.5,87.573c-28.225,55.816-69.067,106.081-119.535,148.294-100.937,84.426-240.38,136.645-394.4,136.645s-293.468-52.219-394.4-136.645c-50.468-42.213-91.31-92.478-119.535-148.294a409.741,409.741,0,0,1-32.5-87.573V446Z"/><path class="cls-107" d="M1861.174,446h-12.646v-1.578q-.731,2.808-1.5,5.6-1.543,5.589-3.247,11.127-3.407,11.075-7.445,21.93a413.4,413.4,0,0,1-18.579,42.459c-27.959,55.289-68.415,105.08-118.408,146.895-99.985,83.629-238.112,135.356-390.684,135.356s-290.7-51.727-390.684-135.356c-49.992-41.815-90.449-91.606-118.408-146.895a413.4,413.4,0,0,1-18.579-42.459q-4.035-10.853-7.445-21.93-1.7-5.536-3.246-11.127-.773-2.794-1.5-5.6V446Z"/><path class="cls-108" d="M1855.912,446h-12.526v-2.519q-.723,2.783-1.488,5.55-1.527,5.536-3.215,11.021-3.374,10.969-7.374,21.722a409.562,409.562,0,0,1-18.4,42.054c-27.692,54.762-67.763,104.079-117.28,145.5-99.032,82.833-235.844,134.066-386.963,134.066S1020.732,752.157,921.7,669.324c-49.516-41.417-89.588-90.734-117.28-145.5a409.554,409.554,0,0,1-18.4-42.054q-4-10.75-7.375-21.722-1.686-5.484-3.215-11.021-.765-2.769-1.488-5.55V446Z"/><path class="cls-109" d="M1850.65,446h-12.405v-3.459q-.717,2.754-1.474,5.5-1.514,5.484-3.184,10.915-3.342,10.865-7.3,21.513a405.442,405.442,0,0,1-18.225,41.65c-27.426,54.236-67.112,103.078-116.152,144.1-98.081,82.037-233.577,132.778-383.243,132.778S1023.5,748.248,925.421,666.211c-49.04-41.018-88.727-89.86-116.153-144.1a405.66,405.66,0,0,1-18.225-41.65q-3.959-10.647-7.3-21.513-1.671-5.431-3.185-10.915-.756-2.742-1.474-5.5V446Z"/><path class="cls-110" d="M1845.388,446H1833.1v-4.4q-.709,2.728-1.459,5.443-1.5,5.43-3.154,10.809-3.309,10.76-7.232,21.3a401.745,401.745,0,0,1-18.049,41.246c-27.159,53.709-66.46,102.077-115.024,142.7-97.128,81.241-231.309,131.489-379.522,131.489S1026.27,744.34,929.141,663.1c-48.564-40.62-87.864-88.988-115.024-142.7a401.52,401.52,0,0,1-18.048-41.246q-3.921-10.543-7.233-21.3-1.655-5.379-3.154-10.809-.749-2.715-1.459-5.443V446Z"/><path class="cls-111" d="M1840.126,446h-12.164v-5.34q-.7,2.7-1.445,5.389-1.485,5.378-3.123,10.7-3.277,10.651-7.162,21.094a397.513,397.513,0,0,1-17.871,40.841c-26.894,53.183-65.809,101.077-113.9,141.3-96.176,80.444-229.042,130.2-375.8,130.2s-279.625-49.755-375.8-130.2c-48.088-40.222-87-88.116-113.9-141.3a397.513,397.513,0,0,1-17.871-40.841q-3.882-10.44-7.162-21.094-1.638-5.326-3.122-10.7-.742-2.688-1.445-5.389V446Z"/><path class="cls-112" d="M1834.864,446h-13.475v-.945q-1.468,5.323-3.091,10.6-3.245,10.547-7.091,20.885a393.6,393.6,0,0,1-17.7,40.437c-26.627,52.656-65.157,100.076-112.769,139.9-95.223,79.647-226.774,128.91-372.08,128.91s-276.856-49.263-372.08-128.91c-47.612-39.824-86.142-87.244-112.769-139.9a393.6,393.6,0,0,1-17.695-40.437q-3.843-10.336-7.09-20.885-1.623-5.274-3.092-10.6V446Z"/><path class="cls-113" d="M1829.6,446h-13.34v-1.939q-1.455,5.271-3.061,10.492-3.212,10.442-7.02,20.676a389.574,389.574,0,0,1-17.517,40.033c-26.361,52.13-64.506,99.075-111.642,138.5-94.271,78.851-224.506,127.621-368.359,127.621S1034.575,732.614,940.3,653.763c-47.136-39.426-85.281-86.371-111.642-138.5a389.574,389.574,0,0,1-17.517-40.033q-3.806-10.231-7.02-20.676-1.607-5.221-3.061-10.492V446Z"/><path class="cls-114" d="M1824.34,446h-13.2v-2.933q-1.44,5.217-3.03,10.386-3.18,10.335-6.949,20.468a385.643,385.643,0,0,1-17.341,39.628c-26.094,51.6-63.854,98.074-110.513,137.1-93.32,78.054-222.239,126.332-364.639,126.332s-271.319-48.278-364.638-126.332c-46.66-39.028-84.419-85.5-110.514-137.1a385.861,385.861,0,0,1-17.341-39.628q-3.766-10.129-6.949-20.468-1.588-5.169-3.03-10.386V446Z"/><path class="cls-115" d="M1819.078,446h-13.07v-3.927q-1.427,5.165-3,10.28-3.147,10.23-6.878,20.259a382.062,382.062,0,0,1-17.164,39.224c-25.829,51.076-63.2,97.073-109.386,135.7-92.367,77.258-219.971,125.043-360.918,125.043S1040.112,724.8,947.745,647.538c-46.183-38.629-83.557-84.626-109.386-135.7A381.837,381.837,0,0,1,821.2,472.612q-3.729-10.026-6.878-20.259-1.573-5.117-3-10.28V446Z"/><path class="cls-116" d="M1813.816,446H1800.88v-4.921q-1.41,5.11-2.968,10.174-3.114,10.125-6.807,20.05a377.827,377.827,0,0,1-16.987,38.82c-25.562,50.549-62.551,96.072-108.258,134.3-91.415,76.462-217.7,123.754-357.2,123.754s-265.782-47.292-357.2-123.754c-45.707-38.231-82.7-83.754-108.258-134.3a377.827,377.827,0,0,1-16.987-38.82q-3.69-9.923-6.807-20.05-1.557-5.062-2.968-10.174V446Z"/><path class="cls-117" d="M1808.554,446h-12.8v-5.915q-1.395,5.058-2.937,10.068-3.083,10.02-6.736,19.841a373.916,373.916,0,0,1-16.81,38.415c-25.3,50.024-61.9,95.073-107.131,132.9-90.462,75.665-215.435,122.465-353.476,122.465s-263.014-46.8-353.476-122.465c-45.231-37.832-81.835-82.881-107.131-132.9a373.691,373.691,0,0,1-16.809-38.415q-3.652-9.819-6.737-19.841-1.541-5.01-2.937-10.068V446Z"/><path class="cls-118" d="M1803.292,446h-12.666v-6.909q-1.382,5-2.906,9.962-3.051,9.914-6.666,19.632a369.776,369.776,0,0,1-16.633,38.011c-25.029,49.5-61.248,94.072-106,131.506-89.51,74.868-213.167,121.176-349.755,121.176S1048.418,713.07,958.908,638.2c-44.755-37.434-80.974-82.009-106-131.506a369.776,369.776,0,0,1-16.633-38.011q-3.614-9.715-6.665-19.632-1.525-4.957-2.907-9.962V446Z"/><path class="cls-119" d="M1798.03,446H1784.1v-2.963q-.718,2.463-1.473,4.916-3.016,9.809-6.594,19.424a365.961,365.961,0,0,1-16.456,37.606c-24.763,48.97-60.6,93.071-104.875,130.107-88.558,74.072-210.9,119.886-346.035,119.886S1051.187,709.162,962.629,635.09c-44.279-37.036-80.112-81.137-104.876-130.107A366.4,366.4,0,0,1,841.3,467.377q-3.575-9.613-6.594-19.424-.754-2.452-1.473-4.916V446Z"/><path class="cls-120" d="M1792.768,446h-13.784v-4.01q-.711,2.438-1.457,4.863-2.985,9.7-6.524,19.215a362.039,362.039,0,0,1-16.279,37.2c-24.5,48.444-59.944,92.07-103.747,128.708-87.606,73.275-208.632,118.6-342.314,118.6s-254.708-45.322-342.314-118.6C922.547,595.34,887.1,551.714,862.6,503.27a362.257,362.257,0,0,1-16.279-37.2q-3.537-9.51-6.524-19.215-.745-2.425-1.457-4.863V446Z"/><path class="cls-121" d="M1787.506,446H1772.43v-.247q-2.952,9.6-6.452,19.006a358.335,358.335,0,0,1-16.1,36.8c-24.231,47.917-59.293,91.069-102.62,127.308-86.654,72.479-206.364,117.309-338.593,117.309s-251.939-44.83-338.593-117.309c-43.326-36.239-78.389-79.391-102.62-127.308a358.553,358.553,0,0,1-16.1-36.8q-3.5-9.407-6.452-19.006V446Z"/><path class="cls-122" d="M1782.244,446h-14.91v-1.347q-2.919,9.492-6.382,18.8a354,354,0,0,1-15.925,36.394c-23.964,47.39-58.641,90.068-101.492,125.909-85.7,71.683-204.1,116.019-334.872,116.019s-249.171-44.336-334.872-116.019C930.94,589.912,896.263,547.234,872.3,499.844a354.222,354.222,0,0,1-15.925-36.394q-3.459-9.3-6.382-18.8V446Z"/><path class="cls-123" d="M1776.982,446h-14.744v-2.447q-2.888,9.387-6.311,18.588a350.407,350.407,0,0,1-15.748,35.989c-23.7,46.864-57.99,89.068-100.365,124.511-84.749,70.886-201.828,114.73-331.151,114.73s-246.4-43.844-331.151-114.73C935.137,587.2,900.846,544.994,877.147,498.13A350.407,350.407,0,0,1,861.4,462.141q-3.42-9.2-6.311-18.588V446Z"/><path class="cls-124" d="M1771.72,446h-14.579v-3.547q-2.854,9.282-6.239,18.38a346.38,346.38,0,0,1-15.572,35.584c-23.432,46.338-57.338,88.067-99.236,123.112-83.8,70.09-199.561,113.441-327.431,113.441s-243.634-43.351-327.43-113.441c-41.9-35.045-75.8-76.774-99.237-123.112a346.373,346.373,0,0,1-15.571-35.584q-3.382-9.1-6.24-18.38V446Z"/><path class="cls-125" d="M1766.458,446h-14.413v-4.647q-2.823,9.177-6.169,18.171a342.451,342.451,0,0,1-15.394,35.18c-23.166,45.811-56.687,87.066-98.109,121.713-82.845,69.293-197.293,112.152-323.71,112.152S1067.8,685.71,984.953,616.417c-41.422-34.647-74.943-75.9-98.109-121.713a342.669,342.669,0,0,1-15.394-35.18q-3.344-8.993-6.169-18.171V446Z"/><path class="cls-126" d="M1761.2,446h-14.247v-5.747q-2.79,9.071-6.1,17.962a338.659,338.659,0,0,1-15.218,34.776c-22.9,45.284-56.035,86.065-96.981,120.314-81.892,68.5-195.025,110.862-319.989,110.862S1070.567,681.8,988.674,613.3c-40.946-34.249-74.082-75.03-96.981-120.314a338.434,338.434,0,0,1-15.217-34.776q-3.306-8.889-6.1-17.962V446Z"/><path class="cls-127" d="M1755.934,446h-14.082v-6.847q-2.757,8.965-6.027,17.753a334.635,334.635,0,0,1-15.04,34.372c-22.633,44.757-55.384,85.064-95.854,118.914-80.94,67.7-192.758,109.574-316.268,109.574S1073.335,677.893,992.4,610.192c-40.47-33.85-73.221-74.157-95.854-118.914a334.635,334.635,0,0,1-15.04-34.372q-3.267-8.786-6.027-17.753V446Z"/><path class="cls-128" d="M1750.672,446h-15.31v-3.528q-.714,2.205-1.458,4.4-1.489,4.386-3.1,8.727a330.625,330.625,0,0,1-14.864,33.968C1693.57,533.8,1661.2,573.628,1621.21,607.08c-79.987,66.9-190.49,108.285-312.547,108.285S1076.1,673.984,996.116,607.08c-39.994-33.452-72.359-73.284-94.726-117.515A330.625,330.625,0,0,1,886.526,455.6q-1.614-4.341-3.1-8.727-.744-2.193-1.457-4.4V446Z"/><path class="cls-129" d="M1745.41,446h-16.569v-.335q-1.472,4.333-3.067,8.624a326.663,326.663,0,0,1-14.686,33.562c-22.1,43.705-54.081,83.063-93.6,116.117-79.036,66.107-188.223,107-308.827,107s-229.791-40.889-308.826-107c-39.518-33.054-71.5-72.412-93.6-116.117a326.663,326.663,0,0,1-14.686-33.562q-1.6-4.29-3.067-8.624V446Z"/><path class="cls-130" d="M1740.148,446h-16.369v-1.54q-1.454,4.281-3.03,8.52a322.558,322.558,0,0,1-14.51,33.158c-21.834,43.178-53.429,82.062-92.47,114.718-78.084,65.311-185.955,105.706-305.106,105.706s-227.022-40.395-305.106-105.706c-39.041-32.656-70.636-71.54-92.47-114.718a322.776,322.776,0,0,1-14.51-33.158q-1.575-4.238-3.03-8.52V446Z"/><path class="cls-131" d="M1734.886,446h-16.169v-2.745q-1.437,4.23-2.993,8.416a319.072,319.072,0,0,1-14.333,32.754c-21.568,42.651-52.777,81.061-91.343,113.319-77.131,64.514-183.687,104.417-301.385,104.417s-224.254-39.9-301.385-104.417c-38.565-32.258-69.775-70.668-91.343-113.319A318.846,318.846,0,0,1,901.6,451.671q-1.557-4.186-2.993-8.416V446Z"/><path class="cls-132" d="M1729.624,446h-15.97v-3.95q-1.418,4.177-2.956,8.312a314.741,314.741,0,0,1-14.156,32.35c-21.3,42.125-52.125,80.061-90.215,111.919-76.179,63.718-181.419,103.129-297.664,103.129S1087.178,658.349,1011,594.631c-38.089-31.858-68.913-69.794-90.215-111.919a314.741,314.741,0,0,1-14.156-32.35q-1.538-4.134-2.956-8.312V446Z"/><path class="cls-133" d="M1724.362,446h-15.77v-5.155q-1.4,4.125-2.919,8.208A311.037,311.037,0,0,1,1691.694,481c-21.036,41.6-51.474,79.06-89.088,110.52-75.226,62.922-179.151,101.839-293.943,101.839s-218.716-38.917-293.943-101.839C977.107,560.059,946.668,522.6,925.632,481a310.812,310.812,0,0,1-13.978-31.946q-1.52-4.082-2.92-8.208V446Z"/><path class="cls-134" d="M1719.1,446h-15.571v-6.36q-1.383,4.074-2.882,8.105a306.77,306.77,0,0,1-13.8,31.54c-20.769,41.072-50.822,78.06-87.959,109.122-74.275,62.125-176.884,100.55-290.223,100.55s-215.948-38.425-290.222-100.55c-37.138-31.062-67.191-68.05-87.96-109.122a306.77,306.77,0,0,1-13.8-31.54q-1.5-4.032-2.882-8.105V446Z"/><path class="cls-135" d="M1713.838,446h-16.765v-3.554q-.711,2-1.451,3.99A302.97,302.97,0,0,1,1682,477.572c-20.5,40.545-50.171,77.059-86.832,107.723-73.322,61.328-174.616,99.261-286.5,99.261s-213.179-37.933-286.5-99.261c-36.661-30.664-66.329-67.178-86.832-107.723A303.407,303.407,0,0,1,921.7,446.436q-.739-1.99-1.451-3.99V446Z"/><path class="cls-136" d="M1708.576,446H1690.6v-.873a299.259,299.259,0,0,1-13.447,30.732c-20.237,40.019-49.52,76.058-85.7,106.324-72.37,60.532-172.348,97.972-282.781,97.972s-210.411-37.44-282.781-97.972c-36.185-30.266-65.468-66.3-85.7-106.324a299.266,299.266,0,0,1-13.448-30.732V446Z"/><path class="cls-137" d="M1703.314,446h-17.743v-2.182a295.249,295.249,0,0,1-13.271,30.328c-19.97,39.492-48.868,75.057-84.577,104.925-71.418,59.735-170.08,96.682-279.06,96.682s-207.642-36.947-279.06-96.682C993.894,549.2,965,513.638,945.026,474.146a295.467,295.467,0,0,1-13.271-30.328V446Z"/><path class="cls-138" d="M1698.052,446h-17.507v-3.491a291.224,291.224,0,0,1-13.093,29.924c-19.7,38.965-48.217,74.056-83.45,103.525-70.465,58.94-167.812,95.394-275.339,95.394s-204.874-36.454-275.339-95.394c-35.233-29.469-63.745-64.56-83.449-103.525a291.232,291.232,0,0,1-13.094-29.924V446Z"/><path class="cls-139" d="M1692.79,446h-17.27v-4.8A287.512,287.512,0,0,1,1662.6,470.72c-19.438,38.439-47.565,73.055-82.321,102.126-69.514,58.143-165.545,94.105-271.619,94.105s-202.1-35.962-271.618-94.105c-34.757-29.071-62.884-63.687-82.322-102.126A287.512,287.512,0,0,1,941.806,441.2V446Z"/><path class="cls-140" d="M1687.528,446H1670.5v-6.108a283.6,283.6,0,0,1-12.74,29.114c-19.172,37.913-46.914,72.055-81.194,100.728-68.561,57.346-163.277,92.816-267.9,92.816s-199.337-35.47-267.9-92.816c-34.28-28.673-62.022-62.815-81.193-100.728a283.383,283.383,0,0,1-12.74-29.114V446Z"/><path class="cls-141" d="M1682.266,446h-19.63v-.117q-1.468,3.63-3.041,7.22-3.143,7.179-6.689,14.19c-18.9,37.386-46.262,71.054-80.066,99.329-67.609,56.55-161.009,91.526-264.177,91.526s-196.568-34.976-264.177-91.526c-33.8-28.275-61.16-61.943-80.066-99.329q-3.544-7.01-6.689-14.19-1.572-3.59-3.041-7.22V446Z"/><path class="cls-142" d="M1677,446H1657.65v-1.529q-1.448,3.579-3,7.118-3.1,7.079-6.6,13.991c-18.639,36.859-45.611,70.053-78.939,97.93-66.656,55.753-158.741,90.237-260.456,90.237s-193.8-34.484-260.456-90.237c-33.328-27.877-60.3-61.071-78.938-97.93q-3.5-6.91-6.6-13.991-1.548-3.538-3-7.118V446Z"/><path class="cls-143" d="M1671.742,446h-19.077v-2.941q-1.428,3.528-2.955,7.017-3.054,6.976-6.5,13.791c-18.373,36.333-44.959,69.052-77.811,96.531-65.7,54.956-156.474,88.948-256.735,88.948s-191.031-33.992-256.735-88.948c-32.852-27.479-59.438-60.2-77.811-96.531q-3.444-6.813-6.5-13.791-1.527-3.489-2.954-7.017V446Z"/><path class="cls-144" d="M1666.48,446h-18.8v-4.352q-1.407,3.477-2.912,6.915-3.009,6.876-6.406,13.591c-18.107,35.806-44.307,68.051-76.683,95.131-64.752,54.161-154.207,87.659-253.015,87.659s-188.262-33.5-253.014-87.659c-32.376-27.08-58.577-59.325-76.683-95.131q-3.4-6.714-6.407-13.591-1.5-3.438-2.912-6.915V446Z"/><path class="cls-145" d="M1661.218,446h-18.524v-5.764q-1.386,3.426-2.869,6.813-2.966,6.775-6.313,13.392c-17.84,35.279-43.655,67.05-75.555,93.732-63.8,53.364-151.939,86.37-249.294,86.37s-185.494-33.006-249.294-86.37c-31.9-26.682-57.715-58.453-75.555-93.732q-3.345-6.615-6.312-13.392-1.483-3.387-2.869-6.813V446Z"/><path class="cls-146" d="M1655.956,446h-21.074v-.464q-2.922,6.674-6.218,13.191c-17.574,34.753-43,66.05-74.428,92.334-62.848,52.567-149.671,85.081-245.573,85.081s-182.725-32.514-245.573-85.081c-31.423-26.284-56.853-57.581-74.427-92.334q-3.3-6.516-6.219-13.191V446Z"/><path class="cls-147" d="M1650.694,446h-20.755v-1.977q-2.877,6.571-6.124,12.991c-17.308,34.227-42.352,65.05-73.3,90.935-61.9,51.771-147.4,83.792-241.852,83.792s-179.957-32.021-241.852-83.792c-30.948-25.885-55.992-56.708-73.3-90.935q-3.245-6.417-6.124-12.991V446Z"/><path class="cls-148" d="M1645.432,446H1625v-3.491q-2.834,6.472-6.03,12.792c-17.042,33.7-41.7,64.049-72.173,89.536-60.943,50.974-145.135,82.5-238.131,82.5s-177.188-31.528-238.131-82.5C1040.06,519.35,1015.4,489,998.36,455.3q-3.2-6.318-6.03-12.792V446Z"/><path class="cls-149" d="M1640.17,446h-20.116v-5q-2.789,6.37-5.936,12.592c-16.775,33.173-41.049,63.048-71.044,88.137-59.991,50.177-142.868,81.213-234.411,81.213s-174.419-31.036-234.41-81.213c-30-25.089-54.27-54.964-71.045-88.137q-3.145-6.221-5.936-12.592v5Z"/><path class="cls-150" d="M1634.908,446h-19.8v-6.517q-2.744,6.268-5.841,12.392c-16.509,32.646-40.4,62.047-69.917,86.737-59.039,49.382-140.6,79.925-230.69,79.925s-171.651-30.543-230.69-79.925c-29.519-24.69-53.408-54.091-69.916-86.737q-3.1-6.122-5.842-12.392V446Z"/><path class="cls-151" d="M1629.646,446h-22.265v-1.9q-1.437,3.048-2.96,6.06c-16.242,32.12-39.746,61.046-68.789,85.338-58.086,48.585-138.332,78.636-226.969,78.636s-168.882-30.051-226.969-78.636c-29.043-24.292-52.546-53.218-68.789-85.338q-1.523-3.012-2.96-6.06V446Z"/><path class="cls-152" d="M1624.384,446h-21.9v-3.512q-1.413,3-2.911,5.96c-15.977,31.594-39.1,60.046-67.662,83.94-57.134,47.789-136.064,77.346-223.248,77.346s-166.114-29.557-223.248-77.346c-28.567-23.894-51.685-52.346-67.661-83.94q-1.5-2.961-2.912-5.96V446Z"/><path class="cls-153" d="M1619.122,446h-21.535v-5.126q-1.39,2.949-2.863,5.861c-15.71,31.067-38.443,59.045-66.534,82.541-56.182,46.992-133.8,76.057-219.527,76.057s-163.345-29.065-219.527-76.057c-28.091-23.5-50.824-51.474-66.534-82.541q-1.473-2.913-2.863-5.861V446Z"/><path class="cls-154" d="M1613.859,446h-23.983v-.978c-15.444,30.541-37.792,58.044-65.406,81.142-55.23,46.2-131.529,74.768-215.807,74.768s-160.577-28.573-215.806-74.768c-27.615-23.1-49.963-50.6-65.406-81.142V446Z"/><path class="cls-155" d="M1608.6,446h-23.57v-2.691c-15.177,30.014-37.14,57.043-64.278,79.743-54.278,45.4-129.261,73.478-212.086,73.478s-157.808-28.079-212.086-73.478c-27.138-22.7-49.1-49.729-64.278-79.743V446Z"/><path class="cls-156" d="M1603.335,446h-23.156v-4.4c-14.912,29.487-36.488,56.042-63.151,78.343-53.325,44.6-126.993,72.19-208.365,72.19s-155.039-27.587-208.365-72.19c-26.662-22.3-48.239-48.856-63.15-78.343V446Z"/><path class="cls-157" d="M1598.073,446H1575.33v-6.118c-14.645,28.961-35.836,55.042-62.023,76.945-52.373,43.806-124.725,70.9-204.644,70.9s-152.271-27.095-204.644-70.9c-26.186-21.9-47.378-47.984-62.023-76.945V446Z"/><path class="cls-158" d="M1592.811,446h-25.1v-2.533q-1.424,2.632-2.92,5.23-2.992,5.2-6.275,10.248a234.1,234.1,0,0,1-14.233,19.6,254,254,0,0,1-34.7,35.174c-51.42,43.01-122.457,69.612-200.923,69.612s-149.5-26.6-200.923-69.612a254.109,254.109,0,0,1-34.7-35.174,234.1,234.1,0,0,1-14.233-19.6q-3.28-5.052-6.275-10.248-1.5-2.6-2.919-5.23V446Z"/><path class="cls-159" d="M1587.549,446h-24.635v-4.344q-1.4,2.583-2.866,5.133-2.937,5.1-6.159,10.058a229.749,229.749,0,0,1-13.969,19.233,249.4,249.4,0,0,1-34.054,34.523c-50.469,42.213-120.191,68.322-197.2,68.322s-146.734-26.109-197.2-68.322a249.412,249.412,0,0,1-34.055-34.523,229.749,229.749,0,0,1-13.969-19.233q-3.22-4.957-6.159-10.058-1.469-2.55-2.865-5.133V446Z"/><path class="cls-160" d="M1582.287,446h-26.982v-1.119q-2.882,5-6.043,9.868a225.561,225.561,0,0,1-13.7,18.87,244.708,244.708,0,0,1-33.412,33.872c-49.517,41.416-117.923,67.033-193.482,67.033s-143.965-25.617-193.482-67.033a244.644,244.644,0,0,1-33.411-33.872,225.347,225.347,0,0,1-13.706-18.87q-3.159-4.865-6.043-9.868V446Z"/><path class="cls-161" d="M1577.025,446h-26.463v-3.027q-2.826,4.906-5.926,9.678a221.233,221.233,0,0,1-13.443,18.507,239.947,239.947,0,0,1-32.769,33.221c-48.564,40.62-115.655,65.744-189.761,65.744S1167.466,545,1118.9,504.379a239.947,239.947,0,0,1-32.769-33.221,220.994,220.994,0,0,1-13.442-18.507q-3.1-4.77-5.927-9.678V446Z"/><path class="cls-162" d="M1571.763,446h-25.944v-4.935q-2.772,4.809-5.81,9.488A217.061,217.061,0,0,1,1526.83,468.7a235.292,235.292,0,0,1-32.127,32.568c-47.612,39.824-113.387,64.456-186.04,64.456s-138.428-24.632-186.04-64.456A235.292,235.292,0,0,1,1090.5,468.7a216.822,216.822,0,0,1-13.178-18.145q-3.039-4.677-5.811-9.488V446Z"/><path class="cls-163" d="M1566.5,446h-25.425v-6.844q-2.716,4.714-5.694,9.3a212.873,212.873,0,0,1-12.915,17.782,230.6,230.6,0,0,1-31.485,31.917c-46.659,39.027-111.119,63.166-182.319,63.166S1173,537.181,1126.344,498.154a230.587,230.587,0,0,1-31.484-31.917,212.658,212.658,0,0,1-12.916-17.782q-2.976-4.583-5.694-9.3V446Z"/><path class="cls-164" d="M1561.239,446h-27.631v-4.165q-1.395,2.277-2.853,4.522a208.244,208.244,0,0,1-12.652,17.419,225.938,225.938,0,0,1-30.841,31.266c-45.708,38.231-108.852,61.877-178.6,61.877s-132.891-23.646-178.6-61.877a225.89,225.89,0,0,1-30.842-31.266,208.471,208.471,0,0,1-12.652-17.419q-1.458-2.244-2.852-4.522V446Z"/><path class="cls-165" d="M1555.977,446h-29.849v-1.74a203.877,203.877,0,0,1-12.388,17.055,221.185,221.185,0,0,1-30.2,30.615c-44.755,37.434-106.584,60.588-174.878,60.588s-130.122-23.154-174.878-60.588a221.241,221.241,0,0,1-30.2-30.615A204.1,204.1,0,0,1,1091.2,444.26V446Z"/><path class="cls-166" d="M1550.715,446H1521.5v-3.838a199.463,199.463,0,0,1-12.124,16.692,216.488,216.488,0,0,1-29.557,29.964c-43.8,36.638-104.316,59.3-171.157,59.3s-127.354-22.66-171.157-59.3a216.48,216.48,0,0,1-29.556-29.964,199.475,199.475,0,0,1-12.125-16.692V446Z"/><path class="cls-167" d="M1545.453,446h-28.579v-5.936a195.24,195.24,0,0,1-11.861,16.33,211.776,211.776,0,0,1-28.914,29.312c-42.85,35.841-102.048,58.009-167.436,58.009s-124.585-22.168-167.436-58.009a211.776,211.776,0,0,1-28.914-29.312,195.467,195.467,0,0,1-11.861-16.33V446Z"/><path class="cls-168" d="M1540.191,446h-30.674v-3.948q-1.4,2.026-2.845,4.024-2.9,3.991-6.022,7.857a207.017,207.017,0,0,1-28.272,28.66c-41.9,35.045-99.78,56.721-163.715,56.721s-121.817-21.676-163.715-56.721a207.073,207.073,0,0,1-28.272-28.66q-3.12-3.864-6.022-7.857-1.451-2-2.844-4.024V446Z"/><path class="cls-169" d="M1534.929,446h-32.757v-2.207q-2.835,3.9-5.885,7.679a202.425,202.425,0,0,1-27.629,28.009c-40.947,34.249-97.513,55.432-159.995,55.432s-119.048-21.183-159.994-55.432a202.312,202.312,0,0,1-27.629-28.009q-3.051-3.775-5.886-7.679V446Z"/><path class="cls-170" d="M1529.667,446h-31.995v-4.489q-2.769,3.811-5.749,7.5a197.664,197.664,0,0,1-26.986,27.358c-39.994,33.452-95.245,54.142-156.274,54.142s-116.28-20.69-156.274-54.142a197.664,197.664,0,0,1-26.986-27.358q-2.979-3.687-5.749-7.5V446Z"/><path class="cls-171" d="M1524.405,446h-31.233v-6.771q-2.7,3.72-5.612,7.321a192.911,192.911,0,0,1-26.344,26.707c-39.042,32.655-92.977,52.853-152.553,52.853s-113.511-20.2-152.553-52.853a192.911,192.911,0,0,1-26.344-26.707q-2.907-3.6-5.611-7.321V446Z"/><path class="cls-172" d="M1519.143,446H1483.2v-1.91a188.263,188.263,0,0,1-25.7,26.055c-38.089,31.859-90.709,51.564-148.832,51.564s-110.742-19.7-148.832-51.564a188.255,188.255,0,0,1-25.7-26.055V446Z"/><path class="cls-173" d="M1513.881,446h-35.048v-4.371a183.5,183.5,0,0,1-25.059,25.4c-37.137,31.062-88.441,50.275-145.111,50.275s-107.974-19.213-145.111-50.275a183.558,183.558,0,0,1-25.059-25.4V446Z"/><path class="cls-174" d="M1508.619,446H1474.47v-6.832a178.792,178.792,0,0,1-24.416,24.752c-36.185,30.266-86.174,48.986-141.391,48.986s-105.2-18.72-141.39-48.986a178.743,178.743,0,0,1-24.417-24.752V446Z"/><path class="cls-175" d="M1503.357,446h-38.678v-2.908q-2.8,3.135-5.78,6.152-5.952,6.031-12.566,11.564c-35.233,29.47-83.907,47.7-137.67,47.7s-102.437-18.227-137.669-47.7q-6.607-5.526-12.566-11.564-2.976-3.017-5.78-6.152V446Z"/><path class="cls-176" d="M1498.1,446h-37.633v-5.541q-2.727,3.05-5.624,5.985-5.79,5.87-12.226,11.252c-34.281,28.673-81.639,46.408-133.949,46.408s-99.668-17.735-133.949-46.408q-6.427-5.376-12.226-11.252-2.9-2.934-5.624-5.985V446Z"/><path class="cls-177" d="M1492.833,446h-42.055v-2.355q-5.629,5.706-11.887,10.939c-33.328,27.876-79.371,45.118-130.228,45.118s-96.9-17.242-130.228-45.118q-6.249-5.228-11.887-10.939V446Z"/><path class="cls-178" d="M1487.571,446h-40.854v-5.155q-5.469,5.543-11.547,10.627c-32.376,27.08-77.1,43.829-126.507,43.829s-94.131-16.749-126.507-43.829q-6.071-5.077-11.547-10.627V446Z"/><path class="cls-179" d="M1482.309,446H1437.2v-2.685q-2.8,2.58-5.749,5.045c-31.424,26.283-74.836,42.54-122.787,42.54s-91.363-16.257-122.786-42.54q-2.946-2.465-5.75-5.045V446Z"/><path class="cls-180" d="M1477.047,446h-49.318v-.753c-30.472,25.487-72.568,41.252-119.066,41.252s-88.594-15.765-119.065-41.252V446Z"/><path class="cls-181" d="M1471.785,446h-47.777v-3.865c-29.519,24.691-70.3,39.962-115.345,39.962s-85.825-15.271-115.345-39.962V446Z"/><path class="cls-182" d="M1466.523,446h-46.236v-6.977c-28.567,23.894-68.032,38.673-111.624,38.673s-83.057-14.779-111.624-38.673V446Z"/><path class="cls-183" d="M1461.261,446H1405.73v-1.851q-5.653,3.9-11.748,7.347a163.478,163.478,0,0,1-25.921,11.768,180.876,180.876,0,0,1-118.8,0,163.519,163.519,0,0,1-25.921-11.768q-6.088-3.44-11.747-7.347V446Z"/><path class="cls-184" d="M1456,446h-53.616v-5.247q-5.459,3.767-11.343,7.094a157.946,157.946,0,0,1-25.027,11.362,174.642,174.642,0,0,1-114.7,0,157.986,157.986,0,0,1-25.027-11.362q-5.879-3.322-11.342-7.094V446Z"/><path class="cls-185" d="M1450.737,446H1388.1v-1.8a152.327,152.327,0,0,1-24.133,10.957,168.425,168.425,0,0,1-110.6,0,152.368,152.368,0,0,1-24.133-10.957V446Z"/><path class="cls-186" d="M1445.475,446h-60.319v-5.452a146.612,146.612,0,0,1-23.239,10.55,162.171,162.171,0,0,1-106.507,0,146.664,146.664,0,0,1-23.24-10.55V446Z"/><path class="cls-187" d="M1440.213,446h-68.845v-3.591q-5.592,2.541-11.5,4.634a155.934,155.934,0,0,1-102.41,0q-5.9-2.088-11.5-4.634V446Z"/><path class="cls-188" d="M1434.951,446H1357.82v-3.013a149.7,149.7,0,0,1-98.314,0V446Z"/><path class="cls-189" d="M1429.689,446h-96.635v-1.169a145.707,145.707,0,0,1-48.782,0V446Z"/></g><circle class="cls-190" cx="871.667" cy="434" r="167"/><path class="cls-191" d="M1757,803,5,800,2,562C213.294,417.539,519.619,324,877.5,324c351.748,0,666.675,88.95,877.981,229.159Z"/></g></svg>