<svg xmlns="http://www.w3.org/2000/svg" xmlns:xlink="http://www.w3.org/1999/xlink" viewBox="0 0 1755 803"><defs><style>.cls-1{fill:url(#linear-gradient);}.cls-2{fill:url(#linear-gradient-2);}.cls-3{fill:url(#radial-gradient);}.cls-4{fill:#fcee21;}.cls-5{fill:#121f4b;}.cls-6{clip-path:url(#clip-path);}.cls-7{fill:url(#linear-gradient-4);}.cls-8{fill:url(#linear-gradient-5);}.cls-9{fill:url(#linear-gradient-6);}.cls-10{fill:url(#linear-gradient-7);}.cls-11{fill:url(#linear-gradient-8);}.cls-12{fill:url(#linear-gradient-9);}.cls-13{fill:url(#linear-gradient-10);}.cls-14{fill:url(#linear-gradient-11);}.cls-15{fill:url(#linear-gradient-12);}.cls-16{fill:url(#linear-gradient-13);}.cls-17{fill:url(#linear-gradient-14);}.cls-18{fill:url(#linear-gradient-15);}.cls-19{fill:url(#linear-gradient-16);}.cls-20{fill:url(#linear-gradient-17);}.cls-21{fill:url(#linear-gradient-18);}.cls-22{fill:url(#linear-gradient-19);}.cls-23{fill:url(#linear-gradient-20);}.cls-24{fill:url(#linear-gradient-21);}.cls-25{fill:url(#linear-gradient-22);}.cls-26{fill:url(#linear-gradient-23);}.cls-27{fill:url(#linear-gradient-24);}.cls-28{fill:url(#linear-gradient-25);}.cls-29{fill:url(#linear-gradient-26);}.cls-30{fill:url(#linear-gradient-27);}.cls-31{fill:url(#linear-gradient-28);}.cls-32{fill:url(#linear-gradient-29);}.cls-33{fill:url(#linear-gradient-30);}.cls-34{fill:url(#linear-gradient-31);}.cls-35{fill:url(#linear-gradient-32);}.cls-36{fill:url(#linear-gradient-33);}.cls-37{fill:url(#linear-gradient-34);}.cls-38{fill:url(#linear-gradient-35);}.cls-39{fill:url(#linear-gradient-36);}.cls-40{fill:url(#linear-gradient-37);}.cls-41{fill:url(#linear-gradient-38);}.cls-42{fill:url(#linear-gradient-39);}.cls-43{fill:url(#linear-gradient-40);}.cls-44{fill:url(#linear-gradient-41);}.cls-45{fill:url(#linear-gradient-42);}.cls-46{fill:url(#linear-gradient-43);}.cls-47{fill:url(#linear-gradient-44);}.cls-48{fill:url(#linear-gradient-45);}.cls-49{fill:url(#linear-gradient-46);}.cls-50{fill:url(#linear-gradient-47);}.cls-51{fill:url(#linear-gradient-48);}.cls-52{fill:url(#linear-gradient-49);}.cls-53{fill:url(#linear-gradient-50);}.cls-54{fill:url(#linear-gradient-51);}.cls-55{fill:url(#linear-gradient-52);}.cls-56{fill:url(#linear-gradient-53);}.cls-57{fill:url(#linear-gradient-54);}.cls-58{fill:url(#linear-gradient-55);}.cls-59{fill:url(#linear-gradient-56);}.cls-60{fill:url(#linear-gradient-57);}.cls-61{fill:url(#linear-gradient-58);}.cls-62{fill:url(#linear-gradient-59);}.cls-63{fill:url(#linear-gradient-60);}.cls-64{fill:url(#linear-gradient-61);}.cls-65{fill:url(#linear-gradient-62);}.cls-66{fill:url(#linear-gradient-63);}.cls-67{fill:url(#linear-gradient-64);}.cls-68{fill:url(#linear-gradient-65);}.cls-69{fill:url(#linear-gradient-66);}.cls-70{fill:url(#linear-gradient-67);}.cls-71{fill:url(#linear-gradient-68);}.cls-72{fill:url(#linear-gradient-69);}.cls-73{fill:url(#linear-gradient-70);}.cls-74{fill:url(#linear-gradient-71);}.cls-75{fill:url(#linear-gradient-72);}.cls-76{fill:url(#linear-gradient-73);}.cls-77{fill:url(#linear-gradient-74);}.cls-78{fill:url(#linear-gradient-75);}.cls-79{fill:url(#linear-gradient-76);}.cls-80{fill:url(#linear-gradient-77);}.cls-81{fill:url(#linear-gradient-78);}.cls-82{fill:url(#linear-gradient-79);}.cls-83{fill:url(#linear-gradient-80);}.cls-84{fill:url(#linear-gradient-81);}.cls-85{fill:url(#linear-gradient-82);}.cls-86{fill:url(#linear-gradient-83);}.cls-87{fill:url(#linear-gradient-84);}.cls-88{fill:url(#linear-gradient-85);}.cls-89{fill:url(#linear-gradient-86);}.cls-90{fill:url(#linear-gradient-87);}.cls-91{fill:url(#linear-gradient-88);}.cls-92{fill:url(#linear-gradient-89);}.cls-93{fill:url(#linear-gradient-90);}.cls-94{fill:url(#linear-gradient-91);}.cls-95{fill:url(#linear-gradient-92);}.cls-96{fill:url(#linear-gradient-93);}.cls-97{fill:url(#linear-gradient-94);}.cls-98{fill:url(#linear-gradient-95);}.cls-99{clip-path:url(#clip-path-2);}.cls-100{fill:url(#linear-gradient-97);}.cls-101{fill:url(#linear-gradient-98);}.cls-102{fill:url(#linear-gradient-99);}.cls-103{fill:url(#linear-gradient-100);}.cls-104{fill:url(#linear-gradient-101);}.cls-105{fill:url(#linear-gradient-102);}.cls-106{fill:url(#linear-gradient-103);}.cls-107{fill:url(#linear-gradient-104);}.cls-108{fill:url(#linear-gradient-105);}.cls-109{fill:url(#linear-gradient-106);}.cls-110{fill:url(#linear-gradient-107);}.cls-111{fill:url(#linear-gradient-108);}.cls-112{fill:url(#linear-gradient-109);}.cls-113{fill:url(#linear-gradient-110);}.cls-114{fill:url(#linear-gradient-111);}.cls-115{fill:url(#linear-gradient-112);}.cls-116{fill:url(#linear-gradient-113);}.cls-117{fill:url(#linear-gradient-114);}.cls-118{fill:url(#linear-gradient-115);}.cls-119{fill:url(#linear-gradient-116);}.cls-120{fill:url(#linear-gradient-117);}.cls-121{fill:url(#linear-gradient-118);}.cls-122{fill:url(#linear-gradient-119);}.cls-123{fill:url(#linear-gradient-120);}.cls-124{fill:url(#linear-gradient-121);}.cls-125{fill:url(#linear-gradient-122);}.cls-126{fill:url(#linear-gradient-123);}.cls-127{fill:url(#linear-gradient-124);}.cls-128{fill:url(#linear-gradient-125);}.cls-129{fill:url(#linear-gradient-126);}.cls-130{fill:url(#linear-gradient-127);}.cls-131{fill:url(#linear-gradient-128);}.cls-132{fill:url(#linear-gradient-129);}.cls-133{fill:url(#linear-gradient-130);}.cls-134{fill:url(#linear-gradient-131);}.cls-135{fill:url(#linear-gradient-132);}.cls-136{fill:url(#linear-gradient-133);}.cls-137{fill:url(#linear-gradient-134);}.cls-138{fill:url(#linear-gradient-135);}.cls-139{fill:url(#linear-gradient-136);}.cls-140{fill:url(#linear-gradient-137);}.cls-141{fill:url(#linear-gradient-138);}.cls-142{fill:url(#linear-gradient-139);}.cls-143{fill:url(#linear-gradient-140);}.cls-144{fill:url(#linear-gradient-141);}.cls-145{fill:url(#linear-gradient-142);}.cls-146{fill:url(#linear-gradient-143);}.cls-147{fill:url(#linear-gradient-144);}.cls-148{fill:url(#linear-gradient-145);}.cls-149{fill:url(#linear-gradient-146);}.cls-150{fill:url(#linear-gradient-147);}.cls-151{fill:url(#linear-gradient-148);}.cls-152{fill:url(#linear-gradient-149);}.cls-153{fill:url(#linear-gradient-150);}.cls-154{fill:url(#linear-gradient-151);}.cls-155{fill:url(#linear-gradient-152);}.cls-156{fill:url(#linear-gradient-153);}.cls-157{fill:url(#linear-gradient-154);}.cls-158{fill:url(#linear-gradient-155);}.cls-159{fill:url(#linear-gradient-156);}.cls-160{fill:url(#linear-gradient-157);}.cls-161{fill:url(#linear-gradient-158);}.cls-162{fill:url(#linear-gradient-159);}.cls-163{fill:url(#linear-gradient-160);}.cls-164{fill:url(#linear-gradient-161);}.cls-165{fill:url(#linear-gradient-162);}.cls-166{fill:url(#linear-gradient-163);}.cls-167{fill:url(#linear-gradient-164);}.cls-168{fill:url(#linear-gradient-165);}.cls-169{fill:url(#linear-gradient-166);}.cls-170{fill:url(#linear-gradient-167);}.cls-171{fill:url(#linear-gradient-168);}.cls-172{fill:url(#linear-gradient-169);}.cls-173{fill:url(#linear-gradient-170);}.cls-174{fill:url(#linear-gradient-171);}.cls-175{fill:url(#linear-gradient-172);}.cls-176{fill:url(#linear-gradient-173);}.cls-177{fill:url(#linear-gradient-174);}.cls-178{fill:url(#linear-gradient-175);}.cls-179{fill:url(#linear-gradient-176);}.cls-180{fill:url(#linear-gradient-177);}.cls-181{fill:url(#linear-gradient-178);}.cls-182{fill:url(#linear-gradient-179);}.cls-183{fill:url(#linear-gradient-180);}.cls-184{fill:url(#linear-gradient-181);}.cls-185{fill:url(#linear-gradient-182);}.cls-186{fill:url(#linear-gradient-183);}.cls-187{fill:url(#linear-gradient-184);}.cls-188{fill:url(#linear-gradient-185);}.cls-189{fill:url(#linear-gradient-186);}.cls-190{fill:url(#linear-gradient-187);}.cls-191{fill:url(#linear-gradient-188);}.cls-192{fill:url(#radial-gradient-2);}</style><linearGradient id="linear-gradient" x1="568.285" y1="491.885" x2="629.405" y2="192.718" gradientUnits="userSpaceOnUse"><stop offset="0.124" stop-color="#121f4b"/><stop offset="0.287" stop-color="#11224f"/><stop offset="0.453" stop-color="#0f2b5b"/><stop offset="0.619" stop-color="#0c396f"/><stop offset="0.786" stop-color="#084e8c"/><stop offset="0.952" stop-color="#0268b0"/><stop offset="1" stop-color="#0071bc"/></linearGradient><linearGradient id="linear-gradient-2" x1="1260.647" y1="521.098" x2="1220.461" y2="92.448" gradientUnits="userSpaceOnUse"><stop offset="0.372" stop-color="#121f4b"/><stop offset="1" stop-color="#0071bc"/></linearGradient><radialGradient id="radial-gradient" cx="877" cy="742.098" r="685.054" gradientTransform="translate(0 -2.005)" gradientUnits="userSpaceOnUse"><stop offset="0" stop-color="#0071bc"/><stop offset="0.872" stop-color="#121f4b"/></radialGradient><clipPath id="clip-path"><path id="SVGID" class="cls-1" d="M1064.759,771,8.808,768,7,530C134.349,385.539,318.975,292,534.674,292c212,0,401.813,88.95,529.17,229.159Z"/></clipPath><linearGradient id="linear-gradient-4" x1="543.951" y1="491.993" x2="604.293" y2="196.633" xlink:href="#linear-gradient"/><linearGradient id="linear-gradient-5" x1="479.382" y1="480.864" x2="540.371" y2="182.337" xlink:href="#linear-gradient"/><linearGradient id="linear-gradient-6" x1="479.278" y1="480.705" x2="540.263" y2="182.2" xlink:href="#linear-gradient"/><linearGradient id="linear-gradient-7" x1="479.174" y1="480.546" x2="540.155" y2="182.064" xlink:href="#linear-gradient"/><linearGradient id="linear-gradient-8" x1="479.1" y1="480.244" x2="540.122" y2="181.559" xlink:href="#linear-gradient"/><linearGradient id="linear-gradient-9" x1="478.999" y1="480.073" x2="540.02" y2="181.388" xlink:href="#linear-gradient"/><linearGradient id="linear-gradient-10" x1="478.898" y1="479.902" x2="539.919" y2="181.217" xlink:href="#linear-gradient"/><linearGradient id="linear-gradient-11" x1="478.796" y1="479.731" x2="539.818" y2="181.046" xlink:href="#linear-gradient"/><linearGradient id="linear-gradient-12" x1="478.695" y1="479.56" x2="539.717" y2="180.876" xlink:href="#linear-gradient"/><linearGradient id="linear-gradient-13" x1="479.686" y1="479.817" x2="540.637" y2="181.479" xlink:href="#linear-gradient"/><linearGradient id="linear-gradient-14" x1="479.597" y1="479.532" x2="540.588" y2="181" xlink:href="#linear-gradient"/><linearGradient id="linear-gradient-15" x1="479.488" y1="479.343" x2="540.484" y2="180.786" xlink:href="#linear-gradient"/><linearGradient id="linear-gradient-16" x1="479.377" y1="479.168" x2="540.372" y2="180.611" xlink:href="#linear-gradient"/><linearGradient id="linear-gradient-17" x1="479.265" y1="478.994" x2="540.261" y2="180.436" xlink:href="#linear-gradient"/><linearGradient id="linear-gradient-18" x1="480.225" y1="479.222" x2="541.148" y2="181.019" xlink:href="#linear-gradient"/><linearGradient id="linear-gradient-19" x1="480.1" y1="479.054" x2="541.018" y2="180.88" xlink:href="#linear-gradient"/><linearGradient id="linear-gradient-20" x1="480.003" y1="478.751" x2="540.973" y2="180.322" xlink:href="#linear-gradient"/><linearGradient id="linear-gradient-21" x1="479.881" y1="478.572" x2="540.85" y2="180.144" xlink:href="#linear-gradient"/><linearGradient id="linear-gradient-22" x1="479.759" y1="478.394" x2="540.728" y2="179.965" xlink:href="#linear-gradient"/><linearGradient id="linear-gradient-23" x1="479.636" y1="478.215" x2="540.606" y2="179.786" xlink:href="#linear-gradient"/><linearGradient id="linear-gradient-24" x1="479.514" y1="478.036" x2="540.483" y2="179.607" xlink:href="#linear-gradient"/><linearGradient id="linear-gradient-25" x1="480.438" y1="478.125" x2="541.381" y2="179.826" xlink:href="#linear-gradient"/><linearGradient id="linear-gradient-26" x1="480.305" y1="477.942" x2="541.248" y2="179.643" xlink:href="#linear-gradient"/><linearGradient id="linear-gradient-27" x1="481.203" y1="478.12" x2="542.066" y2="180.209" xlink:href="#linear-gradient"/><linearGradient id="linear-gradient-28" x1="481.056" y1="477.942" x2="541.912" y2="180.068" xlink:href="#linear-gradient"/><linearGradient id="linear-gradient-29" x1="480.91" y1="477.764" x2="541.758" y2="179.928" xlink:href="#linear-gradient"/><linearGradient id="linear-gradient-30" x1="480.788" y1="477.463" x2="541.704" y2="179.295" xlink:href="#linear-gradient"/><linearGradient id="linear-gradient-31" x1="480.644" y1="477.275" x2="541.56" y2="179.108" xlink:href="#linear-gradient"/><linearGradient id="linear-gradient-32" x1="480.499" y1="477.088" x2="541.415" y2="178.92" xlink:href="#linear-gradient"/><linearGradient id="linear-gradient-33" x1="480.354" y1="476.901" x2="541.27" y2="178.733" xlink:href="#linear-gradient"/><linearGradient id="linear-gradient-34" x1="481.205" y1="476.955" x2="542.094" y2="178.92" xlink:href="#linear-gradient"/><linearGradient id="linear-gradient-35" x1="482.04" y1="477.088" x2="542.836" y2="179.504" xlink:href="#linear-gradient"/><linearGradient id="linear-gradient-36" x1="481.87" y1="476.899" x2="542.657" y2="179.362" xlink:href="#linear-gradient"/><linearGradient id="linear-gradient-37" x1="481.701" y1="476.709" x2="542.478" y2="179.22" xlink:href="#linear-gradient"/><linearGradient id="linear-gradient-38" x1="481.552" y1="476.418" x2="542.414" y2="178.517" xlink:href="#linear-gradient"/><linearGradient id="linear-gradient-39" x1="481.384" y1="476.222" x2="542.246" y2="178.321" xlink:href="#linear-gradient"/><linearGradient id="linear-gradient-40" x1="481.216" y1="476.026" x2="542.078" y2="178.125" xlink:href="#linear-gradient"/><linearGradient id="linear-gradient-41" x1="482.006" y1="476.051" x2="542.84" y2="178.285" xlink:href="#linear-gradient"/><linearGradient id="linear-gradient-42" x1="482.779" y1="476.136" x2="543.503" y2="178.913" xlink:href="#linear-gradient"/><linearGradient id="linear-gradient-43" x1="482.586" y1="475.934" x2="543.297" y2="178.769" xlink:href="#linear-gradient"/><linearGradient id="linear-gradient-44" x1="482.406" y1="475.672" x2="543.195" y2="178.125" xlink:href="#linear-gradient"/><linearGradient id="linear-gradient-45" x1="482.215" y1="475.456" x2="543.021" y2="177.828" xlink:href="#linear-gradient"/><linearGradient id="linear-gradient-46" x1="482.023" y1="475.251" x2="542.829" y2="177.623" xlink:href="#linear-gradient"/><linearGradient id="linear-gradient-47" x1="483.69" y1="475.495" x2="544.349" y2="178.587" xlink:href="#linear-gradient"/><linearGradient id="linear-gradient-48" x1="483.472" y1="475.281" x2="544.116" y2="178.442" xlink:href="#linear-gradient"/><linearGradient id="linear-gradient-49" x1="483.254" y1="475.064" x2="543.884" y2="178.299" xlink:href="#linear-gradient"/><linearGradient id="linear-gradient-50" x1="483.044" y1="474.813" x2="543.793" y2="177.463" xlink:href="#linear-gradient"/><linearGradient id="linear-gradient-51" x1="482.826" y1="474.598" x2="543.575" y2="177.249" xlink:href="#linear-gradient"/><linearGradient id="linear-gradient-52" x1="484.416" y1="474.773" x2="544.997" y2="178.245" xlink:href="#linear-gradient"/><linearGradient id="linear-gradient-53" x1="484.173" y1="474.542" x2="544.736" y2="178.1" xlink:href="#linear-gradient"/><linearGradient id="linear-gradient-54" x1="483.93" y1="474.309" x2="544.475" y2="177.957" xlink:href="#linear-gradient"/><linearGradient id="linear-gradient-55" x1="483.685" y1="474.09" x2="544.375" y2="177.026" xlink:href="#linear-gradient"/><linearGradient id="linear-gradient-56" x1="483.44" y1="473.866" x2="544.13" y2="176.802" xlink:href="#linear-gradient"/><linearGradient id="linear-gradient-57" x1="484.945" y1="473.949" x2="545.43" y2="177.891" xlink:href="#linear-gradient"/><linearGradient id="linear-gradient-58" x1="484.676" y1="473.699" x2="545.139" y2="177.748" xlink:href="#linear-gradient"/><linearGradient id="linear-gradient-59" x1="484.393" y1="473.516" x2="545.024" y2="176.745" xlink:href="#linear-gradient"/><linearGradient id="linear-gradient-60" x1="485.854" y1="473.539" x2="546.27" y2="177.818" xlink:href="#linear-gradient"/><linearGradient id="linear-gradient-61" x1="485.558" y1="473.271" x2="545.949" y2="177.674" xlink:href="#linear-gradient"/><linearGradient id="linear-gradient-62" x1="485.249" y1="473.065" x2="545.726" y2="177.047" xlink:href="#linear-gradient"/><linearGradient id="linear-gradient-63" x1="484.937" y1="472.874" x2="545.507" y2="176.403" xlink:href="#linear-gradient"/><linearGradient id="linear-gradient-64" x1="486.326" y1="472.78" x2="546.632" y2="177.597" xlink:href="#linear-gradient"/><linearGradient id="linear-gradient-65" x1="485.999" y1="472.503" x2="546.294" y2="177.377" xlink:href="#linear-gradient"/><linearGradient id="linear-gradient-66" x1="487.323" y1="472.525" x2="547.565" y2="177.657" xlink:href="#linear-gradient"/><linearGradient id="linear-gradient-67" x1="486.971" y1="472.213" x2="547.177" y2="177.518" xlink:href="#linear-gradient"/><linearGradient id="linear-gradient-68" x1="486.59" y1="472.043" x2="546.909" y2="176.796" xlink:href="#linear-gradient"/><linearGradient id="linear-gradient-69" x1="486.204" y1="471.899" x2="546.646" y2="176.051" xlink:href="#linear-gradient"/><linearGradient id="linear-gradient-70" x1="487.486" y1="471.554" x2="547.573" y2="177.444" xlink:href="#linear-gradient"/><linearGradient id="linear-gradient-71" x1="488.683" y1="471.526" x2="548.725" y2="177.638" xlink:href="#linear-gradient"/><linearGradient id="linear-gradient-72" x1="488.274" y1="471.158" x2="548.267" y2="177.509" xlink:href="#linear-gradient"/><linearGradient id="linear-gradient-73" x1="487.767" y1="471.266" x2="548.075" y2="176.078" xlink:href="#linear-gradient"/><linearGradient id="linear-gradient-74" x1="488.978" y1="470.698" x2="548.863" y2="177.578" xlink:href="#linear-gradient"/><linearGradient id="linear-gradient-75" x1="490.063" y1="470.596" x2="549.887" y2="177.773" xlink:href="#linear-gradient"/><linearGradient id="linear-gradient-76" x1="489.595" y1="470.16" x2="549.353" y2="177.659" xlink:href="#linear-gradient"/><linearGradient id="linear-gradient-77" x1="488.974" y1="470.471" x2="549.139" y2="175.981" xlink:href="#linear-gradient"/><linearGradient id="linear-gradient-78" x1="491.607" y1="469.831" x2="551.216" y2="178.06" xlink:href="#linear-gradient"/><linearGradient id="linear-gradient-79" x1="491.078" y1="469.318" x2="550.602" y2="177.964" xlink:href="#linear-gradient"/><linearGradient id="linear-gradient-80" x1="490.368" y1="469.691" x2="550.303" y2="176.322" xlink:href="#linear-gradient"/><linearGradient id="linear-gradient-81" x1="492.88" y1="468.787" x2="552.207" y2="178.399" xlink:href="#linear-gradient"/><linearGradient id="linear-gradient-82" x1="492.294" y1="468.164" x2="551.506" y2="178.338" xlink:href="#linear-gradient"/><linearGradient id="linear-gradient-83" x1="494.52" y1="468.071" x2="553.603" y2="178.873" xlink:href="#linear-gradient"/><linearGradient id="linear-gradient-84" x1="493.872" y1="467.338" x2="552.812" y2="178.846" xlink:href="#linear-gradient"/><linearGradient id="linear-gradient-85" x1="495.983" y1="467.105" x2="554.759" y2="179.413" xlink:href="#linear-gradient"/><linearGradient id="linear-gradient-86" x1="498.037" y1="466.783" x2="556.626" y2="180.005" xlink:href="#linear-gradient"/><linearGradient id="linear-gradient-87" x1="497.266" y1="465.79" x2="555.64" y2="180.064" xlink:href="#linear-gradient"/><linearGradient id="linear-gradient-88" x1="496.518" y1="464.685" x2="554.642" y2="180.185" xlink:href="#linear-gradient"/><linearGradient id="linear-gradient-89" x1="501.034" y1="464.504" x2="558.862" y2="181.452" xlink:href="#linear-gradient"/><linearGradient id="linear-gradient-90" x1="500.173" y1="463.032" x2="557.647" y2="181.714" xlink:href="#linear-gradient"/><linearGradient id="linear-gradient-91" x1="504.501" y1="462.361" x2="561.542" y2="183.158" xlink:href="#linear-gradient"/><linearGradient id="linear-gradient-92" x1="503.57" y1="460.263" x2="560.072" y2="183.697" xlink:href="#linear-gradient"/><linearGradient id="linear-gradient-93" x1="507.708" y1="458.698" x2="563.52" y2="185.511" xlink:href="#linear-gradient"/><linearGradient id="linear-gradient-94" x1="512.271" y1="453.906" x2="566.416" y2="188.878" xlink:href="#linear-gradient"/><linearGradient id="linear-gradient-95" x1="520.418" y1="455.571" x2="574.563" y2="190.543" xlink:href="#linear-gradient"/><clipPath id="clip-path-2"><path id="SVGID-2" data-name="SVGID" class="cls-2" d="M1800,764,744.049,761l-1.808-238c127.349-144.461,311.975-238,527.674-238,212,0,401.813,88.95,529.17,229.159Z"/></clipPath><linearGradient id="linear-gradient-97" x1="1270.713" y1="520.154" x2="1230.527" y2="91.504" xlink:href="#linear-gradient-2"/><linearGradient id="linear-gradient-98" x1="1275.52" y1="519.704" x2="1235.334" y2="91.053" xlink:href="#linear-gradient-2"/><linearGradient id="linear-gradient-99" x1="1275.475" y1="519.708" x2="1235.289" y2="91.057" xlink:href="#linear-gradient-2"/><linearGradient id="linear-gradient-100" x1="1275.43" y1="519.712" x2="1235.244" y2="91.062" xlink:href="#linear-gradient-2"/><linearGradient id="linear-gradient-101" x1="1275.385" y1="519.716" x2="1235.199" y2="91.066" xlink:href="#linear-gradient-2"/><linearGradient id="linear-gradient-102" x1="1275.34" y1="519.72" x2="1235.154" y2="91.07" xlink:href="#linear-gradient-2"/><linearGradient id="linear-gradient-103" x1="1275.295" y1="519.725" x2="1235.109" y2="91.074" xlink:href="#linear-gradient-2"/><linearGradient id="linear-gradient-104" x1="1275.25" y1="519.729" x2="1235.064" y2="91.079" xlink:href="#linear-gradient-2"/><linearGradient id="linear-gradient-105" x1="1275.204" y1="519.733" x2="1235.018" y2="91.083" xlink:href="#linear-gradient-2"/><linearGradient id="linear-gradient-106" x1="1275.759" y1="519.681" x2="1235.573" y2="91.031" xlink:href="#linear-gradient-2"/><linearGradient id="linear-gradient-107" x1="1275.708" y1="519.686" x2="1235.522" y2="91.036" xlink:href="#linear-gradient-2"/><linearGradient id="linear-gradient-108" x1="1275.657" y1="519.691" x2="1235.471" y2="91.04" xlink:href="#linear-gradient-2"/><linearGradient id="linear-gradient-109" x1="1275.606" y1="519.695" x2="1235.42" y2="91.045" xlink:href="#linear-gradient-2"/><linearGradient id="linear-gradient-110" x1="1275.555" y1="519.7" x2="1235.369" y2="91.05" xlink:href="#linear-gradient-2"/><linearGradient id="linear-gradient-111" x1="1276.108" y1="519.648" x2="1235.922" y2="90.998" xlink:href="#linear-gradient-2"/><linearGradient id="linear-gradient-112" x1="1276.051" y1="519.654" x2="1235.865" y2="91.003" xlink:href="#linear-gradient-2"/><linearGradient id="linear-gradient-113" x1="1275.994" y1="519.659" x2="1235.808" y2="91.009" xlink:href="#linear-gradient-2"/><linearGradient id="linear-gradient-114" x1="1275.938" y1="519.664" x2="1235.752" y2="91.014" xlink:href="#linear-gradient-2"/><linearGradient id="linear-gradient-115" x1="1275.881" y1="519.67" x2="1235.695" y2="91.019" xlink:href="#linear-gradient-2"/><linearGradient id="linear-gradient-116" x1="1275.824" y1="519.675" x2="1235.638" y2="91.025" xlink:href="#linear-gradient-2"/><linearGradient id="linear-gradient-117" x1="1275.767" y1="519.68" x2="1235.581" y2="91.03" xlink:href="#linear-gradient-2"/><linearGradient id="linear-gradient-118" x1="1276.302" y1="519.63" x2="1236.116" y2="90.98" xlink:href="#linear-gradient-2"/><linearGradient id="linear-gradient-119" x1="1276.238" y1="519.636" x2="1236.052" y2="90.986" xlink:href="#linear-gradient-2"/><linearGradient id="linear-gradient-120" x1="1276.783" y1="519.585" x2="1236.597" y2="90.935" xlink:href="#linear-gradient-2"/><linearGradient id="linear-gradient-121" x1="1276.713" y1="519.592" x2="1236.527" y2="90.941" xlink:href="#linear-gradient-2"/><linearGradient id="linear-gradient-122" x1="1276.644" y1="519.598" x2="1236.458" y2="90.948" xlink:href="#linear-gradient-2"/><linearGradient id="linear-gradient-123" x1="1276.574" y1="519.605" x2="1236.388" y2="90.954" xlink:href="#linear-gradient-2"/><linearGradient id="linear-gradient-124" x1="1276.504" y1="519.611" x2="1236.318" y2="90.961" xlink:href="#linear-gradient-2"/><linearGradient id="linear-gradient-125" x1="1276.434" y1="519.618" x2="1236.248" y2="90.968" xlink:href="#linear-gradient-2"/><linearGradient id="linear-gradient-126" x1="1276.364" y1="519.624" x2="1236.178" y2="90.974" xlink:href="#linear-gradient-2"/><linearGradient id="linear-gradient-127" x1="1276.882" y1="519.576" x2="1236.696" y2="90.926" xlink:href="#linear-gradient-2"/><linearGradient id="linear-gradient-128" x1="1277.413" y1="519.526" x2="1237.227" y2="90.876" xlink:href="#linear-gradient-2"/><linearGradient id="linear-gradient-129" x1="1277.329" y1="519.534" x2="1237.143" y2="90.884" xlink:href="#linear-gradient-2"/><linearGradient id="linear-gradient-130" x1="1277.245" y1="519.542" x2="1237.059" y2="90.892" xlink:href="#linear-gradient-2"/><linearGradient id="linear-gradient-131" x1="1277.16" y1="519.55" x2="1236.974" y2="90.899" xlink:href="#linear-gradient-2"/><linearGradient id="linear-gradient-132" x1="1277.076" y1="519.558" x2="1236.89" y2="90.907" xlink:href="#linear-gradient-2"/><linearGradient id="linear-gradient-133" x1="1276.992" y1="519.566" x2="1236.806" y2="90.915" xlink:href="#linear-gradient-2"/><linearGradient id="linear-gradient-134" x1="1277.496" y1="519.518" x2="1237.31" y2="90.868" xlink:href="#linear-gradient-2"/><linearGradient id="linear-gradient-135" x1="1278.008" y1="519.47" x2="1237.822" y2="90.82" xlink:href="#linear-gradient-2"/><linearGradient id="linear-gradient-136" x1="1277.908" y1="519.48" x2="1237.722" y2="90.829" xlink:href="#linear-gradient-2"/><linearGradient id="linear-gradient-137" x1="1277.809" y1="519.489" x2="1237.623" y2="90.839" xlink:href="#linear-gradient-2"/><linearGradient id="linear-gradient-138" x1="1277.709" y1="519.498" x2="1237.523" y2="90.848" xlink:href="#linear-gradient-2"/><linearGradient id="linear-gradient-139" x1="1277.609" y1="519.508" x2="1237.423" y2="90.857" xlink:href="#linear-gradient-2"/><linearGradient id="linear-gradient-140" x1="1278.704" y1="519.405" x2="1238.518" y2="90.755" xlink:href="#linear-gradient-2"/><linearGradient id="linear-gradient-141" x1="1278.588" y1="519.416" x2="1238.402" y2="90.766" xlink:href="#linear-gradient-2"/><linearGradient id="linear-gradient-142" x1="1278.471" y1="519.427" x2="1238.285" y2="90.777" xlink:href="#linear-gradient-2"/><linearGradient id="linear-gradient-143" x1="1278.354" y1="519.438" x2="1238.168" y2="90.788" xlink:href="#linear-gradient-2"/><linearGradient id="linear-gradient-144" x1="1278.238" y1="519.449" x2="1238.052" y2="90.798" xlink:href="#linear-gradient-2"/><linearGradient id="linear-gradient-145" x1="1279.313" y1="519.348" x2="1239.127" y2="90.698" xlink:href="#linear-gradient-2"/><linearGradient id="linear-gradient-146" x1="1279.179" y1="519.361" x2="1238.993" y2="90.71" xlink:href="#linear-gradient-2"/><linearGradient id="linear-gradient-147" x1="1279.044" y1="519.373" x2="1238.858" y2="90.723" xlink:href="#linear-gradient-2"/><linearGradient id="linear-gradient-148" x1="1278.909" y1="519.386" x2="1238.723" y2="90.736" xlink:href="#linear-gradient-2"/><linearGradient id="linear-gradient-149" x1="1278.775" y1="519.398" x2="1238.589" y2="90.748" xlink:href="#linear-gradient-2"/><linearGradient id="linear-gradient-150" x1="1279.816" y1="519.301" x2="1239.63" y2="90.651" xlink:href="#linear-gradient-2"/><linearGradient id="linear-gradient-151" x1="1279.662" y1="519.315" x2="1239.476" y2="90.665" xlink:href="#linear-gradient-2"/><linearGradient id="linear-gradient-152" x1="1279.508" y1="519.33" x2="1239.322" y2="90.679" xlink:href="#linear-gradient-2"/><linearGradient id="linear-gradient-153" x1="1280.541" y1="519.233" x2="1240.355" y2="90.583" xlink:href="#linear-gradient-2"/><linearGradient id="linear-gradient-154" x1="1280.366" y1="519.249" x2="1240.18" y2="90.599" xlink:href="#linear-gradient-2"/><linearGradient id="linear-gradient-155" x1="1280.192" y1="519.266" x2="1240.006" y2="90.615" xlink:href="#linear-gradient-2"/><linearGradient id="linear-gradient-156" x1="1280.017" y1="519.282" x2="1239.832" y2="90.632" xlink:href="#linear-gradient-2"/><linearGradient id="linear-gradient-157" x1="1281.012" y1="519.189" x2="1240.826" y2="90.538" xlink:href="#linear-gradient-2"/><linearGradient id="linear-gradient-158" x1="1280.816" y1="519.207" x2="1240.63" y2="90.557" xlink:href="#linear-gradient-2"/><linearGradient id="linear-gradient-159" x1="1281.805" y1="519.114" x2="1241.619" y2="90.464" xlink:href="#linear-gradient-2"/><linearGradient id="linear-gradient-160" x1="1281.587" y1="519.135" x2="1241.401" y2="90.485" xlink:href="#linear-gradient-2"/><linearGradient id="linear-gradient-161" x1="1281.368" y1="519.155" x2="1241.182" y2="90.505" xlink:href="#linear-gradient-2"/><linearGradient id="linear-gradient-162" x1="1281.149" y1="519.176" x2="1240.963" y2="90.526" xlink:href="#linear-gradient-2"/><linearGradient id="linear-gradient-163" x1="1282.079" y1="519.089" x2="1241.893" y2="90.438" xlink:href="#linear-gradient-2"/><linearGradient id="linear-gradient-164" x1="1283.015" y1="519.001" x2="1242.829" y2="90.351" xlink:href="#linear-gradient-2"/><linearGradient id="linear-gradient-165" x1="1282.747" y1="519.026" x2="1242.561" y2="90.376" xlink:href="#linear-gradient-2"/><linearGradient id="linear-gradient-166" x1="1282.479" y1="519.051" x2="1242.293" y2="90.401" xlink:href="#linear-gradient-2"/><linearGradient id="linear-gradient-167" x1="1283.363" y1="518.968" x2="1243.177" y2="90.318" xlink:href="#linear-gradient-2"/><linearGradient id="linear-gradient-168" x1="1284.241" y1="518.886" x2="1244.055" y2="90.236" xlink:href="#linear-gradient-2"/><linearGradient id="linear-gradient-169" x1="1283.92" y1="518.916" x2="1243.734" y2="90.266" xlink:href="#linear-gradient-2"/><linearGradient id="linear-gradient-170" x1="1283.599" y1="518.946" x2="1243.413" y2="90.296" xlink:href="#linear-gradient-2"/><linearGradient id="linear-gradient-171" x1="1285.586" y1="518.76" x2="1245.4" y2="90.11" xlink:href="#linear-gradient-2"/><linearGradient id="linear-gradient-172" x1="1285.207" y1="518.795" x2="1245.021" y2="90.145" xlink:href="#linear-gradient-2"/><linearGradient id="linear-gradient-173" x1="1284.828" y1="518.831" x2="1244.642" y2="90.181" xlink:href="#linear-gradient-2"/><linearGradient id="linear-gradient-174" x1="1286.739" y1="518.652" x2="1246.553" y2="90.001" xlink:href="#linear-gradient-2"/><linearGradient id="linear-gradient-175" x1="1286.298" y1="518.693" x2="1246.112" y2="90.043" xlink:href="#linear-gradient-2"/><linearGradient id="linear-gradient-176" x1="1288.163" y1="518.518" x2="1247.977" y2="89.868" xlink:href="#linear-gradient-2"/><linearGradient id="linear-gradient-177" x1="1287.656" y1="518.566" x2="1247.47" y2="89.915" xlink:href="#linear-gradient-2"/><linearGradient id="linear-gradient-178" x1="1289.451" y1="518.397" x2="1249.265" y2="89.747" xlink:href="#linear-gradient-2"/><linearGradient id="linear-gradient-179" x1="1291.226" y1="518.231" x2="1251.04" y2="89.581" xlink:href="#linear-gradient-2"/><linearGradient id="linear-gradient-180" x1="1290.576" y1="518.292" x2="1250.39" y2="89.642" xlink:href="#linear-gradient-2"/><linearGradient id="linear-gradient-181" x1="1289.926" y1="518.353" x2="1249.74" y2="89.703" xlink:href="#linear-gradient-2"/><linearGradient id="linear-gradient-182" x1="1293.847" y1="517.985" x2="1253.661" y2="89.335" xlink:href="#linear-gradient-2"/><linearGradient id="linear-gradient-183" x1="1293.039" y1="518.061" x2="1252.853" y2="89.411" xlink:href="#linear-gradient-2"/><linearGradient id="linear-gradient-184" x1="1296.845" y1="517.704" x2="1256.659" y2="89.054" xlink:href="#linear-gradient-2"/><linearGradient id="linear-gradient-185" x1="1295.866" y1="517.796" x2="1255.68" y2="89.146" xlink:href="#linear-gradient-2"/><linearGradient id="linear-gradient-186" x1="1299.462" y1="517.459" x2="1259.277" y2="88.809" xlink:href="#linear-gradient-2"/><linearGradient id="linear-gradient-187" x1="1302.957" y1="517.131" x2="1262.771" y2="88.481" xlink:href="#linear-gradient-2"/><linearGradient id="linear-gradient-188" x1="1311.184" y1="516.36" x2="1270.998" y2="87.71" xlink:href="#linear-gradient-2"/><radialGradient id="radial-gradient-2" cx="845.416" cy="300.353" r="940.779" gradientTransform="translate(71.162 122.421) scale(0.919 0.592)" gradientUnits="userSpaceOnUse"><stop offset="0" stop-color="#0071bc"/><stop offset="0.177" stop-color="#065798"/><stop offset="0.377" stop-color="#0b3f77"/><stop offset="0.568" stop-color="#0f2d5f"/><stop offset="0.745" stop-color="#112350"/><stop offset="0.892" stop-color="#121f4b"/></radialGradient></defs><title>story board</title><g id="Layer_3" data-name="Layer 3"><rect class="cls-3" x="-3" width="1760" height="805"/><circle class="cls-4" cx="872" cy="304" r="167"/><path class="cls-5" d="M945.657,331.559c-1.4,2.8-4.2,43.441-4.2,43.441l15.414-7.007,9.81-40.638Z"/><path class="cls-5" d="M945.435,290.625l-15.579.131-21.192-7.06a5.11,5.11,0,0,0-4.219,1.1h0a5.112,5.112,0,0,0,2.034,8.888l21.015,8.4,17.941,1.328-3.2,9.588s-6.392,25.568-3.2,25.568,35.157-7.99,35.157-7.99L971,292.223Z"/><circle class="cls-5" cx="961.219" cy="278.062" r="17.062"/><path class="cls-5" d="M724.5,333.277s17.763-49.914,31.694-51.781,73.788.834,73.788.834,19.052-21.541,22.539-34.1c4.857-17.507,44.756-5.06,51.431.646s2.879,16.9,2.879,16.9-21.18,7.886-38.566,4.576C844.739,308,850.1,369.8,850.1,369.8s-20.324-4.54-26.717-10.947l.5-30.94-55.978-3.732L751.97,340.836Z"/><path id="SVGID-3" data-name="SVGID" class="cls-1" d="M1064.759,771,8.808,768,7,530C134.349,385.539,318.975,292,534.674,292c212,0,401.813,88.95,529.17,229.159Z"/><g class="cls-6"><rect class="cls-7" x="7" y="292" width="1057.759" height="479"/><path class="cls-8" d="M1019.036,291h-10.28v-.11a487.428,487.428,0,0,1-29.483,93.357A497.766,497.766,0,0,1,870.834,542.333C779.267,632.335,652.769,688,513.042,688S246.817,632.335,155.25,542.333A497.763,497.763,0,0,1,46.812,384.247,487.36,487.36,0,0,1,17.328,290.89V291Z"/><path class="cls-9" d="M1014.559,291H1004.37v-1a483.128,483.128,0,0,1-29.223,92.53A493.368,493.368,0,0,1,867.668,539.221C776.911,628.426,651.532,683.6,513.042,683.6S249.173,628.426,158.417,539.221A493.37,493.37,0,0,1,50.937,382.533,483.055,483.055,0,0,1,21.715,290v1Z"/><path class="cls-10" d="M1010.081,291h-10.1v-1.884a478.766,478.766,0,0,1-28.962,91.7A488.96,488.96,0,0,1,864.5,536.109C774.555,624.517,650.3,679.2,513.042,679.2s-261.513-54.682-351.459-143.09A488.979,488.979,0,0,1,55.063,380.82a478.833,478.833,0,0,1-28.961-91.7V291Z"/><path class="cls-11" d="M1005.6,291H995.6v-2.771a474.425,474.425,0,0,1-28.7,90.878A484.549,484.549,0,0,1,861.335,533C772.2,620.609,649.059,674.8,513.042,674.8S253.885,620.609,164.749,533a484.549,484.549,0,0,1-105.56-153.89,474.493,474.493,0,0,1-28.7-90.878V291Z"/><path class="cls-12" d="M1001.125,291h-9.916v-3.658a470.2,470.2,0,0,1-28.44,90.052,480.125,480.125,0,0,1-104.6,152.49C769.843,616.7,647.823,670.4,513.042,670.4s-256.8-53.7-345.127-140.513a480.158,480.158,0,0,1-104.6-152.49,470.2,470.2,0,0,1-28.44-90.052V291Z"/><path class="cls-13" d="M996.647,291h-9.825v-4.545a465.863,465.863,0,0,1-28.179,89.226A475.734,475.734,0,0,1,855,526.772C767.487,612.791,646.586,666,513.042,666s-254.445-53.2-341.96-139.223A475.737,475.737,0,0,1,67.441,375.681a465.863,465.863,0,0,1-28.179-89.226V291Z"/><path class="cls-14" d="M992.17,291h-9.735v-5.432a461.478,461.478,0,0,1-27.918,88.4A471.318,471.318,0,0,1,851.836,523.66C765.131,608.883,645.35,661.594,513.042,661.594S260.953,608.883,174.248,523.66A471.334,471.334,0,0,1,71.567,373.968a461.548,461.548,0,0,1-27.918-88.4V291Z"/><path class="cls-15" d="M987.692,291h-9.643v-6.319a457.178,457.178,0,0,1-27.658,87.573A466.919,466.919,0,0,1,848.67,520.548c-85.895,84.426-204.557,136.645-335.628,136.645S263.309,604.974,177.414,520.548A466.935,466.935,0,0,1,75.693,372.254a457.246,457.246,0,0,1-27.657-87.573V291Z"/><path class="cls-16" d="M983.214,291H972.453v-1.578q-.622,2.808-1.279,5.6-1.312,5.589-2.762,11.127-2.9,11.075-6.336,21.93-6.869,21.707-15.811,42.459A462.528,462.528,0,0,1,845.5,517.436c-85.085,83.629-202.627,135.356-332.462,135.356S265.665,601.065,180.581,517.436a462.531,462.531,0,0,1-100.762-146.9q-8.922-20.733-15.81-42.459-3.435-10.853-6.336-21.93-1.449-5.536-2.763-11.127-.655-2.794-1.278-5.6V291Z"/><path class="cls-17" d="M978.736,291H968.077v-2.519q-.615,2.783-1.266,5.55-1.3,5.536-2.736,11.021-2.871,10.969-6.276,21.722-6.8,21.5-15.659,42.054a458.142,458.142,0,0,1-99.8,145.5C758.063,597.157,641.64,648.39,513.042,648.39S268.021,597.157,183.747,514.324a458.123,458.123,0,0,1-99.8-145.5q-8.836-20.536-15.66-42.054-3.4-10.75-6.275-21.722-1.435-5.484-2.737-11.021-.649-2.769-1.266-5.55V291Z"/><path class="cls-18" d="M974.258,291H963.7v-3.459q-.611,2.754-1.254,5.5-1.288,5.484-2.71,10.915-2.844,10.865-6.215,21.513-6.738,21.293-15.509,41.65a453.707,453.707,0,0,1-98.843,144.1C755.708,593.248,640.4,643.989,513.042,643.989S270.377,593.248,186.913,511.211a453.7,453.7,0,0,1-98.842-144.1q-8.752-20.339-15.509-41.65-3.369-10.647-6.215-21.513-1.422-5.431-2.71-10.915-.645-2.742-1.254-5.5V291Z"/><path class="cls-19" d="M969.78,291H959.327v-4.4q-.6,2.728-1.242,5.443-1.275,5.43-2.684,10.809-2.815,10.76-6.155,21.3-6.672,21.086-15.358,41.246a449.316,449.316,0,0,1-97.883,142.7C753.352,589.34,639.167,639.588,513.042,639.588S272.733,589.34,190.08,508.1A449.3,449.3,0,0,1,92.2,365.4Q83.53,345.26,76.838,324.156q-3.336-10.543-6.155-21.3Q69.276,297.473,68,292.043q-.637-2.715-1.242-5.443V291Z"/><path class="cls-20" d="M965.3,291H954.951v-5.34q-.6,2.7-1.229,5.389-1.263,5.378-2.658,10.7-2.788,10.651-6.094,21.094-6.607,20.88-15.208,40.841a444.917,444.917,0,0,1-96.923,141.3c-81.843,80.444-194.909,130.2-319.8,130.2s-237.953-49.755-319.8-130.2a444.885,444.885,0,0,1-96.923-141.3q-8.583-19.942-15.208-40.841-3.3-10.44-6.095-21.094-1.394-5.326-2.657-10.7-.632-2.688-1.23-5.389V291Z"/><path class="cls-21" d="M960.825,291H949.358v-.945q-1.249,5.323-2.631,10.6-2.76,10.547-6.034,20.885-6.542,20.673-15.057,40.437a440.5,440.5,0,0,1-95.964,139.9c-81.032,79.647-192.978,128.91-316.63,128.91s-235.6-49.263-316.63-128.91a440.509,440.509,0,0,1-95.963-139.9q-8.5-19.746-15.058-40.437-3.27-10.336-6.034-20.885-1.38-5.274-2.631-10.6V291Z"/><path class="cls-22" d="M956.347,291H945v-1.939q-1.238,5.271-2.6,10.492-2.734,10.442-5.974,20.676Q929.94,340.7,921.51,360.262a436.11,436.11,0,0,1-95,138.5c-80.222,78.851-191.049,127.621-313.464,127.621S279.8,577.614,199.578,498.763a436.091,436.091,0,0,1-95-138.5q-8.412-19.548-14.907-40.033Q86.429,310,83.694,299.553q-1.367-5.221-2.605-10.492V291Z"/><path class="cls-23" d="M951.869,291H940.632v-2.933q-1.225,5.217-2.578,10.386-2.706,10.335-5.914,20.468-6.411,20.259-14.756,39.628a431.7,431.7,0,0,1-94.044,137.1c-79.412,78.054-189.119,126.332-310.3,126.332s-230.885-48.278-310.3-126.332a431.686,431.686,0,0,1-94.044-137.1q-8.328-19.351-14.757-39.628-3.206-10.129-5.913-20.468-1.353-5.169-2.579-10.386V291Z"/><path class="cls-24" d="M947.391,291H936.269v-3.927q-1.213,5.165-2.552,10.28-2.679,10.23-5.853,20.259-6.345,20.052-14.606,39.224a427.281,427.281,0,0,1-93.085,135.7c-78.6,77.258-187.189,125.043-307.131,125.043S284.513,569.8,205.911,492.538a427.3,427.3,0,0,1-93.085-135.7q-8.241-19.154-14.6-39.224-3.173-10.026-5.853-20.259-1.34-5.117-2.552-10.28V291Z"/><path class="cls-25" d="M942.913,291H931.906v-4.921q-1.2,5.11-2.526,10.174-2.65,10.125-5.793,20.05-6.279,19.846-14.455,38.82a422.89,422.89,0,0,1-92.125,134.3C739.216,565.888,631.748,613.18,513.042,613.18S286.869,565.888,209.077,489.426a422.906,422.906,0,0,1-92.125-134.3q-8.157-18.957-14.455-38.82-3.14-9.923-5.793-20.05-1.324-5.062-2.525-10.174V291Z"/><path class="cls-26" d="M938.436,291H927.543v-5.915q-1.188,5.058-2.5,10.068-2.622,10.02-5.732,19.841-6.215,19.639-14.305,38.415a418.469,418.469,0,0,1-91.165,132.905c-76.981,75.665-183.33,122.465-300.8,122.465s-223.817-46.8-300.8-122.465a418.456,418.456,0,0,1-91.166-132.905q-8.071-18.757-14.3-38.415-3.108-9.819-5.733-19.841-1.311-5.01-2.5-10.068V291Z"/><path class="cls-27" d="M933.958,291H923.179v-6.909q-1.174,5-2.473,9.962-2.6,9.914-5.672,19.632-6.149,19.432-14.154,38.011A414.048,414.048,0,0,1,810.674,483.2c-76.17,74.868-181.4,121.176-297.632,121.176S291.581,558.07,215.41,483.2A414.08,414.08,0,0,1,125.2,351.7q-7.987-18.561-14.154-38.011-3.075-9.715-5.672-19.632-1.3-4.957-2.473-9.962V291Z"/><path class="cls-28" d="M929.48,291H917.623v-2.963q-.612,2.463-1.254,4.916-2.567,9.809-5.611,19.424-6.084,19.226-14,37.606A409.672,409.672,0,0,1,807.508,480.09c-75.36,74.072-179.47,119.886-294.466,119.886s-219.1-45.814-294.466-119.886A409.672,409.672,0,0,1,129.33,349.983q-7.9-18.363-14-37.606-3.042-9.613-5.612-19.424-.642-2.452-1.254-4.916V291Z"/><path class="cls-29" d="M925,291H913.273v-4.01q-.606,2.438-1.24,4.863-2.541,9.7-5.552,19.215-6.018,19.019-13.853,37.2a405.254,405.254,0,0,1-88.286,128.708c-74.55,73.275-177.54,118.6-291.3,118.6s-216.749-45.322-291.3-118.6A405.256,405.256,0,0,1,133.456,348.27q-7.816-18.166-13.853-37.2-3.009-9.51-5.551-19.215-.635-2.425-1.24-4.863V291Z"/><path class="cls-30" d="M920.524,291H907.7v-.247q-2.513,9.6-5.491,19.006-5.954,18.812-13.7,36.8a400.847,400.847,0,0,1-87.326,127.308c-73.74,72.479-175.611,117.309-288.134,117.309s-214.393-44.83-288.133-117.309a400.849,400.849,0,0,1-87.327-127.308q-7.733-17.97-13.7-36.8-2.977-9.407-5.491-19.006V291Z"/><path class="cls-31" d="M916.046,291H903.359v-1.347q-2.486,9.492-5.431,18.8-5.887,18.606-13.552,36.394a396.442,396.442,0,0,1-86.367,125.909c-72.929,71.683-173.68,116.019-284.967,116.019S301.005,542.436,228.075,470.753a396.442,396.442,0,0,1-86.367-125.909q-7.647-17.772-13.552-36.394-2.943-9.3-5.43-18.8V291Z"/><path class="cls-32" d="M911.569,291H899.022v-2.447q-2.457,9.387-5.37,18.588-5.823,18.4-13.4,35.989a392.027,392.027,0,0,1-85.407,124.511c-72.119,70.886-171.751,114.73-281.8,114.73s-209.681-43.844-281.8-114.73A392.059,392.059,0,0,1,145.834,343.13q-7.563-17.574-13.4-35.989-2.911-9.2-5.371-18.588V291Z"/><path class="cls-33" d="M907.091,291H894.685v-3.547q-2.43,9.282-5.31,18.38-5.757,18.192-13.25,35.584a387.643,387.643,0,0,1-84.448,123.112C720.368,534.619,621.856,577.97,513.042,577.97S305.717,534.619,234.408,464.529A387.627,387.627,0,0,1,149.96,341.417q-7.478-17.376-13.251-35.584-2.879-9.1-5.31-18.38V291Z"/><path class="cls-34" d="M902.613,291H890.348v-4.647q-2.4,9.177-5.249,18.171-5.691,17.985-13.1,35.18A383.238,383.238,0,0,1,788.51,461.417c-70.5,69.293-167.891,112.152-275.468,112.152S308.073,530.71,237.574,461.417A383.235,383.235,0,0,1,154.086,339.7q-7.392-17.18-13.1-35.18-2.845-8.993-5.25-18.171V291Z"/><path class="cls-35" d="M898.135,291H886.011v-5.747q-2.373,9.071-5.189,17.962-5.625,17.778-12.949,34.776a378.847,378.847,0,0,1-82.529,120.314c-69.688,68.5-165.961,110.862-272.3,110.862S310.428,526.8,240.74,458.305a378.844,378.844,0,0,1-82.528-120.314q-7.308-16.981-12.95-34.776-2.812-8.889-5.189-17.962V291Z"/><path class="cls-36" d="M893.657,291H881.675v-6.847q-2.347,8.965-5.129,17.753-5.561,17.572-12.8,34.372a374.423,374.423,0,0,1-81.569,118.914c-68.878,67.7-164.032,109.574-269.136,109.574S312.784,522.893,243.907,455.192a374.423,374.423,0,0,1-81.569-118.914q-7.222-16.785-12.8-34.372-2.781-8.786-5.129-17.753V291Z"/><path class="cls-37" d="M889.18,291H876.151v-3.528q-.606,2.205-1.24,4.4-1.267,4.386-2.642,8.727-5.495,17.365-12.648,33.968a370.024,370.024,0,0,1-80.61,117.515c-68.067,66.9-162.1,108.285-265.969,108.285S315.14,518.984,247.073,452.08a370,370,0,0,1-80.609-117.515q-7.138-16.587-12.649-33.968-1.374-4.341-2.641-8.727-.635-2.193-1.241-4.4V291Z"/><path class="cls-38" d="M884.7,291H870.6v-.335q-1.252,4.333-2.61,8.624-5.43,17.157-12.5,33.562a365.609,365.609,0,0,1-79.65,116.117c-67.257,66.107-160.172,107-262.8,107s-195.546-40.889-262.8-107A365.622,365.622,0,0,1,170.59,332.851q-7.053-16.389-12.5-33.562-1.357-4.29-2.61-8.624V291Z"/><path class="cls-39" d="M880.224,291H866.3v-1.54q-1.237,4.281-2.579,8.52-5.364,16.952-12.347,33.158a361.217,361.217,0,0,1-78.69,114.718c-66.447,65.311-158.242,105.706-259.637,105.706s-193.19-40.4-259.636-105.706a361.2,361.2,0,0,1-78.69-114.718q-6.969-16.191-12.348-33.158-1.341-4.238-2.578-8.52V291Z"/><path class="cls-40" d="M875.746,291H861.987v-2.745q-1.222,4.23-2.547,8.416-5.3,16.745-12.2,32.754a356.826,356.826,0,0,1-77.73,113.319C703.876,507.258,613.2,547.161,513.042,547.161s-190.834-39.9-256.47-104.417a356.828,356.828,0,0,1-77.731-113.319q-6.882-15.995-12.2-32.754-1.325-4.186-2.547-8.416V291Z"/><path class="cls-41" d="M871.268,291H857.679v-3.95q-1.207,4.177-2.516,8.312-5.234,16.539-12.046,32.35a352.383,352.383,0,0,1-76.771,111.919C701.52,503.349,611.964,542.76,513.042,542.76s-188.478-39.411-253.3-103.129a352.4,352.4,0,0,1-76.771-111.919q-6.8-15.8-12.046-32.35-1.308-4.134-2.515-8.312V291Z"/><path class="cls-42" d="M866.79,291H853.371v-5.155q-1.192,4.125-2.484,8.208-5.169,16.332-11.9,31.946a347.991,347.991,0,0,1-75.811,110.52,358.115,358.115,0,0,1-500.276,0A348.008,348.008,0,0,1,187.093,326q-6.713-15.6-11.895-31.946-1.292-4.082-2.484-8.208V291Z"/><path class="cls-43" d="M862.313,291h-13.25v-6.36q-1.177,4.074-2.453,8.105-5.1,16.124-11.745,31.54a343.593,343.593,0,0,1-74.851,109.122,353.581,353.581,0,0,1-493.943,0,343.58,343.58,0,0,1-74.852-109.122q-6.627-15.4-11.745-31.54-1.275-4.032-2.452-8.105V291Z"/><path class="cls-44" d="M857.835,291H843.569v-3.554q-.606,2-1.235,3.99-5.037,15.918-11.595,31.136A339.172,339.172,0,0,1,756.847,430.3a349.048,349.048,0,0,1-487.61,0,339.188,339.188,0,0,1-73.892-107.723q-6.543-15.2-11.594-31.136-.63-1.99-1.235-3.99V291Z"/><path class="cls-45" d="M853.357,291h-15.3v-.873q-4.971,15.711-11.444,30.732a334.785,334.785,0,0,1-72.932,106.324,344.515,344.515,0,0,1-481.278,0,334.785,334.785,0,0,1-72.932-106.324q-6.458-15.007-11.444-30.732V291Z"/><path class="cls-46" d="M848.879,291h-15.1v-2.182q-4.906,15.5-11.294,30.328a330.377,330.377,0,0,1-71.972,104.925,339.984,339.984,0,0,1-474.945,0A330.364,330.364,0,0,1,203.6,319.146q-6.374-14.81-11.293-30.328V291Z"/><path class="cls-47" d="M844.4,291H829.5v-3.491q-4.84,15.3-11.143,29.924a325.941,325.941,0,0,1-71.013,103.525,335.447,335.447,0,0,1-468.612,0,325.973,325.973,0,0,1-71.013-103.525q-6.288-14.613-11.143-29.924V291Z"/><path class="cls-48" d="M839.923,291h-14.7v-4.8q-4.776,15.09-10.992,29.519a321.573,321.573,0,0,1-70.054,102.126,330.915,330.915,0,0,1-462.28,0A321.554,321.554,0,0,1,211.849,315.72q-6.2-14.415-10.992-29.519V291Z"/><path class="cls-49" d="M835.446,291h-14.5v-6.108q-4.71,14.885-10.841,29.114a317.159,317.159,0,0,1-69.094,100.728,326.381,326.381,0,0,1-455.947,0,317.142,317.142,0,0,1-69.094-100.728q-6.119-14.217-10.842-29.114V291Z"/><path class="cls-50" d="M830.968,291h-16.7v-.117q-1.25,3.63-2.587,7.22-2.674,7.179-5.692,14.19a312.767,312.767,0,0,1-68.134,99.329,321.851,321.851,0,0,1-449.615,0A312.751,312.751,0,0,1,220.1,312.293q-3.017-7.01-5.693-14.19-1.336-3.59-2.587-7.22V291Z"/><path class="cls-51" d="M826.49,291H810.021v-1.529q-1.233,3.579-2.551,7.118-2.637,7.079-5.612,13.991a308.362,308.362,0,0,1-67.175,97.93,317.317,317.317,0,0,1-443.282,0,308.359,308.359,0,0,1-67.174-97.93q-2.975-6.91-5.613-13.991-1.319-3.538-2.55-7.118V291Z"/><path class="cls-52" d="M822.012,291H805.778v-2.941q-1.213,3.528-2.514,7.017-2.6,6.976-5.532,13.791A303.959,303.959,0,0,1,731.517,405.4a312.784,312.784,0,0,1-436.95,0,303.94,303.94,0,0,1-66.214-96.531q-2.933-6.813-5.532-13.791-1.3-3.489-2.515-7.017V291Z"/><path class="cls-53" d="M817.534,291h-16v-4.352q-1.2,3.477-2.478,6.915-2.562,6.876-5.452,13.591a299.536,299.536,0,0,1-65.255,95.131,308.25,308.25,0,0,1-430.617,0,299.536,299.536,0,0,1-65.255-95.131q-2.889-6.714-5.452-13.591-1.281-3.438-2.478-6.915V291Z"/><path class="cls-54" d="M813.057,291H797.293v-5.764q-1.179,3.426-2.441,6.813-2.524,6.775-5.372,13.392a295.147,295.147,0,0,1-64.3,93.732,303.717,303.717,0,0,1-424.284,0,295.128,295.128,0,0,1-64.295-93.732q-2.847-6.615-5.372-13.392-1.263-3.387-2.442-6.813V291Z"/><path class="cls-55" d="M808.579,291H790.646v-.464q-2.487,6.674-5.292,13.191a290.733,290.733,0,0,1-63.336,92.334,299.184,299.184,0,0,1-417.952,0,290.749,290.749,0,0,1-63.336-92.334q-2.8-6.516-5.291-13.191V291Z"/><path class="cls-56" d="M804.1,291H786.44v-1.977q-2.45,6.571-5.212,12.991a286.319,286.319,0,0,1-62.376,90.935,294.65,294.65,0,0,1-411.619,0,286.322,286.322,0,0,1-62.377-90.935q-2.762-6.417-5.211-12.991V291Z"/><path class="cls-57" d="M799.623,291h-17.39v-3.491q-2.41,6.472-5.131,12.792a281.914,281.914,0,0,1-61.417,89.536,290.119,290.119,0,0,1-405.286,0A281.93,281.93,0,0,1,248.982,300.3q-2.718-6.318-5.131-12.792V291Z"/><path class="cls-58" d="M795.145,291H778.027v-5q-2.373,6.37-5.051,12.592a277.522,277.522,0,0,1-60.457,88.137,285.586,285.586,0,0,1-398.954,0,277.522,277.522,0,0,1-60.457-88.137q-2.676-6.221-5.051-12.592v5Z"/><path class="cls-59" d="M790.667,291H773.821v-6.517q-2.336,6.268-4.971,12.392a273.1,273.1,0,0,1-59.5,86.737,281.05,281.05,0,0,1-392.621,0,273.1,273.1,0,0,1-59.5-86.737q-2.634-6.122-4.971-12.392V291Z"/><path class="cls-60" d="M786.19,291H767.243v-1.9q-1.223,3.048-2.519,6.06A268.7,268.7,0,0,1,706.187,380.5a276.517,276.517,0,0,1-386.289,0,268.7,268.7,0,0,1-58.538-85.338q-1.3-3.012-2.519-6.06V291Z"/><path class="cls-61" d="M781.712,291H763.076v-3.512q-1.2,3-2.478,5.96a264.284,264.284,0,0,1-57.578,83.94,271.986,271.986,0,0,1-379.956,0,264.3,264.3,0,0,1-57.578-83.94q-1.275-2.961-2.477-5.96V291Z"/><path class="cls-62" d="M777.234,291H758.909v-5.126q-1.183,2.949-2.437,5.861a259.877,259.877,0,0,1-56.618,82.541,267.453,267.453,0,0,1-373.624,0,259.909,259.909,0,0,1-56.618-82.541q-1.254-2.913-2.436-5.861V291Z"/><path class="cls-63" d="M772.756,291h-20.41v-.978a255.49,255.49,0,0,1-55.658,81.142,262.919,262.919,0,0,1-367.291,0,255.477,255.477,0,0,1-55.659-81.142V291Z"/><path class="cls-64" d="M768.278,291H748.221v-2.691a251.088,251.088,0,0,1-54.7,79.743,258.388,258.388,0,0,1-360.958,0,251.1,251.1,0,0,1-54.7-79.743V291Z"/><path class="cls-65" d="M763.8,291H744.1v-4.4a246.681,246.681,0,0,1-53.74,78.343,253.853,253.853,0,0,1-354.626,0A246.678,246.678,0,0,1,281.99,286.6V291Z"/><path class="cls-66" d="M759.323,291H739.969v-6.118a242.282,242.282,0,0,1-52.78,76.945,249.319,249.319,0,0,1-348.293,0,242.266,242.266,0,0,1-52.78-76.945V291Z"/><path class="cls-67" d="M754.845,291h-21.36v-2.533Q732.275,291.1,731,293.7q-2.545,5.2-5.339,10.248-5.584,10.1-12.112,19.6a239.755,239.755,0,0,1-29.527,35.174,244.785,244.785,0,0,1-341.96,0,239.748,239.748,0,0,1-29.526-35.174q-6.519-9.483-12.112-19.6-2.791-5.052-5.34-10.248-1.273-2.6-2.484-5.23V291Z"/><path class="cls-68" d="M750.367,291H729.4v-4.344q-1.188,2.583-2.438,5.133-2.5,5.1-5.241,10.058-5.479,9.917-11.887,19.233a235.337,235.337,0,0,1-28.98,34.523,240.255,240.255,0,0,1-335.628,0,235.33,235.33,0,0,1-28.979-34.523q-6.4-9.307-11.888-19.233-2.739-4.957-5.241-10.058-1.25-2.55-2.438-5.133V291Z"/><path class="cls-69" d="M745.889,291H722.928v-1.119q-2.452,5-5.142,9.868-5.377,9.729-11.663,18.87a230.918,230.918,0,0,1-28.433,33.872,235.721,235.721,0,0,1-329.3,0,230.856,230.856,0,0,1-28.433-33.872q-6.278-9.132-11.663-18.87-2.69-4.865-5.142-9.868V291Z"/><path class="cls-70" d="M741.411,291H718.892v-3.027q-2.406,4.906-5.044,9.678-5.273,9.541-11.439,18.507a226.431,226.431,0,0,1-27.885,33.221,231.189,231.189,0,0,1-322.963,0,226.438,226.438,0,0,1-27.886-33.221q-6.156-8.955-11.439-18.507-2.637-4.77-5.043-9.678V291Z"/><path class="cls-71" d="M736.933,291H714.855v-4.935q-2.358,4.809-4.944,9.488-5.17,9.356-11.215,18.145a222.056,222.056,0,0,1-27.339,32.568,226.652,226.652,0,0,1-316.63,0A222.056,222.056,0,0,1,327.388,313.7q-6.034-8.781-11.215-18.145-2.585-4.677-4.944-9.488V291Z"/><path class="cls-72" d="M732.456,291H710.819v-6.844q-2.311,4.714-4.845,9.3-5.067,9.168-10.991,17.782a217.637,217.637,0,0,1-26.792,31.917,222.122,222.122,0,0,1-310.3,0A217.637,217.637,0,0,1,331.1,311.237q-5.914-8.606-10.99-17.782-2.533-4.583-4.846-9.3V291Z"/><path class="cls-73" d="M727.978,291H704.464v-4.165q-1.187,2.277-2.428,4.522-4.963,8.98-10.766,17.419a213.157,213.157,0,0,1-26.245,31.266,217.588,217.588,0,0,1-303.965,0,213.163,213.163,0,0,1-26.246-31.266q-5.793-8.43-10.766-17.419-1.24-2.244-2.428-4.522V291Z"/><path class="cls-74" d="M723.5,291H698.1v-1.74q-4.86,8.793-10.542,17.055a208.683,208.683,0,0,1-25.7,30.615,213.055,213.055,0,0,1-297.632,0,208.745,208.745,0,0,1-25.7-30.615q-5.673-8.253-10.541-17.055V291Z"/><path class="cls-75" d="M719.022,291h-24.86v-3.838q-4.757,8.606-10.318,16.692a204.265,204.265,0,0,1-25.152,29.964,208.525,208.525,0,0,1-291.3,0,204.389,204.389,0,0,1-25.152-29.964q-5.552-8.077-10.317-16.692V291Z"/><path class="cls-76" d="M714.544,291h-24.32v-5.936q-4.653,8.418-10.093,16.33a199.89,199.89,0,0,1-24.605,29.312,203.991,203.991,0,0,1-284.967,0,199.959,199.959,0,0,1-24.606-29.312q-5.431-7.9-10.093-16.33V291Z"/><path class="cls-77" d="M710.067,291h-26.1v-3.948q-1.186,2.026-2.42,4.024-2.469,3.991-5.125,7.857a195.356,195.356,0,0,1-24.059,28.66,199.454,199.454,0,0,1-278.634,0,195.35,195.35,0,0,1-24.058-28.66q-2.656-3.864-5.125-7.857-1.234-2-2.421-4.024V291Z"/><path class="cls-78" d="M705.589,291H677.713v-2.207q-2.412,3.9-5.008,7.679a191,191,0,0,1-23.512,28.009,194.922,194.922,0,0,1-272.3,0,190.931,190.931,0,0,1-23.511-28.009q-2.6-3.775-5.009-7.679V291Z"/><path class="cls-79" d="M701.111,291H673.884v-4.489q-2.357,3.811-4.892,7.5a186.582,186.582,0,0,1-22.965,27.358,190.39,190.39,0,0,1-265.969,0,186.457,186.457,0,0,1-22.965-27.358q-2.535-3.687-4.892-7.5V291Z"/><path class="cls-80" d="M696.633,291H670.054v-6.771q-2.3,3.72-4.775,7.321a182.111,182.111,0,0,1-22.418,26.707,185.858,185.858,0,0,1-259.637,0,181.987,181.987,0,0,1-22.418-26.707q-2.475-3.6-4.776-7.321V291Z"/><path class="cls-81" d="M692.155,291H661.566v-1.91a177.619,177.619,0,0,1-21.872,26.055,181.324,181.324,0,0,1-253.3,0,177.613,177.613,0,0,1-21.871-26.055V291Z"/><path class="cls-82" d="M687.677,291H657.852v-4.371a173.132,173.132,0,0,1-21.324,25.4,176.79,176.79,0,0,1-246.971,0,173.2,173.2,0,0,1-21.325-25.4V291Z"/><path class="cls-83" d="M683.2,291H654.139v-6.832a168.654,168.654,0,0,1-20.777,24.752,172.257,172.257,0,0,1-240.639,0,168.722,168.722,0,0,1-20.778-24.752V291Z"/><path class="cls-84" d="M678.722,291H645.807v-2.908q-2.385,3.135-4.918,6.152-5.066,6.031-10.694,11.564a167.724,167.724,0,0,1-234.306,0q-5.622-5.526-10.693-11.564-2.532-3.017-4.919-6.152V291Z"/><path class="cls-85" d="M674.244,291H642.219v-5.541q-2.321,3.05-4.786,5.985-4.928,5.87-10.4,11.252a163.191,163.191,0,0,1-227.974,0q-5.469-5.376-10.4-11.252-2.463-2.934-4.785-5.985V291Z"/><path class="cls-86" d="M669.766,291H633.978v-2.355q-4.791,5.706-10.115,10.939a158.66,158.66,0,0,1-221.641,0q-5.317-5.228-10.116-10.939V291Z"/><path class="cls-87" d="M665.288,291H630.523v-5.155q-4.655,5.543-9.827,10.627a154.126,154.126,0,0,1-215.308,0q-5.166-5.077-9.826-10.627V291Z"/><path class="cls-88" d="M660.81,291H622.423v-2.685q-2.385,2.58-4.893,5.045a149.593,149.593,0,0,1-208.976,0q-2.506-2.465-4.892-5.045V291Z"/><path class="cls-89" d="M656.333,291H614.364v-.753a145.057,145.057,0,0,1-202.643,0V291Z"/><path class="cls-90" d="M651.855,291H611.2v-3.865a140.527,140.527,0,0,1-196.311,0V291Z"/><path class="cls-91" d="M647.377,291H608.031v-6.977a135.993,135.993,0,0,1-189.978,0V291Z"/><path class="cls-92" d="M642.9,291H595.643v-1.851q-4.809,3.9-10,7.347a131.41,131.41,0,0,1-145.208,0q-5.181-3.44-10-7.347V291Z"/><path class="cls-93" d="M638.421,291H592.795v-5.247q-4.644,3.767-9.652,7.094a126.88,126.88,0,0,1-140.2,0q-5-3.322-9.653-7.094V291Z"/><path class="cls-94" d="M633.944,291h-53.3v-1.8a122.344,122.344,0,0,1-135.194,0V291Z"/><path class="cls-95" d="M629.466,291h-51.33v-5.452a117.822,117.822,0,0,1-130.187,0V291Z"/><path class="cls-96" d="M624.988,291H566.4v-3.591q-4.758,2.541-9.785,4.634a114.115,114.115,0,0,1-87.149,0q-5.022-2.088-9.786-4.634V291Z"/><path class="cls-97" d="M620.51,291H554.874v-3.013a109.552,109.552,0,0,1-83.663,0V291Z"/><path class="cls-98" d="M616.032,291H533.8v-1.169a105.8,105.8,0,0,1-41.512,0V291Z"/></g><path id="SVGID-4" data-name="SVGID" class="cls-2" d="M1800,764,744.049,761l-1.808-238c127.349-144.461,311.975-238,527.674-238,212,0,401.813,88.95,529.17,229.159Z"/><g class="cls-99"><rect class="cls-100" x="742.241" y="285" width="1057.759" height="479"/><path class="cls-101" d="M1754.277,284H1744v-.11a487.428,487.428,0,0,1-29.483,93.357,497.782,497.782,0,0,1-108.439,158.086C1514.508,625.335,1388.009,681,1248.283,681S982.058,625.335,890.491,535.333A497.766,497.766,0,0,1,782.052,377.247a487.428,487.428,0,0,1-29.483-93.357V284Z"/><path class="cls-102" d="M1749.8,284H1739.61v-1a483.055,483.055,0,0,1-29.222,92.53,493.368,493.368,0,0,1-107.479,156.688C1512.152,621.426,1386.773,676.6,1248.283,676.6S984.414,621.426,893.657,532.221A493.368,493.368,0,0,1,786.178,375.533,483.128,483.128,0,0,1,756.955,283v1Z"/><path class="cls-103" d="M1745.321,284h-10.1v-1.884a478.833,478.833,0,0,1-28.961,91.7,488.979,488.979,0,0,1-106.52,155.289C1509.8,617.517,1385.536,672.2,1248.283,672.2s-261.513-54.682-351.46-143.09A488.976,488.976,0,0,1,790.3,373.82a478.766,478.766,0,0,1-28.962-91.7V284Z"/><path class="cls-104" d="M1740.844,284h-10.007v-2.771a474.566,474.566,0,0,1-28.7,90.878A484.549,484.549,0,0,1,1596.576,526c-89.136,87.612-212.276,141.8-348.293,141.8S989.126,613.609,899.99,526a484.549,484.549,0,0,1-105.56-153.89,474.5,474.5,0,0,1-28.7-90.878V284Z"/><path class="cls-105" d="M1736.366,284h-9.916v-3.658a470.2,470.2,0,0,1-28.44,90.052,480.158,480.158,0,0,1-104.6,152.49C1505.084,609.7,1383.063,663.4,1248.283,663.4s-256.8-53.7-345.127-140.513a480.125,480.125,0,0,1-104.6-152.49,470.2,470.2,0,0,1-28.44-90.052V284Z"/><path class="cls-106" d="M1731.888,284h-9.825v-4.545a465.863,465.863,0,0,1-28.179,89.226,475.737,475.737,0,0,1-103.641,151.091C1502.728,605.791,1381.827,659,1248.283,659s-254.445-53.2-341.961-139.223a475.75,475.75,0,0,1-103.64-151.091A465.863,465.863,0,0,1,774.5,279.455V284Z"/><path class="cls-107" d="M1727.41,284h-9.734v-5.432a461.478,461.478,0,0,1-27.918,88.4A471.318,471.318,0,0,1,1587.077,516.66c-86.7,85.223-206.487,137.934-338.794,137.934S996.194,601.883,909.489,516.66A471.318,471.318,0,0,1,806.808,366.968a461.478,461.478,0,0,1-27.918-88.4V284Z"/><path class="cls-108" d="M1722.932,284h-9.643v-6.319a457.246,457.246,0,0,1-27.657,87.573,466.935,466.935,0,0,1-101.721,148.294c-85.895,84.426-204.557,136.645-335.628,136.645S998.55,597.974,912.655,513.548A466.919,466.919,0,0,1,810.934,365.254a457.105,457.105,0,0,1-27.657-87.573V284Z"/><path class="cls-109" d="M1718.454,284h-10.761v-1.578q-.621,2.808-1.278,5.6-1.312,5.589-2.763,11.127-2.9,11.075-6.335,21.93-6.87,21.707-15.811,42.459a462.514,462.514,0,0,1-100.762,146.895c-85.084,83.629-202.627,135.356-332.461,135.356s-247.377-51.727-332.462-135.356A462.528,462.528,0,0,1,815.06,363.541q-8.922-20.733-15.811-42.459-3.433-10.853-6.336-21.93-1.449-5.536-2.762-11.127-.657-2.794-1.278-5.6V284Z"/><path class="cls-110" d="M1713.977,284h-10.659v-2.519q-.617,2.783-1.266,5.55-1.3,5.536-2.737,11.021-2.871,10.969-6.275,21.722-6.8,21.5-15.66,42.054a458.123,458.123,0,0,1-99.8,145.5c-84.274,82.833-200.7,134.066-329.3,134.066s-245.021-51.233-329.295-134.066a458.123,458.123,0,0,1-99.8-145.5q-8.838-20.536-15.66-42.054-3.4-10.75-6.276-21.722-1.436-5.484-2.736-11.021-.649-2.769-1.266-5.55V284Z"/><path class="cls-111" d="M1709.5,284h-10.556v-3.459q-.611,2.754-1.254,5.5-1.289,5.484-2.71,10.915-2.844,10.865-6.216,21.513-6.736,21.293-15.509,41.65a453.7,453.7,0,0,1-98.842,144.1c-83.464,82.037-198.768,132.778-326.129,132.778s-242.665-50.741-326.129-132.778a453.707,453.707,0,0,1-98.843-144.1q-8.751-20.339-15.509-41.65-3.369-10.647-6.215-21.513-1.422-5.431-2.71-10.915-.643-2.742-1.254-5.5V284Z"/><path class="cls-112" d="M1705.021,284h-10.454v-4.4q-.6,2.728-1.242,5.443-1.275,5.43-2.683,10.809-2.817,10.76-6.155,21.3-6.672,21.086-15.359,41.246a449.313,449.313,0,0,1-97.882,142.7c-82.654,81.241-196.838,131.489-322.963,131.489S1007.974,582.34,925.32,501.1a449.332,449.332,0,0,1-97.883-142.7q-8.667-20.142-15.358-41.246-3.336-10.543-6.155-21.3-1.409-5.379-2.684-10.809Q802.6,282.328,802,279.6V284Z"/><path class="cls-113" d="M1700.543,284h-10.351v-5.34q-.6,2.7-1.23,5.389-1.263,5.378-2.657,10.7-2.789,10.651-6.1,21.094-6.606,20.88-15.208,40.841a444.885,444.885,0,0,1-96.923,141.3c-81.843,80.444-194.908,130.2-319.8,130.2s-237.953-49.755-319.8-130.2a444.917,444.917,0,0,1-96.923-141.3q-8.582-19.942-15.208-40.841-3.3-10.44-6.094-21.094-1.395-5.326-2.657-10.7-.632-2.688-1.23-5.389V284Z"/><path class="cls-114" d="M1696.065,284H1684.6v-.945q-1.251,5.323-2.631,10.6-2.762,10.547-6.034,20.885-6.541,20.673-15.058,40.437a440.509,440.509,0,0,1-95.963,139.9c-81.033,79.647-192.978,128.91-316.63,128.91s-235.6-49.263-316.63-128.91a440.5,440.5,0,0,1-95.964-139.9q-8.5-19.746-15.057-40.437-3.271-10.336-6.034-20.885-1.381-5.274-2.631-10.6V284Z"/><path class="cls-115" d="M1691.588,284h-11.352v-1.939q-1.237,5.271-2.605,10.492-2.733,10.442-5.974,20.676-6.476,20.466-14.907,40.033a436.091,436.091,0,0,1-95,138.5c-80.223,78.851-191.049,127.621-313.464,127.621s-233.242-48.77-313.464-127.621a436.11,436.11,0,0,1-95-138.5q-8.412-19.548-14.907-40.033-3.237-10.231-5.973-20.676-1.368-5.221-2.6-10.492V284Z"/><path class="cls-116" d="M1687.11,284h-11.237v-2.933q-1.226,5.217-2.579,10.386-2.7,10.335-5.913,20.468-6.411,20.259-14.756,39.628a431.7,431.7,0,0,1-94.045,137.1c-79.412,78.054-189.118,126.332-310.3,126.332s-230.886-48.278-310.3-126.332a431.7,431.7,0,0,1-94.044-137.1q-8.327-19.351-14.756-39.628-3.205-10.129-5.914-20.468-1.351-5.169-2.578-10.386V284Z"/><path class="cls-117" d="M1682.632,284H1671.51v-3.927q-1.214,5.165-2.553,10.28-2.678,10.23-5.853,20.259-6.345,20.052-14.605,39.224a427.3,427.3,0,0,1-93.085,135.7c-78.6,77.258-187.189,125.043-307.131,125.043S1019.753,562.8,941.152,485.538a427.281,427.281,0,0,1-93.085-135.7q-8.243-19.154-14.606-39.224-3.173-10.026-5.853-20.259-1.338-5.117-2.552-10.28V284Z"/><path class="cls-118" d="M1678.154,284h-11.008v-4.921q-1.2,5.11-2.525,10.174-2.651,10.125-5.793,20.05-6.28,19.846-14.455,38.82a422.906,422.906,0,0,1-92.125,134.3c-77.792,76.462-185.259,123.754-303.965,123.754s-226.174-47.292-303.965-123.754a422.89,422.89,0,0,1-92.125-134.3q-8.157-18.957-14.455-38.82-3.141-9.923-5.793-20.05-1.325-5.062-2.526-10.174V284Z"/><path class="cls-119" d="M1673.676,284h-10.893v-5.915q-1.188,5.058-2.5,10.068-2.624,10.02-5.733,19.841-6.215,19.639-14.3,38.415a418.456,418.456,0,0,1-91.166,132.905c-76.981,75.665-183.329,122.465-300.8,122.465s-223.818-46.8-300.8-122.465a418.469,418.469,0,0,1-91.165-132.905q-8.073-18.757-14.3-38.415-3.106-9.819-5.732-19.841-1.311-5.01-2.5-10.068V284Z"/><path class="cls-120" d="M1669.2,284H1658.42v-6.909q-1.175,5-2.473,9.962-2.595,9.914-5.672,19.632-6.15,19.432-14.154,38.011A414.08,414.08,0,0,1,1545.915,476.2c-76.171,74.868-181.4,121.176-297.632,121.176S1026.821,551.07,950.651,476.2A414.048,414.048,0,0,1,860.445,344.7q-7.988-18.561-14.154-38.011-3.075-9.715-5.672-19.632-1.3-4.957-2.473-9.962V284Z"/><path class="cls-121" d="M1664.721,284h-11.857v-2.963q-.612,2.463-1.254,4.916-2.568,9.809-5.612,19.424-6.082,19.226-14,37.606a409.672,409.672,0,0,1-89.246,130.107c-75.361,74.072-179.47,119.886-294.466,119.886S1029.177,547.162,953.817,473.09a409.672,409.672,0,0,1-89.246-130.107q-7.9-18.363-14-37.606-3.042-9.613-5.611-19.424-.642-2.452-1.254-4.916V284Z"/><path class="cls-122" d="M1660.243,284h-11.73v-4.01q-.6,2.438-1.24,4.863-2.54,9.7-5.551,19.215-6.018,19.019-13.853,37.2a405.254,405.254,0,0,1-88.286,128.708c-74.551,73.275-177.541,118.6-291.3,118.6s-216.75-45.322-291.3-118.6A405.254,405.254,0,0,1,868.7,341.27q-7.818-18.166-13.853-37.2-3.009-9.51-5.551-19.215-.636-2.425-1.241-4.863V284Z"/><path class="cls-123" d="M1655.765,284h-12.829v-.247q-2.513,9.6-5.491,19.006-5.952,18.812-13.7,36.8a400.849,400.849,0,0,1-87.327,127.308c-73.74,72.479-175.61,117.309-288.133,117.309s-214.394-44.83-288.133-117.309a400.833,400.833,0,0,1-87.327-127.308q-7.732-17.97-13.7-36.8-2.976-9.407-5.491-19.006V284Z"/><path class="cls-124" d="M1651.287,284H1638.6v-1.347q-2.484,9.492-5.43,18.8-5.888,18.606-13.552,36.394a396.442,396.442,0,0,1-86.367,125.909c-72.93,71.683-173.681,116.019-284.967,116.019s-212.038-44.336-284.967-116.019a396.442,396.442,0,0,1-86.367-125.909Q869.3,320.072,863.4,301.45q-2.945-9.3-5.431-18.8V284Z"/><path class="cls-125" d="M1646.809,284h-12.546v-2.447q-2.457,9.387-5.371,18.588-5.822,18.4-13.4,35.989a392.043,392.043,0,0,1-85.407,124.511c-72.119,70.886-171.751,114.73-281.8,114.73s-209.682-43.844-281.8-114.73A392.043,392.043,0,0,1,881.075,336.13q-7.563-17.574-13.4-35.989-2.91-9.2-5.37-18.588V284Z"/><path class="cls-126" d="M1642.331,284h-12.4v-3.547q-2.43,9.282-5.31,18.38-5.757,18.192-13.251,35.584a387.627,387.627,0,0,1-84.448,123.112c-71.308,70.09-169.821,113.441-278.634,113.441s-207.326-43.351-278.635-113.441A387.624,387.624,0,0,1,885.2,334.417q-7.477-17.376-13.251-35.584-2.879-9.1-5.31-18.38V284Z"/><path class="cls-127" d="M1637.854,284h-12.265v-4.647q-2.4,9.177-5.25,18.171-5.691,17.985-13.1,35.18a383.235,383.235,0,0,1-83.488,121.713c-70.5,69.293-167.891,112.152-275.468,112.152s-204.97-42.859-275.468-112.152A383.238,383.238,0,0,1,889.326,332.7q-7.392-17.18-13.1-35.18-2.846-8.993-5.249-18.171V284Z"/><path class="cls-128" d="M1633.376,284h-12.124v-5.747q-2.374,9.071-5.189,17.962-5.627,17.778-12.95,34.776a378.828,378.828,0,0,1-82.528,120.314c-69.688,68.5-165.962,110.862-272.3,110.862s-202.614-42.366-272.3-110.862a378.847,378.847,0,0,1-82.529-120.314q-7.306-16.981-12.949-34.776-2.812-8.889-5.189-17.962V284Z"/><path class="cls-129" d="M1628.9,284h-11.983v-6.847q-2.346,8.965-5.129,17.753-5.561,17.572-12.8,34.372a374.423,374.423,0,0,1-81.569,118.914c-68.877,67.7-164.031,109.574-269.135,109.574s-200.258-41.873-269.136-109.574a374.44,374.44,0,0,1-81.569-118.914q-7.222-16.785-12.8-34.372-2.779-8.786-5.129-17.753V284Z"/><path class="cls-130" d="M1624.42,284h-13.028v-3.528q-.607,2.205-1.241,4.4-1.268,4.386-2.641,8.727-5.5,17.365-12.649,33.968a370,370,0,0,1-80.609,117.515c-68.067,66.9-162.1,108.285-265.969,108.285s-197.9-41.381-265.969-108.285A370.024,370.024,0,0,1,901.7,327.565q-7.137-16.587-12.648-33.968-1.374-4.341-2.641-8.727-.635-2.193-1.241-4.4V284Z"/><path class="cls-131" d="M1619.942,284h-14.1v-.335q-1.253,4.333-2.61,8.624-5.428,17.157-12.5,33.562a365.606,365.606,0,0,1-79.649,116.117c-67.257,66.107-160.172,107-262.8,107s-195.546-40.889-262.8-107a365.609,365.609,0,0,1-79.65-116.117q-7.053-16.389-12.5-33.562-1.356-4.29-2.61-8.624V284Z"/><path class="cls-132" d="M1615.465,284h-13.93v-1.54q-1.237,4.281-2.578,8.52-5.364,16.952-12.347,33.158a361.22,361.22,0,0,1-78.691,114.718c-66.446,65.311-158.242,105.706-259.636,105.706s-193.19-40.4-259.637-105.706a361.233,361.233,0,0,1-78.69-114.718q-6.967-16.191-12.347-33.158-1.341-4.238-2.579-8.52V284Z"/><path class="cls-133" d="M1610.987,284h-13.76v-2.745q-1.221,4.23-2.547,8.416-5.3,16.745-12.2,32.754a356.828,356.828,0,0,1-77.731,113.319c-65.636,64.514-156.312,104.417-256.47,104.417s-190.834-39.9-256.47-104.417a356.812,356.812,0,0,1-77.731-113.319q-6.882-15.995-12.2-32.754-1.325-4.186-2.547-8.416V284Z"/><path class="cls-134" d="M1606.509,284h-13.59v-3.95q-1.206,4.177-2.515,8.312-5.234,16.539-12.046,32.35a352.4,352.4,0,0,1-76.771,111.919c-64.826,63.718-154.383,103.129-253.3,103.129s-188.478-39.411-253.3-103.129a352.383,352.383,0,0,1-76.771-111.919q-6.8-15.8-12.046-32.35-1.308-4.134-2.516-8.312V284Z"/><path class="cls-135" d="M1602.031,284h-13.42v-5.155q-1.191,4.125-2.484,8.208-5.168,16.332-11.895,31.946a347.991,347.991,0,0,1-75.811,110.52,358.115,358.115,0,0,1-500.276,0A347.991,347.991,0,0,1,922.334,319q-6.712-15.6-11.9-31.946-1.291-4.082-2.484-8.208V284Z"/><path class="cls-136" d="M1597.553,284H1584.3v-6.36q-1.176,4.074-2.452,8.105-5.1,16.124-11.745,31.54a343.58,343.58,0,0,1-74.852,109.122,353.581,353.581,0,0,1-493.943,0A343.593,343.593,0,0,1,926.46,317.285q-6.629-15.4-11.745-31.54-1.275-4.032-2.453-8.105V284Z"/><path class="cls-137" d="M1593.075,284h-14.266v-3.554q-.6,2-1.235,3.99-5.037,15.918-11.594,31.136A339.188,339.188,0,0,1,1492.088,423.3a349.048,349.048,0,0,1-487.61,0,339.172,339.172,0,0,1-73.892-107.723q-6.543-15.2-11.594-31.136-.63-1.99-1.236-3.99V284Z"/><path class="cls-138" d="M1588.6,284h-15.3v-.873q-4.973,15.711-11.444,30.732a334.785,334.785,0,0,1-72.932,106.324,344.515,344.515,0,0,1-481.278,0,334.785,334.785,0,0,1-72.932-106.324q-6.457-15.007-11.444-30.732V284Z"/><path class="cls-139" d="M1584.12,284h-15.1v-2.182q-4.906,15.5-11.293,30.328a330.364,330.364,0,0,1-71.973,104.925,339.984,339.984,0,0,1-474.945,0,330.377,330.377,0,0,1-71.972-104.925q-6.373-14.81-11.293-30.328V284Z"/><path class="cls-140" d="M1579.642,284h-14.9v-3.491q-4.842,15.3-11.143,29.924a325.973,325.973,0,0,1-71.013,103.525,335.447,335.447,0,0,1-468.612,0,325.957,325.957,0,0,1-71.013-103.525q-6.288-14.613-11.143-29.924V284Z"/><path class="cls-141" d="M1575.164,284h-14.7v-4.8q-4.774,15.09-10.992,29.519a321.554,321.554,0,0,1-70.053,102.126,330.915,330.915,0,0,1-462.28,0A321.554,321.554,0,0,1,947.09,308.72q-6.2-14.415-10.992-29.519V284Z"/><path class="cls-142" d="M1570.686,284h-14.494v-6.108q-4.71,14.885-10.842,29.114a317.142,317.142,0,0,1-69.094,100.728,326.381,326.381,0,0,1-455.947,0,317.159,317.159,0,0,1-69.094-100.728q-6.117-14.217-10.841-29.114V284Z"/><path class="cls-143" d="M1566.208,284h-16.7v-.117q-1.249,3.63-2.587,7.22-2.674,7.179-5.693,14.19a312.751,312.751,0,0,1-68.134,99.329,321.85,321.85,0,0,1-449.614,0,312.754,312.754,0,0,1-68.135-99.329q-3.016-7.01-5.692-14.19-1.338-3.59-2.587-7.22V284Z"/><path class="cls-144" d="M1561.731,284h-16.47v-1.529q-1.231,3.579-2.55,7.118-2.637,7.079-5.613,13.991a308.359,308.359,0,0,1-67.174,97.93,317.317,317.317,0,0,1-443.282,0,308.362,308.362,0,0,1-67.175-97.93q-2.973-6.91-5.612-13.991-1.319-3.538-2.551-7.118V284Z"/><path class="cls-145" d="M1557.253,284h-16.234v-2.941q-1.215,3.528-2.514,7.017-2.6,6.976-5.533,13.791a303.94,303.94,0,0,1-66.214,96.531,312.784,312.784,0,0,1-436.95,0,303.959,303.959,0,0,1-66.215-96.531q-2.931-6.813-5.532-13.791-1.3-3.489-2.514-7.017V284Z"/><path class="cls-146" d="M1552.775,284h-16v-4.352q-1.2,3.477-2.478,6.915-2.561,6.876-5.452,13.591a299.536,299.536,0,0,1-65.255,95.131,308.25,308.25,0,0,1-430.617,0,299.536,299.536,0,0,1-65.255-95.131q-2.889-6.714-5.452-13.591-1.281-3.438-2.478-6.915V284Z"/><path class="cls-147" d="M1548.3,284h-15.763v-5.764q-1.179,3.426-2.442,6.813-2.523,6.775-5.371,13.392a295.147,295.147,0,0,1-64.3,93.732,303.717,303.717,0,0,1-424.284,0,295.147,295.147,0,0,1-64.3-93.732q-2.847-6.615-5.372-13.392-1.262-3.387-2.441-6.813V284Z"/><path class="cls-148" d="M1543.819,284h-17.933v-.464q-2.485,6.674-5.291,13.191a290.749,290.749,0,0,1-63.336,92.334,299.184,299.184,0,0,1-417.952,0,290.733,290.733,0,0,1-63.336-92.334q-2.8-6.516-5.292-13.191V284Z"/><path class="cls-149" d="M1539.341,284H1521.68v-1.977q-2.448,6.571-5.211,12.991a286.322,286.322,0,0,1-62.377,90.935,294.65,294.65,0,0,1-411.619,0A286.319,286.319,0,0,1,980.1,295.014q-2.762-6.417-5.211-12.991V284Z"/><path class="cls-150" d="M1534.864,284h-17.39v-3.491q-2.41,6.472-5.131,12.792a281.914,281.914,0,0,1-61.417,89.536,290.119,290.119,0,0,1-405.286,0A281.914,281.914,0,0,1,984.223,293.3q-2.719-6.318-5.131-12.792V284Z"/><path class="cls-151" d="M1530.386,284h-17.118v-5q-2.373,6.37-5.051,12.592a277.522,277.522,0,0,1-60.457,88.137,285.586,285.586,0,0,1-398.954,0,277.522,277.522,0,0,1-60.457-88.137Q985.673,285.367,983.3,279v5Z"/><path class="cls-152" d="M1525.908,284h-16.846v-6.517q-2.335,6.268-4.971,12.392a273.1,273.1,0,0,1-59.5,86.737,281.05,281.05,0,0,1-392.621,0,273.1,273.1,0,0,1-59.5-86.737q-2.634-6.122-4.971-12.392V284Z"/><path class="cls-153" d="M1521.43,284h-18.946v-1.9q-1.222,3.048-2.519,6.06a268.7,268.7,0,0,1-58.538,85.338,276.516,276.516,0,0,1-386.288,0A268.7,268.7,0,0,1,996.6,288.162q-1.3-3.012-2.519-6.06V284Z"/><path class="cls-154" d="M1516.952,284h-18.635v-3.512q-1.2,3-2.478,5.96a264.284,264.284,0,0,1-57.578,83.94,271.986,271.986,0,0,1-379.956,0,264.284,264.284,0,0,1-57.578-83.94q-1.275-2.961-2.478-5.96V284Z"/><path class="cls-155" d="M1512.475,284h-18.326v-5.126q-1.182,2.949-2.436,5.861a259.909,259.909,0,0,1-56.618,82.541,267.453,267.453,0,0,1-373.624,0,259.877,259.877,0,0,1-56.618-82.541q-1.254-2.913-2.437-5.861V284Z"/><path class="cls-156" d="M1508,284h-20.41v-.978a255.477,255.477,0,0,1-55.659,81.142,262.919,262.919,0,0,1-367.291,0,255.49,255.49,0,0,1-55.658-81.142V284Z"/><path class="cls-157" d="M1503.519,284h-20.058v-2.691a251.085,251.085,0,0,1-54.7,79.743,258.388,258.388,0,0,1-360.958,0,251.069,251.069,0,0,1-54.7-79.743V284Z"/><path class="cls-158" d="M1499.041,284h-19.706v-4.4a246.678,246.678,0,0,1-53.739,78.343,253.853,253.853,0,0,1-354.626,0,246.7,246.7,0,0,1-53.74-78.343V284Z"/><path class="cls-159" d="M1494.563,284h-19.354v-6.118a242.266,242.266,0,0,1-52.78,76.945,249.319,249.319,0,0,1-348.293,0,242.282,242.282,0,0,1-52.78-76.945V284Z"/><path class="cls-160" d="M1490.085,284h-21.36v-2.533q-1.211,2.632-2.484,5.23-2.547,5.2-5.34,10.248-5.583,10.1-12.112,19.6a239.748,239.748,0,0,1-29.526,35.174,244.785,244.785,0,0,1-341.96,0,239.755,239.755,0,0,1-29.527-35.174q-6.518-9.483-12.111-19.6-2.793-5.052-5.34-10.248-1.274-2.6-2.485-5.23V284Z"/><path class="cls-161" d="M1485.608,284h-20.965v-4.344q-1.188,2.583-2.438,5.133-2.5,5.1-5.241,10.058-5.481,9.917-11.888,19.233A235.33,235.33,0,0,1,1416.1,348.6a240.255,240.255,0,0,1-335.628,0,235.337,235.337,0,0,1-28.98-34.523q-6.4-9.307-11.887-19.233-2.741-4.957-5.241-10.058-1.25-2.55-2.438-5.133V284Z"/><path class="cls-162" d="M1481.13,284h-22.961v-1.119q-2.453,5-5.143,9.868-5.376,9.729-11.663,18.87a230.856,230.856,0,0,1-28.433,33.872,235.721,235.721,0,0,1-329.3,0,230.849,230.849,0,0,1-28.432-33.872q-6.277-9.132-11.664-18.87-2.688-4.865-5.142-9.868V284Z"/><path class="cls-163" d="M1476.652,284h-22.52v-3.027q-2.4,4.906-5.043,9.678-5.274,9.541-11.439,18.507a226.438,226.438,0,0,1-27.886,33.221,231.188,231.188,0,0,1-322.962,0,226.438,226.438,0,0,1-27.886-33.221q-6.156-8.955-11.439-18.507-2.637-4.77-5.044-9.678V284Z"/><path class="cls-164" d="M1472.174,284H1450.1v-4.935q-2.358,4.809-4.944,9.488-5.171,9.356-11.215,18.145a222.056,222.056,0,0,1-27.339,32.568,226.652,226.652,0,0,1-316.63,0,222.056,222.056,0,0,1-27.339-32.568q-6.036-8.781-11.215-18.145-2.584-4.677-4.944-9.488V284Z"/><path class="cls-165" d="M1467.7,284H1446.06v-6.844q-2.311,4.714-4.846,9.3-5.065,9.168-10.99,17.782a217.637,217.637,0,0,1-26.792,31.917,222.122,222.122,0,0,1-310.3,0,217.637,217.637,0,0,1-26.792-31.917q-5.915-8.606-10.991-17.782-2.532-4.583-4.845-9.3V284Z"/><path class="cls-166" d="M1463.218,284h-23.513v-4.165q-1.188,2.277-2.428,4.522-4.963,8.98-10.766,17.419a213.163,213.163,0,0,1-26.246,31.266,217.588,217.588,0,0,1-303.965,0,213.219,213.219,0,0,1-26.245-31.266q-5.795-8.43-10.766-17.419-1.241-2.244-2.428-4.522V284Z"/><path class="cls-167" d="M1458.741,284h-25.4v-1.74q-4.86,8.793-10.542,17.055a208.745,208.745,0,0,1-25.7,30.615,213.055,213.055,0,0,1-297.632,0,208.683,208.683,0,0,1-25.7-30.615q-5.673-8.253-10.542-17.055V284Z"/><path class="cls-168" d="M1454.263,284H1429.4v-3.838q-4.756,8.606-10.317,16.692a204.389,204.389,0,0,1-25.152,29.964,208.525,208.525,0,0,1-291.3,0,204.265,204.265,0,0,1-25.152-29.964q-5.553-8.077-10.317-16.692V284Z"/><path class="cls-169" d="M1449.785,284h-24.32v-5.936q-4.653,8.418-10.093,16.33a199.9,199.9,0,0,1-24.606,29.312,203.991,203.991,0,0,1-284.967,0,199.89,199.89,0,0,1-24.605-29.312q-5.431-7.9-10.093-16.33V284Z"/><path class="cls-170" d="M1445.307,284h-26.1v-3.948q-1.187,2.026-2.421,4.024-2.467,3.991-5.124,7.857a195.419,195.419,0,0,1-24.059,28.66,199.454,199.454,0,0,1-278.634,0,195.419,195.419,0,0,1-24.059-28.66q-2.655-3.864-5.125-7.857-1.233-2-2.42-4.024V284Z"/><path class="cls-171" d="M1440.829,284h-27.875v-2.207q-2.412,3.9-5.009,7.679a190.931,190.931,0,0,1-23.511,28.009,194.922,194.922,0,0,1-272.3,0,191,191,0,0,1-23.512-28.009q-2.595-3.775-5.008-7.679V284Z"/><path class="cls-172" d="M1436.352,284h-27.228v-4.489q-2.356,3.811-4.892,7.5a186.457,186.457,0,0,1-22.965,27.358,190.39,190.39,0,0,1-265.969,0,186.582,186.582,0,0,1-22.965-27.358q-2.534-3.687-4.891-7.5V284Z"/><path class="cls-173" d="M1431.874,284H1405.3v-6.771q-2.3,3.72-4.776,7.321a181.987,181.987,0,0,1-22.418,26.707,185.857,185.857,0,0,1-259.636,0,182.056,182.056,0,0,1-22.419-26.707q-2.474-3.6-4.775-7.321V284Z"/><path class="cls-174" d="M1427.4,284h-30.59v-1.91a177.613,177.613,0,0,1-21.871,26.055,181.324,181.324,0,0,1-253.3,0,177.613,177.613,0,0,1-21.871-26.055V284Z"/><path class="cls-175" d="M1422.918,284h-29.825v-4.371a173.257,173.257,0,0,1-21.324,25.4,176.791,176.791,0,0,1-246.972,0,173.132,173.132,0,0,1-21.324-25.4V284Z"/><path class="cls-176" d="M1418.44,284h-29.06v-6.832A168.722,168.722,0,0,1,1368.6,301.92a172.257,172.257,0,0,1-240.639,0,168.654,168.654,0,0,1-20.777-24.752V284Z"/><path class="cls-177" d="M1413.962,284h-32.914v-2.908q-2.385,3.135-4.919,6.152-5.064,6.031-10.693,11.564a167.724,167.724,0,0,1-234.306,0q-5.622-5.526-10.694-11.564-2.532-3.017-4.918-6.152V284Z"/><path class="cls-178" d="M1409.485,284h-32.026v-5.541q-2.321,3.05-4.785,5.985-4.928,5.87-10.4,11.252a163.191,163.191,0,0,1-227.974,0q-5.469-5.376-10.4-11.252-2.465-2.934-4.786-5.985V284Z"/><path class="cls-179" d="M1405.007,284h-35.788v-2.355q-4.791,5.706-10.116,10.939a158.66,158.66,0,0,1-221.641,0q-5.318-5.228-10.115-10.939V284Z"/><path class="cls-180" d="M1400.529,284h-34.766v-5.155q-4.653,5.543-9.826,10.627a154.126,154.126,0,0,1-215.308,0q-5.166-5.077-9.827-10.627V284Z"/><path class="cls-181" d="M1396.051,284h-38.387v-2.685q-2.385,2.58-4.893,5.045a149.593,149.593,0,0,1-208.976,0q-2.506-2.465-4.893-5.045V284Z"/><path class="cls-182" d="M1391.573,284H1349.6v-.753a145.057,145.057,0,0,1-202.643,0V284Z"/><path class="cls-183" d="M1387.1,284h-40.657v-3.865a140.526,140.526,0,0,1-196.31,0V284Z"/><path class="cls-184" d="M1382.618,284h-39.346v-6.977a135.993,135.993,0,0,1-189.978,0V284Z"/><path class="cls-185" d="M1378.14,284h-47.256v-1.851q-4.811,3.9-10,7.347a131.41,131.41,0,0,1-145.208,0q-5.183-3.44-10-7.347V284Z"/><path class="cls-186" d="M1373.662,284h-45.626v-5.247q-4.646,3.767-9.652,7.094a126.884,126.884,0,0,1-140.2,0q-5-3.322-9.652-7.094V284Z"/><path class="cls-187" d="M1369.184,284h-53.3v-1.8a122.344,122.344,0,0,1-135.194,0V284Z"/><path class="cls-188" d="M1364.706,284h-51.33v-5.452a117.825,117.825,0,0,1-130.187,0V284Z"/><path class="cls-189" d="M1360.228,284h-58.585v-3.591q-4.76,2.541-9.786,4.634a114.113,114.113,0,0,1-87.148,0q-5.024-2.088-9.786-4.634V284Z"/><path class="cls-190" d="M1355.751,284h-65.637v-3.013a109.549,109.549,0,0,1-83.662,0V284Z"/><path class="cls-191" d="M1351.273,284h-82.234v-1.169a105.8,105.8,0,0,1-41.512,0V284Z"/></g><path class="cls-192" d="M1686,932,75.757,929,73,691C267.2,546.539,548.738,453,877.662,453c323.287,0,612.733,88.95,806.942,229.159Z"/><path class="cls-5" d="M868,246s-11-16-23-10-7,25-34,28c-19.3,2.144,26,22,26,22Z"/></g></svg>