<svg id="Layer_1" data-name="Layer 1" xmlns="http://www.w3.org/2000/svg" viewBox="0 0 1755 803"><defs><style>.cls-1{fill:#121f4b;}.cls-2{fill:none;stroke:#fff;stroke-linecap:round;stroke-miterlimit:10;stroke-width:16px;}</style></defs><title>story board</title><rect class="cls-1" x="-5" y="1" width="1758" height="803"/><line class="cls-2" x1="787.003" y1="199" x2="787.003" y2="604"/><line class="cls-2" x1="949.997" y1="199" x2="949.997" y2="604"/><line class="cls-2" x1="1079.5" y1="328.503" x2="657.5" y2="328.503"/><line class="cls-2" x1="1079.5" y1="471" x2="657.5" y2="471"/><line class="cls-2" x1="1064" y1="218" x2="985" y2="297"/><line class="cls-2" x1="1064" y1="297" x2="985" y2="218"/><line class="cls-2" x1="752" y1="508" x2="673" y2="587"/><line class="cls-2" x1="752" y1="587" x2="673" y2="508"/><line class="cls-2" x1="1063" y1="508" x2="984" y2="587"/><line class="cls-2" x1="1063" y1="587" x2="984" y2="508"/><line class="cls-2" x1="1063" y1="361" x2="984" y2="440"/><line class="cls-2" x1="1063" y1="440" x2="984" y2="361"/><circle class="cls-2" cx="715" cy="256.5" r="42.5"/><circle class="cls-2" cx="870" cy="399.5" r="42.5"/><circle class="cls-2" cx="870" cy="546.5" r="42.5"/></svg>