<?xml version="1.0" encoding="utf-8"?>
<!-- Generator: Adobe Illustrator 21.0.2, SVG Export Plug-In . SVG Version: 6.00 Build 0)  -->
<svg version="1.1" id="Layer_1" xmlns="http://www.w3.org/2000/svg" xmlns:xlink="http://www.w3.org/1999/xlink" x="0px" y="0px"
	 viewBox="0 0 216.6 119.6" style="enable-background:new 0 0 216.6 119.6;" xml:space="preserve">
<style type="text/css">
	.st0{fill:#C10033;stroke:#C10033;stroke-miterlimit:10;}
	.st1{fill:#720904;}
	.st2{fill:#FFFFFF;}
	.st3{fill:#C10033;}
</style>
<g>
	<polygon class="st0" points="168.2,7 181.1,65.3 108.3,82.5 35.6,65.3 48.8,7 	"/>
	<path class="st1" d="M168.2,7l12.9,58.3l-72.7,17.2L35.6,65.3L48.8,7H168.2 M173.8,0h-5.6H48.8h-5.6L42,5.5L28.7,63.7l-1.5,6.8
		l6.7,1.6l72.8,17.2l1.6,0.4l1.6-0.4l72.8-17.2l6.7-1.6l-1.5-6.7L175,5.5L173.8,0L173.8,0z"/>
</g>
<g>
	<path class="st2" d="M52.4,59.5V22.4h26.8v9.5H63.5v4.8h13.6v8.5H63.5v14.3H52.4z"/>
	<path class="st2" d="M87.1,59.5V22.4h17.4c10.8,0,18.9,8.3,18.9,18.5c0,10.3-8.1,18.5-18.9,18.5L87.1,59.5L87.1,59.5z M98.2,31.9
		v18h4.8c5.7,0,9.3-3.6,9.3-9c0-5.5-3.5-9.1-9.3-9C103,31.9,98.2,31.9,98.2,31.9z"/>
	<path class="st2" d="M149.9,21.8c6.1,0,10.3,2.4,14.3,5.9l-6.3,7.2c-2.5-2.8-5.5-3.6-8-3.6c-5.8,0-9.5,4.2-9.5,9.6s3.8,9.6,9.5,9.6
		c2.5,0,5.5-0.8,8-3.6l6.3,7.2c-4,3.5-8.2,5.9-14.3,5.9c-12.5,0-20.7-8.8-20.7-19.1S137.4,21.8,149.9,21.8z"/>
</g>
<g>
	<path class="st3" d="M0,106h9.4v2.4H2.8v2.9h6.5v2.4H2.8v5.6H0V106z"/>
	<path class="st3" d="M16.3,114.6h-2.1v4.8h-2.8V106h6.2c2.8,0,4.5,1.8,4.5,4.3c0,2.4-1.5,3.6-2.9,4l3,5.1H19L16.3,114.6z
		 M17.2,108.5h-3v3.7h3c1.1,0,2-0.7,2-1.8C19.2,109.2,18.4,108.5,17.2,108.5z"/>
	<path class="st3" d="M24.3,106h2.8v13.3h-2.8V106z"/>
	<path class="st3" d="M29.8,106h9.4v2.4h-6.6v2.9h6.5v2.4h-6.5v3.1h6.6v2.5h-9.4C29.8,119.3,29.8,106,29.8,106z"/>
	<path class="st3" d="M41.4,106h5.3c4.2,0,7.1,2.7,7.1,6.7s-2.9,6.7-7.1,6.7h-5.3V106z M46.7,116.9c2.6,0,4.2-1.9,4.2-4.2
		c0-2.4-1.4-4.2-4.2-4.2h-2.4v8.3L46.7,116.9L46.7,116.9z"/>
	<path class="st3" d="M60.7,114.6h-2.1v4.8h-2.8V106H62c2.8,0,4.5,1.8,4.5,4.3c0,2.4-1.5,3.6-2.9,4l3,5.1h-3.3L60.7,114.6z
		 M61.6,108.5h-3v3.7h3c1.1,0,2-0.7,2-1.8C63.6,109.2,62.7,108.5,61.6,108.5z"/>
	<path class="st3" d="M68.6,106h2.8v13.3h-2.8V106z"/>
	<path class="st3" d="M73.5,112.7c0-4.1,3.1-6.9,7-6.9c3,0,4.7,1.6,5.7,3.3l-2.4,1.2c-0.6-1.1-1.8-1.9-3.2-1.9
		c-2.3,0-4.1,1.9-4.1,4.4s1.8,4.4,4.1,4.4c1.5,0,2.7-0.8,3.2-1.9l2.4,1.2c-1,1.7-2.6,3.3-5.7,3.3C76.6,119.6,73.5,116.8,73.5,112.7z
		"/>
	<path class="st3" d="M97,113.8h-6.3v5.6h-2.8V106h2.8v5.2H97V106h2.9v13.3H97V113.8z"/>
	<path class="st3" d="M107.6,106h5.3c4.2,0,7.1,2.7,7.1,6.7s-2.9,6.7-7.1,6.7h-5.3V106z M112.9,116.9c2.6,0,4.2-1.9,4.2-4.2
		c0-2.4-1.4-4.2-4.2-4.2h-2.4v8.3L112.9,116.9L112.9,116.9z"/>
	<path class="st3" d="M122,106h9.4v2.4h-6.6v2.9h6.5v2.4h-6.5v3.1h6.6v2.5H122V106z"/>
	<path class="st3" d="M134.3,115.3c0.9,1,2.4,1.8,4.2,1.8c1.6,0,2.3-0.7,2.3-1.5c0-1-1.2-1.3-2.7-1.7c-2.2-0.5-5-1.1-5-4.1
		c0-2.2,1.9-4,5.1-4c2.1,0,3.9,0.6,5.2,1.9l-1.6,2.1c-1.1-1-2.5-1.5-3.8-1.5s-2,0.6-2,1.4c0,0.9,1.1,1.2,2.7,1.5
		c2.2,0.5,5,1.2,5,4.1c0,2.4-1.7,4.3-5.3,4.3c-2.6,0-4.4-0.9-5.6-2.1L134.3,115.3z"/>
	<path class="st3" d="M145.6,106h2.8v13.3h-2.8V106z"/>
	<path class="st3" d="M157.6,105.8c2.8,0,4.5,1.3,5.5,2.9l-2.4,1.3c-0.6-0.9-1.8-1.7-3.2-1.7c-2.4,0-4.2,1.9-4.2,4.4
		s1.8,4.4,4.2,4.4c1.2,0,2.3-0.5,2.9-1v-1.6h-3.6V112h6.4v5.1c-1.4,1.5-3.3,2.5-5.7,2.5c-3.9,0-7.1-2.7-7.1-6.9
		C150.5,108.5,153.7,105.8,157.6,105.8z"/>
	<path class="st3" d="M168.3,110.4v9h-2.8V106h2.9l6.2,8.6V106h2.8v13.3h-2.7L168.3,110.4z"/>
	<path class="st3" d="M184.6,112.7c0-4.1,3.1-6.9,7-6.9c3,0,4.7,1.6,5.7,3.3l-2.4,1.2c-0.6-1.1-1.8-1.9-3.2-1.9
		c-2.3,0-4.1,1.9-4.1,4.4s1.8,4.4,4.1,4.4c1.5,0,2.7-0.8,3.2-1.9l2.4,1.2c-1,1.7-2.6,3.3-5.7,3.3
		C187.7,119.6,184.6,116.8,184.6,112.7z"/>
	<path class="st3" d="M205.3,105.8c4,0,7,2.9,7,6.9s-2.9,6.9-7,6.9c-4,0-7-2.9-7-6.9C198.3,108.7,201.2,105.8,205.3,105.8z
		 M205.3,108.3c-2.5,0-4,1.9-4,4.4s1.6,4.4,4,4.4s4.1-1.9,4.1-4.4C209.3,110.2,207.7,108.3,205.3,108.3z"/>
	<path class="st3" d="M215,116.4c0.9,0,1.6,0.7,1.6,1.6s-0.7,1.6-1.6,1.6s-1.6-0.7-1.6-1.6S214.1,116.4,215,116.4z"/>
</g>
</svg>
