<svg id="Layer_1" data-name="Layer 1" xmlns="http://www.w3.org/2000/svg" viewBox="0 0 286.943 98"><defs><style>.cls-1,.cls-4{fill:#ffc350;}.cls-1,.cls-10,.cls-3,.cls-7{stroke:#001741;stroke-miterlimit:10;}.cls-1{stroke-linecap:round;stroke-width:5px;}.cls-2{fill:#001741;}.cls-3{fill:#ff6365;}.cls-3,.cls-7{stroke-width:2.789px;}.cls-5{fill:#ffd365;}.cls-6{fill:#ffdfb1;}.cls-10,.cls-7{fill:none;}.cls-8{fill:#cfdade;}.cls-9{fill:#e6edf1;}.cls-10{stroke-width:2.758px;}</style></defs><title>full-stack</title><rect class="cls-1" x="2.5" y="2.5" width="281.943" height="93" rx="13.697"/><path class="cls-2" d="M19.7,62.95l1.8,1.758a.977.977,0,0,1,.039,1.526,25.66,25.66,0,0,0-3.714,5.2c-.078.156,0,.273.2.273,2.463.274,3.166,2.62,3.166,4.105a4.419,4.419,0,0,1-4.575,4.5c-2.462,0-4.612-1.955-4.612-5.2,0-3.948,2.424-7.859,6.177-12.08A.914.914,0,0,1,19.7,62.95Zm11.1,0,1.8,1.758a.978.978,0,0,1,.039,1.526,25.582,25.582,0,0,0-3.714,5.2c-.078.156,0,.273.2.273,2.463.274,3.167,2.62,3.167,4.105a4.419,4.419,0,0,1-4.574,4.5c-2.463,0-4.612-1.955-4.612-5.2,0-3.948,2.424-7.859,6.176-12.08A.915.915,0,0,1,30.8,62.95Z"/><path class="cls-2" d="M256.145,79.525l-1.8-1.759a.975.975,0,0,1-.04-1.524,25.648,25.648,0,0,0,3.714-5.2c.079-.156,0-.273-.2-.273-2.463-.274-3.166-2.619-3.166-4.105a4.418,4.418,0,0,1,4.573-4.5c2.463,0,4.614,1.955,4.614,5.2,0,3.948-2.424,7.857-6.177,12.079A.913.913,0,0,1,256.145,79.525Zm11.1,0-1.8-1.759a.976.976,0,0,1-.039-1.524,25.57,25.57,0,0,0,3.714-5.2c.078-.156,0-.273-.195-.273-2.463-.274-3.166-2.619-3.166-4.105a4.418,4.418,0,0,1,4.573-4.5c2.463,0,4.613,1.955,4.613,5.2,0,3.948-2.424,7.857-6.176,12.079A.914.914,0,0,1,267.247,79.525Z"/><rect class="cls-3" x="46.893" y="59.728" width="20.309" height="25.299" rx="3.544" transform="translate(-15.33 129.425) rotate(-90)"/><polygon class="cls-4" points="209.115 62.048 243.885 72.168 204.704 83.066 87.81 83.066 87.81 62.048 209.115 62.048"/><polygon class="cls-5" points="209.115 62.048 243.885 72.168 207.558 69.573 87.81 70.611 87.81 62.048 209.115 62.048"/><polygon class="cls-6" points="202.109 83.325 206.78 73.465 205.742 68.276 209.115 62.048 243.885 72.168 202.109 83.325"/><polygon class="cls-7" points="209.115 62.048 243.885 72.168 204.704 83.066 87.81 83.066 87.81 62.048 209.115 62.048"/><polygon class="cls-2" points="229.614 76.319 231.43 69.054 243.885 72.168 229.614 76.319"/><path class="cls-8" d="M88.656,61.217a.249.249,0,0,1,.245.175,38.157,38.157,0,0,1,1.542,10.7A45.018,45.018,0,0,1,88.9,83.373a.251.251,0,0,1-.247.182H63.412a1.058,1.058,0,0,1-1.054-1.209,74.936,74.936,0,0,0,.8-10.07,73.8,73.8,0,0,0-.767-9.85,1.059,1.059,0,0,1,1.054-1.209Z"/><polygon class="cls-9" points="63.048 61.486 89.001 61.486 90.955 70.137 63.048 70.137 63.048 61.486"/><path class="cls-10" d="M88.656,61.217a.249.249,0,0,1,.245.175,38.157,38.157,0,0,1,1.542,10.7A45.018,45.018,0,0,1,88.9,83.373a.251.251,0,0,1-.247.182H63.412a1.058,1.058,0,0,1-1.054-1.209,74.936,74.936,0,0,0,.8-10.07,73.8,73.8,0,0,0-.767-9.85,1.059,1.059,0,0,1,1.054-1.209Z"/><path class="cls-2" d="M32.032,44.241c0,4.194-3.759,6.341-8.959,6.341-5.6,0-8.556-2.147-8.556-5.469,0-1.779,1.208-3.221,2.885-4.261a.14.14,0,0,0,0-.269,3.386,3.386,0,0,1-1.745-2.953c0-1.275.873-2.315,2.215-3.154.1-.066.134-.2,0-.269a5.8,5.8,0,0,1-2.449-4.73c0-3.524,3.154-6.309,7.784-6.309a10.064,10.064,0,0,1,3.456.571.243.243,0,0,0,.269-.067l3.019-3.054a.77.77,0,0,1,1.309.034L33.1,22.8a.78.78,0,0,1-.234,1.309l-2.886,1.677c-.1.068-.168.168-.067.269a5.6,5.6,0,0,1,1.141,3.423c0,3.59-3.087,6.308-7.852,6.308a11.7,11.7,0,0,1-2.482-.269.281.281,0,0,0-.269.067,1.608,1.608,0,0,0-.672,1.208c0,.772.638,1.141,2.316,1.342l3.289.369C28.945,38.906,32.032,40.65,32.032,44.241Zm-4.395.033c0-.839-.672-2.013-3.39-2.281-1.141-.135-2.181-.269-3.087-.37-.1-.034-.168,0-.268.068a3.93,3.93,0,0,0-1.912,2.885c0,1.476,1.14,2.55,4.093,2.55C26.06,47.126,27.637,46.019,27.637,44.274Zm-7.617-14.8A2.971,2.971,0,0,0,23.207,32.4a2.907,2.907,0,1,0,0-5.772A2.961,2.961,0,0,0,20.02,29.477Z"/><path class="cls-2" d="M46.491,38.436h3.825a.849.849,0,0,1,.94.939v1.98a.849.849,0,0,1-.94.939H37.2a.849.849,0,0,1-.939-.939v-1.98a.848.848,0,0,1,.939-.939h4.127a.193.193,0,0,0,.2-.2V27.7a.178.178,0,0,0-.2-.2h-3.59a.849.849,0,0,1-.939-.94V24.544a.848.848,0,0,1,.939-.939h7.617a.848.848,0,0,1,.939.939V38.235A.178.178,0,0,0,46.491,38.436Zm-5.871-20.7a3.288,3.288,0,1,1,3.321,3.288A3.321,3.321,0,0,1,40.62,17.733Z"/><path class="cls-2" d="M70.012,38.033l1.007,2.147a.9.9,0,0,1-.37,1.275,10.211,10.211,0,0,1-5.336,1.276c-4.26,0-6.609-2.148-6.609-6.644V27.7a.178.178,0,0,0-.2-.2H55.818a.849.849,0,0,1-.939-.94V24.544a.848.848,0,0,1,.939-.939H58.5a.178.178,0,0,0,.2-.2V19.981a.849.849,0,0,1,.94-.94H62.5a.849.849,0,0,1,.94.94V23.4a.178.178,0,0,0,.2.2h5.939a.849.849,0,0,1,.94.939v2.013a.849.849,0,0,1-.94.94H63.636a.193.193,0,0,0-.2.2v7.884c0,1.913.838,3.155,2.348,3.155a5.132,5.132,0,0,0,2.953-1.007C69.273,37.362,69.743,37.429,70.012,38.033Z"/><path class="cls-2" d="M111.245,29.41l-2.818.906a.841.841,0,0,1-1.175-.605c-.637-1.509-1.51-2.55-2.919-2.55-2.114,0-3.489,2.416-3.489,5.772s1.375,5.805,3.489,5.805c1.275,0,2.215-.638,2.986-2.148a.918.918,0,0,1,1.242-.57l2.752,1.007a.8.8,0,0,1,.5,1.241,8.143,8.143,0,0,1-7.482,4.463c-5.1,0-8.422-4.027-8.422-9.8,0-5.738,3.321-9.765,8.422-9.765a7.792,7.792,0,0,1,7.482,5.034A.821.821,0,0,1,111.245,29.41Z"/><path class="cls-2" d="M115,32.933c0-5.738,3.49-9.765,8.725-9.765,5.3,0,8.791,4.027,8.791,9.765,0,5.771-3.491,9.8-8.791,9.8C118.491,42.731,115,38.7,115,32.933Zm12.583,0c0-3.356-1.51-5.772-3.858-5.772-2.283,0-3.792,2.416-3.792,5.772s1.509,5.805,3.792,5.805C126.074,38.738,127.584,36.288,127.584,32.933Z"/><path class="cls-2" d="M152.982,29.41V41.355a.849.849,0,0,1-.939.939h-2.08a.849.849,0,0,1-.94-.939V30.316c0-2.752-.335-3.39-.939-3.39-.671,0-1.477,1.409-2.047,3.591a.846.846,0,0,0-.033.268v10.6a.849.849,0,0,1-.94.939H142.95a.848.848,0,0,1-.939-.939V30.349c0-2.751-.3-3.389-.906-3.389-.671,0-1.477,1.409-2.047,3.557a.822.822,0,0,0-.034.268v10.57a.849.849,0,0,1-.939.939h-2.114a.849.849,0,0,1-.94-.939V24.544a.849.849,0,0,1,.94-.939h.973a1.013,1.013,0,0,1,1.04.771l.37,1.175c.033.167.168.167.268,0a3.748,3.748,0,0,1,3.255-2.349,3.49,3.49,0,0,1,3.489,2.249c.068.133.2.1.335-.135a3.688,3.688,0,0,1,3.154-2.148C151.909,23.168,152.982,25.618,152.982,29.41Z"/><path class="cls-2" d="M173.113,29.41V41.355a.849.849,0,0,1-.939.939h-2.08a.849.849,0,0,1-.94-.939V30.316c0-2.752-.336-3.39-.94-3.39-.671,0-1.476,1.409-2.046,3.591a.822.822,0,0,0-.034.268v10.6a.848.848,0,0,1-.94.939h-2.113a.849.849,0,0,1-.94-.939V30.349c0-2.751-.3-3.389-.906-3.389-.671,0-1.476,1.409-2.047,3.557a.822.822,0,0,0-.034.268v10.57a.849.849,0,0,1-.939.939H156.1a.849.849,0,0,1-.94-.939V24.544a.849.849,0,0,1,.94-.939h.972a1.012,1.012,0,0,1,1.04.771l.369,1.175c.035.167.168.167.269,0a3.748,3.748,0,0,1,3.255-2.349,3.489,3.489,0,0,1,3.489,2.249c.067.133.2.1.336-.135a3.687,3.687,0,0,1,3.154-2.148C172.039,23.168,173.113,25.618,173.113,29.41Z"/><path class="cls-2" d="M187.405,38.436h3.825a.849.849,0,0,1,.94.939v1.98a.849.849,0,0,1-.94.939H178.11a.849.849,0,0,1-.939-.939v-1.98a.849.849,0,0,1,.939-.939h4.128a.193.193,0,0,0,.2-.2V27.7a.178.178,0,0,0-.2-.2h-3.591a.849.849,0,0,1-.939-.94V24.544a.849.849,0,0,1,.939-.939h7.618a.849.849,0,0,1,.939.939V38.235A.178.178,0,0,0,187.405,38.436Zm-5.872-20.7a3.288,3.288,0,1,1,3.322,3.288A3.322,3.322,0,0,1,181.533,17.733Z"/><path class="cls-2" d="M210.925,38.033l1.007,2.147a.9.9,0,0,1-.369,1.275,10.215,10.215,0,0,1-5.335,1.276c-4.262,0-6.611-2.148-6.611-6.644V27.7a.178.178,0,0,0-.2-.2h-2.685a.849.849,0,0,1-.939-.94V24.544a.849.849,0,0,1,.939-.939h2.685a.178.178,0,0,0,.2-.2V19.981a.85.85,0,0,1,.94-.94h2.852a.85.85,0,0,1,.94.94V23.4a.178.178,0,0,0,.2.2h5.939a.849.849,0,0,1,.94.939v2.013a.85.85,0,0,1-.94.94H204.55a.193.193,0,0,0-.2.2v7.884c0,1.913.839,3.155,2.348,3.155a5.134,5.134,0,0,0,2.953-1.007C210.187,37.362,210.656,37.429,210.925,38.033Z"/><path class="cls-2" d="M250.683,30.115V32.63a.85.85,0,0,1-.94.941h-10.4a.85.85,0,0,1-.94-.941V30.115a.85.85,0,0,1,.94-.941h10.4A.85.85,0,0,1,250.683,30.115Z"/><path class="cls-2" d="M273.766,29.41V41.355a.849.849,0,0,1-.94.939h-2.08a.849.849,0,0,1-.939-.939V30.316c0-2.752-.336-3.39-.941-3.39-.671,0-1.475,1.409-2.046,3.591a.822.822,0,0,0-.034.268v10.6a.848.848,0,0,1-.939.939h-2.114a.849.849,0,0,1-.94-.939V30.349c0-2.751-.3-3.389-.905-3.389-.671,0-1.477,1.409-2.047,3.557a.822.822,0,0,0-.034.268v10.57a.849.849,0,0,1-.94.939h-2.113a.849.849,0,0,1-.94-.939V24.544a.849.849,0,0,1,.94-.939h.973a1.012,1.012,0,0,1,1.04.771l.369,1.175c.034.167.168.167.268,0a3.748,3.748,0,0,1,3.255-2.349,3.488,3.488,0,0,1,3.489,2.249c.068.133.2.1.336-.135a3.687,3.687,0,0,1,3.155-2.148C272.691,23.168,273.766,25.618,273.766,29.41Z"/></svg>