<?xml version="1.0" encoding="utf-8"?>
<!-- Generator: Adobe Illustrator 23.1.1, SVG Export Plug-In . SVG Version: 6.00 Build 0)  -->
<svg version="1.1" id="Layer_1" xmlns="http://www.w3.org/2000/svg" xmlns:xlink="http://www.w3.org/1999/xlink" x="0px" y="0px"
	 viewBox="0 0 432 288" style="enable-background:new 0 0 432 288;" xml:space="preserve">
<style type="text/css">
	.st0{fill:#121F4B;}
	.st1{fill:url(#SVGID_1_);}
	.st2{fill:#A85667;}
	.st3{fill:#B96461;}
	.st4{fill:#89374F;}
	.st5{fill:#AE546B;}
	.st6{fill:#FFFFFF;}
	.st7{fill:#FF1D25;}
	.st8{fill:#123D71;}
	.st9{fill:#FB5E58;}
	.st10{fill:#E5A5A2;}
	.st11{fill:#FFBFB6;}
	.st12{fill:#A86461;}
	.st13{fill:#FFACAC;}
	.st14{fill:#FF931E;}
	.st15{fill:#FFB03C;}
</style>
<g>
	<polygon class="st0" points="432,289 125,289 -0.4,289 -0.4,-1 432,-1 	"/>
</g>
<g>
	<linearGradient id="SVGID_1_" gradientUnits="userSpaceOnUse" x1="127.4988" y1="-5.4729" x2="227.7761" y2="304.1554">
		<stop  offset="0.1356" style="stop-color:#FFFFE2;stop-opacity:0"/>
		<stop  offset="0.1918" style="stop-color:#FFFFE2;stop-opacity:0.1211"/>
		<stop  offset="0.5999" style="stop-color:#FFFFE2"/>
	</linearGradient>
	<path class="st1" d="M308.6,239.4c2.1,6.3-0.3,13.2-6,16.6c-13.2,8.1-41.9,20.4-95,20.4c-52.6,0-80.5-11.8-93.4-19.7
		c-5.6-3.5-8.1-10.4-5.9-16.7L209.5-53L308.6,239.4z"/>
	<g>
		<polygon class="st2" points="274.5,125.7 246,122.5 252.1,96 274.5,97.2 		"/>
		<path class="st3" d="M284.2,55.7c2.1,6.7,3.1,9.1,3.7,16.1c0.4,4.6,0,9.7,0,13.2s-1.6,14-7.7,18.7c-4.4,3.4-26.1,3.7-32.2-10.6
			c-8.1-19-7.7-36.3,12-41.1C271.1,49.3,281.1,45.8,284.2,55.7z"/>
		<path class="st4" d="M280.2,74.4c0,0,5.2,9.8,4.6,12.3c-0.7,2.4-5.5,3.3-6.7,3.3c-1.2,0.1,4.8-0.8,4.5-5.2S280.2,74.4,280.2,74.4z
			"/>
		<path class="st5" d="M252.4,95.2c0,0,10.5,0.1,12.1-7.2c0.8-3.9-1.6-12.2-9.7-12.2c-2.4,0-7.2,5.3-7.2,5.3S243.1,87.7,252.4,95.2z
			"/>
		<path class="st6" d="M282.2,93c0,0-8.2,3-14.6,0c-3.9-1.9-1.1,6.6,5.1,5.9C278.9,98.2,282.2,93,282.2,93z"/>
		<path class="st3" d="M325,53.7c0.7-1.5,8.1-10.1,8.1-14.7s-7.2-13.1-11-7.2c-3.8,5.9-3.4,20.8-3.4,20.8L325,53.7z"/>
		<path class="st7" d="M281.4,105.8c9.3-3.7,16.9-16.9,16.9-16.9s16.8-35.9,18.7-39.5c1.9-3.6,11.8-1.8,10.4,2.9
			C326.1,56.8,314,87,310,96.8c-4.3,10.6-23.2,31.8-23.2,31.8s2.2,6.6,1.7,13c-1,12.6-10.2,13.8-8.2,28.4c0.9,6-3.1,29.9-3.1,29.9
			l-43.7-10.3c0,0-0.3-15.5,2-25.4c2.3-9.9,0-29.2,0.1-32.9c0.6-22.7,13.9-26.8,13.9-26.8s9.7,8.7,18.8,8.9
			C276.7,113.6,271.3,109.8,281.4,105.8z"/>
		<path class="st0" d="M280.2,174.9c0,0,0.7,15.3,4.9,24c6.2,12.5,11.6,27.1,11,41.6c-1,24.9-18,52.9-18,52.9l-13.3-0.1l7.5-53
			l-16.4-31l-36.1,90.3l-25.3-8.2c0,0,22.5-53.8,23.8-65.8c1.3-12,4.3-34,6.8-43.6c2.1-8,11.3-21.8,11.3-21.8s9.7,10.6,19.9,13.4
			C266.5,176.3,280.2,174.9,280.2,174.9z"/>
		<path class="st8" d="M239.1,168.5c6.1,8.1,27.9,13.8,41.5,10.7c0,0,1.8,13.9,4.6,19.6c6.2,12.5,11.6,27.1,11,41.6
			c-1,24.9-10.7,37.2-10.7,37.2s8.6-15.4,6.8-37.2c-1.3-15.8-10.4-25.5-14.8-38.1c-4.7-13.2-4.5-18.7-4.5-18.7
			S242.3,182,239.1,168.5z"/>
		<path class="st3" d="M302.2,185.8c1.2,1.1,3.2,9.1,10.2,11.1c6.6,2,16.3-2.9,11.7-8.1c-4.6-5.2-19.1-8.9-19.1-8.9L302.2,185.8z"/>
		<path class="st7" d="M238.7,126.9c0,7.7,15.1,37.5,15.5,39.5c0.4,2,43.6,21.7,47.7,24c4.1,2.4,9.5-9.1,6.1-11.4
			c-3.4-2.3-42.8-22.8-42.8-22.8s-3.3-38.7-13.9-42.4C240.7,110.2,238.7,119.2,238.7,126.9z"/>
		<path class="st9" d="M242.6,124.3c0,7.7,9.6,34,14.4,37.7s50.3,25.6,50.3,25.6s3.8-6.8,1-8.5c-2.7-1.7-42-24.9-42-24.9
			s-7.1-39.8-14-42.3C244.4,108.9,242.6,116.6,242.6,124.3z"/>
		<path class="st0" d="M278.2,62.6c0,0-4.1,13-14.3,13.4c-10.2,0.4-13.4,2.9-13,10.6s5.3,12.6-1.2,13.9c-6.5,1.2-26-25-10.6-47.3
			c8.6-12.5,33.1-11.4,43.2-2.9c8.1,6.9,9.1,15.8,5.7,19.2C284.5,72.8,278.2,62.6,278.2,62.6z"/>
		<path class="st8" d="M273.1,43.9c12.3,4,16.1,15.7,16.1,15.7s-7.7-11.1-15.9-13.3C260,42.6,246,47.2,246,47.2
			S258.8,39.3,273.1,43.9z"/>
		<path class="st9" d="M252.5,111.9c0,0,11.3,6.2,18.2,6.2c5.3,0,3.1-3,6.6-0.8c2.5,1.6,4.8,7.5,7.2,13.7c2.6,6.8-2.6,9.5-6.4,7.8
			c-5.9-2.6-7.7,2.4-12.6-0.1S250.9,113.1,252.5,111.9z"/>
		<path class="st9" d="M297.7,89.8c-1.6,2.5-11.2,14.1-14.8,15.4c0,0,12.9-3.6,19.1-15.6c9.8-19.1,20.9-42.1,20.9-42.1s-5-0.2-6,1.8
			C315.8,51.2,297.7,89.8,297.7,89.8z"/>
		<path class="st7" d="M247.2,106.1c0,0,1.9-4.4,3.5-2.9c3.6,3.6,14,9.2,19.1,9.2c5.2,0,4.2-5.1,5.7-4.8c1.5,0.3,2.4,1,2.6,2
			c0.2,1.1-4.4,6.9-9.3,6.8C261.7,116.3,248.8,108.4,247.2,106.1z"/>
	</g>
	<g>
		
			<rect x="155.5" y="109" transform="matrix(0.9566 -0.2913 0.2913 0.9566 -29.0237 53.6741)" class="st10" width="20.4" height="30.6"/>
		<path class="st11" d="M138.9,74.5c-2.1,6.7-1.8,9.4-3.7,16.1c-1.2,4.3-0.6,8.9-0.6,12.4c0,3.5,3.8,14.8,9.9,19.5
			c4.4,3.4,24,3.3,30.6-10.6c8.8-18.6,7.7-36.3-12-41.1C152.1,68.1,142,64.6,138.9,74.5z"/>
		<path class="st12" d="M143.3,95.2c0,0-4.5,10.2-3.6,12.6c0.8,2.4,5.7,2.8,6.9,2.8c1.2,0-4.9-0.4-4.9-4.9
			C141.7,101.3,143.3,95.2,143.3,95.2z"/>
		<path class="st13" d="M167.4,92.3c0,0-10.6,4.1-9,11.4c0.9,3.9,6.9,10.6,15.1,7.3c2.4-1,4.9-7.7,4.9-7.7S180,95.5,167.4,92.3z"/>
		<path class="st0" d="M142.9,80.1c0,0,9.2,2.1,13.9,4.5c6.3,3.2,10.6,11.1,13.4,20c4.9,15.1,13.4,44.9,15.5,53
			c6.1,24,25.7,5.3,26.5-6.9c1.5-22.1-14.3-24.4-20-40.7c-4.6-13.1-6.6-23.4-17.4-37.8c-4.5-6-23.1-8.4-32.5-6
			c-5.8,1.5-23.8,6.5-7.9,26.3C135.9,94.1,142.9,80.1,142.9,80.1z"/>
		<path class="st8" d="M185.8,91.4c-2.4-6-5.2-13.1-11-19.4c-2.7-2.9-8.7-5.3-15.5-6.3c-0.1-0.3,8.5,2,13.4,6.1
			C177.7,76,185.8,91.4,185.8,91.4z"/>
		<path class="st8" d="M142.3,66c-5.1,1.3-19.5,5.3-12.4,19.5c0,0-1-3.8,0.4-8.5C132.5,69.6,142.3,66,142.3,66z"/>
		<path class="st8" d="M176.7,88.2c-5.8-11.6-18.5-12.5-18.5-12.5s13.1,4.3,17.3,12.6c5.8,11.7,6.4,20.1,6.4,20.1
			S182.5,99.8,176.7,88.2z"/>
		<path class="st6" d="M140.8,113.5c0,0,9.8,2.4,14.2-3.1c2.7-3.3,2.5,6.2-3.7,6.8C145.1,117.8,140.8,113.5,140.8,113.5z"/>
		<path class="st13" d="M206.3,79.4c-0.4-1.6-5.6-12-4.5-16.6c1.1-4.5,10.4-11.3,12.7-4.5c2.3,6.8-1.6,21.6-1.6,21.6L206.3,79.4z"/>
		<path class="st13" d="M97.7,74.1c0.1-1.4,2.6-15.2,0.4-20.8c-2.1-5.4-11.2,0.5-12.2,6.2c-1.1,5.7,6.6,15.8,6.6,15.8L97.7,74.1z"/>
		<path class="st14" d="M144,127.4c-10,0.4-29.7-16-29.7-16s-12.9-38.1-15.5-41.5c-2.6-3.4-11.9,1.1-9.9,4.3s12.4,49.1,17.3,53
			c6.1,4.8,37.2,20.9,37.2,20.9s0.3,6.5,2.8,13.5c2.1,6.1,9.5,11.8,9.5,26.6c0,6.1,7.4,29.1,7.4,29.1l41.7-16.5
			c0,0-1.9-15.3-5.6-24.8c-3.7-9.5-5.8-25.5-5.8-30.3c0-5.3-1.4-10.8-1.4-10.8s29.7-3.3,29.7-11.4c0-13.8-6.4-42.2-7-46.1
			c-0.6-3.9-11.8-3.7-11.7,2.5c0.1,6.2,3.2,37.6,3.2,37.6l-29.9,2.1c0,0-3.2,10.1-12.2,11.4C156.7,132.1,154.5,126.9,144,127.4z"/>
		<path class="st0" d="M156.6,193c0,0,1.5,15.3-1.4,24.4c-4.3,13.3-7.6,28.5-4.9,42.8c4.6,24.5,25.5,49.7,25.5,49.7l36.5-0.4
			l-38.3-52.9l11.8-33l49.5,90.3l23.9-11.7c0,0-30-50-33-61.7c-3-11.7-9.9-39.1-13.9-48.3c-3.2-7.6-14.3-20-14.3-20
			s-8.1,11.9-17.8,16.1C170.3,192.4,156.6,193,156.6,193z"/>
		<path class="st8" d="M201.2,175.8c0,0-9.6,11.7-17.9,15.5c-10.6,4.9-21.2,5.3-21.2,5.3s11.8,2,24-4.5c9.7-5.1,17.9-12.6,17.9-12.6
			L201.2,175.8z"/>
		<path class="st8" d="M204,197c6.1,11,11,36.7,15.1,46.9c4.1,10.2,24.6,31.8,24.6,31.8c-7.9-14-16.1-29.4-17.7-35.3
			c-3-11.7-9.9-39.1-13.9-48.3c-3.2-7.6-11.6-16.9-11.6-16.9s-2.9,5.3-6.7,9.2C190.7,187.6,197.9,186,204,197z"/>
		<path class="st8" d="M176.7,208c-2.9,15.9-6.1,40.7-6.1,48.9c0,6.9,20,22.4,20.4,23.2c1,2.5-17.1-23.6-17.1-23.6l11.8-33
			C185.7,223.5,182,219.4,176.7,208z"/>
		<path class="st8" d="M133.9,87.4c-0.2-0.4-1.7-4.2,0.7-8.7c3.1-5.7,8.9-0.9,8.9-0.9s-5.4-2.7-7.5,1.2
			C134.4,82.1,133.9,87.4,133.9,87.4z"/>
		<path class="st15" d="M152.7,128.6c-2.2-0.8-5.6,5.8-6.5,12.6c-0.8,5.7,0.3,11.6,2.4,13.4c5.1,4.5,13,4.1,20,0
			c2.2-1.3,12.6,1,17.9-5.7c4-5,2.9-12.9-0.4-19.2c-3.4-6.3-8.9-10.9-9.4-10.2C169,133.1,169.4,134.7,152.7,128.6z"/>
		<path class="st15" d="M183.4,129.9c0,0,33.3-2.6,33.7-8.2c0.8-9.9-6.2-46.9-6.2-46.9s-8-0.6-7.9,5c0.1,2.7,2.1,35.6,2.1,35.6
			s-14.5,1.7-18.9,2.3c-5.2,0.7-9.6,1.8-9.6,1.8L183.4,129.9z"/>
		<path class="st15" d="M155,128.6c-4.1-2.4-12.4-2.3-15.8-2.9c-3.3-0.7-24.9-14.3-24.9-14.3S101.1,72.9,99,70.1
			c-2-2.9-6.8-0.7-6.8-0.7s13.4,48.7,16.6,51.1c4.9,3.7,37.8,20.9,39.8,21.5C154.7,143.7,161.6,132.6,155,128.6z"/>
		<path class="st14" d="M153.9,129.4c-0.8-1-0.4-2.2,1.2-2c1.2,0.1,5.6,4.1,10.2,2.4c5.7-2,8.1-8.9,9-10.2c1.4-2,2.5-0.8,2.9,0
			c0.3,0.8-4.9,11-10.6,12.6C161.6,133.7,155.8,131.7,153.9,129.4z"/>
	</g>
</g>
</svg>
