<?xml version="1.0" encoding="utf-8"?>
<!-- Generator: Adobe Illustrator 23.0.4, SVG Export Plug-In . SVG Version: 6.00 Build 0)  -->
<svg version="1.1" xmlns="http://www.w3.org/2000/svg" xmlns:xlink="http://www.w3.org/1999/xlink" x="0px" y="0px"
	 viewBox="0 0 273.4 405.5" style="enable-background:new 0 0 273.4 405.5;" xml:space="preserve">
<style type="text/css">
	.st-3-0{fill:url(#SVGID_3_);}
	.st-3-1{fill:#B96461;}
	.st-3-2{fill:#A85667;}
	.st-3-3{fill:#89374F;}
	.st-3-4{fill:#FF1D25;}
	.st-3-5{fill:#AE546B;}
	.st-3-6{fill:#FFFFFF;}
	.st-3-7{fill:#121F4B;}
	.st-3-8{fill:#123D71;}
	.st-3-9{fill:#FB5E58;}
	.st-3-10{fill:#E5A5A2;}
	.st-3-11{fill:#FFBFB6;}
	.st-3-12{fill:#A86461;}
	.st-3-13{fill:#FFACAC;}
	.st-3-14{fill:#FF931E;}
	.st-3-15{fill:#FFB03C;}
</style>
<g id="Layer_1">
	<linearGradient id="SVGID_3_" gradientUnits="userSpaceOnUse" x1="46.1769" y1="52.5348" x2="157.0198" y2="394.7866">
		<stop  offset="0.1356" style="stop-color:#FFFFE2;stop-opacity:0"/>
		<stop  offset="0.1918" style="stop-color:#FFFFE2;stop-opacity:0.1211"/>
		<stop  offset="0.5999" style="stop-color:#FFFFE2"/>
	</linearGradient>
	<path class="st-3-0" d="M246.3,323.2c2.3,6.9-0.4,14.5-6.6,18.4c-14.6,9-46.3,22.5-105,22.5c-58.1,0-89-13-103.3-21.8
		c-6.2-3.8-8.9-11.5-6.5-18.4L136.9,0L246.3,323.2z"/>
</g>
<g id="Layer_2">
	<g>
		<path class="st-3-1" d="M264.5,117.9c0.8-1.6,9-11.2,8.9-16.2c0-5-8-14.4-12.2-7.9c-4.2,6.5-3.8,23-3.8,23L264.5,117.9z"/>
		<polygon class="st-3-2" points="208.7,197.6 177.2,194 183.9,164.7 208.7,166 		"/>
		<path class="st-3-1" d="M219.4,120.2c2.3,7.4,3.4,10.1,4.1,17.8c0.5,5.1,0,10.7,0,14.5s-1.8,15.5-8.6,20.7
			c-4.8,3.8-28.8,4.1-35.5-11.7c-8.9-20.9-8.5-40.1,13.3-45.4C204.9,113.1,216,109.2,219.4,120.2z"/>
		<path class="st-3-3" d="M214.9,140.8c0,0,5.8,10.9,5,13.6c-0.7,2.7-6.1,3.6-7.4,3.7c-1.3,0.1,5.4-0.8,5-5.8
			C217.2,147.4,214.9,140.8,214.9,140.8z"/>
		<path class="st-3-4" d="M255.7,113.1c-2.1,3.9-20.7,43.7-20.7,43.7s-8.3,14.6-18.6,18.7c-2.2,0.9-3.8,1.8-4.9,2.6
			c-0.4-0.2-0.9-0.4-1.5-0.5c-1.7-0.3-0.6,5.3-6.3,5.3c-5.7,0-17.1-6.2-21.2-10.2c-1.3-1.3-2.8,1.1-3.5,2.4
			c-4.1,2.3-12.7,9.5-13.2,28.6c-0.1,4.1,2.4,25.4-0.1,36.3s-2.2,28.1-2.2,28.1l48.3,11.4c0,0,4.4-26.4,3.5-33
			c-2.3-16.2,8-17.4,9-31.4c0.5-7.1-1.9-14.4-1.9-14.4s20.8-23.4,25.6-35.1c4.4-10.9,17.8-44.2,19.4-49.3
			C268.7,111.1,257.8,109.2,255.7,113.1z"/>
		<path class="st-3-5" d="M184.3,163.8c0,0,11.6,0.1,13.3-8c0.9-4.3-1.8-13.5-10.7-13.5c-2.6,0-7.9,5.9-7.9,5.9S174,155.5,184.3,163.8z
			"/>
		<path class="st-3-6" d="M217.1,161.4c0,0-9.1,3.4-16.1,0c-4.4-2.1-1.2,7.3,5.6,6.5C213.5,167.1,217.1,161.4,217.1,161.4z"/>
		<path class="st-3-7" d="M215,251.9c0,0,0.7,16.9,5.5,26.5c6.9,13.9,12.8,30,12.1,46c-1.1,27.6-19.9,58.4-19.9,58.4l-14.7-0.1
			l8.2-58.5l-18.2-34.2l-39.9,99.8l-28-9c0,0,24.9-59.4,26.3-72.8c1.5-13.3,4.7-37.6,7.6-48.2c2.3-8.8,12.5-24.1,12.5-24.1
			s10.7,11.7,22,14.8S215,251.9,215,251.9z"/>
		<path class="st-3-8" d="M169.5,244.8c6.8,9,30.8,15.2,45.8,11.9c0,0,1.9,15.3,5.1,21.6c6.9,13.9,12.8,30,12.1,46
			c-1.1,27.6-11.9,41.1-11.9,41.1s9.5-17.1,7.5-41.1c-1.4-17.5-11.4-28.2-16.4-42.2c-5.2-14.6-5-20.7-5-20.7
			S173.1,259.7,169.5,244.8z"/>
		<path class="st-3-1" d="M239.2,264c1.3,1.2,3.6,10.1,11.2,12.3c7.3,2.2,18-3.2,12.9-8.9c-5.1-5.8-21.1-9.9-21.1-9.9L239.2,264z"/>
		<path class="st-3-4" d="M169.1,198.9c0,8.6,16.7,41.4,17.1,43.7s48.2,24,52.7,26.6c4.5,2.6,10.5-10.1,6.8-12.6s-47.3-25.2-47.3-25.2
			s-3.6-42.8-15.3-46.8C171.3,180.4,169.1,190.3,169.1,198.9z"/>
		<path class="st-3-7" d="M212.7,127.7c0,0-4.5,14.4-15.8,14.9s-14.9,3.2-14.4,11.7s5.9,14-1.4,15.3c-7.2,1.4-28.8-27.6-11.7-52.2
			c9.6-13.8,36.6-12.6,47.7-3.2c9,7.7,10.1,17.5,6.3,21.2C219.8,139.1,212.7,127.7,212.7,127.7z"/>
		<path class="st-3-8" d="M207.1,107.1c13.6,4.4,17.8,17.3,17.8,17.3s-8.6-12.2-17.6-14.7c-14.6-4.1-30,1-30,1S191.3,102,207.1,107.1z"
			/>
		<path class="st-3-9" d="M246.1,256.6c-3-1.9-46.4-27.5-46.4-27.5s-1.8-10.1-4.5-21c1.3,1.9,2.6,3.4,3.7,3.9c5.4,2.7,7.4-2.8,13.9,0.1
			c4.1,1.8,9.9-1.1,7-8.6c-2.6-6.9-5.2-13.3-7.9-15.1c-3.9-2.5-1.5,0.8-7.3,0.8c-7.7,0-20.2-6.9-20.2-6.9c0,0,0,0,0,0.1
			c0,0-0.1,0-0.1,0c-8.9-3.4-10.9,5.2-10.9,13.7c0,8.6,10.6,37.6,16,41.6c5.4,4.1,55.6,28.3,55.6,28.3S249.1,258.4,246.1,256.6z"/>
		<path class="st-3-9" d="M234.4,157.8c-1.8,2.8-12.3,15.6-16.4,17c0,0,14.3-4,21.1-17.3c10.8-21.1,23.2-46.5,23.2-46.5s-5.5-0.3-6.7,2
			C254.3,115.2,234.4,157.8,234.4,157.8z"/>
	</g>
</g>
<g id="Layer_3">
	<g>
		
			<rect x="77.2" y="179.1" transform="matrix(0.9566 -0.2913 0.2913 0.9566 -53.2601 34.2648)" class="st-3-10" width="22.5" height="33.8"/>
		<path class="st-3-11" d="M58.8,140.9c-2.3,7.4-2,10.4-4.1,17.8c-1.4,4.8-0.7,9.8-0.7,13.7s4.2,16.3,11,21.6
			c4.8,3.8,26.6,3.6,33.8-11.7c9.7-20.6,8.5-40.1-13.3-45.4C73.3,133.8,62.2,130,58.8,140.9z"/>
		<path class="st-3-12" d="M63.7,163.8c0,0-5,11.3-4,14c0.9,2.6,6.3,3.1,7.6,3.1c1.4,0-5.4-0.5-5.4-5.4S63.7,163.8,63.7,163.8z"/>
		<path class="st-3-13" d="M90.2,160.6c0,0-11.7,4.5-9.9,12.6c1,4.3,7.7,11.7,16.7,8.1c2.6-1.1,5.4-8.6,5.4-8.6S104.2,164.2,90.2,160.6
			z"/>
		<path class="st-3-7" d="M63.2,147.1c0,0,10.1,2.3,15.3,5c7,3.6,11.7,12.2,14.9,22.1c5.4,16.7,14.9,49.7,17.1,58.6
			c6.8,26.6,28.4,5.9,29.3-7.7c1.6-24.5-15.8-27-22.1-45c-5.1-14.5-7.3-25.9-19.2-41.8c-4.9-6.6-25.6-9.2-35.9-6.6
			c-6.5,1.7-26.3,7.1-8.7,29.1C55.5,162.7,63.2,147.1,63.2,147.1z"/>
		<path class="st-3-8" d="M110.7,159.6c-2.7-6.7-5.7-14.5-12.2-21.5c-3-3.2-9.6-5.9-17.1-7c-0.2-0.3,9.4,2.2,14.8,6.8
			C101.6,142.6,110.7,159.6,110.7,159.6z"/>
		<path class="st-3-8" d="M62.6,131.6c-5.6,1.5-21.6,5.8-13.7,21.6c0,0-1.1-4.2,0.4-9.4C51.7,135.5,62.6,131.6,62.6,131.6z"/>
		<path class="st-3-8" d="M100.6,156.1c-6.4-12.8-20.5-13.8-20.5-13.8s14.5,4.7,19.1,13.9c6.4,12.9,7.1,22.2,7.1,22.2
			S107,168.9,100.6,156.1z"/>
		<path class="st-3-6" d="M60.9,184c0,0,10.8,2.6,15.7-3.4c2.9-3.6,2.7,6.8-4.1,7.5C65.7,188.8,60.9,184,60.9,184z"/>
		<path class="st-3-13" d="M133.3,146.4c-0.4-1.8-6.2-13.3-5-18.3c1.3-5,11.5-12.4,14-5c2.6,7.5-1.8,23.9-1.8,23.9L133.3,146.4z"/>
		<path class="st-3-13" d="M13.2,140.5c0.1-1.5,2.9-16.8,0.4-23c-2.3-6-12.3,0.5-13.5,6.9s7.3,17.5,7.3,17.5L13.2,140.5z"/>
		<path class="st-3-14" d="M64.4,199.4c-11.1,0.5-32.8-17.7-32.8-17.7s-14.3-42.1-17.2-45.9s-13.2,1.2-11,4.8s13.7,54.3,19.2,58.6
			c6.7,5.3,41.1,23.2,41.1,23.2s0.4,7.2,3.1,14.9c2.4,6.7,10.5,13.1,10.5,29.4c0,6.7,8.2,32.2,8.2,32.2l46.1-18.3
			c0,0-2.1-17-6.2-27.5c-4.1-10.5-6.4-28.2-6.4-33.5c0-5.9-1.6-12-1.6-12s32.8-3.7,32.8-12.6c0-15.2-7-46.6-7.7-50.9
			c-0.7-4.3-13-4.1-12.9,2.8s3.5,41.5,3.5,41.5l-33.1,2.3c0,0-3.5,11.2-13.5,12.6C78.5,204.6,76,198.8,64.4,199.4z"/>
		<path class="st-3-7" d="M78.3,271.9c0,0,1.7,16.9-1.6,27c-4.8,14.7-8.4,31.5-5.4,47.3c5.1,27.1,28.1,54.9,28.1,54.9l40.4-0.5
			l-42.4-58.5l13.1-36.5l54.7,99.8l26.4-13c0,0-33.1-55.2-36.5-68.2c-3.4-13-11-43.3-15.3-53.4c-3.6-8.4-15.9-22.1-15.9-22.1
			s-8.9,13.1-19.7,17.8S78.3,271.9,78.3,271.9z"/>
		<path class="st-3-8" d="M155.1,324.3c-3.4-13-11-43.3-15.3-53.4c-2.8-6.4-8.8-14-11.5-17.2l-0.6-0.8c0,0,0,0,0,0
			c-0.4-0.5-0.7-0.7-0.7-0.7s-1.3,2.4-3.4,5.2c-3.9,4.1-10.1,10-15.8,12.6c-11.7,5.4-23.4,5.8-23.4,5.8s13.1,2.3,26.6-4.9
			c3.2-1.7,6.3-3.7,9.1-5.6c2.2,1.4,6.7,3.7,10.7,11c6.8,12.2,12.2,40.5,16.7,51.8c4.5,11.3,27.2,35.1,27.2,35.1
			C165.9,347.8,156.8,330.8,155.1,324.3z"/>
		<path class="st-3-8" d="M100.6,288.5c-3.2,17.6-6.8,45-6.8,54c0,7.7,22.1,24.7,22.5,25.7c1.1,2.8-18.9-26.1-18.9-26.1l13.1-36.5
			C110.5,305.7,106.4,301.1,100.6,288.5z"/>
		<path class="st-3-8" d="M53.2,155.2c-0.2-0.5-1.9-4.7,0.8-9.6c3.5-6.3,9.9-1,9.9-1s-5.9-3-8.3,1.4C53.8,149.3,53.2,155.2,53.2,155.2z
			"/>
		<path class="st-3-15" d="M138.4,141.3c0,0-8.9-0.7-8.7,5.5c0.1,3,2.4,39.3,2.4,39.3s-16.1,1.9-20.9,2.6c-5,0.7-9.2,1.7-10.3,2
			c-0.1,0-0.2,0-0.3,0.1c-7.8,13.6-8.1,16.3-22.4,11.4c-0.4-0.5-1-1-1.7-1.4c-4.5-2.7-13.7-2.5-17.4-3.2
			c-3.7-0.7-27.6-15.8-27.6-15.8S17,139.2,14.7,136.1c-2.3-3.2-7.5-0.7-7.5-0.7s14.8,53.8,18.4,56.5c4.7,3.5,32.4,18.2,41.3,22.6
			c0,0.1,0,0.2,0,0.3c-0.9,6.3,0.4,12.8,2.7,14.9c5.7,5,14.4,4.5,22.1,0c2.5-1.4,13.9,1.1,19.8-6.3c4.5-5.6,3.2-14.3-0.5-21.2
			c0,0,0-0.1-0.1-0.1c8.7-0.8,34-3.7,34.4-8.8C146.1,182.2,138.4,141.3,138.4,141.3z"/>
		<path class="st-3-14" d="M75.4,201.6c-0.9-1.1-0.4-2.4,1.4-2.3c1.3,0.1,6.2,4.5,11.3,2.7c6.3-2.3,8.9-9.8,9.9-11.3
			c1.5-2.2,2.8-0.9,3.2,0s-5.4,12.2-11.7,14C83.9,206.3,77.5,204.2,75.4,201.6z"/>
	</g>
</g>
</svg>
