<?xml version="1.0" encoding="utf-8"?>
<!-- Generator: Adobe Illustrator 23.0.4, SVG Export Plug-In . SVG Version: 6.00 Build 0)  -->
<svg version="1.1" xmlns="http://www.w3.org/2000/svg" xmlns:xlink="http://www.w3.org/1999/xlink" x="0px" y="0px"
	 viewBox="0 0 640 1170" style="enable-background:new 0 0 640 1170;" xml:space="preserve">
<style type="text/css">
	.st0{opacity:0.46;fill:url(#SVGID_1_);}
	.st1{fill:url(#SVGID_2_);}
	.st2{fill:url(#SVGID_3_);}
	.st3{fill:url(#SVGID_4_);}
	.st4{fill:#121F4B;}
	.st5{fill:#0E4791;}
	.st6{fill:#2083C9;}
	.st7{fill:url(#SVGID_5_);}
	.st8{opacity:0.26;fill:#94253F;}
	.st9{fill:url(#SVGID_6_);}
	.st10{fill:#FFFFFF;}
	.st11{fill:#06F49A;}
	.st12{fill:url(#SVGID_7_);}
	.st13{fill:#2055A1;}
	.st14{fill:#0EBDED;}
	.st15{fill:#203E8B;}
	.st16{fill:#154F7F;}
	.st17{fill:#FFC8A9;}
	.st18{fill:#DB9C82;}
	.st19{fill:#FFD7C4;}
	.st20{fill:#DEE3EB;}
	.st21{fill:#151547;}
	.st22{fill:#FF4668;}
	.st23{fill:#CB2E5B;}
	.st24{fill:#EBB08E;}
	.st25{fill:#94253F;}
	.st26{fill:#C7545D;}
	.st27{fill:#7C1631;}
	.st28{fill:#FF7630;}
	.st29{fill:#F4562D;}
	.st30{fill:#5F0F22;}
	.st31{fill:#423F67;}
	.st32{fill:#F5C6D9;}
	.st33{fill:#DA96A4;}
	.st34{fill:#FEDEF8;}
	.st35{fill:#F5B6CA;}
	.st36{fill:#BB818F;}
	.st37{fill:#426EA6;}
	.st38{opacity:0.46;fill:url(#SVGID_8_);}
</style>
<g id="blue">
	<linearGradient id="SVGID_1_" gradientUnits="userSpaceOnUse" x1="79.2171" y1="923.3316" x2="797.7144" y2="-115.7508">
		<stop  offset="0.1516" style="stop-color:#FFFFE2;stop-opacity:0"/>
		<stop  offset="1" style="stop-color:#FFFFE2"/>
	</linearGradient>
	<path class="st0" d="M215.9,330.7L54.9,750l324.9,58.8c23,4.2,46.5-3.8,62.2-21c43.8-47.9,115.5-171.8,115.2-171.7L556.7,360
		L215.9,330.7z"/>
	
		<radialGradient id="SVGID_2_" cx="250.37" cy="910.2453" r="527.1335" gradientTransform="matrix(0.9857 0.1685 -0.1006 0.5888 95.1912 332.0863)" gradientUnits="userSpaceOnUse">
		<stop  offset="0.2363" style="stop-color:#00BBE9"/>
		<stop  offset="0.364" style="stop-color:#03B3E9;stop-opacity:0.8328"/>
		<stop  offset="0.5607" style="stop-color:#0A9EEA;stop-opacity:0.5752"/>
		<stop  offset="0.8004" style="stop-color:#177BEB;stop-opacity:0.2613"/>
		<stop  offset="1" style="stop-color:#2358EC;stop-opacity:0"/>
	</radialGradient>
	<polygon class="st1" points="903.3,1053.4 -299,845.1 -299,380.1 903.3,588.4 	"/>
	<linearGradient id="SVGID_3_" gradientUnits="userSpaceOnUse" x1="242.7902" y1="562.6035" x2="242.7902" y2="562.6035">
		<stop  offset="0.1516" style="stop-color:#FFFFE2;stop-opacity:0"/>
		<stop  offset="1" style="stop-color:#FFFFE2"/>
	</linearGradient>
	<path class="st2" d="M242.8,562.6"/>
</g>
<g id="orange">
	
		<radialGradient id="SVGID_4_" cx="250.37" cy="910.2453" r="527.1335" gradientTransform="matrix(0.9857 0.1685 -0.1006 0.5888 95.1912 332.0863)" gradientUnits="userSpaceOnUse">
		<stop  offset="0.2363" style="stop-color:#FFFFD0"/>
		<stop  offset="0.3544" style="stop-color:#FFFAC8;stop-opacity:0.8363"/>
		<stop  offset="0.5364" style="stop-color:#FFEDB3;stop-opacity:0.5841"/>
		<stop  offset="0.7582" style="stop-color:#FFD890;stop-opacity:0.2768"/>
		<stop  offset="0.958" style="stop-color:#FFC16A;stop-opacity:0"/>
	</radialGradient>
	<polygon class="st3" points="903.3,1053.4 -299,845.1 -299,380.1 903.3,588.4 	"/>
</g>
<g id="laptop_shadow">
	<path class="st4" d="M66.2,750l-22,22.5c-6.8,6.8-3.2,18.3,6.2,20.2l347.1,56.1c20.3,4.3,41.3-3.5,53.9-20l120.3-158.9l-17.3-12.3
		L66.2,750z"/>
</g>
<g id="laptop_main">
	<path class="st4" d="M566.8,643.4L207.7,593c-5.7-0.8-9.9-5.7-9.9-11.4l-5.6-261.3c0-10.5,9.1-18.7,19.5-17.7l353.9,32.5
		c9.2,0.9,16.2,8.6,16.1,17.9l-2.1,279.3C579.6,639.2,573.5,644.4,566.8,643.4z"/>
	<g>
		<path class="st4" d="M571.7,648.6l-12.7-5.2L53.4,738.6c0,0-0.3,20.9,0,22.4v0.3h0.1c1,5.1,5,9.6,11,10.4
			c0,0,301.1,47.6,329.9,52.1s39.6-4.7,51-16.2c11.5-11.5,104.9-115.3,125.2-137.1C573,667.9,571.8,652.1,571.7,648.6z"/>
		<path class="st5" d="M569.9,654.2L439,790.7c-11.6,11.9-28.1,17.5-44.5,15.1L64.5,753.7c-10.7-1.6-15.1-14.7-7.4-22.4l136.2-135
			c3.1-3.1,7.6-4.6,11.9-4L566,642.8C571.5,643.6,573.8,650.3,569.9,654.2z"/>
		<path class="st6" d="M437,787c-11.6,11.9-28.1,17.5-44.5,15.1l-328-48.3l329.9,52.1c16.4,2.4,32.9-3.2,44.5-15.1l130.9-136.5
			L437,787z"/>
	</g>
	<path class="st6" d="M304.4,310.9l259.4,21.4c11.3,1,20,10.5,19.9,21.8l-4.2,259.5l1.5-257.4c-0.1-11.2-8.6-20.5-19.7-21.5
		L304.4,310.9z"/>
	<linearGradient id="SVGID_5_" gradientUnits="userSpaceOnUse" x1="373.2354" y1="625.2145" x2="388.2574" y2="455.3499">
		<stop  offset="0" style="stop-color:#207DD0"/>
		<stop  offset="0.3527" style="stop-color:#2494D9"/>
		<stop  offset="0.7243" style="stop-color:#28A5E0"/>
		<stop  offset="1" style="stop-color:#29ABE2"/>
	</linearGradient>
	<polygon class="st7" points="557.8,615.3 219.5,569.3 215.6,330.7 557.8,360.1 	"/>
</g>
<g id="keyboard_shadow">
	<path class="st8" d="M570.1,654.2L437.7,786.7c-11.6,11.9-28.1,17.5-44.5,15.1l-170.8-25.3c0,0-45.6-23-64.1-63.2
		s-10.1-72.1-10.1-72.1l45.3-44.9c3.1-3.1,7.6-4.6,11.9-4l360.7,50.5C571.7,643.6,574,650.3,570.1,654.2z"/>
</g>
<g id="keyboard">
	<g>
		<path class="st4" d="M230.6,620.6l-17.6-2.5c-1.5-0.2-1.7-1.5-0.3-2.9l8.8-8.7c1.4-1.4,3.8-2.3,5.3-2.1l17.6,2.5
			c1.5,0.2,1.7,1.5,0.3,2.9l-8.8,8.7C234.5,619.8,232.1,620.8,230.6,620.6z"/>
		<path class="st4" d="M255.5,624.1l-17.6-2.5c-1.5-0.2-1.7-1.5-0.3-2.9l8.8-8.7c1.4-1.4,3.8-2.3,5.3-2.1l17.6,2.5
			c1.5,0.2,1.7,1.5,0.3,2.9l-8.8,8.7C259.4,623.3,257,624.3,255.5,624.1z"/>
		<path class="st4" d="M280.4,627.6l-17.6-2.5c-1.5-0.2-1.7-1.5-0.3-2.9l8.8-8.7c1.4-1.4,3.8-2.3,5.3-2.1l17.6,2.5
			c1.5,0.2,1.7,1.5,0.3,2.9l-8.8,8.7C284.3,626.8,281.9,627.8,280.4,627.6z"/>
		<path class="st4" d="M305.3,631l-17.6-2.5c-1.5-0.2-1.7-1.5-0.3-2.9l8.8-8.7c1.4-1.4,3.8-2.3,5.3-2.1l17.6,2.5
			c1.5,0.2,1.7,1.5,0.3,2.9l-8.8,8.7C309.2,630.3,306.8,631.3,305.3,631z"/>
		<path class="st4" d="M330.2,634.5l-17.6-2.5c-1.5-0.2-1.7-1.5-0.3-2.9l8.8-8.7c1.4-1.4,3.8-2.3,5.3-2.1l17.6,2.5
			c1.5,0.2,1.7,1.5,0.3,2.9l-8.8,8.7C334.1,633.8,331.8,634.7,330.2,634.5z"/>
		<path class="st4" d="M355.1,638l-17.6-2.5c-1.5-0.2-1.7-1.5-0.3-2.9l8.8-8.7c1.4-1.4,3.8-2.3,5.3-2.1l17.6,2.5
			c1.5,0.2,1.7,1.5,0.3,2.9l-8.8,8.7C359,637.3,356.7,638.2,355.1,638z"/>
		<path class="st4" d="M380,641.5l-17.6-2.5c-1.5-0.2-1.7-1.5-0.3-2.9l8.8-8.7c1.4-1.4,3.8-2.3,5.3-2.1l17.6,2.5
			c1.5,0.2,1.7,1.5,0.3,2.9l-8.8,8.7C383.9,640.8,381.6,641.7,380,641.5z"/>
		<path class="st4" d="M404.9,645l-17.6-2.5c-1.5-0.2-1.7-1.5-0.3-2.9l8.8-8.7c1.4-1.4,3.8-2.3,5.3-2.1l17.6,2.5
			c1.5,0.2,1.7,1.5,0.3,2.9l-8.8,8.7C408.9,644.3,406.5,645.2,404.9,645z"/>
		<path class="st4" d="M429.8,648.5l-17.6-2.5c-1.5-0.2-1.7-1.5-0.3-2.9l8.8-8.7c1.4-1.4,3.8-2.3,5.3-2.1l17.6,2.5
			c1.5,0.2,1.7,1.5,0.3,2.9l-8.8,8.7C433.8,647.8,431.4,648.7,429.8,648.5z"/>
		<path class="st4" d="M454.8,652l-17.6-2.5c-1.5-0.2-1.7-1.5-0.3-2.9l8.8-8.7c1.4-1.4,3.8-2.3,5.3-2.1l17.6,2.5
			c1.5,0.2,1.7,1.5,0.3,2.9l-8.8,8.7C458.7,651.2,456.3,652.2,454.8,652z"/>
		<path class="st4" d="M479.7,655.5l-17.6-2.5c-1.5-0.2-1.7-1.5-0.3-2.9l8.8-8.7c1.4-1.4,3.8-2.3,5.3-2.1l17.6,2.5
			c1.5,0.2,1.7,1.5,0.3,2.9l-8.8,8.7C483.6,654.7,481.2,655.7,479.7,655.5z"/>
		<path class="st4" d="M504.6,659l-17.6-2.5c-1.5-0.2-1.7-1.5-0.3-2.9l8.8-8.7c1.4-1.4,3.8-2.3,5.3-2.1l17.6,2.5
			c1.5,0.2,1.7,1.5,0.3,2.9l-8.8,8.7C508.5,658.2,506.1,659.2,504.6,659z"/>
		<path class="st4" d="M210,615.9l10.6-10.6c0.9-0.9,0.4-1.7-1.1-2l-17.8-2.5c-1.5-0.2-3.4,0.3-4.2,1.2l-10.6,10.6
			c-0.9,0.9-0.4,1.7,1.1,2l17.8,2.5C207.3,617.3,209.2,616.8,210,615.9z"/>
		<path class="st4" d="M521.3,647.4L510.7,658c-0.9,0.9-0.4,1.7,1.1,2l32,4.5c1.5,0.2,3.4-0.3,4.2-1.2l10.6-10.6
			c0.9-0.9,0.4-1.7-1.1-2l-32-4.5C524.1,646,522.2,646.5,521.3,647.4z"/>
		<path class="st4" d="M171.7,679.4l-17.6-2.5c-1.5-0.2-1.7-1.5-0.3-2.9l8.8-8.7c1.4-1.4,3.8-2.3,5.3-2.1l17.6,2.5
			c1.5,0.2,1.7,1.5,0.3,2.9l-8.8,8.7C175.6,678.6,173.3,679.6,171.7,679.4z"/>
		<path class="st4" d="M196.6,682.9l-17.6-2.5c-1.5-0.2-1.7-1.5-0.3-2.9l8.8-8.7c1.4-1.4,3.8-2.3,5.3-2.1l17.6,2.5
			c1.5,0.2,1.7,1.5,0.3,2.9l-8.8,8.7C200.5,682.1,198.2,683.1,196.6,682.9z"/>
		<path class="st4" d="M228.5,687.3l-24.6-3.4c-1.5-0.2-1.7-1.5-0.3-2.9l8.8-8.7c1.4-1.4,3.8-2.3,5.3-2.1l24.6,3.4
			c1.5,0.2,1.7,1.5,0.3,2.9l-8.8,8.7C232.5,686.6,230.1,687.6,228.5,687.3z"/>
		<linearGradient id="SVGID_6_" gradientUnits="userSpaceOnUse" x1="234.6623" y1="689.7043" x2="368.3143" y2="689.7043">
			<stop  offset="0" style="stop-color:#207DD0"/>
			<stop  offset="0.3527" style="stop-color:#2494D9"/>
			<stop  offset="0.7243" style="stop-color:#28A5E0"/>
			<stop  offset="1" style="stop-color:#29ABE2"/>
		</linearGradient>
		<path class="st9" d="M353.3,704.8l-117.4-16.4c-1.5-0.2-1.7-1.5-0.3-2.9l8.8-8.7c1.4-1.4,3.8-2.3,5.3-2.1L367.1,691
			c1.5,0.2,1.7,1.5,0.3,2.9l-8.8,8.7C357.2,704.1,354.8,705,353.3,704.8z"/>
		<path class="st4" d="M384.4,709.2l-23.6-3.3c-1.5-0.2-1.7-1.5-0.3-2.9l8.8-8.7c1.4-1.4,3.8-2.3,5.3-2.1l23.6,3.3
			c1.5,0.2,1.7,1.5,0.3,2.9l-8.8,8.7C388.3,708.4,385.9,709.4,384.4,709.2z"/>
		<path class="st4" d="M409.3,712.7l-17.6-2.5c-1.5-0.2-1.7-1.5-0.3-2.9l8.8-8.7c1.4-1.4,3.8-2.3,5.3-2.1l17.6,2.5
			c1.5,0.2,1.7,1.5,0.3,2.9l-8.8,8.7C413.2,711.9,410.9,712.9,409.3,712.7z"/>
		<path class="st4" d="M434.2,716.2l-17.6-2.5c-1.5-0.2-1.7-1.5-0.3-2.9l8.8-8.7c1.4-1.4,3.8-2.3,5.3-2.1l17.6,2.5
			c1.5,0.2,1.7,1.5,0.3,2.9l-8.8,8.7C438.1,715.4,435.8,716.4,434.2,716.2z"/>
		<path class="st4" d="M459.1,719.6l-17.6-2.5c-1.5-0.2-1.7-1.5-0.3-2.9l8.8-8.7c1.4-1.4,3.8-2.3,5.3-2.1l17.6,2.5
			c1.5,0.2,1.7,1.5,0.3,2.9l-8.8,8.7C463,718.9,460.7,719.9,459.1,719.6z"/>
		<path class="st4" d="M151.2,674.7l10.6-10.6c0.9-0.9,0.4-1.7-1.1-2l-17.8-2.5c-1.5-0.2-3.4,0.3-4.2,1.2L128,671.4
			c-0.9,0.9-0.4,1.7,1.1,2l17.8,2.5C148.4,676.1,150.3,675.6,151.2,674.7z"/>
		<path class="st4" d="M475.9,708.1l-10.6,10.6c-0.9,0.9-0.4,1.7,1.1,2l18.6,2.6c1.5,0.2,3.4-0.3,4.2-1.2l10.6-10.6
			c0.9-0.9,0.4-1.7-1.1-2l-18.6-2.6C478.7,706.7,476.8,707.2,475.9,708.1z"/>
		<path class="st4" d="M500.3,659.4l17.6,2.5c1.5,0.2,1.7,1.5,0.3,2.9l-8.8,8.7c-1.4,1.4-3.8,2.3-5.3,2.1l-17.6-2.5
			c-1.5-0.2-1.7-1.5-0.3-2.9l8.8-8.7C496.4,660.2,498.8,659.2,500.3,659.4z"/>
		<path class="st4" d="M475.4,655.9l17.6,2.5c1.5,0.2,1.7,1.5,0.3,2.9l-8.8,8.7c-1.4,1.4-3.8,2.3-5.3,2.1l-17.6-2.5
			c-1.5-0.2-1.7-1.5-0.3-2.9l8.8-8.7C471.5,656.7,473.9,655.7,475.4,655.9z"/>
		<path class="st4" d="M450.5,652.4l17.6,2.5c1.5,0.2,1.7,1.5,0.3,2.9l-8.8,8.7c-1.4,1.4-3.8,2.3-5.3,2.1l-17.6-2.5
			c-1.5-0.2-1.7-1.5-0.3-2.9l8.8-8.7C446.6,653.2,449,652.2,450.5,652.4z"/>
		<path class="st4" d="M425.6,649l17.6,2.5c1.5,0.2,1.7,1.5,0.3,2.9l-8.8,8.7c-1.4,1.4-3.8,2.3-5.3,2.1l-17.6-2.5
			c-1.5-0.2-1.7-1.5-0.3-2.9l8.8-8.7C421.7,649.7,424,648.7,425.6,649z"/>
		<path class="st4" d="M400.7,645.5l17.6,2.5c1.5,0.2,1.7,1.5,0.3,2.9l-8.8,8.7c-1.4,1.4-3.8,2.3-5.3,2.1l-17.6-2.5
			c-1.5-0.2-1.7-1.5-0.3-2.9l8.8-8.7C396.8,646.2,399.1,645.2,400.7,645.5z"/>
		<path class="st4" d="M375.8,642l17.6,2.5c1.5,0.2,1.7,1.5,0.3,2.9l-8.8,8.7c-1.4,1.4-3.8,2.3-5.3,2.1l-17.6-2.5
			c-1.5-0.2-1.7-1.5-0.3-2.9l8.8-8.7C371.9,642.7,374.2,641.8,375.8,642z"/>
		<path class="st4" d="M350.9,638.5l17.6,2.5c1.5,0.2,1.7,1.5,0.3,2.9l-8.8,8.7c-1.4,1.4-3.8,2.3-5.3,2.1l-17.6-2.5
			c-1.5-0.2-1.7-1.5-0.3-2.9l8.8-8.7C346.9,639.2,349.3,638.3,350.9,638.5z"/>
		<path class="st4" d="M325.9,635l17.6,2.5c1.5,0.2,1.7,1.5,0.3,2.9l-8.8,8.7c-1.4,1.4-3.8,2.3-5.3,2.1l-17.6-2.5
			c-1.5-0.2-1.7-1.5-0.3-2.9l8.8-8.7C322,635.7,324.4,634.8,325.9,635z"/>
		<path class="st4" d="M301,631.5l17.6,2.5c1.5,0.2,1.7,1.5,0.3,2.9l-8.8,8.7c-1.4,1.4-3.8,2.3-5.3,2.1l-17.6-2.5
			c-1.5-0.2-1.7-1.5-0.3-2.9l8.8-8.7C297.1,632.2,299.5,631.3,301,631.5z"/>
		<path class="st4" d="M276.1,628l17.6,2.5c1.5,0.2,1.7,1.5,0.3,2.9l-8.8,8.7c-1.4,1.4-3.8,2.3-5.3,2.1l-17.6-2.5
			c-1.5-0.2-1.7-1.5-0.3-2.9l8.8-8.7C272.2,628.7,274.6,627.8,276.1,628z"/>
		<path class="st4" d="M251.2,624.5l17.6,2.5c1.5,0.2,1.7,1.5,0.3,2.9l-8.8,8.7c-1.4,1.4-3.8,2.3-5.3,2.1l-17.6-2.5
			c-1.5-0.2-1.7-1.5-0.3-2.9l8.8-8.7C247.3,625.3,249.7,624.3,251.2,624.5z"/>
		<path class="st4" d="M226.3,621l17.6,2.5c1.5,0.2,1.7,1.5,0.3,2.9l-8.8,8.7c-1.4,1.4-3.8,2.3-5.3,2.1l-17.6-2.5
			c-1.5-0.2-1.7-1.5-0.3-2.9l8.8-8.7C222.4,621.8,224.8,620.8,226.3,621z"/>
		<path class="st4" d="M209.5,632.6l10.6-10.6c0.9-0.9,0.4-1.7-1.1-2l-32.1-4.5c-1.5-0.2-3.4,0.3-4.2,1.2l-10.6,10.6
			c-0.9,0.9-0.4,1.7,1.1,2l32.1,4.5C206.8,634,208.7,633.5,209.5,632.6z"/>
		<path class="st4" d="M520.8,664.1l-10.6,10.6c-0.9,0.9-0.4,1.7,1.1,2l17.8,2.5c1.5,0.2,3.4-0.3,4.2-1.2l10.6-10.6
			c0.9-0.9,0.4-1.7-1.1-2l-17.8-2.5C523.6,662.7,521.7,663.2,520.8,664.1z"/>
		<path class="st4" d="M466.7,671.5l17.6,2.5c1.5,0.2,1.7,1.5,0.3,2.9l-8.8,8.7c-1.4,1.4-3.8,2.3-5.3,2.1l-17.6-2.5
			c-1.5-0.2-1.7-1.5-0.3-2.9l8.8-8.7C462.8,672.2,465.2,671.3,466.7,671.5z"/>
		<path class="st4" d="M441.8,668l17.6,2.5c1.5,0.2,1.7,1.5,0.3,2.9l-8.8,8.7c-1.4,1.4-3.8,2.3-5.3,2.1l-17.6-2.5
			c-1.5-0.2-1.7-1.5-0.3-2.9l8.8-8.7C437.9,668.7,440.3,667.8,441.8,668z"/>
		<path class="st4" d="M416.9,664.5l17.6,2.5c1.5,0.2,1.7,1.5,0.3,2.9l-8.8,8.7c-1.4,1.4-3.8,2.3-5.3,2.1l-17.6-2.5
			c-1.5-0.2-1.7-1.5-0.3-2.9l8.8-8.7C413,665.2,415.3,664.3,416.9,664.5z"/>
		<path class="st4" d="M392,661l17.6,2.5c1.5,0.2,1.7,1.5,0.3,2.9l-8.8,8.7c-1.4,1.4-3.8,2.3-5.3,2.1l-17.6-2.5
			c-1.5-0.2-1.7-1.5-0.3-2.9l8.8-8.7C388.1,661.7,390.4,660.8,392,661z"/>
		<path class="st4" d="M367.1,657.5l17.6,2.5c1.5,0.2,1.7,1.5,0.3,2.9l-8.8,8.7c-1.4,1.4-3.8,2.3-5.3,2.1l-17.6-2.5
			c-1.5-0.2-1.7-1.5-0.3-2.9l8.8-8.7C363.2,658.3,365.5,657.3,367.1,657.5z"/>
		<path class="st4" d="M342.2,654l17.6,2.5c1.5,0.2,1.7,1.5,0.3,2.9l-8.8,8.7c-1.4,1.4-3.8,2.3-5.3,2.1l-17.6-2.5
			c-1.5-0.2-1.7-1.5-0.3-2.9l8.8-8.7C338.2,654.8,340.6,653.8,342.2,654z"/>
		<path class="st4" d="M317.3,650.5l17.6,2.5c1.5,0.2,1.7,1.5,0.3,2.9l-8.8,8.7c-1.4,1.4-3.8,2.3-5.3,2.1l-17.6-2.5
			c-1.5-0.2-1.7-1.5-0.3-2.9l8.8-8.7C313.3,651.3,315.7,650.3,317.3,650.5z"/>
		<path class="st4" d="M292.3,647l17.6,2.5c1.5,0.2,1.7,1.5,0.3,2.9l-8.8,8.7c-1.4,1.4-3.8,2.3-5.3,2.1l-17.6-2.5
			c-1.5-0.2-1.7-1.5-0.3-2.9l8.8-8.7C288.4,647.8,290.8,646.8,292.3,647z"/>
		<path class="st4" d="M267.4,643.6L285,646c1.5,0.2,1.7,1.5,0.3,2.9l-8.8,8.7c-1.4,1.4-3.8,2.3-5.3,2.1l-17.6-2.5
			c-1.5-0.2-1.7-1.5-0.3-2.9l8.8-8.7C263.5,644.3,265.9,643.3,267.4,643.6z"/>
		<path class="st4" d="M242.5,640.1l17.6,2.5c1.5,0.2,1.7,1.5,0.3,2.9l-8.8,8.7c-1.4,1.4-3.8,2.3-5.3,2.1l-17.6-2.5
			c-1.5-0.2-1.7-1.5-0.3-2.9l8.8-8.7C238.6,640.8,241,639.8,242.5,640.1z"/>
		<path class="st4" d="M217.6,636.6l17.6,2.5c1.5,0.2,1.7,1.5,0.3,2.9l-8.8,8.7c-1.4,1.4-3.8,2.3-5.3,2.1l-17.6-2.5
			c-1.5-0.2-1.7-1.5-0.3-2.9l8.8-8.7C213.7,637.3,216.1,636.4,217.6,636.6z"/>
		<path class="st4" d="M200.8,648.1l10.6-10.6c0.9-0.9,0.4-1.7-1.1-2l-38.1-5.3c-1.5-0.2-3.4,0.3-4.2,1.2L157.5,642
			c-0.9,0.9-0.4,1.7,1.1,2l38.1,5.3C198.1,649.5,200,649,200.8,648.1z"/>
		<path class="st4" d="M487.2,676.2l-10.6,10.6c-0.9,0.9-0.4,1.7,1.1,2l36.7,5.1c1.5,0.2,3.4-0.3,4.2-1.2l10.6-10.6
			c0.9-0.9,0.4-1.7-1.1-2l-36.7-5.1C490,674.7,488.1,675.3,487.2,676.2z"/>
		<path class="st4" d="M438.8,684.3l17.6,2.5c1.5,0.2,1.7,1.5,0.3,2.9l-8.8,8.7c-1.4,1.4-3.8,2.3-5.3,2.1l-17.6-2.5
			c-1.5-0.2-1.7-1.5-0.3-2.9l8.8-8.7C434.9,685.1,437.3,684.1,438.8,684.3z"/>
		<path class="st4" d="M413.9,680.8l17.6,2.5c1.5,0.2,1.7,1.5,0.3,2.9l-8.8,8.7c-1.4,1.4-3.8,2.3-5.3,2.1l-17.6-2.5
			c-1.5-0.2-1.7-1.5-0.3-2.9l8.8-8.7C410,681.6,412.4,680.6,413.9,680.8z"/>
		<path class="st4" d="M389,677.3l17.6,2.5c1.5,0.2,1.7,1.5,0.3,2.9l-8.8,8.7c-1.4,1.4-3.8,2.3-5.3,2.1l-17.6-2.5
			c-1.5-0.2-1.7-1.5-0.3-2.9l8.8-8.7C385.1,678.1,387.4,677.1,389,677.3z"/>
		<path class="st4" d="M364.1,673.9l17.6,2.5c1.5,0.2,1.7,1.5,0.3,2.9l-8.8,8.7c-1.4,1.4-3.8,2.3-5.3,2.1l-17.6-2.5
			c-1.5-0.2-1.7-1.5-0.3-2.9l8.8-8.7C360.2,674.6,362.5,673.6,364.1,673.9z"/>
		<path class="st4" d="M339.2,670.4l17.6,2.5c1.5,0.2,1.7,1.5,0.3,2.9l-8.8,8.7c-1.4,1.4-3.8,2.3-5.3,2.1l-17.6-2.5
			c-1.5-0.2-1.7-1.5-0.3-2.9l8.8-8.7C335.3,671.1,337.6,670.2,339.2,670.4z"/>
		<path class="st4" d="M314.3,666.9l17.6,2.5c1.5,0.2,1.7,1.5,0.3,2.9l-8.8,8.7c-1.4,1.4-3.8,2.3-5.3,2.1l-17.6-2.5
			c-1.5-0.2-1.7-1.5-0.3-2.9l8.8-8.7C310.3,667.6,312.7,666.7,314.3,666.9z"/>
		<path class="st4" d="M289.3,663.4l17.6,2.5c1.5,0.2,1.7,1.5,0.3,2.9l-8.8,8.7c-1.4,1.4-3.8,2.3-5.3,2.1l-17.6-2.5
			c-1.5-0.2-1.7-1.5-0.3-2.9l8.8-8.7C285.4,664.1,287.8,663.2,289.3,663.4z"/>
		<path class="st4" d="M264.4,659.9l17.6,2.5c1.5,0.2,1.7,1.5,0.3,2.9l-8.8,8.7c-1.4,1.4-3.8,2.3-5.3,2.1l-17.6-2.5
			c-1.5-0.2-1.7-1.5-0.3-2.9l8.8-8.7C260.5,660.6,262.9,659.7,264.4,659.9z"/>
		<path class="st4" d="M239.5,656.4l17.6,2.5c1.5,0.2,1.7,1.5,0.3,2.9l-8.8,8.7c-1.4,1.4-3.8,2.3-5.3,2.1l-17.6-2.5
			c-1.5-0.2-1.7-1.5-0.3-2.9l8.8-8.7C235.6,657.1,238,656.2,239.5,656.4z"/>
		<path class="st4" d="M214.6,652.9l17.6,2.5c1.5,0.2,1.7,1.5,0.3,2.9l-8.8,8.7c-1.4,1.4-3.8,2.3-5.3,2.1l-17.6-2.5
			c-1.5-0.2-1.7-1.5-0.3-2.9l8.8-8.7C210.7,653.7,213.1,652.7,214.6,652.9z"/>
		<path class="st4" d="M197.9,664.5l10.6-10.6c0.9-0.9,0.4-1.7-1.1-2l-49.8-7c-1.5-0.2-3.4,0.3-4.2,1.2l-10.6,10.6
			c-0.9,0.9-0.4,1.7,1.1,2l49.8,7C195.1,665.9,197,665.3,197.9,664.5z"/>
		<path class="st4" d="M459.6,689L449,699.7c-0.9,0.9-0.4,1.7,1.1,2l49.6,7c1.5,0.2,3.4-0.3,4.2-1.2l10.6-10.6
			c0.9-0.9,0.4-1.7-1.1-2l-49.6-7C462.3,687.6,460.5,688.2,459.6,689z"/>
	</g>
</g>
<g id="goals">
	<g>
		<g>
			<path class="st10" d="M365.4,520.1l0.1,9.5c-1.7,0.7-3.4,1.3-5.1,1.5c-1.7,0.3-3.4,0.3-5.1,0.1c-2.4-0.3-4.5-0.9-6.4-1.8
				c-1.8-0.9-3.4-2.1-4.7-3.5c-1.3-1.4-2.3-2.9-3-4.6c-0.7-1.6-1.1-3.7-1.1-6.1l0-4.1c0-2.4,0.6-4.7,1.8-6.9c1.2-2.2,2.9-3.7,5-4.7
				c2.1-1,4.4-1.3,6.9-1c3.6,0.4,6.7,1.7,9.2,4c0-0.9,0-1.4,0.1-1.5c0.1-0.2,0.2-0.3,0.4-0.4s0.4-0.2,0.7-0.1c0.3,0,0.6,0.2,0.8,0.4
				c0.2,0.3,0.3,0.6,0.3,1.2l0,5c0,0.5-0.1,0.9-0.3,1.1c-0.2,0.2-0.5,0.3-0.8,0.2c-0.3,0-0.6-0.2-0.8-0.4c-0.2-0.2-0.3-0.6-0.3-1.1
				c-0.1-1.5-1.1-2.8-3-4c-1.9-1.2-3.9-1.9-6.1-2.1c-2.1-0.2-3.9,0-5.6,0.7c-1.7,0.7-3.2,2.2-4.6,4.6c-1,1.5-1.4,3.3-1.4,5.4l0,4
				c0,3.7,1.2,6.7,3.5,9.2c2.3,2.4,5.4,3.9,9.5,4.3c1.4,0.2,2.6,0.2,3.8,0c1.2-0.2,2.5-0.5,4.1-1l0-8.2l-7.7-0.9
				c-0.5-0.1-0.9-0.2-1.2-0.4c-0.2-0.2-0.3-0.5-0.4-0.8s0.1-0.6,0.3-0.8c0.2-0.2,0.6-0.2,1.1-0.2l10.8,1.2c0.5,0.1,0.9,0.2,1.2,0.4
				c0.2,0.2,0.4,0.5,0.4,0.8c0,0.2-0.1,0.4-0.2,0.6c-0.1,0.2-0.3,0.3-0.5,0.3C366.8,520.3,366.3,520.2,365.4,520.1z"/>
			<path class="st10" d="M399.8,520.1c0,3-0.6,5.6-1.8,8c-1.2,2.4-2.9,4.2-5,5.3c-2.1,1.2-4.4,1.6-6.8,1.3c-3.6-0.4-6.8-2.3-9.6-5.6
				c-2.8-3.3-4.2-7.4-4.2-12.2c0-4.8,1.3-8.5,4.1-11.2c2.7-2.7,5.9-3.9,9.5-3.5c2.4,0.3,4.7,1.2,6.9,2.9c2.1,1.6,3.8,3.8,5,6.5
				C399.1,514.3,399.7,517.1,399.8,520.1z M397.5,519.9c0-3.6-1.1-7-3.2-10.1c-2.1-3.1-4.9-4.9-8.3-5.2c-3.2-0.4-5.8,0.7-8.1,3.2
				c-2.2,2.5-3.3,5.7-3.3,9.5c0,4.1,1.2,7.6,3.6,10.5c2.4,2.9,5,4.5,7.9,4.8c3.4,0.4,6.1-0.7,8.2-3.4
				C396.5,526.6,397.5,523.5,397.5,519.9z"/>
			<path class="st10" d="M426.3,528.2l-14.8-1.7l-3,7.8l4.3,0.5c0.5,0.1,0.9,0.2,1.2,0.4c0.2,0.2,0.4,0.5,0.4,0.8
				c0,0.3-0.1,0.6-0.3,0.8c-0.2,0.2-0.6,0.2-1.1,0.2l-8.4-0.9c-0.5-0.1-0.9-0.2-1.2-0.4c-0.2-0.2-0.3-0.5-0.4-0.8
				c0-0.3,0.1-0.6,0.3-0.8c0.2-0.2,0.6-0.2,1.1-0.2l1.7,0.2l9.8-25.4l-6.6-0.7c-0.5-0.1-0.9-0.2-1.1-0.4c-0.2-0.2-0.4-0.5-0.4-0.8
				c0-0.3,0.1-0.6,0.3-0.8c0.2-0.2,0.6-0.2,1.1-0.2l11.3,1.3l11.1,29.9l1.7,0.2c0.5,0.1,0.9,0.2,1.2,0.4c0.2,0.2,0.3,0.5,0.4,0.8
				c0,0.3-0.1,0.6-0.3,0.8c-0.2,0.2-0.6,0.2-1.1,0.2l-8.4-0.9c-0.6-0.1-0.9-0.2-1.2-0.5c-0.2-0.2-0.3-0.5-0.4-0.8
				c0-0.3,0.1-0.6,0.3-0.8c0.2-0.2,0.6-0.2,1.2-0.2l4.3,0.5L426.3,528.2z M425.4,525.8l-6.3-16.8l-0.8-0.1l-5.9,15.5L425.4,525.8z"
				/>
			<path class="st10" d="M450,512.5l0.1,26.5l14.9,1.7l0-8.8c0-0.5,0.1-0.9,0.3-1.1c0.2-0.2,0.5-0.3,0.8-0.2c0.3,0,0.6,0.2,0.8,0.4
				c0.2,0.2,0.3,0.6,0.3,1.2l0.1,11l-24.8-2.8c-0.5-0.1-0.9-0.2-1.2-0.4c-0.2-0.2-0.3-0.5-0.4-0.8c0-0.3,0.1-0.6,0.3-0.8
				c0.2-0.2,0.6-0.2,1.1-0.2l5.3,0.6l-0.1-26.5l-5.3-0.6c-0.5-0.1-0.9-0.2-1.1-0.4c-0.2-0.2-0.4-0.5-0.4-0.8c0-0.3,0.1-0.6,0.3-0.8
				c0.2-0.2,0.6-0.2,1.1-0.2l13,1.5c0.5,0.1,0.9,0.2,1.2,0.4c0.2,0.2,0.3,0.5,0.4,0.8c0,0.3-0.1,0.6-0.3,0.8
				c-0.2,0.2-0.6,0.2-1.1,0.2L450,512.5z"/>
			<path class="st10" d="M494.7,517.5l0-0.7c0-0.5,0.1-0.9,0.3-1.1c0.2-0.2,0.5-0.3,0.8-0.3c0.3,0,0.6,0.2,0.8,0.4
				c0.2,0.3,0.3,0.6,0.3,1.2l0,5.7c0,0.5-0.1,0.9-0.3,1.1c-0.2,0.2-0.5,0.3-0.8,0.3c-0.3,0-0.6-0.2-0.8-0.4
				c-0.2-0.2-0.3-0.6-0.3-1.1c-0.1-1.5-0.9-2.9-2.3-4.3c-1.5-1.3-3.4-2.1-5.7-2.4c-2.5-0.3-4.4,0.1-5.9,1.2
				c-1.5,1.1-2.2,2.5-2.2,4.2c0,0.9,0.2,1.7,0.6,2.5c0.4,0.8,1,1.4,1.6,1.9c0.7,0.5,1.4,1,2.3,1.3c0.9,0.4,2.2,0.8,4,1.3
				c3.1,0.8,5.2,1.6,6.3,2.2c1.6,0.9,2.7,1.9,3.5,3.3c0.8,1.3,1.2,2.8,1.2,4.4c0,2.5-1,4.6-3,6.1c-2,1.6-4.8,2.1-8.3,1.7
				c-3.9-0.4-7-2-9.4-4.7l0,1.3c0,0.5-0.1,0.9-0.3,1.1c-0.2,0.2-0.5,0.3-0.8,0.3c-0.3,0-0.6-0.2-0.8-0.4c-0.2-0.3-0.3-0.6-0.3-1.2
				l0-6.1c0-0.5,0.1-0.9,0.3-1.1c0.2-0.2,0.5-0.3,0.8-0.3c0.3,0,0.6,0.2,0.8,0.4c0.2,0.2,0.3,0.6,0.3,1.1c0.1,1.6,1,3.2,2.7,4.7
				c1.7,1.5,3.9,2.4,6.7,2.8c2.8,0.3,5-0.1,6.7-1.3c1.6-1.2,2.4-2.8,2.4-4.7c0-1.2-0.3-2.2-1-3.2s-1.6-1.8-2.8-2.5
				c-0.9-0.5-2.6-1.1-5.4-1.8c-3.7-1-6.4-2.3-8.1-3.7c-1.6-1.5-2.5-3.4-2.5-5.7c0-2.3,0.9-4.2,2.8-5.7c1.9-1.5,4.3-2,7.4-1.7
				C489.7,514,492.5,515.3,494.7,517.5z"/>
		</g>
		<path class="st10" d="M318.8,526c-0.2,0-0.5,0-0.7,0l-14.8-1.7c-3.3-0.4-5.9-3.3-5.9-6.5l-0.1-14.6c0-1.6,0.6-3,1.8-4.1
			c1.2-1,2.7-1.5,4.3-1.3l14.8,1.7c3.3,0.4,5.9,3.3,5.9,6.5l0.1,14.6c0,1.6-0.6,3-1.8,4.1C321.4,525.5,320.2,526,318.8,526z
			 M302.7,499.7c-0.9,0-1.7,0.3-2.3,0.9c-0.7,0.6-1.1,1.5-1.1,2.6l0.1,14.6c0,2.2,1.9,4.3,4.2,4.5l14.8,1.7c1.1,0.1,2.1-0.2,2.8-0.8
			c0.7-0.6,1.1-1.5,1.1-2.6l-0.1-14.6c0-2.2-1.9-4.3-4.2-4.5l-14.8-1.7C303,499.8,302.9,499.7,302.7,499.7z"/>
	</g>
	<g>
		<g>
			<path class="st10" d="M353.8,462.9l0.1,11.7l5.8,0.7c0.5,0.1,0.9,0.2,1.2,0.4c0.2,0.2,0.4,0.5,0.4,0.8c0,0.3-0.1,0.6-0.3,0.8
				c-0.2,0.2-0.6,0.2-1.1,0.2l-13.9-1.6c-0.5-0.1-0.9-0.2-1.2-0.4c-0.2-0.2-0.4-0.5-0.4-0.8c0-0.3,0.1-0.6,0.3-0.8
				c0.2-0.2,0.6-0.2,1.2-0.2l5.8,0.7l-0.1-11.7l-9.9-15.9l-1.3-0.2c-0.5-0.1-0.9-0.2-1.2-0.4c-0.2-0.2-0.4-0.5-0.4-0.8
				c0-0.3,0.1-0.6,0.3-0.8c0.2-0.2,0.6-0.2,1.1-0.2l6.2,0.7c0.5,0.1,0.9,0.2,1.2,0.4s0.4,0.5,0.4,0.8c0,0.3-0.1,0.6-0.3,0.8
				c-0.2,0.2-0.6,0.2-1.1,0.2l-2.2-0.3l8.5,13.4l8.1-11.6l-2.2-0.2c-0.6-0.1-0.9-0.2-1.2-0.4c-0.2-0.2-0.4-0.5-0.4-0.8
				c0-0.3,0.1-0.6,0.3-0.8c0.2-0.2,0.6-0.2,1.2-0.2l6.1,0.7c0.5,0.1,0.9,0.2,1.2,0.4c0.2,0.2,0.3,0.5,0.4,0.8c0,0.3-0.1,0.6-0.3,0.8
				c-0.2,0.2-0.6,0.2-1.1,0.2l-1.3-0.2L353.8,462.9z"/>
			<path class="st10" d="M399.2,466.6c0,3-0.6,5.6-1.8,8c-1.2,2.4-2.9,4.2-5,5.3c-2.1,1.2-4.4,1.6-6.8,1.3c-3.6-0.4-6.8-2.3-9.6-5.6
				c-2.8-3.3-4.2-7.4-4.2-12.2c0-4.8,1.3-8.5,4.1-11.2c2.7-2.7,5.9-3.9,9.5-3.5c2.4,0.3,4.7,1.2,6.9,2.9c2.1,1.6,3.8,3.8,5,6.5
				C398.5,460.8,399.2,463.6,399.2,466.6z M396.9,466.3c0-3.6-1.1-7-3.2-10.1c-2.1-3.1-4.9-4.9-8.3-5.2c-3.2-0.4-5.8,0.7-8.1,3.2
				c-2.2,2.5-3.3,5.7-3.3,9.5c0,4.1,1.2,7.6,3.6,10.5c2.4,2.9,5,4.5,7.9,4.8c3.4,0.4,6.1-0.7,8.2-3.4
				C395.9,473.1,396.9,469.9,396.9,466.3z"/>
			<path class="st10" d="M429.1,456.6l0.1,18.5c0,3.1-1,5.6-3.1,7.5c-2.1,1.9-4.6,2.6-7.6,2.3c-2-0.2-3.8-0.9-5.3-1.9
				c-1.6-1-2.9-2.5-4-4.4c-1.1-1.9-1.7-3.9-1.7-6l-0.1-18.5l-1.9-0.2c-0.5-0.1-0.9-0.2-1.2-0.4s-0.4-0.5-0.4-0.8
				c0-0.3,0.1-0.6,0.4-0.8c0.2-0.2,0.6-0.2,1.1-0.1l8.3,0.9c0.5,0.1,0.9,0.2,1.1,0.4c0.2,0.2,0.4,0.5,0.4,0.8c0,0.3-0.1,0.6-0.3,0.8
				c-0.2,0.2-0.6,0.2-1.1,0.2l-4.1-0.5l0.1,18.5c0,2.4,0.9,4.6,2.6,6.5s3.7,3,6,3.2c1.5,0.2,2.8,0,4-0.5c1.2-0.5,2.3-1.4,3.2-2.7
				c0.9-1.3,1.4-2.8,1.4-4.5l-0.1-18.5l-4.1-0.5c-0.5-0.1-0.9-0.2-1.2-0.4c-0.2-0.2-0.4-0.5-0.4-0.8c0-0.3,0.1-0.6,0.3-0.8
				c0.2-0.2,0.6-0.2,1.1-0.2l8.3,0.9c0.5,0.1,0.9,0.2,1.2,0.4c0.2,0.2,0.4,0.5,0.4,0.8c0,0.3-0.1,0.6-0.3,0.8
				c-0.2,0.2-0.6,0.2-1.1,0.2L429.1,456.6z"/>
			<path class="st10" d="M443.9,473.2l0.1,11.6l4.1,0.5c0.6,0.1,0.9,0.2,1.2,0.4c0.2,0.2,0.3,0.5,0.4,0.8c0,0.3-0.1,0.6-0.3,0.8
				c-0.2,0.2-0.6,0.2-1.2,0.2l-9.4-1.1c-0.5-0.1-0.9-0.2-1.2-0.4c-0.2-0.2-0.3-0.5-0.4-0.8c0-0.3,0.1-0.6,0.3-0.8
				c0.2-0.2,0.6-0.2,1.1-0.2l3,0.3l-0.1-26.5l-3-0.3c-0.5-0.1-0.9-0.2-1.2-0.4c-0.2-0.2-0.4-0.5-0.4-0.8c0-0.3,0.1-0.6,0.3-0.8
				c0.2-0.2,0.6-0.2,1.1-0.2l13.6,1.5c2.8,0.3,5.2,1.5,7.1,3.4c1.9,2,2.9,4.1,2.9,6.3c0,1.6-0.6,3-1.8,4.3c-1.2,1.3-3.2,2.2-5.9,2.8
				c1.6,1.3,3,2.7,4.1,4.2c1.1,1.5,3,4.5,5.5,9.1l1.7,0.2c0.5,0.1,0.9,0.2,1.2,0.4c0.2,0.2,0.4,0.5,0.4,0.8c0,0.3-0.1,0.6-0.3,0.8
				c-0.2,0.2-0.6,0.2-1.1,0.2l-3-0.3c-2.8-5.2-5-8.8-6.5-10.6c-1.5-1.8-3.3-3.3-5.3-4.5L443.9,473.2z M443.8,471l6.1,0.7
				c2,0.2,3.7,0.1,5.3-0.5c1.6-0.5,2.7-1.2,3.5-2.1c0.7-0.9,1.1-1.8,1.1-2.8c0-1.5-0.8-3-2.3-4.5c-1.5-1.5-3.3-2.4-5.5-2.6l-8.3-0.9
				L443.8,471z"/>
		</g>
		<path class="st10" d="M318.2,472.5c-0.2,0-0.5,0-0.7,0l-14.8-1.7c-3.3-0.4-5.9-3.3-5.9-6.5l-0.1-14.6c0-1.6,0.6-3,1.8-4.1
			c1.2-1,2.7-1.5,4.3-1.3l14.8,1.7c3.3,0.4,5.9,3.3,5.9,6.5l0.1,14.6c0,1.6-0.6,3-1.8,4.1C320.9,472,319.6,472.5,318.2,472.5z
			 M317.8,470.5c1.1,0.1,2.1-0.2,2.8-0.8c0.7-0.6,1.1-1.5,1.1-2.6l-0.1-14.6c0-2.2-1.9-4.3-4.2-4.5l-14.8-1.7
			c-1.1-0.1-2.1,0.2-2.8,0.8c-0.7,0.6-1.1,1.5-1.1,2.6l0.1,14.6c0,2.2,1.9,4.3,4.2,4.5L317.8,470.5z"/>
	</g>
	<g>
		<g>
			<path class="st10" d="M354.1,412.7l-2.6-0.3l-8.7-20.4l-0.4,0l0.1,26.5l4.1,0.5c0.5,0.1,0.9,0.2,1.2,0.4c0.2,0.2,0.3,0.5,0.4,0.8
				c0,0.3-0.1,0.6-0.3,0.8c-0.2,0.2-0.6,0.2-1.1,0.2l-8.3-0.9c-0.5-0.1-0.9-0.2-1.2-0.4c-0.2-0.2-0.3-0.5-0.4-0.8
				c0-0.3,0.1-0.6,0.3-0.8c0.2-0.2,0.6-0.2,1.1-0.2l1.9,0.2l-0.1-26.5l-1.4-0.2c-0.5-0.1-0.9-0.2-1.2-0.4c-0.2-0.2-0.3-0.5-0.4-0.8
				c0-0.3,0.1-0.6,0.3-0.8c0.2-0.2,0.6-0.2,1.1-0.2l5.5,0.6l8.6,20.1l8.3-18.2l5.5,0.6c0.6,0.1,0.9,0.2,1.2,0.4
				c0.2,0.2,0.3,0.5,0.4,0.8c0,0.3-0.1,0.6-0.3,0.8c-0.2,0.2-0.6,0.2-1.2,0.2l-1.4-0.2l0.1,26.5l1.9,0.2c0.6,0.1,0.9,0.2,1.2,0.4
				c0.2,0.2,0.3,0.5,0.4,0.8c0,0.3-0.1,0.6-0.3,0.8c-0.2,0.2-0.6,0.2-1.2,0.2l-8.3-0.9c-0.5-0.1-0.9-0.2-1.2-0.4
				c-0.2-0.2-0.4-0.5-0.4-0.8c0-0.3,0.1-0.6,0.3-0.8c0.2-0.2,0.6-0.2,1.2-0.2l4.1,0.5l-0.1-26.5l-0.5-0.1L354.1,412.7z"/>
			<path class="st10" d="M378.1,409.7l0.1,12.7l17.3,2l0-6.6c0-0.5,0.1-0.9,0.3-1.1c0.2-0.2,0.5-0.3,0.8-0.3c0.3,0,0.6,0.2,0.8,0.4
				c0.2,0.3,0.3,0.6,0.3,1.2l0,8.8l-24.8-2.8c-0.5-0.1-0.9-0.2-1.2-0.4c-0.2-0.2-0.3-0.5-0.4-0.8c0-0.3,0.1-0.6,0.3-0.8
				c0.2-0.2,0.6-0.2,1.1-0.2l3,0.3l-0.1-26.5l-3-0.3c-0.5-0.1-0.9-0.2-1.2-0.4c-0.2-0.2-0.3-0.5-0.4-0.8c0-0.3,0.1-0.6,0.3-0.8
				c0.2-0.2,0.6-0.2,1.1-0.2l23.6,2.7l0,7.6c0,0.5-0.1,0.9-0.3,1.1c-0.2,0.2-0.5,0.3-0.8,0.3c-0.3,0-0.6-0.2-0.8-0.4
				c-0.2-0.3-0.3-0.6-0.3-1.2l0-5.4L378,396l0.1,11.5l8,0.9l0-2.5c0-0.5,0.1-0.9,0.3-1.1c0.2-0.2,0.5-0.3,0.8-0.2
				c0.3,0,0.6,0.2,0.8,0.4c0.2,0.3,0.3,0.6,0.3,1.2l0,7.2c0,0.5-0.1,0.9-0.3,1.1c-0.2,0.2-0.5,0.3-0.8,0.3c-0.3,0-0.6-0.2-0.8-0.4
				c-0.2-0.3-0.3-0.6-0.3-1.2l0-2.5L378.1,409.7z"/>
			<path class="st10" d="M411,413.5l0.1,12.7l17.3,2l0-6.6c0-0.5,0.1-0.9,0.3-1.1s0.5-0.3,0.8-0.3c0.3,0,0.6,0.2,0.8,0.4
				c0.2,0.3,0.3,0.6,0.3,1.2l0,8.8l-24.8-2.8c-0.5-0.1-0.9-0.2-1.2-0.4c-0.2-0.2-0.3-0.5-0.4-0.8c0-0.3,0.1-0.6,0.3-0.8
				c0.2-0.2,0.6-0.2,1.1-0.2l3,0.3l-0.1-26.5l-3-0.3c-0.5-0.1-0.9-0.2-1.2-0.4c-0.2-0.2-0.3-0.5-0.4-0.8c0-0.3,0.1-0.6,0.3-0.8
				c0.2-0.2,0.6-0.2,1.1-0.2l23.6,2.7l0,7.6c0,0.5-0.1,0.9-0.3,1.1c-0.2,0.2-0.5,0.3-0.8,0.3c-0.3,0-0.6-0.2-0.8-0.4
				c-0.2-0.3-0.3-0.6-0.3-1.2l0-5.4l-16.1-1.8l0.1,11.5l8,0.9l0-2.5c0-0.5,0.1-0.9,0.3-1.1c0.2-0.2,0.5-0.3,0.8-0.2
				c0.3,0,0.6,0.2,0.8,0.4c0.2,0.3,0.3,0.6,0.3,1.2l0,7.2c0,0.5-0.1,0.9-0.3,1.1c-0.2,0.2-0.5,0.3-0.8,0.3c-0.3,0-0.6-0.2-0.8-0.4
				c-0.2-0.3-0.3-0.6-0.3-1.2l0-2.5L411,413.5z"/>
			<path class="st10" d="M452.2,404.4l0.1,26.5l5.8,0.7c0.5,0.1,0.9,0.2,1.2,0.4c0.2,0.2,0.4,0.5,0.4,0.8c0,0.3-0.1,0.6-0.3,0.8
				c-0.2,0.2-0.6,0.2-1.1,0.2l-13.9-1.6c-0.5-0.1-0.9-0.2-1.2-0.4c-0.2-0.2-0.3-0.5-0.4-0.8c0-0.3,0.1-0.6,0.3-0.8
				c0.2-0.2,0.6-0.2,1.1-0.2l5.8,0.7l-0.1-26.5l-9.2-1l0,7.7c0,0.5-0.1,0.9-0.3,1.1c-0.2,0.2-0.5,0.3-0.8,0.3
				c-0.3,0-0.6-0.2-0.8-0.4c-0.2-0.3-0.3-0.7-0.3-1.2l-0.1-9.9l25.2,2.8l0.1,9.9c0,0.5-0.1,0.9-0.3,1.1c-0.2,0.2-0.5,0.3-0.8,0.3
				c-0.3,0-0.6-0.2-0.8-0.4c-0.2-0.3-0.3-0.7-0.3-1.2l0-7.7L452.2,404.4z"/>
		</g>
		<path class="st10" d="M318.2,417.6c-0.2,0-0.5,0-0.7,0l-14.8-1.7c-3.3-0.4-5.9-3.3-5.9-6.5l-0.1-14.6c0-1.6,0.6-3,1.8-4.1
			c1.2-1,2.7-1.5,4.3-1.3l14.8,1.7c3.3,0.4,5.9,3.3,5.9,6.5l0.1,14.6c0,1.6-0.6,3-1.8,4.1C320.9,417.1,319.6,417.6,318.2,417.6z
			 M317.7,415.5c1.1,0.1,2.1-0.2,2.8-0.8c0.7-0.6,1.1-1.5,1.1-2.6l-0.1-14.6c0-2.2-1.9-4.3-4.2-4.5l-14.8-1.7
			c-1.1-0.1-2.1,0.2-2.8,0.8c-0.7,0.6-1.1,1.5-1.1,2.6l0.1,14.6c0,2.2,1.9,4.3,4.2,4.5L317.7,415.5z"/>
	</g>
</g>
<g id="checks">
	<path class="st11" d="M310.5,410c-0.1,0-0.2,0-0.2,0c-0.6-0.1-1.1-0.4-1.4-0.9l-5.6-8.8c-0.6-0.9-0.3-2.1,0.6-2.6
		c0.9-0.6,2.1-0.3,2.6,0.6l4.3,6.8l19.8-18.4c0.8-0.7,2-0.7,2.7,0.1c0.7,0.8,0.7,2-0.1,2.7l-21.5,19.9
		C311.5,409.8,311,410,310.5,410z"/>
	<path class="st11" d="M310.3,465.1c-0.1,0-0.2,0-0.3,0c-0.6-0.1-1.1-0.4-1.4-0.9l-5.9-9.2c-0.6-0.9-0.3-2.2,0.6-2.8
		c0.9-0.6,2.2-0.3,2.8,0.6l4.6,7.2l20.8-19.3c0.8-0.8,2.1-0.7,2.8,0.1c0.8,0.8,0.7,2.1-0.1,2.8l-22.6,20.9
		C311.3,464.9,310.8,465.1,310.3,465.1z"/>
	<path class="st11" d="M310.3,519.2c-0.1,0-0.2,0-0.3,0c-0.6-0.1-1.1-0.4-1.4-0.9l-5.9-9.2c-0.6-0.9-0.3-2.2,0.6-2.8
		c0.9-0.6,2.2-0.3,2.8,0.6l4.6,7.2l20.8-19.3c0.8-0.8,2.1-0.7,2.8,0.1c0.8,0.8,0.7,2.1-0.1,2.8l-22.6,20.9
		C311.3,519,310.8,519.2,310.3,519.2z"/>
</g>
<g id="Guy_and_Shadow">
	<g>
		
			<linearGradient id="SVGID_7_" gradientUnits="userSpaceOnUse" x1="353.7684" y1="451.7711" x2="400.6306" y2="448.0789" gradientTransform="matrix(0.9984 -5.625765e-02 5.625765e-02 0.9984 -139.8261 106.3053)">
			<stop  offset="0.5122" style="stop-color:#121F4B"/>
			<stop  offset="0.6541" style="stop-color:#18467D"/>
			<stop  offset="0.8261" style="stop-color:#1E72B4"/>
			<stop  offset="0.9096" style="stop-color:#2083C9"/>
		</linearGradient>
		<path class="st12" d="M253.8,509.4c0,0,12.2-6.8,18.2-1c4.9,4.8,4.2,12.7,4.2,12.7s3.1,6,3.5,8.4c0.3,1.6-3.4,2.4-3.4,2.4
			s-2.3,8.1-3.1,9.1s-5.9,1.5-5.9,1.5l-4.4,19.6l-15.7-2.3L253.8,509.4z"/>
		<path class="st13" d="M308.8,598.7c0,0,8.9-1.4,11.7,2.4c2.8,3.8,3.4,7.7,0.4,8.5c-3,0.8-14.6-2.4-14.8-3.8
			C305.9,604.4,308.8,598.7,308.8,598.7z"/>
		<path class="st14" d="M309.8,597.8l-21.7-14.7l-4.9-17.6c-0.6-3.6-1.5-6.7-2.5-8.9l0-0.1l0,0c-0.4-0.8-0.8-1.5-1.2-2
			c-2.1-2.6-5.2-4.4-8.5-5.5c0,0,0.1,0,0.1-0.1c0.7-0.4,1.1-0.7,1.1-0.7l-3.6-4.2c0,0-1,0.3-2.5,0.6c-0.2,0-0.3,0.1-0.5,0.1
			c-0.8,0.1-1.8,0.3-2.8,0.4c-0.3,0-0.2,0.7,0.2,1.5l-1.4,0.5c-3-0.3-5.1-0.2-5.1-0.2l0.2,1.9L239,555c0,0-14.9,35.6-14.1,37.2
			c0.8,1.6,8.4,31.2,11.9,30c3.5-1.2,4.5-3.3,4.5-3.3l-7.3-26.1l15.8-27.4l7.5-9.9l7.9,64.3c0,0,13.3-3.1,17.2-11
			c1.2-2.4,1.9-7.4,2.3-13.6c6.7,2.3,26.5,8.1,26.5,8.1C311.8,600.5,309.8,597.8,309.8,597.8z"/>
		<path class="st14" d="M276.1,521c0,0,3.1,6,3.5,8.4c0.3,1.6-3.4,2.4-3.4,2.4s2.7-0.9,2.3-2.5C278.3,527.9,276.1,521,276.1,521z"/>
		<g>
			<polygon class="st6" points="208.5,644.6 254.1,614 267.8,616 223.8,649.6 			"/>
			<polygon class="st14" points="208.5,644.6 254.1,614 211.1,644.2 223.8,649.6 			"/>
			<path class="st4" d="M227.2,689.7c4-3.4,46.3-34.1,46.3-34.1l-5.3-39.4l-45.1,32.7L227.2,689.7z"/>
			<polygon class="st4" points="208.5,644.6 214.6,684.8 227.2,689.7 223.1,648.9 			"/>
		</g>
		<path class="st4" d="M302.2,683.8c3.2,0.8,3.5,0.4,6.9,1.5s3.7-3.6,3.7-3.6s2.3,1,7.7,1.9c2.5,0.4,5.8,0.8,7.1,2.7
			c1.9,2.7-0.1,5-3.6,6.7c-5.5,2.7-8.9-0.4-12.4,0.7c-0.3,0.1,0,1.2-0.4,1.2c-4.5,0.8-10.9-0.4-10.9-2.3c0-0.7-0.2-1.3,0.4-1.6
			C300.8,687.7,301.3,685.7,302.2,683.8z"/>
		<path class="st15" d="M282.7,608.4c7.9,11.8,25,31.6,26.5,36.2c1.5,4.6,3.8,36.9,4,39.6c0.2,2.7-7,2.8-7,2.8l-9.2-38.8l-23.4-35.8
			C273.6,612.4,279,610.4,282.7,608.4z"/>
		<path class="st13" d="M233.5,620.2c0,0-0.7,8.4,2.8,10.9c2.8,2,7.3-0.9,8-3.6c0.7-2.7-3-9.5-4.3-9.7
			C238.8,617.6,233.5,620.2,233.5,620.2z"/>
		<path class="st4" d="M277.9,610.4c-0.6,10.2,23,26.7,26.3,36.1c3.3,9.4,5.9,40.9,5.9,40.9l-7-0.3c0,0-10-33.8-10.2-35.2
			c-0.2-1.4-21.5-12.6-21.5-12.6l-6.2,33.5c0,0-13.4,39.9-14.1,39.9c-2.4-0.1-5.4,1-5.8-0.5c-0.8-3,6.4-45.6,6.4-45.6
			s3.4-18.2-1.8-29.8c-4.5-9.8-4.6-17.8-1.5-27.6C245.9,593.4,279.2,589.2,277.9,610.4z"/>
		<path class="st4" d="M266.1,524.4c-3.4,0.5-6.9,3.1-7.2,14.3c-0.1,3.4-3.4,3.8-9.6-1.4c-5.2-4.4-9.9-24.8-1.4-26
			c3.1-11,20.5-10.9,27.7-7.5c7.6,3.6,2.8,10.2,1.8,11.6c-1.3,1.8-6.5,1.1-6.5,1.1S268.8,524,266.1,524.4z"/>
		<path class="st13" d="M248,511.3c2.3-10.9,21-12.1,28.3-8.8c8,3.6,4.8,12.5,0.9,14c-3.7,1.4-12.1-1.4-12.1-1.4s10.5,2.1,11.8-0.9
			C283.1,499.8,251.7,499.7,248,511.3z"/>
		<path class="st4" d="M244.9,709.8c3.3,0.5,2.6,1.3,6.1,2.1c3.6,0.8,3.4-3.9,3.4-3.9s1.3-0.2,6.7-0.6c3-0.2,6.8-0.3,8.3,1.4
			c2.1,2.5,0.2,5.4-3,7.5c-5.2,3.3-8.5,2.3-11.9,3.7c-0.3,0.1,0.1,1.2-0.3,1.3c-4.4,1.2-10.8,0.7-11.1-1.2c-0.1-0.7-0.3-1.2,0.2-1.6
			C242.9,715.2,243.2,711.8,244.9,709.8z"/>
		<path class="st15" d="M251.1,712.4c0,0,1.8,0.3,3.2-0.6s12.4-35.6,13.9-40.3s6.5-30.3,6.5-30.3l-4.6-2.4c0,0-3.6,22.5-6,32
			C261.9,680,251.1,712.4,251.1,712.4z"/>
		<path class="st14" d="M273.4,612.3c0,0-4.9-15.5-5.7-23.4c-0.8-7.9,3.3-20.4,3.3-20.4l9.1,0.9l0.8,40.4L273.4,612.3z"/>
		<path class="st6" d="M311.2,603.2c-0.6,3.1-3,4.5-4.8,4.3c-1.7-0.1-20.3-6.9-24.3-8.8c-1.1-0.5-2.6-2.4-4.3-5
			c0.1,4.5,0,9-0.2,13.5c-0.6,10.2-32.6,7.8-35.3-0.7c-1.7-5.4-5.7-22.6-6.2-36.2c-4.1,8-8.8,18.1-8.7,21.3
			c0.2,5.5,11.1,29.9,11.1,29.9c-2.1,1.4-5,1.1-5,1.1S220.7,599.5,221,591c0.2-7,12-28.5,16.3-35.8c0.5-0.8,1.1-1.9,2.2-2.8
			s4.9-2.7,6.3-3.3c-0.1,0,0.6-4.7,2-5.2c1.4-0.4,1.9,0,6.9,1.1c2.6,0.6,5.5,0.5,8.1,0.2c-1.1,0.1,2.8,6.2,4.2,5.8
			c1.4-0.4,3-1.3,4.1-2l0.1,0.2c0,0-3.2,2.2-8.8,2.8l0.7,0.2c0,0,4.4-2.6,9.3,5.8c0.2,0.4,0.5,1,0.7,1.6l0-0.1
			c0,0,9.6,27.3,14.2,30.5C292,593,311.2,603.2,311.2,603.2z"/>
		<path class="st13" d="M248.7,549.6c0,0,8.4,2.4,11.2,2.3c6.5-0.3,11.2-3.1,11.2-3.1s0.4,4.4-11.2,4.4
			C254.1,553.3,248.7,549.6,248.7,549.6z"/>
		<path class="st13" d="M244,592c0.6,5-2.3,12.8-2.3,12.8s-5.5-18.8-5.8-34.5C236,570.3,243.4,587,244,592z"/>
		<path class="st13" d="M252.8,514.2c0,0,1.1-4.8,6.7-5.8c3.8-0.6,11.5,2.7,11.5,2.7s-7.4-1.8-11.4-1.3
			C254.4,510.5,252.8,514.2,252.8,514.2z"/>
		<path class="st4" d="M246.8,611.1c0,0,13.1,3,22.5,1.3c10.6-1.8,13.7-4.4,13.7-4.4s-2.4,5.4-11.3,7.2
			C249.8,619.7,246.8,611.1,246.8,611.1z"/>
	</g>
	<path class="st4" d="M314.7,704.9c-10.3,0-20.6,8.2-24.1,12.5c-1.3,1.6-19.4,21.7-40.4,42.2c-4.8,4.7-11.7,11.4-18.8,18.5l16.9-47
		c0,0,11.3-4.8,15.8-8.5c6.6-5.3,5-10.4,5-10.4l-25.7,6.9l-70.8,81.6l-22.1-12.1l-9,9.3l-18.4-8.7l-43.4,51.2l15.8,7.3
		c-9.4,10.6-22.2,26.4-26.3,38C62,906.6,51.5,958.9,53.5,960c0,0-5.5,18,30.5,25s58.3-1.6,58.3-1.6s70.2-57.3,82.2-70.3
		c11.4-12.2-0.5-56-1.5-65.7c10.1-16.1,17.2-26.4,17.2-26.4l-1.2-0.3c13.7-21.7,58.4-92.3,62-95.1c6.4-4.2,15.9-9.2,17.9-13.4
		C321.5,706.6,319.5,704.9,314.7,704.9z M113,853.5l18.9-1.7l0.6-0.5c-15.8,15.9-31.9,33.3-42.6,48.4l1-9.7L113,853.5z M204.5,899.7
		l-20.8,18.4c6.4-13.3,13.4-26.4,20.2-38.3C204.1,890.5,204.5,899.7,204.5,899.7z"/>
</g>
<g id="dance_guy">
	<g>
		<path d="M210.9,636.9c0,0-4.6,7.5,0.1,10.2c4.7,2.7,19.1,11.3,25.1,11c2.1-0.1,5.1-3.1,1.5-8.7c-3.5-5.5-13.5-10.5-13.5-10.5
			L210.9,636.9z"/>
		<path class="st10" d="M230.9,504.9c2,14.5-12.1,35.9-12.1,35.9l6.7,5l18.8-36.6C244.3,509.1,228.9,490.4,230.9,504.9z"/>
		<path class="st16" d="M220.3,538.3c0,0-9.2,8.7-9.7,16.2c-1.1,15.4,16.6,40.5,16.6,40.5l-16.3,41.5c0,0-1.2,2.6,4.7,4.3
			c5.8,1.6,21.9-44.7,21.9-44.7l-16.4-39.7l4.4-15L220.3,538.3z"/>
		<path class="st17" d="M209.7,533.4c0.1,1.6-0.4,13-1.9,15.6c-1.5,2.6-6.7,8.6-9.6,7.1c-3-1.5,1.5-6.7,3.1-10
			c1.6-3.3,1-11.9,1-11.9L209.7,533.4z"/>
		<path class="st17" d="M270.2,543.2c-0.9,1.4-5.8,11.4-6.4,14.4c-0.9,4.3,1.3,10.8,4.6,11c3.3,0.2,2.2-6.6,2.4-10.2
			c0.3-3.6,5.3-10.7,5.3-10.7L270.2,543.2z"/>
		<path class="st10" d="M201.2,541.1c0.5,1.6,4.3,1.4,4.3,1.4l1.5-34.3l23.1-19.1l35.1,4.6c0,0,27.7,48.9,25.2,26.9
			c-9.1-24-15.1-30.6-20.8-31.2c-4.2-0.5-17-0.5-17-0.5s-15.9-5.4-20.9-4.6c-8.8,1.5-27,14.1-30.7,20.4S200.7,539.5,201.2,541.1z"/>
		<polygon class="st18" points="244.9,477.1 244,490.7 261,490.9 262.5,479.3 		"/>
		<path class="st19" d="M244.9,477.1l-0.9,13.6l2.7,1.5c0,0-1.2-8.7,3.9-12.7S244.9,477.1,244.9,477.1z"/>
		<path class="st10" d="M265.7,549.3c-1.6,3,2.7,4.5,2.7,4.5s15.4-20.3,14.7-27.9c-0.7-7.6-13.1-17.2-13.1-17.2l-2.4,5.1
			c0,0,8.3,9.9,8.2,12.3C275.6,528.5,267.3,546.3,265.7,549.3z"/>
		<path d="M257.7,629.8c0,0-3.9,6.7-0.5,10.3c3.3,3.6,8.9,8.7,11.3,11.1c2.4,2.4,13.2,3.4,9.8-4.8c-3.6-8.6-9.4-17.6-12.5-18.8
			C262.6,626.4,257.7,629.8,257.7,629.8z"/>
		<path class="st20" d="M205.5,542.5c0,0-5.2-31.2-1.3-37.3c3.9-6.2,22.6-15.7,27.5-17.1c4.8-1.4,11.4,2.2,11.4,2.2l10.6-0.6
			l3.8,0.5l5.9,1.1c0,0,5.8-1.2,10.7,2.7c4.8,3.7,16.7,23.3,16.5,30.1c-0.3,6.9-14.5,25.3-16.7,29.3c-2.1,3.8-7.3-0.7-7.3-0.7
			s14-22.3,13.6-26.2c-0.4-3.9-9.8-15.7-9.8-15.7c-3.6,19.6-16.9,39.1-16.9,39.1l-9.5,6.4l-20.3-10.4c0,0,16.7-35.7,8.6-41.8
			c0,0-17.8,5.9-19.2,8.6c-1.4,2.8-2.8,25.9-2.8,28.2S205.5,542.5,205.5,542.5z"/>
		<path class="st16" d="M263.6,633.5c-1.1,1.8-7.3,0.1-7.7-2c-0.4-2.1-6.8-35.2-6.8-35.2l-14.5-28.7l5.1-6.7l15.5,30.7
			C255.2,591.5,267,628.1,263.6,633.5z"/>
		<path class="st21" d="M225.4,541.1c0,0-7.6,8-8.2,15.5c-0.9,10.7,13.7,31.9,13.9,38.9c0.3,7-16.6,45.3-16.6,45.3
			c7,4.6,12.3-0.1,12.3-0.1s18.5-35.9,19.3-40.5c1.9-10.9-8-33.1-6.2-33.4c1.9-0.3,14.2,28.9,14.2,28.9s3.9,32.6,6.7,36.7
			c2.8,4.2,8.6-1.6,8.6-1.6s-1.9-37.4-3.3-42.9c-1.3-5.6-9.1-28.9-9.1-28.9l-3.7-9c0,0-5,3-12.7,1.2
			C233,549.3,225.4,541.1,225.4,541.1z"/>
		<path class="st22" d="M251.1,491.8l7.1,0.7l-2.2,5.4c0,0,2.7,17.3,2.7,24.4c0,10.3-1.3,24.7-1.3,24.7l-6.6,5.9l-5.8-7.7
			c0,0,4.4-13.8,6.3-24.9c1.2-7,1.7-22.9,1.7-22.9L251.1,491.8z"/>
		<path class="st23" d="M256.1,497.9c0,0,2.7,17.3,2.7,24.4c0,10.3-1.3,24.7-1.3,24.7l-6.6,5.9l-4.2-7.7c0,0,4.8-16.5,5.9-24.7
			c0.9-6.7,1.8-22,1.8-22l1.8-0.7"/>
		<path class="st23" d="M253.5,494.6c0,1.5,1,3.2,1,3.2s1.7,0,1.7-0.1c0-0.2,1.9-4.7,1.9-4.7s-0.7-0.2-2.1-0.1
			C254.7,493,253.5,492.3,253.5,494.6z"/>
		<path class="st20" d="M255.4,490c0,0,3.4,0.2,4.6-0.7c1.1-0.8,1.4-1.9,1.4-1.9l2.2,1.7c0,0-6.5,10.3-6.2,7.7
			C257.9,493.3,255.4,490,255.4,490z"/>
		<path class="st20" d="M244.6,482c-0.3-0.3-4.1,4-4.1,4s-2.4,2.6-0.3,5.3c1.8,2.3,8.8,9.2,11.3,4.1c1.7-3.4,3.8-5.2,3.8-5.2
			s-4.2-1-8-3.8S244.9,482.3,244.6,482z"/>
		<path class="st10" d="M244.1,482.5c-0.1-0.7-3.6,3.1-3.6,3.1s0,3.3,1.9,5.6c2.1,2.5,6.6,7.4,8.1,3.9c1.4-3.5,4-4.8,4-4.8
			s-2.9-0.3-6.8-3.1S244.2,483.4,244.1,482.5z"/>
		<path class="st17" d="M273,461.1c0.2,10.5-6.2,31.6-18.9,24.9c-9.2-4.8-13.8-11.6-14-22.1c-0.2-10.5,6.5-18.7,16.8-18.9
			C267.2,444.8,272.8,450.6,273,461.1z"/>
		<path class="st24" d="M273,461.1c0.2,8.8-4.7,25.9-14,26.2c0,0,1-4.7,1.4-6.4c0.4-1.6-0.4-5.3-0.4-5.3c1.7-0.6,3.7-1.2,4.3-2.4
			c0.7-1.4-2-4.6-2.6-8.6c-0.3-2.3,0-5.2,3.5-11.2C268.3,447.7,272.8,450.6,273,461.1z"/>
		<path class="st21" d="M242.7,460c1.7-2.2,3-3.4,6.8-0.9c2.4,1.7,10.4,6.8,16.3,2.8c16.5-11.2,1.8-32-15.7-16.3
			c-17.4-2.5-11.8,26.7-6.2,31.8C247.3,480.5,238.2,465.9,242.7,460z"/>
		<path class="st21" d="M271,456c1.8,1.8,1.5,10.9,1.5,10.9s2.4-8.5-0.2-13C269.6,449.4,269.2,454.2,271,456z"/>
		<path class="st10" d="M251.9,475.9c0,0,2.3,2.2,5,3c2.8,0.9,6-0.4,6-0.4s-2.6,4.9-6.4,3.7C250.7,480.3,251.9,475.9,251.9,475.9z"
			/>
		<path class="st10" d="M262,487.4c0,0-0.5,1.5-1.5,2.3c-0.9,0.8-4.2,1.1-4.2,1.1s1.2,1.2,1.6,2.5c0.4,1.3-0.1,3.1,1,3.4
			c1.2,0.4,4-2.6,4.8-4.4c0.7-1.7,0.5-4.1,0.5-4.1L262,487.4z"/>
		<path class="st16" d="M246.2,454.6c0,0,9.7,5.8,13.9,5c10-1.8,9.6-9.8,9.6-9.8s-3.4,6.1-9.5,6.6
			C252.3,457.1,246.2,454.6,246.2,454.6z"/>
		<path class="st16" d="M247.1,451.2c0,0,7.9,2.7,12.1,2c10-1.8,8.6-8.8,8.6-8.8s-2.6,5.5-8.6,6.6
			C251.4,452.4,247.1,451.2,247.1,451.2z"/>
	</g>
</g>
<g id="dance_girl_1">
	<g>
		<g>
			<g>
				<polygon class="st25" points="480.7,626.2 479,647.2 471.6,681.3 454.2,689.6 451.6,684.7 463.1,673.5 464.9,622.7 467.4,605.1 
					494.6,608 				"/>
				<path class="st26" d="M468.6,604.6c0,0-5.8,14.5-5.6,19c1.1,24.3,0,49.9,0,49.9l-11.6,11l6-1.6l7.1-8.3c0,0,6.6-37.9,2.1-49.5
					c-1.4-3.6,6.5-16.1,6.5-16.1L468.6,604.6z"/>
				<path class="st27" d="M478.8,624.8c0,0,1.4,9.7-5.9,49.6c0,0,6.8-21.1,8.9-47.1c0.3-3.6,12.8-19.7,12.8-19.7l-29.5-0.4l1.7,5.8
					C473.5,616.4,478.8,624.8,478.8,624.8z"/>
				<path d="M463.1,673.8c0.5,0.8-7.8,6.6-3.9,7.5c5.1,1.2,12-5,13.3-6.2c1.1-1,2.5,3.9,0.3,7.6c-1.4,2.3-4.8,3.9-6.4,4.6
					c-3.1,1.4-11.6,6.9-15.5,5.6c-4.1-1.4-4.2-5.4,0.6-10C456.4,678.3,462.7,673,463.1,673.8z"/>
			</g>
			<g>
				<path class="st25" d="M509.8,621.1l26,22l-1,23.6l-6.9-1.4c0,0-0.5-12.7-2.8-16.7c-2.3-4-31.9-18.3-31.9-18.3l-15.3-33.2
					l27.7,1.1L509.8,621.1z"/>
				<path class="st27" d="M498,629.5c6.3,0.2,20,11,27.7,16.7c2.4,1.8,4.1,14.3,3.4,14.2c-2.8-0.4-3.9-11.7-3.9-11.7
					c-9.9-8.2-27.3-13.5-31.9-18.3c-3.1-3.2-15.3-33.2-15.3-33.2l8.2,0.6C486,597.8,494.4,629.3,498,629.5z"/>
				<path class="st26" d="M503.7,600.3c0,0,2.3,19.4,4.3,22c0.2,0.3-3.9,2-3.4,2.5c0.5,0.4,5.6-0.5,6.2,0.1
					c6.5,5.1,21.1,15.3,21.1,15.3l-21.6-19.3l-3.2-17.8L503.7,600.3z"/>
				<path d="M531.3,639.2c0,0,1,17-2.1,17.9c-2.8,0.9-3.7-9.9-4.6-9.5c-0.9,0.4,1,15.2,2.9,19.5c1.2,2.8,5.1,3.9,7.1-0.5
					c1.1-2.5,2.3-7.6,2.3-10.8c0-3.5,0.5-11.1,0.1-12.2C536.1,640.6,534,638.9,531.3,639.2z"/>
			</g>
			<polygon class="st25" points="486.8,517.6 481.4,517.9 480.1,507.8 466.3,508.1 467.6,519.5 463.3,519.4 466.2,534.9 
				487.5,532.9 			"/>
			<path class="st27" d="M475,522.7c1.1,2.7-0.3,9.8-0.3,9.8l8.1-1.6l3.5-8.4l-4-4.5l-0.5-5l-7.8,1.3l-7.5-3.8l0.8,5.3
				C467.3,515.7,472.8,517.2,475,522.7z"/>
			<path class="st25" d="M464.6,501.9c1.9,15.1,9.3,14.9,11.4,15c3.6,0.2,11.9-5.9,14.4-16.8c2.3-9.6-6.6-17.9-14.7-17.9
				C467.7,482.2,463.4,492.1,464.6,501.9z"/>
			<path class="st25" d="M453.6,526.1c2.1-5.2,10.1-6.7,10.1-6.7l0.4,32.2"/>
			<path class="st25" d="M457.2,560.8c0,0-9.8-14-3-34.2c1.8-5.3,9.5-7.2,9.5-7.2l0.4,32.2"/>
			<path class="st26" d="M454.4,554.4c-0.9,0.2-6.7-22.9-1.6-29.5c3.7-4.8,10.9-5.4,10.9-5.4s2.3,0,3.8,0.1c0.3,0-0.2-3.5-0.2-3.5
				s2.3,2.7,1.2,4.7c-0.9,1.6-8.7-0.4-13.1,6.2C450.1,534.9,455.3,554.3,454.4,554.4z"/>
			<path class="st25" d="M485,517.6l29.9-2.4L542,504c0,0,3.1-11,4.2-13.2c1.1-2.2,6.2,1.5,7.5,3.5s-3.9,11.8-5.2,14.1
				s-25.3,16.6-30.4,18.1c-5.1,1.5-30.5,6.4-30.5,6.4L485,517.6z"/>
			<path class="st26" d="M542,504l-27.1,11.3l-32.5,2.7c0,0,1.9,3,2.7,3.2c0.8,0.2,23.6-1.8,30.4-3C522.3,516.9,542,504,542,504z"/>
			<path class="st28" d="M485.7,516.4c1.6-0.1,4.2,5.9,11.6,13.3c9,9-8.8,16.3,10.2,44.8c8.3,12.3,6.8,29.9,1.9,35.2
				c-8.4,9.1-38.3,8.7-43.9-0.7c-5-8.4,2.1-26.6,3.7-28.4s6.3-14.1,1.6-20.9c-5.2-7.4-10.4-21.1-8.3-27.8c1.9-5.9,0.2-11.3,0.7-12.6
				c0.9-2.3,4.5,11.2,14.6,10.3C484.6,529.2,482.6,516.7,485.7,516.4z"/>
			<path class="st29" d="M485.7,516.5c1.6-0.1,1.5,5.9,9,13.3c9,9-13.7,15.6,5.9,43.8c9.6,13.9,10.3,33.8,5.1,38.8
				c-5.2,5-34.3,7.1-39.6-0.9c-5.3-8.2,0-25.2,3.7-31.5c1.2-2.1,5.8-13.4,1.1-20.2c-5.2-7.4-10.4-21.1-8.3-27.8
				c1.9-5.9-1-12.4,0.1-13.1c3-2.1,5,11.8,15.1,10.9C484.6,529.2,482.6,516.7,485.7,516.5z"/>
			<path class="st28" d="M462.6,520c2.7,1.5,2.5,4.7,1.6,12.6c-0.5,4.1-0.8,8.3,5.3,18.6c2,3.4,6.3,9.2,7.5,12.8
				c0.8,2.1-9.8,23.3-11.3,34.6c-1.3,9.7,5.6,16.4,5.6,16.4s-9.1-1.2-10.6-7.6c-5.1-21.6,12.3-38.3,9.4-45.8
				c-2.9-7.5-7-8.9-8.3-18.9c-0.9-7,1.1-10.2,1.4-12.3C463.7,525.3,462.6,520,462.6,520z"/>
			<path class="st25" d="M464.1,551.7l42.2-4.1c0,0,6.5-9.8,8-12.2c1.5-2.4,5.9,2.5,6.5,7.5c0.6,5-7.5,9.2-9.3,11.1
				c-1.2,1.2-49.8,14.1-53.9,7.5C452.9,554,464.1,551.7,464.1,551.7z"/>
			<path class="st30" d="M502.4,489.9c3.1,17.6-13.5,26.1-16.9,24.1c-3.5-2.1,9.4-18-1.8-27C471.7,477.4,498.9,470,502.4,489.9z"/>
			<path class="st26" d="M481.5,505.7c-1.8-9.9,1.8-19,1.8-19s-16.3,0.9-18.2,6.7c-1.9,5.9,0.6,16.3,0.6,16.3s5,6.6,7.5,6.7
				c2.5,0.2,3.5-9.8,3.5-9.8S481.6,506.4,481.5,505.7z"/>
			<path class="st27" d="M481,550.7c-10.4,1.2-16.9,0.9-16.9,0.9s11.9-2.3,16.9-2.5c5-0.2,25.3-1.6,25.3-1.6S491.4,549.5,481,550.7z
				"/>
			<path class="st10" d="M481.8,510.4c0,0-4.1,0.3-5.8-0.3c-3.2-1.1-5.1-4-5.1-4s1,5,4.6,5.8C477.7,512.3,481.8,510.4,481.8,510.4z"
				/>
			<path class="st30" d="M467.1,496.2c-4.7,8.6,1.7,15.2-2.1,17.3c-3.8,2.1-17.5-14.4-7.7-31.2c6.8-11.5,25.9-13.5,29.4-2.1
				C489.9,490.2,473.6,484.5,467.1,496.2z"/>
			<path class="st25" d="M483,479.7c0,0-3.8-5.3-12.8-2.7c-9.4,2.7-10.7,16.1-10.7,16.1s3.7-11.3,10.9-13.9
				C476.9,477,483,479.7,483,479.7z"/>
			<path class="st25" d="M483.1,483.7c0,0-4.3-4.7-12.5-1c-8.9,4.1-9.6,17.4-9.6,17.4s2.6-11.9,9.4-15.3
				C476.5,481.7,483.1,483.7,483.1,483.7z"/>
			<path class="st25" d="M486,485.9c0,0,5.5-0.7,8.3,5.9c3.1,7.2-4.1,15.6-4.1,15.6s5.3-8.5,3.1-14.2
				C491.3,488.1,486,485.9,486,485.9z"/>
			<path class="st25" d="M488.5,482.2c0,0,7.1-0.2,10.1,5.6c4.3,8.3-3.9,18.2-3.9,18.1c0,0,6.1-10.3,2.9-16.4
				C494.7,483.9,488.5,482.2,488.5,482.2z"/>
		</g>
		<path class="st29" d="M513.3,575.3c0,0,1.9,3.2,3.8,8c0.9,2.4,1.4,9,1.4,9s1.8-3.6-0.1-9.5C516.8,578,513.3,575.3,513.3,575.3z"/>
		<path class="st29" d="M516.6,575.4c0,0,2.8,3.3,3.7,7.4c0.7,3,0.8,7.6,0.8,7.6s1.5-4.1,0.2-8.7
			C520.1,577.7,516.6,575.4,516.6,575.4z"/>
		<path class="st29" d="M454.7,517.5c0,0-2.5,2.1-5.5,5.4c-1.5,1.7-3.8,7-3.8,7s-0.4-3.5,2.9-7.8C451,518.7,454.7,517.5,454.7,517.5
			z"/>
		<path class="st29" d="M451.9,516.6c0,0-3.3,1.8-5.3,5c-1.5,2.3-2.9,6-2.9,6s0-3.8,2.5-7.2C448.3,517.4,451.9,516.6,451.9,516.6z"
			/>
	</g>
</g>
<g id="dance_girl_2">
	<g>
		<g>
			<path class="st31" d="M363.6,617.8c0,0-9.9-0.3-15.5-13.3c-5.1-11.9-4.6-31.1,14.7-33.9c10.6-1.5,25.9,0.5,29.2,14.2
				c4,16.5-10.8,29.2-14.5,31.5C373.9,618.4,367.9,618.3,363.6,617.8z"/>
			<path class="st32" d="M366.7,623.9c0,0-8.6-7.3-15.1-4.6c-6.4,2.8-25.2,25.7-25.2,25.7l-20,16.4c0,0-14.1-8.4-16.8-5.3
				s0.5,6.7,2.3,8.2c1.8,1.5,13.5,4.4,15.8,4.4c2.2,0,29.2-18.9,29.2-18.9L366.7,623.9z"/>
			<polygon class="st33" points="338.8,647.4 307.8,668.7 339.4,648.7 360.7,628.6 356.8,629.8 			"/>
			<polygon class="st32" points="379.6,629.3 362.3,637.9 361.9,611.9 376.6,611 376.7,621.3 			"/>
			<path class="st33" d="M362.3,637.9l-3.5-19l3.2,0.4l-0.1-7.4c0,0,14.6-3.8,14.7,0.3s-8.7,9.1-9.1,13.6c-0.1,2-0.4,3.7-0.7,5.1
				c-0.6,2.8-1.4,4.4-2.2,5.4C363.5,638,362.3,637.9,362.3,637.9z"/>
			<path class="st34" d="M306.5,661.4l22-18.9c0,0,16.7-20.5,23.1-23.2c3.3-1.4,7.1-1,9.9-0.2c1.9,0.6-5.7,1.8-9.4,3.5
				c-3.6,1.8-19,19.5-19,19.5L306.5,661.4z"/>
			<path class="st35" d="M381.2,596.8c-1.2,7.8-5,20.6-13.7,19.9c-8.7-0.6-15-10.6-14.2-22.2c0.8-11.6,5.6-21.1,14.3-20.5
				S383,585.3,381.2,596.8z"/>
			<path class="st34" d="M361.2,576.3c8.7,0.6,21,7.8,20.6,19.5c-0.1,3.4-2.3,12.8-3.3,14.1c-4.9,6.8-8.4,7.3-11.1,6.9
				c-3.3-0.5,0.7-8.8-1.6-10.5c-1.1-0.8-2.5-0.3-3.2-2.2c-0.6-1.6,1.5-4.9,2.6-9.8S361.2,576.3,361.2,576.3z"/>
			<path class="st32" d="M385.6,618.1c4.8,0.5,25.8,17.8,25.8,17.8l27.7,14.6c0,0,4.8-12,8.3-13.2s7.5,5.7,7.6,8.7
				c0.1,2.9-10,11.1-12.7,12.6c-2.8,1.5-34.1-12-35.9-12.8c-1.7-0.8-30.2-17.3-30.2-17.3l0.4-8.9
				C376.6,619.6,380.8,617.6,385.6,618.1z"/>
			<path class="st33" d="M376.2,628.5c0,0,28.5,16.4,30.2,17.3c1.7,0.8,27.8,12,30.4,11.6c0,0-24.8-10.7-30.2-13.8
				c-3-1.7-16.4-10.2-23.9-13.8C376.7,626.9,376.2,628.5,376.2,628.5z"/>
			<path class="st34" d="M376.5,619.4c0,0,4.6-2.3,9.4-1.8s25.5,18.3,25.5,18.3l27.7,14.6c0,0-25.6-10.3-30.4-13.1
				c-4.8-2.8-18.9-16.3-22.9-17C381.8,619.7,376.5,619.4,376.5,619.4z"/>
			<path class="st32" d="M362.7,669.9l-6.2,47l4.2,42.8c0,0-10,8.1-10.9,12.4c-1.1,5.6,9.6,2.3,12.5-1.3c1.3-1.7,5.7-4.4,7.8-5
				c1.7-0.5,0.3-6.4,0.4-7.8c0.3-6.4,0.5-16.7,0.1-24.5c-0.6-9.9-3-14.8-3-14.8l15.7-34.8L362.7,669.9z"/>
			<g>
				<path class="st34" d="M360.8,669.5l-1.6,17c0,0-3.8,26.1-4,31.3c-0.1,3.5,1.6,6.1,2.9,20.9c1.2,12.9,2.7,20.1,2.7,20.1
					s-9.4,8.7-6.2,10.4c4-3.9,8.1-10.4,8.8-10.9c-5.3-19.9-2.3-31.1-5.2-36.7s7-18.3,6.7-38.8C364.9,675.8,360.8,669.5,360.8,669.5z
					"/>
			</g>
			<path class="st36" d="M370.5,758.6c0,0,3.2-29.1-1.3-39.5c4-6.2,14-35.2,14-35.2l-9-4.2l-7.4,39.5c0,0,3.2,9,3,16.6
				s-1,22.7-1,22.7L370.5,758.6z"/>
			<path class="st36" d="M368.6,713.8c-2.9-13.9-13.7-12.8-13.7-12.8l0.4-4.9l10.3-3.2l8.6,8.8L368.6,713.8z"/>
			<path class="st32" d="M352.3,678.4l-20.1,18.4l-8.5,12.2l-19.1,17.9c0,0-4.2-0.6-14.8,2.9c-5.3,1.8-5.5,2.4,0.4,4.1
				c5.9,1.7,7.4,1,7.4,1s8.4,3.3,12,1.6c0.7-0.3-0.8-1.5,2.4-4c9.8-7.4,26-22.8,26-22.8l35.6-22.4L352.3,678.4z"/>
			<path class="st34" d="M352.3,678.4c0,0-8.4,7.4-15.2,13.9c-2.5,2.4-5.8,4.5-8,6.6c-2.9,2.8-4.8,7.4-5.7,8.5
				c-4.6,5.7-18.7,19.2-18.7,19.2s-9.9,0.1-11.7,3.8c4.4-1.8,14.2-2.4,14.2-2.4s14.1-15.2,17.9-19.2c3.2-3.4,4.6-7.5,6.2-8.7
				c1.6-1.2,5.5-3.7,8.5-5.9c9.7-7.3,23-15.2,23-15.2L352.3,678.4z"/>
			<path class="st33" d="M311.2,733.2c0,0,24.9-14.3,28.5-24.5c3.5-0.2,37.1-18.7,37.1-18.7l-5.7-7c0,0-19.3,17.8-33.1,22.7
				c-5.7,12.5-28.6,27-28.6,27L311.2,733.2z"/>
			<path class="st31" d="M358.6,618.1c-3.4-0.7-7.3,44.3-1.1,45.8c-4.7,14-17.7,16.6-14.7,22.5c19.8,0.9,32.7,31.5,39.7,20.5
				c5.2-8.3,4.7-28.5,4.6-40.7c7.7-6.5-5.5-49.8-7.3-49.6c-2.6,0.3-5.3,16.8-13.6,16.1C360.4,632.3,361.9,618.8,358.6,618.1z"/>
			<path class="st37" d="M376.5,668.4c0,0,4,0,5.6-8.5c0.9-5.1-0.6-16.7-0.6-16.7c0.2-0.9,3.1,9.7,2,16.9
				C382.4,668.3,379.3,669.1,376.5,668.4z"/>
			<path class="st37" d="M386.4,666.5c1.2,18.2-1.2,28.5-3.2,34.3c-1.2,3.3-3.2,8.7-0.7,6.1c6.2-6.4,5.6-28.3,4.6-40.7"/>
			<path class="st37" d="M357.5,663.9c-8.1,12.2-17.9,19.8-12.6,19.6c2.9-0.1,7.4-0.4,20.6,11c-5.9-12.1-12.8-11.9-11.8-12.9
				c6.1-6.1,18.1-10.9,20.7-13.4C362.6,669.9,357.5,663.9,357.5,663.9z"/>
			<path class="st37" d="M385.5,667.4c11.6-5.2-5.2-52.5-5.7-50.8c-0.3,1.4,3.8,15.2,7.1,35.5C388.9,663.8,385.5,667.4,385.5,667.4z
				"/>
			<path class="st31" d="M354.7,586.6c-8.3,5.8-6.2,5.9-6.2,5.9s1-18.4,14-19.7c14-1.4,29.7,17.1,23.6,22
				C373.2,605.2,367.4,577.8,354.7,586.6z"/>
			<path class="st37" d="M378.2,618.8c-2.4,1.2-4.6,14.6-12.1,14c3.8,0.7,5.7-1.1,8-4.2C376.4,625.4,378.2,618.8,378.2,618.8z"/>
			<path class="st37" d="M378,627c0,0-5.5,8.8-9.2,10.1c-4.8,1.7-8.9-4.5-8.9-4.5s3.8,10.9,10.8,5.9C376.4,634.3,378,627,378,627z"
				/>
			<path class="st37" d="M377.7,635.1c0,0-6.2,8.3-10.4,9.1c-5,1-8.2-5.6-8.2-5.6s3,11.3,10.6,7.1
				C376.2,642,377.7,635.1,377.7,635.1z"/>
			<path class="st37" d="M361.6,666.7c-1.3-0.2-9.3,2.5-8.1-19.3c1.4-25.5,4.6-29.2,4.6-29.2s-1.9,7.4-2.3,30.8
				C355.5,666.9,361.6,666.7,361.6,666.7z"/>
			<path class="st10" d="M371.1,607c0,0-0.3,4.9-3.7,5.5c-4,0.6-5.4-2.7-5.4-2.7s2.6,0.4,4,0.2C368.4,609.4,371.1,607,371.1,607z"/>
			<path class="st37" d="M353.5,581c0,0,7.6-1.6,12.4,1.3c4.7,2.8,7.6,10.9,15,10.5c5.1-0.3,5.4-5.1,5.4-5.1s-2.6,1.7-5.6,1
				c-5.9-1.5-7.5-10.2-13.7-11.1C359.5,576.4,353.5,581,353.5,581z"/>
			<path class="st37" d="M366,574.8c0,0,4.5-0.1,8.5,3.9c2.1,2.1,3.2,5,6,6.4c2.3,1.2,5.3-0.1,5.3-0.1s-2.3-0.1-4.1-1.3
				c-1.8-1.2-2.9-3.9-5.6-6.2C371.5,573.6,366,574.8,366,574.8z"/>
			<path class="st37" d="M350.6,588.9c0,0-0.5,5.5,0.3,11.3c0.7,5.4,3.8,11,3.8,11s-4.5-4.9-5.4-10.5
				C348.2,593.5,350.6,588.9,350.6,588.9z"/>
			<path class="st37" d="M386.1,597.2c0,0-0.6,4.1-2,7.4c-2.1,5-6,8.7-6,8.7s4.5-2.9,6.8-8C386.7,601.6,386.1,597.2,386.1,597.2z"/>
			<path d="M304.8,726.6c-19.8,3,2.3,7.9,8.3,5.7c1.7,1.6-1.4,6.7-3.6,6.7c-4.6,0-4.8-1.7-7.4-1.4c-10.4,1.2-17.1-2.1-18.8-2.9
				c-4.1-2.2-1.3-5.6,2.2-6.3C292.4,727,297.7,726.1,304.8,726.6z"/>
			<path d="M360.9,759.3c0.6,0.6-7.1,7.3-3.3,7.3c5,0,11.5-6.1,12.4-7.5c0.8-1.1,2.6,2.8,1.4,6.7c-0.8,2.5-5,3.4-6.3,4.6
				s-8.5,7.9-13.9,7.4c-4.1-0.3-4.7-4-0.8-9C354,764.3,360.3,758.7,360.9,759.3z"/>
		</g>
		<path class="st31" d="M385.5,614.9c0,0,3-0.2,5.9,1.4c1.8,1,3.6,4.3,3.6,4.3s-2.1-2.6-4.1-3.7
			C388.8,615.6,385.5,614.9,385.5,614.9z"/>
		<path class="st31" d="M388.2,612.6c0,0,3,0.3,5.6,2.2c1.6,1.2,2.9,4.8,2.9,4.8s-1.7-2.9-3.5-4.3
			C391.3,613.8,388.2,612.6,388.2,612.6z"/>
		<path class="st31" d="M390.6,674c0,0,0.7,3.5,0.9,8.4c0.1,2.5-1.6,8.6-1.6,8.6s2.8-2.7,3-8.7C392.9,677.5,390.6,674,390.6,674z"/>
		<path class="st31" d="M393.6,675.1c0,0,1.5,3.9,1,7.9c-0.4,3-1.7,7.1-1.7,7.1s2.6-3.2,2.9-7.9
			C396.1,678.3,393.6,675.1,393.6,675.1z"/>
		<path class="st31" d="M352.7,664.8c0,0-2.8,2.3-6.1,5.9c-1.7,1.8-4.3,7.7-4.3,7.7s-0.4-3.9,3.3-8.6
			C348.7,666,352.7,664.8,352.7,664.8z"/>
		<path class="st31" d="M349.7,663.8c0,0-3.7,1.8-5.9,5.2c-1.2,1.8-3.2,6.8-3.2,6.8s-0.2-4.2,2.5-8
			C345.5,664.5,349.7,663.8,349.7,663.8z"/>
	</g>
</g>
<g id="screen_light">
	<linearGradient id="SVGID_8_" gradientUnits="userSpaceOnUse" x1="80.6384" y1="921.7289" x2="796.8585" y2="-114.0603">
		<stop  offset="0.1516" style="stop-color:#FFFFE2;stop-opacity:0"/>
		<stop  offset="1" style="stop-color:#FFFFE2"/>
	</linearGradient>
	<path class="st38" d="M216.6,331.4c0,0-158.7,388.9-162.6,404.5c-3.9,15.6,12.8,17.9,12.8,17.9L388.3,804
		c23,4.2,39.5-2.9,55.3-20.1c43.8-47.9,114.6-167.1,114.3-167l-0.6-256.2L216.6,331.4z"/>
</g>
</svg>
