<?xml version="1.0" encoding="utf-8"?>
<!-- Generator: Adobe Illustrator 23.0.6, SVG Export Plug-In . SVG Version: 6.00 Build 0)  -->
<svg version="1.1" xmlns="http://www.w3.org/2000/svg" xmlns:xlink="http://www.w3.org/1999/xlink" x="0px" y="0px"
	 viewBox="0 0 443.7 994.3" style="enable-background:new 0 0 443.7 994.3;" xml:space="preserve">
<style type="text/css">
	.st0{fill:#FFFFFF;}
	.st1{fill:#BA31A0;}
	.st2{fill:#EC44B1;}
	.st3{fill:#700C80;}
	.st4{fill:#FED317;}
	.st5{fill:#FEBD19;}
	.st6{fill:#3CE0AA;}
	.st7{fill:#18C396;}
	.st8{fill:#FF5FE2;}
	.st9{fill:#FE9D1D;}
	.st10{fill:#FF483E;}
	.st11{fill:#BE2E3B;}
	.st12{fill:#FED365;}
	.st13{fill:#FEA925;}
	.st14{fill:#FFA4E6;}
	.st15{fill:#F388D3;}
	.st16{fill:#8AF1C0;}
	.st17{fill:#FF8281;}
	.st18{fill:#F46163;}
</style>
<g id="outline-1">
	<path class="st0" d="M21.7,620.3c-17.3,21.6-7.9,43.1,5.9,53.4c9.4,7,40.6,12.9,40.6,12.9L87,734.4c0,0-21.3,209.6-21.8,216.3
		c-0.7,9.6,15.8,14.2,23.7,14.5c8.2,0.3,24.7,0.5,28.4-9.5c3.6-10,29.3-86.2,29.3-86.2s17.5,81.4,24.1,91s19.1,12.1,30.7,9.9
		c11.5-2.2,29.5-11.9,28-26.1c-1.5-14.2-14.8-98.6-14.8-98.6l47.5-9.4c0,0-4.3,74-2.6,83.6c1.7,9.6,20.1,16.2,30.3,15.8
		c10.2-0.3,22.8-6.8,24.4-14.2c1.6-7.3,11-81,11-81l7.5,53c0,0,5.6,30.3,14.2,37.3c8.6,6.9,16.7,6.7,24.1,6.3
		c17.6-1,30.2-17.3,28.7-34c-2-22.4-8.9-152.8-8.9-152.8s8.4-80.6-82.1-97c-42.3-7.6-88.8,15.8-88.8,15.8s-10.9-14.9-8.9-28.9
		c4.5-31.2-13.5-66.5-34.9-95.7c-15.4-21-30.4-71.2-57.9-66.8c-6.2,1-11.9,16.3-11.9,16.3s-24.2-25.5-36.6-6.8
		c-9.2,13.9,12.9,84.7,12.9,84.7L21.7,620.3z"/>
</g>
<g id="outline-2">
	<path class="st0" d="M3.9,677.4c-11.2,25.3,3.5,43.7,19.5,50.1c10.9,4.3,42.5,2,42.5,2l30.5,41.4c0,0,33.3,208,34.5,214.7
		c1.8,9.4,18.9,9.7,26.7,7.9c8.1-1.8,24-5.9,25-16.4c0.9-10.6,6.2-90.8,6.2-90.8s37.8,74.2,46.7,81.8s21.6,6.8,32.2,1.7
		c10.6-5.1,25.5-19.1,20.4-32.4c-5.1-13.3-39.7-91.5-39.7-91.5l43.5-21.3c0,0,14.8,72.6,18.9,81.5c4.1,8.8,23.6,10.4,33.4,7.5
		s20.2-12.5,19.9-20c-0.3-7.5-10.2-81.1-10.2-81.1l20.9,49.3c0,0,13.2,27.9,23.3,32.4c10.1,4.5,17.9,2.2,24.9-0.1
		c16.7-5.5,24.7-24.5,19-40.2c-7.7-21.2-47.9-145.4-47.9-145.4s-12.6-80.1-104.3-72.6c-42.8,3.5-81.7,38.1-81.7,38.1
		s-14.4-11.6-16-25.7c-3.7-31.3-30.1-60.8-58.3-83.5c-20.2-16.3-47.7-61-73.1-49.7c-5.7,2.6-7.3,18.8-7.3,18.8s-29.9-18.4-37.1,2.8
		c-5.4,15.8,34.2,78.6,34.2,78.6L3.9,677.4z"/>
</g>
<g id="outline-3">
	<path class="st0" d="M27,581.2C5.9,599,11,622,22.5,634.8c7.9,8.7,37.3,20.5,37.3,20.5l9.2,50.5c0,0-61.4,201.5-63.2,208
		c-2.5,9.3,12.8,17,20.5,18.8c8,1.9,24.2,5.3,29.7-3.8s45.4-78.9,45.4-78.9s3.9,26.2,8.6,36.9s16.7,9.4,28.4,9.4
		c11.7,0.1,31.5-1.4,32.8-15.5c1.3-14.2,1.5-41,1.5-41l48.4,0c0,0-18.6,71.8-18.8,81.5c-0.2,9.7,16.6,19.7,26.7,21.4
		c10.1,1.7,23.6-2.3,26.7-9.2c3-6.9,26.4-77.4,26.4-77.4l-2.9,53.5c0,0-0.4,30.9,6.7,39.3s15.1,9.8,22.4,10.8
		c17.4,2.4,32.9-11.2,34.7-27.8c2.4-22.4,20.8-151.7,20.8-151.7s23.8-77.5-61.8-111c-40-15.7-90.2-1.6-90.2-1.6s-7.8-16.7-3.1-30.1
		c10.4-29.7-4.9-66.1-15.7-100.7c-5.8-18.6-33.3-11.2-36.6-19.7c-2.3-5.8-22.1-43.3-22.1-43.3s-18.8-29.7-34.6-13.8
		c-11.7,11.8-3.7,85.6-3.7,85.6L27,581.2z"/>
</g>
<g id="Rope">
	<rect x="198.6" class="st0" width="51.2" height="702.3"/>
	<g>
		<g>
			
				<ellipse transform="matrix(0.9592 -0.2827 0.2827 0.9592 -184.605 91.1899)" class="st1" cx="223.6" cy="685.2" rx="12.2" ry="17"/>
			<path class="st2" d="M229,701.3c-0.2,0.1-0.4,0.1-0.5,0.2c-6.4,1.9-13.8-3.8-16.5-12.8c-2.6-9,0.4-17.8,6.9-19.7
				c1.9-0.6,3.8-0.5,5.7,0.2c-6.1,2.2-8.9,10.8-6.3,19.5C220.1,695,224.4,699.8,229,701.3z"/>
		</g>
		<g>
			
				<ellipse transform="matrix(0.9592 -0.2827 0.2827 0.9592 -179.104 90.396)" class="st1" cx="223.6" cy="665.7" rx="12.2" ry="17"/>
			<path class="st2" d="M229,681.8c-0.2,0.1-0.4,0.1-0.5,0.2c-6.4,1.9-13.8-3.8-16.5-12.8c-2.6-9,0.4-17.8,6.9-19.7
				c1.9-0.6,3.8-0.5,5.7,0.2c-6.1,2.2-8.9,10.8-6.3,19.5C220.1,675.6,224.4,680.3,229,681.8z"/>
		</g>
		<g>
			
				<ellipse transform="matrix(0.9592 -0.2827 0.2827 0.9592 -173.6031 89.6022)" class="st1" cx="223.6" cy="646.3" rx="12.2" ry="17"/>
			<path class="st2" d="M229,662.4c-0.2,0.1-0.4,0.1-0.5,0.2c-6.4,1.9-13.8-3.8-16.5-12.8c-2.6-9,0.4-17.8,6.9-19.7
				c1.9-0.6,3.8-0.5,5.7,0.2c-6.1,2.2-8.9,10.8-6.3,19.5C220.1,656.1,224.4,660.8,229,662.4z"/>
		</g>
		<g>
			
				<ellipse transform="matrix(0.9592 -0.2827 0.2827 0.9592 -168.1021 88.8083)" class="st1" cx="223.6" cy="626.8" rx="12.2" ry="17"/>
			<path class="st2" d="M229,642.9c-0.2,0.1-0.4,0.1-0.5,0.2c-6.4,1.9-13.8-3.8-16.5-12.8c-2.6-9,0.4-17.8,6.9-19.7
				c1.9-0.6,3.8-0.5,5.7,0.2c-6.1,2.2-8.9,10.8-6.3,19.5C220.1,636.6,224.4,641.4,229,642.9z"/>
		</g>
		<g>
			
				<ellipse transform="matrix(0.9592 -0.2827 0.2827 0.9592 -162.6011 88.0145)" class="st1" cx="223.6" cy="607.4" rx="12.2" ry="17"/>
			<path class="st2" d="M229,623.5c-0.2,0.1-0.4,0.1-0.5,0.2c-6.4,1.9-13.8-3.8-16.5-12.8c-2.6-9,0.4-17.8,6.9-19.7
				c1.9-0.6,3.8-0.5,5.7,0.2c-6.1,2.2-8.9,10.8-6.3,19.5C220.1,617.2,224.4,621.9,229,623.5z"/>
		</g>
		<g>
			
				<ellipse transform="matrix(0.9592 -0.2827 0.2827 0.9592 -157.1002 87.2207)" class="st1" cx="223.6" cy="587.9" rx="12.2" ry="17"/>
			<path class="st2" d="M229,604c-0.2,0.1-0.4,0.1-0.5,0.2c-6.4,1.9-13.8-3.8-16.5-12.8c-2.6-9,0.4-17.8,6.9-19.7
				c1.9-0.6,3.8-0.5,5.7,0.2c-6.1,2.2-8.9,10.8-6.3,19.5C220.1,597.7,224.4,602.5,229,604z"/>
		</g>
		<g>
			
				<ellipse transform="matrix(0.9592 -0.2827 0.2827 0.9592 -151.5992 86.4268)" class="st1" cx="223.6" cy="568.5" rx="12.2" ry="17"/>
			<path class="st2" d="M229,584.6c-0.2,0.1-0.4,0.1-0.5,0.2c-6.4,1.9-13.8-3.8-16.5-12.8c-2.6-9,0.4-17.8,6.9-19.7
				c1.9-0.6,3.8-0.5,5.7,0.2c-6.1,2.2-8.9,10.8-6.3,19.5C220.1,578.3,224.4,583,229,584.6z"/>
		</g>
		<g>
			
				<ellipse transform="matrix(0.9592 -0.2827 0.2827 0.9592 -146.0983 85.633)" class="st1" cx="223.6" cy="549" rx="12.2" ry="17"/>
			<path class="st2" d="M229,565.1c-0.2,0.1-0.4,0.1-0.5,0.2c-6.4,1.9-13.8-3.8-16.5-12.8c-2.6-9,0.4-17.8,6.9-19.7
				c1.9-0.6,3.8-0.5,5.7,0.2c-6.1,2.2-8.9,10.8-6.3,19.5C220.1,558.8,224.4,563.6,229,565.1z"/>
		</g>
		<g>
			
				<ellipse transform="matrix(0.9592 -0.2827 0.2827 0.9592 -140.5973 84.8391)" class="st1" cx="223.6" cy="529.6" rx="12.2" ry="17"/>
			<path class="st2" d="M229,545.6c-0.2,0.1-0.4,0.1-0.5,0.2c-6.4,1.9-13.8-3.8-16.5-12.8c-2.6-9,0.4-17.8,6.9-19.7
				c1.9-0.6,3.8-0.5,5.7,0.2c-6.1,2.2-8.9,10.8-6.3,19.5C220.1,539.4,224.4,544.1,229,545.6z"/>
		</g>
		<g>
			
				<ellipse transform="matrix(0.9592 -0.2827 0.2827 0.9592 -135.0963 84.0453)" class="st1" cx="223.6" cy="510.1" rx="12.2" ry="17"/>
			<path class="st2" d="M229,526.2c-0.2,0.1-0.4,0.1-0.5,0.2c-6.4,1.9-13.8-3.8-16.5-12.8c-2.6-9,0.4-17.8,6.9-19.7
				c1.9-0.6,3.8-0.5,5.7,0.2c-6.1,2.2-8.9,10.8-6.3,19.5C220.1,519.9,224.4,524.6,229,526.2z"/>
		</g>
		<g>
			
				<ellipse transform="matrix(0.9592 -0.2827 0.2827 0.9592 -129.5954 83.2514)" class="st1" cx="223.6" cy="490.6" rx="12.2" ry="17"/>
			<path class="st2" d="M229,506.7c-0.2,0.1-0.4,0.1-0.5,0.2c-6.4,1.9-13.8-3.8-16.5-12.8c-2.6-9,0.4-17.8,6.9-19.7
				c1.9-0.6,3.8-0.5,5.7,0.2c-6.1,2.2-8.9,10.8-6.3,19.5C220.1,500.4,224.4,505.2,229,506.7z"/>
		</g>
		<g>
			
				<ellipse transform="matrix(0.9592 -0.2827 0.2827 0.9592 -124.0944 82.4576)" class="st1" cx="223.6" cy="471.2" rx="12.2" ry="17"/>
			<path class="st2" d="M229,487.3c-0.2,0.1-0.4,0.1-0.5,0.2c-6.4,1.9-13.8-3.8-16.5-12.8c-2.6-9,0.4-17.8,6.9-19.7
				c1.9-0.6,3.8-0.5,5.7,0.2c-6.1,2.2-8.9,10.8-6.3,19.5C220.1,481,224.4,485.7,229,487.3z"/>
		</g>
		<g>
			
				<ellipse transform="matrix(0.9592 -0.2827 0.2827 0.9592 -118.5935 81.6637)" class="st1" cx="223.6" cy="451.7" rx="12.2" ry="17"/>
			<path class="st2" d="M229,467.8c-0.2,0.1-0.4,0.1-0.5,0.2c-6.4,1.9-13.8-3.8-16.5-12.8c-2.6-9,0.4-17.8,6.9-19.7
				c1.9-0.6,3.8-0.5,5.7,0.2c-6.1,2.2-8.9,10.8-6.3,19.5C220.1,461.5,224.4,466.3,229,467.8z"/>
		</g>
		<g>
			
				<ellipse transform="matrix(0.9592 -0.2827 0.2827 0.9592 -113.0925 80.8699)" class="st1" cx="223.6" cy="432.3" rx="12.2" ry="17"/>
			<path class="st2" d="M229,448.4c-0.2,0.1-0.4,0.1-0.5,0.2c-6.4,1.9-13.8-3.8-16.5-12.8c-2.6-9,0.4-17.8,6.9-19.7
				c1.9-0.6,3.8-0.5,5.7,0.2c-6.1,2.2-8.9,10.8-6.3,19.5C220.1,442.1,224.4,446.8,229,448.4z"/>
		</g>
		<g>
			
				<ellipse transform="matrix(0.9592 -0.2827 0.2827 0.9592 -107.5915 80.076)" class="st1" cx="223.6" cy="412.8" rx="12.2" ry="17"/>
			<path class="st2" d="M229,428.9c-0.2,0.1-0.4,0.1-0.5,0.2c-6.4,1.9-13.8-3.8-16.5-12.8c-2.6-9,0.4-17.8,6.9-19.7
				c1.9-0.6,3.8-0.5,5.7,0.2c-6.1,2.2-8.9,10.8-6.3,19.5C220.1,422.6,224.4,427.4,229,428.9z"/>
		</g>
		<g>
			
				<ellipse transform="matrix(0.9592 -0.2827 0.2827 0.9592 -102.0906 79.2822)" class="st1" cx="223.6" cy="393.4" rx="12.2" ry="17"/>
			<path class="st2" d="M229,409.4c-0.2,0.1-0.4,0.1-0.5,0.2c-6.4,1.9-13.8-3.8-16.5-12.8c-2.6-9,0.4-17.8,6.9-19.7
				c1.9-0.6,3.8-0.5,5.7,0.2c-6.1,2.2-8.9,10.8-6.3,19.5C220.1,403.2,224.4,407.9,229,409.4z"/>
		</g>
		<g>
			
				<ellipse transform="matrix(0.9592 -0.2827 0.2827 0.9592 -96.5896 78.4883)" class="st1" cx="223.6" cy="373.9" rx="12.2" ry="17"/>
			<path class="st2" d="M229,390c-0.2,0.1-0.4,0.1-0.5,0.2c-6.4,1.9-13.8-3.8-16.5-12.8c-2.6-9,0.4-17.8,6.9-19.7
				c1.9-0.6,3.8-0.5,5.7,0.2c-6.1,2.2-8.9,10.8-6.3,19.5C220.1,383.7,224.4,388.5,229,390z"/>
		</g>
		<g>
			
				<ellipse transform="matrix(0.9592 -0.2827 0.2827 0.9592 -91.0886 77.6945)" class="st1" cx="223.6" cy="354.4" rx="12.2" ry="17"/>
			<path class="st2" d="M229,370.5c-0.2,0.1-0.4,0.1-0.5,0.2c-6.4,1.9-13.8-3.8-16.5-12.8c-2.6-9,0.4-17.8,6.9-19.7
				c1.9-0.6,3.8-0.5,5.7,0.2c-6.1,2.2-8.9,10.8-6.3,19.5C220.1,364.3,224.4,369,229,370.5z"/>
		</g>
		<g>
			
				<ellipse transform="matrix(0.9592 -0.2827 0.2827 0.9592 -85.5877 76.9006)" class="st1" cx="223.6" cy="335" rx="12.2" ry="17"/>
			<path class="st2" d="M229,351.1c-0.2,0.1-0.4,0.1-0.5,0.2c-6.4,1.9-13.8-3.8-16.5-12.8c-2.6-9,0.4-17.8,6.9-19.7
				c1.9-0.6,3.8-0.5,5.7,0.2c-6.1,2.2-8.9,10.8-6.3,19.5C220.1,344.8,224.4,349.5,229,351.1z"/>
		</g>
		<g>
			
				<ellipse transform="matrix(0.9592 -0.2827 0.2827 0.9592 -80.0867 76.1068)" class="st1" cx="223.6" cy="315.5" rx="12.2" ry="17"/>
			<path class="st2" d="M229,331.6c-0.2,0.1-0.4,0.1-0.5,0.2c-6.4,1.9-13.8-3.8-16.5-12.8c-2.6-9,0.4-17.8,6.9-19.7
				c1.9-0.6,3.8-0.5,5.7,0.2c-6.1,2.2-8.9,10.8-6.3,19.5C220.1,325.3,224.4,330.1,229,331.6z"/>
		</g>
		<g>
			
				<ellipse transform="matrix(0.9592 -0.2827 0.2827 0.9592 -74.5858 75.3129)" class="st1" cx="223.6" cy="296.1" rx="12.2" ry="17"/>
			<path class="st2" d="M229,312.2c-0.2,0.1-0.4,0.1-0.5,0.2c-6.4,1.9-13.8-3.8-16.5-12.8c-2.6-9,0.4-17.8,6.9-19.7
				c1.9-0.6,3.8-0.5,5.7,0.2c-6.1,2.2-8.9,10.8-6.3,19.5C220.1,305.9,224.4,310.6,229,312.2z"/>
		</g>
		<g>
			
				<ellipse transform="matrix(0.9592 -0.2827 0.2827 0.9592 -69.0848 74.5191)" class="st1" cx="223.6" cy="276.6" rx="12.2" ry="17"/>
			<path class="st2" d="M229,292.7c-0.2,0.1-0.4,0.1-0.5,0.2c-6.4,1.9-13.8-3.8-16.5-12.8c-2.6-9,0.4-17.8,6.9-19.7
				c1.9-0.6,3.8-0.5,5.7,0.2c-6.1,2.2-8.9,10.8-6.3,19.5C220.1,286.4,224.4,291.2,229,292.7z"/>
		</g>
		<g>
			
				<ellipse transform="matrix(0.9592 -0.2827 0.2827 0.9592 -64.413 73.8449)" class="st1" cx="223.6" cy="260.1" rx="12.2" ry="17"/>
			<path class="st2" d="M229,276.2c-0.2,0.1-0.4,0.1-0.5,0.2c-6.4,1.9-13.8-3.8-16.5-12.8c-2.6-9,0.4-17.8,6.9-19.7
				c1.9-0.6,3.8-0.5,5.7,0.2c-6.1,2.2-8.9,10.8-6.3,19.5C220.1,269.9,224.4,274.6,229,276.2z"/>
		</g>
		<g>
			
				<ellipse transform="matrix(0.9592 -0.2827 0.2827 0.9592 -58.912 73.051)" class="st1" cx="223.6" cy="240.6" rx="12.2" ry="17"/>
			<path class="st2" d="M229,256.7c-0.2,0.1-0.4,0.1-0.5,0.2c-6.4,1.9-13.8-3.8-16.5-12.8c-2.6-9,0.4-17.8,6.9-19.7
				c1.9-0.6,3.8-0.5,5.7,0.2c-6.1,2.2-8.9,10.8-6.3,19.5C220.1,250.4,224.4,255.2,229,256.7z"/>
		</g>
		<g>
			
				<ellipse transform="matrix(0.9592 -0.2827 0.2827 0.9592 -53.411 72.2572)" class="st1" cx="223.6" cy="221.2" rx="12.2" ry="17"/>
			<path class="st2" d="M229,237.3c-0.2,0.1-0.4,0.1-0.5,0.2c-6.4,1.9-13.8-3.8-16.5-12.8c-2.6-9,0.4-17.8,6.9-19.7
				c1.9-0.6,3.8-0.5,5.7,0.2c-6.1,2.2-8.9,10.8-6.3,19.5C220.1,231,224.4,235.7,229,237.3z"/>
		</g>
		<g>
			
				<ellipse transform="matrix(0.9592 -0.2827 0.2827 0.9592 -47.9101 71.4633)" class="st1" cx="223.6" cy="201.7" rx="12.2" ry="17"/>
			<path class="st2" d="M229,217.8c-0.2,0.1-0.4,0.1-0.5,0.2c-6.4,1.9-13.8-3.8-16.5-12.8c-2.6-9,0.4-17.8,6.9-19.7
				c1.9-0.6,3.8-0.5,5.7,0.2c-6.1,2.2-8.9,10.8-6.3,19.5C220.1,211.5,224.4,216.3,229,217.8z"/>
		</g>
		<g>
			
				<ellipse transform="matrix(0.9592 -0.2827 0.2827 0.9592 -42.4091 70.6695)" class="st1" cx="223.6" cy="182.3" rx="12.2" ry="17"/>
			<path class="st2" d="M229,198.4c-0.2,0.1-0.4,0.1-0.5,0.2c-6.4,1.9-13.8-3.8-16.5-12.8c-2.6-9,0.4-17.8,6.9-19.7
				c1.9-0.6,3.8-0.5,5.7,0.2c-6.1,2.2-8.9,10.8-6.3,19.5C220.1,192.1,224.4,196.8,229,198.4z"/>
		</g>
		<g>
			
				<ellipse transform="matrix(0.9592 -0.2827 0.2827 0.9592 -36.9082 69.8756)" class="st1" cx="223.6" cy="162.8" rx="12.2" ry="17"/>
			<path class="st2" d="M229,178.9c-0.2,0.1-0.4,0.1-0.5,0.2c-6.4,1.9-13.8-3.8-16.5-12.8c-2.6-9,0.4-17.8,6.9-19.7
				c1.9-0.6,3.8-0.5,5.7,0.2c-6.1,2.2-8.9,10.8-6.3,19.5C220.1,172.6,224.4,177.4,229,178.9z"/>
		</g>
		<g>
			
				<ellipse transform="matrix(0.9592 -0.2827 0.2827 0.9592 -31.4072 69.0818)" class="st1" cx="223.6" cy="143.4" rx="12.2" ry="17"/>
			<path class="st2" d="M229,159.4c-0.2,0.1-0.4,0.1-0.5,0.2c-6.4,1.9-13.8-3.8-16.5-12.8c-2.6-9,0.4-17.8,6.9-19.7
				c1.9-0.6,3.8-0.5,5.7,0.2c-6.1,2.2-8.9,10.8-6.3,19.5C220.1,153.2,224.4,157.9,229,159.4z"/>
		</g>
		<g>
			
				<ellipse transform="matrix(0.9592 -0.2827 0.2827 0.9592 -25.9062 68.288)" class="st1" cx="223.6" cy="123.9" rx="12.2" ry="17"/>
			<path class="st2" d="M229,140c-0.2,0.1-0.4,0.1-0.5,0.2c-6.4,1.9-13.8-3.8-16.5-12.8c-2.6-9,0.4-17.8,6.9-19.7
				c1.9-0.6,3.8-0.5,5.7,0.2c-6.1,2.2-8.9,10.8-6.3,19.5C220.1,133.7,224.4,138.5,229,140z"/>
		</g>
		<g>
			
				<ellipse transform="matrix(0.9592 -0.2827 0.2827 0.9592 -20.4053 67.4941)" class="st1" cx="223.6" cy="104.4" rx="12.2" ry="17"/>
			<path class="st2" d="M229,120.5c-0.2,0.1-0.4,0.1-0.5,0.2c-6.4,1.9-13.8-3.8-16.5-12.8c-2.6-9,0.4-17.8,6.9-19.7
				c1.9-0.6,3.8-0.5,5.7,0.2c-6.1,2.2-8.9,10.8-6.3,19.5C220.1,114.3,224.4,119,229,120.5z"/>
		</g>
		<g>
			<ellipse transform="matrix(0.9592 -0.2827 0.2827 0.9592 -14.9043 66.7003)" class="st1" cx="223.6" cy="85" rx="12.2" ry="17"/>
			<path class="st2" d="M229,101.1c-0.2,0.1-0.4,0.1-0.5,0.2c-6.4,1.9-13.8-3.8-16.5-12.8c-2.6-9,0.4-17.8,6.9-19.7
				c1.9-0.6,3.8-0.5,5.7,0.2c-6.1,2.2-8.9,10.8-6.3,19.5C220.1,94.8,224.4,99.5,229,101.1z"/>
		</g>
		<g>
			
				<ellipse transform="matrix(0.9592 -0.2827 0.2827 0.9592 -9.4034 65.9064)" class="st1" cx="223.6" cy="65.5" rx="12.2" ry="17"/>
			<path class="st2" d="M229,81.6c-0.2,0.1-0.4,0.1-0.5,0.2C222,83.7,214.6,78,212,69c-2.6-9,0.4-17.8,6.9-19.7
				c1.9-0.6,3.8-0.5,5.7,0.2c-6.1,2.2-8.9,10.8-6.3,19.5C220.1,75.3,224.4,80.1,229,81.6z"/>
		</g>
		<g>
			
				<ellipse transform="matrix(0.9592 -0.2827 0.2827 0.9592 -3.9024 65.1126)" class="st1" cx="223.6" cy="46.1" rx="12.2" ry="17"/>
			<path class="st2" d="M229,62.2c-0.2,0.1-0.4,0.1-0.5,0.2c-6.4,1.9-13.8-3.8-16.5-12.8c-2.6-9,0.4-17.8,6.9-19.7
				c1.9-0.6,3.8-0.5,5.7,0.2c-6.1,2.2-8.9,10.8-6.3,19.5C220.1,55.9,224.4,60.6,229,62.2z"/>
		</g>
		<g>
			<ellipse transform="matrix(0.9592 -0.2827 0.2827 0.9592 1.5986 64.3187)" class="st1" cx="223.6" cy="26.6" rx="12.2" ry="17"/>
			<path class="st2" d="M229,42.7c-0.2,0.1-0.4,0.1-0.5,0.2C222,44.8,214.6,39,212,30.1c-2.6-9,0.4-17.8,6.9-19.7
				c1.9-0.6,3.8-0.5,5.7,0.2c-6.1,2.2-8.9,10.8-6.3,19.5C220.1,36.4,224.4,41.2,229,42.7z"/>
		</g>
	</g>
</g>
<g id="pinata-1">
	<g>
		<path class="st3" d="M175.2,931.3c0,0,5.5,2.2,21.6-0.6c10.5-1.8,13-12,13-12s3.9,21,3.2,27.9c-0.5,4.5-2.6,7-12.2,11.1
			c-9.6,4.1-19.3,1.4-20.9-3.8C176.9,943.8,175.2,931.3,175.2,931.3z"/>
		<path class="st3" d="M347.6,899.9c0,0,5.5,2.1,21.6-0.9c10.4-2,12.8-12.2,12.8-12.2s4.3,20.9,3.6,27.8c-0.4,4.5-2.5,7-12,11.2
			c-9.5,4.3-19,2.6-20.7-2.5C349.7,913.4,347.6,899.9,347.6,899.9z"/>
		<path class="st3" d="M270.1,891.2c0,0,4.4,7.7,20.8,6.7c12.4-0.7,14.1-5.2,14.1-5.2s-3,21.4-4.5,26.8c-1.1,4.2-3,6.2-13.4,6.9
			c-10.4,0.7-15.1-0.6-15.8-5.9C269.8,910.1,270.1,891.2,270.1,891.2z"/>
		<path class="st4" d="M176.7,932.1c0,0,9.6,5.1,18.5,2c8.9-3.1,17.7-11.6,17.7-11.6c-9.7-18.5-14.7-121.8-14.7-121.8l-53.4,2.7
			L176.7,932.1z"/>
		<path class="st5" d="M177.7,840.8l16.9,81.3l2.2,10.8c-8.9,5.8-24.1,2.4-24.1,2.4c-2-27.4-12.4-66.5-12.4-66.5L177.7,840.8z"/>
		<path class="st3" d="M78.7,915c0,0,4.2,8.5,21.7,8.5c13.3,0,15.4-4.6,15.4-4.6s-7.3,22.9-8.6,27.3c-1.3,4.4-9,7.8-18.5,6.7
			c-11.1-1.3-14.4-10.1-13.9-15.8C76,926,78.7,915,78.7,915z"/>
		<path class="st4" d="M80.9,918.3c0,0,6.9,8.4,16.3,8.9c9.4,0.5,20.8-4,20.8-4c-2-20.8,32.6-118.2,32.6-118.2l-50.5-17.8
			L80.9,918.3z"/>
		<path class="st5" d="M116.5,834.2l-17.3,92.5c-10.4,2-25.2-7.4-25.2-7.4c12.9-18.8,15.8-65.8,15.8-65.8L116.5,834.2z"/>
		<path class="st4" d="M271.3,896c0,0,7.5,7.3,16.5,6.9c9-0.5,19.5-5.9,19.5-5.9c-4-19.7,13.3-116.5,13.3-116.5l-44.2-11.9
			L271.3,896z"/>
		<path class="st5" d="M296.9,811.9l-6.3,79.7l-1.1,11.1c-9.7,2.9-24.7-5-24.7-5c10.4-19.3,8.5-64.6,8.5-64.6L296.9,811.9z"/>
		<path class="st4" d="M80.9,918.3c0,0,6.9,8.4,16.3,8.9c9.4,0.5,20.8-4,20.8-4c-2-20.8,32.6-118.2,32.6-118.2l-50.5-17.8
			L80.9,918.3z"/>
		<path class="st5" d="M116.5,834.2l-17.3,92.5c-10.4,2-25.2-7.4-25.2-7.4c12.9-18.8,15.8-65.8,15.8-65.8L116.5,834.2z"/>
		<path class="st0" d="M87.5,865.9c0,0,12,5.4,20.3,6.4c8.2,1,28-2,28-2l-3,13.5c0,0-12.3,4.3-25.7,3.6c-18.5-1-28.4-7.9-28.4-7.9
			L87.5,865.9z"/>
		<path class="st0" d="M271.3,843.1c0,0,12,5.4,20.3,6.4c8.2,1,28-2,28-2l-3,13.5c0,0-13.2,6.5-26.5,5.8
			c-18.5-1-27.5-10.1-27.5-10.1L271.3,843.1z"/>
		<path class="st0" d="M162.4,879.5c0,0,13.1,1.3,21.3-0.4c8.1-1.7,25.9-10.8,25.9-10.8l0.1,15.2c0,0-5.2,7.3-18.1,10.9
			c-17.8,5-33,0.9-33,0.9L162.4,879.5z"/>
		<path class="st4" d="M350.1,900.9c0,0,9.5,5.3,18.4,2.4c8.9-2.9,17.9-11.2,17.9-11.2c-9.3-18.7-12.3-122-12.3-122l-53.5,1.6
			L350.1,900.9z"/>
		<path class="st5" d="M352.9,809.7l15.2,81.6l2,10.9c-9,5.6-26.2,2.2-26.2,2.2c5.2-22.2-9-67.1-9-67.1L352.9,809.7z"/>
		<path class="st0" d="M336.2,848.4c0,0,13.1,1.3,21.3-0.4c8.1-1.7,25.9-10.8,25.9-10.8l1.2,16.7c0,0-5.1,6.9-18,10.6
			c-17.8,5-34.4-0.3-34.4-0.3L336.2,848.4z"/>
		<path class="st6" d="M89.9,827.4c0,0-1.8,34.8-7.7,47c0,0,11,6.4,28.2,7.4c14.5,1.3,20.4-4.6,20.4-4.6s8.2-37.3,13.9-45.5
			c5.6-8.2-22.1,0-23.1,0S89.9,827.4,89.9,827.4z"/>
		<path class="st7" d="M89.9,827.4c0,0-1.8,34.8-7.7,47c0,0,11,6.4,28.2,7.4c14.3-24.1,12.2-50.1,11.2-50.1S89.9,827.4,89.9,827.4z"
			/>
		<path class="st0" d="M93.6,823c0,0,12.8,5.8,21.6,6.8c8.8,1.1,29.8-2.1,29.8-2.1l-3.2,14.4c0,0-13.1,4.6-27.4,3.9
			c-19.6-1.1-30.2-8.4-30.2-8.4L93.6,823z"/>
		<path class="st6" d="M272.5,824c0,0-0.7,19.8-4.5,31.7c0,0,11.4,7.1,27,5.7c13.3-0.7,17.9-6.8,17.9-6.8s2.5-26.1,3.5-34
			c1.1-9.1-18.2,4.4-19,4.5C296.5,825.1,272.5,824,272.5,824z"/>
		<path class="st7" d="M272.5,824c0,0-0.7,19.8-4.5,31.7c0,0,11.4,7.1,27,5.7c5.8-18.1,3.3-36.5,2.4-36.3
			C296.5,825.1,272.5,824,272.5,824z"/>
		<path class="st0" d="M270.7,815c0,0,12.8,5.8,21.6,6.8c8.8,1.1,29.8-2.1,29.8-2.1l-1.8,9.8c0,0-13,9.2-27.2,8.4
			c-19.6-1.1-25.2-5.4-25.2-5.4L270.7,815z"/>
		<path class="st6" d="M149.4,843.9c0,0,12.2,30,11.1,47.2c0,0,8.1,2.1,24.5-0.3c13.9-1.5,23.7-12.2,23.7-12.2s-7.7-30.2-6.9-41.2
			c0.7-9.9-20.8,4.3-21.7,4.5S149.4,843.9,149.4,843.9z"/>
		<path class="st7" d="M149.4,843.9c0,0,12.2,30,11.1,47.2c0,0,8.1,2.1,24.5-0.3c0,0,2-31.7-7.7-48.2
			C167.4,826.1,149.4,843.9,149.4,843.9z"/>
		<path class="st0" d="M154,838.3c0,0,13.7,3.3,22.5,2.7c8.8-0.6,28.9-7.6,28.9-7.6l2.4,15.3c0,0-10.6,8-24.7,9.9
			c-19.5,2.6-35.5-4.3-35.5-4.3L154,838.3z"/>
		<path class="st6" d="M332.5,822.6c0,0,4.4,20.8,1.5,36.5c0,0,12.7,3.2,28.5,0.9c13.4-1.4,20.9-13,20.9-13s-5.8-16.4-6.9-29.2
			c-0.7-8.7-16.7,3.3-17.8,3.3C357.8,821.1,332.5,822.6,332.5,822.6z"/>
		<path class="st7" d="M332.5,822.6c0,0,4.4,20.8,1.5,36.5c0,0,12.7,3.2,28.5,0.9c2.7-20.8-2.6-38.9-3.7-38.9
			C357.8,821.1,332.5,822.6,332.5,822.6z"/>
		<path class="st0" d="M329.5,812.1c0,0,14,1.3,22.6-0.5c8.6-1.8,27.5-11.6,27.5-11.6l4.6,14.8c0,0-9.4,9.4-23.1,13.3
			c-18.9,5.4-35.8,0.8-35.8,0.8L329.5,812.1z"/>
		<path class="st8" d="M102.3,743.9l-9.5,74.3c0,0,14.8,19.3,27.5,20.8s26-6.7,26-6.7l5.1,18.3l34.5,3c0,0,14.6-4.5,19.8-8.7
			c-1.8-9.6-0.5-12.1-0.5-12.1s21.3,0,41.1-4.9c25.9-6.5,76.2-45.5,76.2-45.5l8.4,36.3c0,0,5.4,11.2,22.5,6.3
			c26.5-7.7,29.3-17.8,29.3-17.8c-9.9-21.4-0.3-67.3-17.6-95.5c0,0,3,19.6-73.2,38.3c-76.2,18.7-121.2,12.6-121.2,12.6L102.3,743.9z
			"/>
		<path class="st8" d="M323.5,781.8l-5.2,40.1c0,0-13.3,10.1-24.2,10.4c-12.1,0.3-21.9-9.2-21.8-10.4c1.5-9.6,8.9-50.5,8.9-50.5
			L323.5,781.8z"/>
		<path class="st2" d="M172.9,765.4c4.1,10.8,3.8,38.5,4.9,48c3.5,27.7,8.4,40.1,8.4,40.1s-25.2,2-37.8-3.5
			c-1-21.1-7-28.5-13.3-37.8c-9.2,13.5-10.9,27-10.9,27c-15.6,3.7-34-3.9-37.3-9.9c4-12.6,4.3-27.7,5.8-46.9
			c3.5-17.3,4.3-35.4,7.4-43.8L172.9,765.4z"/>
		<path class="st0" d="M378.2,727.4c0,0-13.3,13.3-29.3,23.9c-27.4,18.1-95.3,33.5-177.4,36.9c-68.2,2.9-84.6-29.2-84.6-29.2
			l11-13.7c0,0,8.9,43.5,84.1,34s154.7-26.9,167.5-40.1c12.9-13.2,21.4-20.9,21.4-20.9L378.2,727.4z"/>
		<path class="st5" d="M101.7,731.4c0,0,40.5,33.6,68.2,30.6s124.1-12.5,168.7-33.1c20.8-9.6,27-20.8,27-20.8s6.3,6.9,9.4,12.9
			c0,0-17.1,27.9-62.8,40.8c-52.4,14.8-117.6,18.5-142.3,20.9c-34.4,3.4-69-34.4-69-34.4L101.7,731.4z"/>
		<path class="st9" d="M168.8,758.5c1,16.5,0.7,24.1,0.7,24.1s-24.9,2.3-50.9-7.3c-21.5-7.9-24.9-15.2-24.9-15.2
			c8.9-15.8,6.3-26.1,6.3-26.1c-2.1,1.6,8,14.4,28,20C143.8,758.4,157.3,760.6,168.8,758.5z"/>
		<path class="st0" d="M373.2,703.5c0,0-8.1,13.7-22.3,24.9c-18.8,14.8-89.2,39.3-180.9,40.4c-81.1,1-78.5-39.2-78.5-39.2l3.3-4
			c0,0,8.9,43.5,84.1,34s154.7-26.9,167.5-40.1c12.9-13.2,21.4-20.9,21.4-20.9L373.2,703.5z"/>
		<path class="st2" d="M270.8,825.8v-12.9l33.6-14.8c0,0,0,18.1-4.9,33.3C286.6,834.7,270.8,825.8,270.8,825.8z"/>
		<path class="st2" d="M327.7,822.2c-0.3-19.1-5.9-35.5-5.9-35.5l3.7-0.7c10.9-2.1,21.4,4.9,23.7,15.7l3.9,23.1
			C337.1,829.8,327.7,822.2,327.7,822.2z"/>
		<path class="st2" d="M203.5,828.9l0.5,3.9c0,0,13.6,3.2,42-4.9c28.4-8.2,84.8-35.6,82.6-41.6c-2.2-5.9-38.6,21.3-80.9,23.7
			c-9.1,0.5-27.4,2.9-34.9,3C206,813,202.6,822,203.5,828.9z"/>
		<path class="st6" d="M103.5,669.8l12.9,77.8l54.9,15.3c0,0,80-3.2,132.1-19.8c48-15.3,64.8-36.9,63.8-41.4
			c-10.9-13.2-32.4-35.8-67.3-37c-40.1-1.4-89.8,23.9-89.8,23.9l-17.6-51.4L103.5,669.8z"/>
		<path class="st7" d="M161.7,651.9c0,0-9.2,11.4-2.7,47.6c0.3,1.9,2.8,15.7,3.3,17.5c1.8,7.1,3.8,19.9,6.8,27.7h-61.6
			c-12.6-22.3-5.2-80.9-5.2-80.9L161.7,651.9z"/>
		<path class="st1" d="M136.2,497.1c7.9,7.9,20.4,46.8,43.4,79.1c18,25.4-38.4-1.8-38.4-1.8l-21.3-84.1
			C119.8,490.4,128.2,489.2,136.2,497.1z"/>
		<path class="st1" d="M134.9,548.1l-21.3,16.3l-35.1-67.8c0,0,3.8-5.4,13-0.4S134.9,548.1,134.9,548.1z"/>
		<path class="st4" d="M96,577c0,0-26.3-79-17.6-80.3c8.8-1.3,35.1,67.8,35.1,67.8s-2.5-74,6.3-74s27.6,74,27.6,74s20.5,1.9,27.6,10
			c16.3,18.8,17.6,62.7,17.6,62.7L158.7,651l-37.1-55.9L96,577z"/>
		<path class="st0" d="M83.9,538.9c0,0,9.3-1.5,16.3-5.7c7-4.2,10.6-17.9,10.6-17.9l3,5.1l-0.2,5.6c0,0-2.7,8.4-9.1,13.7
			c-6.4,5.3-18.8,6.3-18.8,6.3L83.9,538.9z"/>
		<path class="st1" d="M96,577l17.6-12.5c0,0,4.4,2.6,13.8,2.6s20.1-2.6,20.1-2.6s18,0.5,28.4,7.1c24.2,15.4,15.6,60.3,27,81.6
			c0,0-21.3,27.5-49.2,30.7c-19.4,2.2-49.9-3.8-57.1-8.4l8.4-57.9L96,577z"/>
		<path class="st5" d="M25,631.9c0,0,47.2-26,71-54.9c14.5-17.5,43.9,2.5,50.2,13.8c6.3,11.3,17.4,37.1,17.6,51.4
			c0.2,14.1-12.2,27.2-41.5,27.2c-34,0-52.8,1.3-73.9-4.7C29.4,659.5,25,631.9,25,631.9z"/>
		<path class="st4" d="M95.7,627.4c8.5,17.9,6.6,42.8,6.6,42.8l-35.1-0.8c0,0,9.2-7.5,7.9-25.1s-18.8-35.1-18.8-35.1
			s15-9.6,26.4-18.9c11.1-9,19.7-23.2,27.9-18.5C131.3,583.7,82.2,598.9,95.7,627.4z"/>
		<path class="st9" d="M56.6,658.6c0,0,36.3-2.4,60-4c41.6-2.6,40.4-34.1,40.4-34.1s8,10.7,6.7,21.7c-1.3,11.2-2.3,23.3-26,26.3
			c-23.7,3-70.2,3.3-89.4-3.7C31,658.5,56.6,658.6,56.6,658.6z"/>
		<ellipse class="st9" cx="122.7" cy="614.3" rx="14.6" ry="18.4"/>
		<ellipse class="st0" cx="120.1" cy="614.5" rx="14.1" ry="18.2"/>
		<ellipse class="st3" cx="115.3" cy="615.4" rx="9.3" ry="11"/>
		<path class="st0" d="M154.3,697.2c-30.4,3.7-55.6-14.1-55.6-14.1l0.7,11.9c0,0,25.1,18.6,57,13.4c24.6-4,49.1-33.3,49.1-33.3
			l-1.5-12.8C204,662.3,174.5,694.7,154.3,697.2z"/>
		<path class="st0" d="M113.2,536.8c0,0,15.8,2.9,25.5,0c9.7-2.9,14.2-8.8,14.2-8.8l-4.2-8.4c0,0-3.1,8.1-11.7,10
			c-8.6,2-23.6-0.4-23.6-0.4L113.2,536.8z"/>
		<path class="st0" d="M34.9,624l21.4-14.8c0,0,20.1,12.6,18.8,35.1c-1.1,18.4-7.9,25.1-7.9,25.1L37,663.6L34.9,624z"/>
		<path class="st3" d="M23,632.9c-8.5,12.7,0.2,24.4,14,30.7c18.4,8.4,19.7-9.3,18.8-20.1C53.4,612.1,30.5,621.6,23,632.9z"/>
		<path class="st10" d="M67.7,601.6c0,0,15.8,10.6,19.3,33.8c2.3,15.7-6.1,35.1-6.1,35.1l-13.7-1.1c0,0,9.4-27.6,5.8-38
			c-5.2-15.1-16.7-22.2-16.7-22.2L67.7,601.6z"/>
		<path class="st11" d="M67.7,601.6c0,0,15.8,10.6,19.3,33.8c2.3,15.7-6.1,35.1-6.1,35.1s6.9-21.8,4.8-34.6
			C82.2,615.1,67.7,601.6,67.7,601.6z"/>
		<path class="st1" d="M208.8,688.9c0,0,25.4,35.9,64.5,19.6c21-8.8,15.2-43.7,15.2-43.7s-21.1-0.3-38.9,5.9
			C231.7,677.1,208.8,688.9,208.8,688.9z"/>
		<path class="st10" d="M82.8,663.1c0,0,27.5,86.9,70.7,69.7c32.6-13,45.8-41.2,49.8-47.5s11.5-7.6,8.9,4.9
			c-2.6,12.5-20.8,64.6-40.9,74.7c-70.9,35.6-97.4-93.2-97.4-93.2L82.8,663.1z"/>
		<path class="st11" d="M82.8,663.1c0,0,27.5,86.9,70.7,69.7c32.6-13,45.8-41.2,49.8-47.5s-10.7,39.1-36.4,51.9
			C100.7,770.4,80.9,667,80.9,667L82.8,663.1z"/>
		<path class="st2" d="M228.8,698.5c0,0,21.7,7.7,34.6,1.6c16.2-7.6,18.8-29.7,18.8-29.7s2.6,29-17.5,34.6
			C244.6,710.7,228.8,698.5,228.8,698.5z"/>
		<path class="st10" d="M164,636.3c3.7,0.7-8.7-53.7-34.6-63.3c-27.5-10.2-33.3,4-33.3,4s19.7-5.2,32.3,5.9
			C149.5,601.5,160.3,635.6,164,636.3z"/>
		<circle class="st10" cx="76.3" cy="663.5" r="10.5"/>
		<path class="st11" d="M86.8,663.5c0,5-3.5,9.2-8.2,10.2c3.4-2.1,5.6-5.8,5.6-10c0-4.8-2.9-8.9-6.9-10.7
			C82.6,653.6,86.8,658.1,86.8,663.5z"/>
		<path class="st8" d="M151.5,578.1c0,0,17.9,23,21.4,41.2c3.5,18.2,2,42.2,2,42.2s6.8-22.3,2.3-42.3
			C171.1,591.6,151.5,578.1,151.5,578.1z"/>
		<path class="st0" d="M86.5,670.6c0,0,15-4,19.8-12.2c5.7-9.7,4.6-19.7,4.6-19.7s12.9,8.5,10,19.7c-1.5,5.7-16.2,12.1-16.2,12.1
			L86.5,670.6z"/>
	</g>
</g>
<g id="pinata-2">
	<g>
		<path class="st3" d="M233.9,938.3c0,0,5.9,0.7,20.8-6.2c9.7-4.4,9.5-15,9.5-15s9.2,19.2,10.2,26.1c0.7,4.4-0.7,7.4-8.9,13.8
			s-18.3,6.3-21.2,1.7C238.7,950,233.9,938.3,233.9,938.3z"/>
		<path class="st3" d="M392.4,863.8c0,0,5.9,0.6,20.7-6.5c9.6-4.6,9.3-15.1,9.3-15.1s9.5,19.1,10.6,25.9c0.7,4.4-0.6,7.4-8.7,13.9
			s-17.7,7.5-20.7,2.9C397.9,876.3,392.4,863.8,392.4,863.8z"/>
		<path class="st3" d="M315.3,875.2c0,0,6.3,6.3,21.8,1.1c11.8-3.9,12.3-8.6,12.3-8.6s2.6,21.4,2.6,27c0,4.3-1.3,6.7-11.1,10.1
			s-14.7,3.3-16.8-1.7C319.9,893.5,315.3,875.2,315.3,875.2z"/>
		<path class="st4" d="M235.5,938.7c0,0,10.6,2.5,18.4-2.8c7.8-5.3,14.2-15.7,14.2-15.7c-14.1-15.3-45.5-113.9-45.5-113.9l-51,16.3
			L235.5,938.7z"/>
		<path class="st5" d="M213,850.2l37.2,74.2l5,9.9c-7.1,7.9-22.7,8.5-22.7,8.5c-8.9-25.9-29.1-61.1-29.1-61.1L213,850.2z"/>
		<path class="st3" d="M136.5,947.4c0,0,6.2,7.1,23.2,2.7c12.8-3.4,13.7-8.4,13.7-8.4s-1.2,24-1.3,28.6c-0.2,4.6-6.7,9.9-16.1,11.2
			c-11,1.6-16.5-6-17.5-11.7C136.6,958.7,136.5,947.4,136.5,947.4z"/>
		<path class="st4" d="M139.4,950c0,0,8.9,6.3,18.1,4.4c9.2-1.9,19.1-9.2,19.1-9.2c-7.2-19.6,1.2-122.6,1.2-122.6l-53.3-4.2
			L139.4,950z"/>
		<path class="st5" d="M152.2,859.6l7,93.8c-9.5,4.6-26.3-0.7-26.3-0.7c7.6-21.5-1.6-67.6-1.6-67.6L152.2,859.6z"/>
		<path class="st4" d="M317.7,879.5c0,0,9.1,5.2,17.7,2.4s17.3-10.7,17.3-10.7c-8.9-18-17-116-17-116L290,755L317.7,879.5z"/>
		<path class="st5" d="M320.8,791.7l14.3,78.6l1.8,11c-8.7,5.4-25.1,1.5-25.1,1.5c5.1-21.3-8.4-64.6-8.4-64.6L320.8,791.7z"/>
		<path class="st4" d="M139.4,950c0,0,8.9,6.3,18.1,4.4c9.2-1.9,19.1-9.2,19.1-9.2c-7.2-19.6,1.2-122.6,1.2-122.6l-53.3-4.2
			L139.4,950z"/>
		<path class="st5" d="M152.2,859.6l7,93.8c-9.5,4.6-26.3-0.7-26.3-0.7c7.6-21.5-1.6-67.6-1.6-67.6L152.2,859.6z"/>
		<path class="st0" d="M132.3,897.7c0,0,13,2.2,21.3,1c8.2-1.2,26.6-9.1,26.6-9.1l0.6,13.8c0,0-10.8,7.4-23.9,10.1
			c-18.1,3.8-29.4-0.4-29.4-0.4L132.3,897.7z"/>
		<path class="st0" d="M304.1,828.4c0,0,13,2.2,21.3,1c8.2-1.2,26.6-9.1,26.6-9.1l0.6,13.8c0,0-11.1,9.7-24.2,12.4
			c-18.1,3.8-29.2-2.6-29.2-2.6L304.1,828.4z"/>
		<path class="st0" d="M208.2,891.6c0,0,13-2.1,20.5-5.9c7.4-3.7,22.3-17.1,22.3-17.1l4,14.7c0,0-3.2,8.4-14.7,15.2
			c-15.9,9.4-31.7,9.4-31.7,9.4L208.2,891.6z"/>
		<path class="st4" d="M395.1,864.1c0,0,10.5,2.7,18.4-2.4s14.5-15.4,14.5-15.4c-13.8-15.6-43.2-114.8-43.2-114.8l-51.3,15.3
			L395.1,864.1z"/>
		<path class="st5" d="M374.4,775.2l35.7,75l4.8,10c-7.2,7.7-24.8,8.9-24.8,8.9c-0.7-22.8-25.9-62.5-25.9-62.5L374.4,775.2z"/>
		<path class="st0" d="M368.1,816.9c0,0,13-2.1,20.5-5.9c7.4-3.7,22.3-17.1,22.3-17.1l5.5,15.8c0,0-3.1,8-14.7,14.8
			c-15.9,9.4-33.3,8.6-33.3,8.6L368.1,816.9z"/>
		<path class="st6" d="M124.8,859.9c0,0,7.2,34.1,4.6,47.4c0,0,12.3,3.4,29.2-0.1c14.4-2.5,18.6-9.7,18.6-9.7s-1.6-38.1,1.7-47.5
			c3.3-9.4-21.4,5.7-22.3,5.9S124.8,859.9,124.8,859.9z"/>
		<path class="st7" d="M124.8,859.9c0,0,7.2,34.1,4.6,47.4c0,0,12.3,3.4,29.2-0.1c7.7-27-1.1-51.6-2-51.3S124.8,859.9,124.8,859.9z"
			/>
		<path class="st0" d="M127.2,854.6c0,0,13.9,2.3,22.6,1.1c8.7-1.2,28.3-9.7,28.3-9.7l0.6,14.7c0,0-11.5,7.8-25.4,10.8
			c-19.3,4-31.3-0.4-31.3-0.4L127.2,854.6z"/>
		<path class="st6" d="M300.3,809.7c0,0,4.5,19.3,3.8,31.7c0,0,12.8,3.9,27.6-1.4c12.7-4.1,15.6-11.2,15.6-11.2S343,802.9,342,795
			c-1.2-9-16.4,8.9-17.3,9.2S300.3,809.7,300.3,809.7z"/>
		<path class="st7" d="M300.3,809.7c0,0,4.5,19.3,3.8,31.7c0,0,12.8,3.9,27.6-1.4c0.9-19-6.2-36.1-7-35.7S300.3,809.7,300.3,809.7z"
			/>
		<path class="st0" d="M296.3,801.5c0,0,13.9,2.3,22.6,1.1c8.7-1.2,28.3-9.7,28.3-9.7l0.8,9.9c0,0-10.2,12.2-24.1,15.1
			c-19.3,4-25.8,1.2-25.8,1.2L296.3,801.5z"/>
		<path class="st6" d="M186.5,860.6c0,0,19.5,25.9,22.8,42.7c0,0,8.4-0.1,23.6-6.6c13.1-5.1,19.8-17.8,19.8-17.8s-15.2-27.2-17.2-38
			c-1.8-9.8-19,9.5-19.8,9.9C214.7,851.2,186.5,860.6,186.5,860.6z"/>
		<path class="st7" d="M186.5,860.6c0,0,19.5,25.9,22.8,42.7c0,0,8.4-0.1,23.6-6.6c0,0-6.2-31.2-19.9-44.6
			C199.3,838.7,186.5,860.6,186.5,860.6z"/>
		<path class="st0" d="M189.5,853.9c0,0,14-0.3,22.4-3.1s26-14.8,26-14.8l6.3,14.2c0,0-8.2,10.5-21.4,15.9c-18.2,7.5-35.4,5-35.4,5
			L189.5,853.9z"/>
		<path class="st6" d="M358,793c0,0,9.6,18.9,10.8,34.9c0,0,13.1-0.2,27.8-6.4c12.6-4.8,16.9-17.9,16.9-17.9s-9.8-14.3-14.1-26.5
			c-3-8.2-15.3,7.5-16.3,7.7C382.1,785,358,793,358,793z"/>
		<path class="st7" d="M358,793c0,0,9.6,18.9,10.8,34.9c0,0,13.1-0.2,27.8-6.4c-2.7-20.8-12.5-36.9-13.6-36.7
			C382.1,785,358,793,358,793z"/>
		<path class="st0" d="M352.3,783.6c0,0,13.9-2.3,21.7-6.3c7.9-4,23.6-18.3,23.6-18.3l8.2,13.1c0,0-6.6,11.5-18.9,18.8
			c-16.9,10-34.4,9.9-34.4,9.9L352.3,783.6z"/>
		<path class="st8" d="M115.3,776l9.9,74.2c0,0,19.3,14.8,31.9,13c12.6-1.8,23.4-13.1,23.4-13.1l9.6,16.4l34.1-6
			c0,0,13-8.1,16.9-13.4c-4.2-8.8-3.6-11.6-3.6-11.6s20.6-5.5,38.4-15.3c23.4-12.9,61.9-63.6,61.9-63.6l17.4,32.9
			c0,0,8.1,9.4,23.4,0.3c23.7-14.2,23.7-24.7,23.7-24.7c-15.1-18.2-17.6-64.9-41.6-87.7c0,0,7.9,18.2-60.9,55.9
			c-68.8,37.7-113.9,43.3-113.9,43.3L115.3,776z"/>
		<path class="st8" d="M338.8,755.8l5.3,40.1c0,0-10.3,13.2-20.8,16.3c-11.6,3.4-23.6-3.3-23.7-4.4c-1-9.7-4.4-51-4.4-51
			L338.8,755.8z"/>
		<path class="st2" d="M189,778.7c6.8,9.4,13.5,36.2,17.1,45.1c10.5,25.9,18.4,36.6,18.4,36.6s-23.9,8.4-37.5,6.4
			c-6.4-20.1-14.1-25.8-22.5-33.1c-5.5,15.4-3.6,28.9-3.6,28.9c-14.1,7.6-33.8,5-38.6,0c0.6-13.2-3-27.9-6.5-46.8
			c-1.1-17.6-5-35.3-4.1-44.2L189,778.7z"/>
		<path class="st0" d="M377.6,689.1c0,0-9.5,16.3-22.2,30.6c-21.8,24.6-83.5,56.8-162,81.3c-65.2,20.3-89.2-6.5-89.2-6.5l7.2-16.1
			c0,0,19.8,39.8,90,11.2S343.9,724,353,708c9-16.1,15.3-25.7,15.3-25.7L377.6,689.1z"/>
		<path class="st5" d="M111.5,764c0,0,47.7,22.1,73.7,12.1s116.8-43.9,154.5-75.4c17.6-14.7,20.8-27,20.8-27s7.8,5.1,12.4,10.1
			c0,0-9.4,31.3-50.2,55.6c-46.9,27.8-108.9,48-132.1,56.8c-32.4,12.2-75.5-15.5-75.5-15.5L111.5,764z"/>
		<path class="st9" d="M183.3,773c5.2,15.7,6.8,23.1,6.8,23.1s-23.5,8.6-51.1,6.1c-22.8-2.1-28-8.3-28-8.3
			c4.5-17.6-0.6-26.8-0.6-26.8c-1.6,2.1,11.4,11.9,32.2,12.1C159.1,779.4,172.8,778,183.3,773z"/>
		<path class="st0" d="M366.7,667.3c0,0-4.3,15.3-15.1,29.8c-14.4,19.2-76.1,60.9-164.4,85.5c-78.1,21.8-85.9-17.8-85.9-17.8
			l2.2-4.7c0,0,19.8,39.8,90,11.2S336,705.7,345,689.6c9-16.1,15.3-25.7,15.3-25.7L366.7,667.3z"/>
		<path class="st2" d="M299.2,811.8l-3.3-12.4l28.7-23c0,0,4.7,17.5,3.8,33.5C316.8,816.4,299.2,811.8,299.2,811.8z"/>
		<path class="st2" d="M353.2,793.7c-5.2-18.4-14.8-32.7-14.8-32.7l3.4-1.7c10-4.8,21.9-0.8,27,9l9.7,21.4
			C364.3,798.6,353.2,793.7,353.2,793.7z"/>
		<path class="st2" d="M234.9,832.1l1.5,3.6c0,0,14-0.4,39.4-15.6c25.4-15.2,72.8-56.2,69.2-61.4c-3.7-5.2-31.8,30.5-72.1,43.7
			c-8.7,2.9-25.7,9.8-32.9,11.8C233.3,816.1,232.3,825.7,234.9,832.1z"/>
		<path class="st6" d="M97.5,704.1L130,776l57,0.7c0,0,76.5-23.6,122.6-53.1c42.4-27.1,53.1-52.3,51-56.4
			c-13.9-10-40.5-26.3-74.5-18.5c-39.2,8.9-80.7,46.1-80.7,46.1l-30.2-45.2L97.5,704.1z"/>
		<path class="st7" d="M149.1,671.8c0,0-5.9,13.4,9.6,46.7c0.8,1.8,6.8,14.4,7.7,16c3.5,6.4,8.8,18.3,13.7,25l-59.5,15.8
			c-17.9-18.3-25.8-76.8-25.8-76.8L149.1,671.8z"/>
		<path class="st1" d="M84.6,528.8c9.7,5.6,31.8,39.9,62.3,65.3c24,20-37.5,8.2-37.5,8.2l-42.2-75.8
			C67.1,526.5,74.9,523.1,84.6,528.8z"/>
		<path class="st1" d="M96.5,578.4l-16.4,21.2l-51.4-56.5c0,0,2.2-6.2,12.4-3.7S96.5,578.4,96.5,578.4z"/>
		<path class="st4" d="M66.3,616.3c0,0-45.8-69.6-37.6-73.1s51.4,56.5,51.4,56.5s-21.4-70.9-13-73.2c8.5-2.3,45.7,64.4,45.7,64.4
			s20.3-3.5,29.3,2.6c20.6,14,33.1,56.1,33.1,56.1l-29.2,22l-50.2-44.5L66.3,616.3z"/>
		<path class="st0" d="M44.8,582.6c0,0,8.6-3.9,14.3-9.7c5.7-5.8,5.6-20,5.6-20l4.2,4.2l1.3,5.5c0,0-0.4,8.8-5.3,15.6
			c-4.9,6.8-16.6,10.9-16.6,10.9L44.8,582.6z"/>
		<path class="st1" d="M66.3,616.3l13.8-16.6c0,0,4.9,1.4,14-1s18.7-7.7,18.7-7.7s17.5-4.1,29.3-0.4c27.4,8.6,30.6,54.3,47,72
			c0,0-13.5,32-39.7,42.3c-18.2,7.1-49.2,9.1-57.4,6.6l-6.7-58.1L66.3,616.3z"/>
		<path class="st5" d="M11.8,687.6c0,0,38.9-37.3,54.6-71.3c9.5-20.6,43.1-8.9,52,0.4c9,9.3,26.3,31.4,30.2,45.2
			c3.8,13.6-4.8,29.5-33.1,37c-32.8,8.7-50.7,14.8-72.6,14.5C23.2,713.1,11.8,687.6,11.8,687.6z"/>
		<path class="st4" d="M79,665.1c12.8,15.1,17.4,39.7,17.4,39.7L62.2,713c0,0,7-9.6,1.2-26.3c-5.7-16.7-27.2-29.1-27.2-29.1
			s12-13.2,20.7-25C65.3,621,70,605.1,79,607.5C102.2,613.7,58.6,641,79,665.1z"/>
		<path class="st9" d="M49.2,705.3c0,0,34.4-11.7,57-19.2c39.5-13.2,30.3-43.4,30.3-43.4s10.5,8.3,12.1,19.3
			c1.6,11.1,3.8,23.1-18.4,32.1c-22.2,9-67,21.2-87.4,19.4C24.4,711.8,49.2,705.3,49.2,705.3z"/>
		
			<ellipse transform="matrix(0.9664 -0.2569 0.2569 0.9664 -162.4182 47.7924)" class="st9" cx="101.7" cy="645.5" rx="14.6" ry="18.4"/>
		
			<ellipse transform="matrix(0.9664 -0.2569 0.2569 0.9664 -162.7091 47.1956)" class="st0" cx="99.3" cy="646.3" rx="14.1" ry="18.2"/>
		
			<ellipse transform="matrix(0.9664 -0.2569 0.2569 0.9664 -163.4139 46.1186)" class="st3" cx="94.8" cy="648.5" rx="9.3" ry="11"/>
		<path class="st0" d="M153.6,717.5c-28.4,11.4-57.4,0.7-57.4,0.7l3.8,11.3c0,0,29,11.6,58.5-1.6c22.7-10.2,38.9-44.8,38.9-44.8
			l-4.7-12C192.6,671,172.4,709.9,153.6,717.5z"/>
		<path class="st0" d="M72.6,573.1c0,0,16-1.3,24.7-6.6s11.5-12.1,11.5-12.1l-6.2-7c0,0-0.9,8.6-8.7,12.7s-23,5.7-23,5.7L72.6,573.1
			z"/>
		<path class="st0" d="M19.3,677.4l16.9-19.8c0,0,22.7,7,27.2,29.1c3.7,18.1-1.2,26.3-1.2,26.3l-30.6,2.1L19.3,677.4z"/>
		<path class="st3" d="M10.1,689.1c-4.9,14.4,6.5,23.5,21.5,26c19.9,3.4,16.6-14.1,13-24.2C34.1,661.2,14.5,676.2,10.1,689.1z"/>
		<path class="st10" d="M45.3,647.3c0,0,18,6.1,27.3,27.7c6.3,14.5,3.1,35.5,3.1,35.5L62.2,713c0,0,2-29.1-4.2-38.2
			c-8.9-13.2-21.8-17.2-21.8-17.2L45.3,647.3z"/>
		<path class="st11" d="M45.3,647.3c0,0,18,6.1,27.3,27.7c6.3,14.5,3.1,35.5,3.1,35.5s1.1-22.9-4.3-34.7
			C62.7,656.6,45.3,647.3,45.3,647.3z"/>
		<path class="st1" d="M204.1,695.5c0,0,33.8,28.2,67.3,2.4c18.1-13.9,3.4-46.1,3.4-46.1s-20.5,5.1-36.1,15.7
			C223.2,678.1,204.1,695.5,204.1,695.5z"/>
		<path class="st10" d="M75.7,702.8c0,0,48.9,76.9,86.3,49.2c28.2-20.9,33.7-51.6,35.9-58.7c2.2-7.1,9.2-10.3,9.9,2.5
			c0.7,12.8-3.5,67.8-20.3,82.7c-59.4,52.6-118.1-65-118.1-65L75.7,702.8z"/>
		<path class="st11" d="M75.7,702.8c0,0,48.9,76.9,86.3,49.2c28.2-20.9,33.7-51.6,35.9-58.7c2.2-7.1-0.3,40.5-21.9,59.6
			C120.5,802,74.8,707.2,74.8,707.2L75.7,702.8z"/>
		<path class="st2" d="M225.8,699.6c0,0,22.9,1.9,33.9-7.3c13.7-11.5,10.5-33.5,10.5-33.5s10,27.4-8,38
			C244.3,707.3,225.8,699.6,225.8,699.6z"/>
		<path class="st10" d="M147.3,656.2c3.8-0.2-22.2-49.6-49.7-52.3c-29.2-2.8-31.2,12.4-31.2,12.4s17.7-10.1,32.8-2.6
			C124.3,626.3,143.5,656.4,147.3,656.2z"/>
		<circle class="st10" cx="69.5" cy="705" r="10.5"/>
		<path class="st11" d="M79.6,702.3c1.3,4.8-1,9.8-5.3,12c2.7-2.9,3.9-7,2.8-11.1c-1.2-4.6-5-7.8-9.5-8.6
			C73,693.8,78.2,697,79.6,702.3z"/>
		<path class="st8" d="M120.2,603.1c0,0,23.2,17.6,31.3,34.3c8.1,16.7,12.8,40.3,12.8,40.3s0.8-23.3-8.6-41.5
			C142.6,611.2,120.2,603.1,120.2,603.1z"/>
		<polygon class="st2" points="258.9,814.3 278.6,785.5 261.3,766.7 270.6,732.4 257.5,708.3 283.8,731.4 276.9,759.2 300.6,782.2 
			281.6,811.6 		"/>
		<polygon class="st3" points="263.4,820.8 285.7,785.5 267.2,764.6 274.9,740.2 272.2,761.6 293.6,783.3 276.4,813.6 		"/>
		<polygon class="st2" points="322.6,648.5 323.6,668.9 309.1,681.7 312.1,699.3 294.7,711.8 320.3,707.2 324.2,686.1 338.5,672.8 
			334.8,652.5 		"/>
		<polygon class="st3" points="326.5,654.8 328.1,669.1 315.3,682.9 316.4,696.8 320,683.8 334.6,670.7 331.8,654.7 		"/>
		<path class="st0" d="M81.9,709.1c0,0,10.4-6.6,15.4-17.2c3.8-8.1,2-19.6,2-19.6s13.9,9.8,12.2,21.2c-0.9,5.8-11.7,10.9-11.7,10.9
			L81.9,709.1z"/>
	</g>
</g>
<g id="pinata-3">
	<g>
		<path class="st3" d="M294.2,919.2c0,0,5,3.1,21.4,3.3c10.6,0.1,15-9.5,15-9.5s0.1,21.3-1.9,28c-1.3,4.3-3.8,6.4-13.9,8.7
			c-10.1,2.3-19.2-1.1-19.8-6.5C293.7,932.8,294.2,919.2,294.2,919.2z"/>
		<path class="st3" d="M219.9,895.6c0,0,2.9,8.4,19.1,10.6c12.3,1.7,14.8-2.4,14.8-2.4s-7,20.4-9.5,25.4c-1.9,3.9-4.1,5.5-14.4,4.2
			s-14.7-3.5-14.4-8.9C216,914.1,219.9,895.6,219.9,895.6z"/>
		<path class="st3" d="M27.6,882c0,0,2.5,9.1,19.7,12.6c13,2.6,16-1.5,16-1.5s-11.6,21-13.7,25.1c-2.2,4.1-10.3,5.9-19.4,3
			c-10.6-3.4-12.2-12.7-10.5-18.2C22.8,892.2,27.6,882,27.6,882z"/>
		<path class="st4" d="M29,885.6c0,0,5.2,9.6,14.3,11.9s21.1,0.1,21.1,0.1c2.1-20.8,54.9-109.7,54.9-109.7l-46.1-27.2L29,885.6z"/>
		<path class="st5" d="M80.3,810l-34.9,87.4c-10.6-0.1-23.3-12.2-23.3-12.2c16.3-16,28.3-61.5,28.3-61.5L80.3,810z"/>
		<path class="st4" d="M220.2,900.5c0,0,5.9,8.7,14.9,9.9c9,1.3,20.3-2,20.3-2c-0.1-20.1,35.6-111.7,35.6-111.7l-41-20.2
			L220.2,900.5z"/>
		<path class="st5" d="M261.6,823l-21.6,76.9l-3.2,10.7c-10.1,1-23.2-9.7-23.2-9.7c13.9-16.9,20.8-61.7,20.8-61.7L261.6,823z"/>
		<path class="st4" d="M29,885.6c0,0,5.2,9.6,14.3,11.9s21.1,0.1,21.1,0.1c2.1-20.8,54.9-109.7,54.9-109.7l-46.1-27.2L29,885.6z"/>
		<path class="st5" d="M80.3,810l-34.9,87.4c-10.6-0.1-23.3-12.2-23.3-12.2c16.3-16,28.3-61.5,28.3-61.5L80.3,810z"/>
		<path class="st0" d="M45.7,835.5c0,0,10.8,7.7,18.7,10.2c7.9,2.6,27.9,3.5,27.9,3.5l-5.5,12.7c0,0-13,1.9-25.9-1.4
			c-17.9-4.5-26.3-13.2-26.3-13.2L45.7,835.5z"/>
		<path class="st0" d="M230.4,848.7c0,0,10.8,7.7,18.7,10.2c7.9,2.6,27.9,3.5,27.9,3.5l-5.5,12.7c0,0-14.2,3.8-27.2,0.5
			c-17.9-4.5-25.1-15.2-25.1-15.2L230.4,848.7z"/>
		<path class="st0" d="M116.5,863.4c0,0,12.6,3.8,20.9,3.7s27.5-5.6,27.5-5.6l-2.9,15c0,0-6.5,6.1-19.9,7.2
			c-18.4,1.4-32.6-5.5-32.6-5.5L116.5,863.4z"/>
		<polygon class="st3" points="112.4,874.7 123.1,876.1 134.2,884.9 146.9,880.1 155.6,880.7 162.1,871.4 130,867.2 		"/>
		<path class="st4" d="M296.5,920.7c0,0,8.3,7.1,17.6,5.9c9.3-1.1,19.8-7.5,19.8-7.5C328.3,899,345.5,797,345.5,797l-52.8-8.8
			L296.5,920.7z"/>
		<path class="st5" d="M317,831.7l-0.8,83l-0.1,11.1c-9.9,3.8-26.1-2.9-26.1-2.9c9.4-20.7,4.1-67.5,4.1-67.5L317,831.7z"/>
		<path class="st0" d="M293,866.4c0,0,12.6,3.8,20.9,3.7c8.3-0.1,27.5-5.6,27.5-5.6l-2,16.6c0,0-6.3,5.8-19.7,6.9
			c-18.4,1.4-33.7-6.9-33.7-6.9L293,866.4z"/>
		<path class="st6" d="M55.5,798.2c0,0-8.5,33.8-16.7,44.6c0,0,9.6,8.4,26.2,12.7c14,4.1,21-0.6,21-0.6s15.3-35,22.4-42
			s-21.7-4.3-22.6-4.5S55.5,798.2,55.5,798.2z"/>
		<path class="st7" d="M55.5,798.2c0,0-8.5,33.8-16.7,44.6c0,0,9.6,8.4,26.2,12.7c18.7-20.8,21.7-46.8,20.7-47
			S55.5,798.2,55.5,798.2z"/>
		<path class="st0" d="M60,794.6c0,0,11.4,8.2,19.8,10.9c8.4,2.7,29.7,3.7,29.7,3.7l-5.9,13.5c0,0-13.8,2-27.6-1.5
			c-19.1-4.8-28-14.1-28-14.1L60,794.6z"/>
		<path class="st6" d="M235.3,830.2c0,0-4.5,19.3-10.5,30.2c0,0,9.8,9.1,25.4,10.8c13.2,1.9,18.9-3.3,18.9-3.3s7.5-25.1,10-32.7
			c2.9-8.7-18.7,0.8-19.6,0.7S235.3,830.2,235.3,830.2z"/>
		<path class="st7" d="M235.3,830.2c0,0-4.5,19.3-10.5,30.2c0,0,9.8,9.1,25.4,10.8c9.2-16.6,10.3-35.2,9.4-35.2
			S235.3,830.2,235.3,830.2z"/>
		<path class="st0" d="M235.3,821c0,0,11.4,8.2,19.8,10.9c8.4,2.7,29.7,3.7,29.7,3.7l-3.7,9.3c0,0-14.5,6.5-28.3,3
			c-19.1-4.8-23.7-10.2-23.7-10.2L235.3,821z"/>
		<path class="st6" d="M110.6,825.9c0,0,6.2,31.8,1.8,48.4c0,0,7.4-6.8,14.9-5.5c3.5,0.6,9.1,9.9,9.1,9.9l11.4-7l6.5,2.4l7.7-2.7
			c0,0-1.7-31.1,1.2-41.7c2.6-9.6-21.2,0.2-22.2,0.2C140.2,829.9,110.6,825.9,110.6,825.9z"/>
		<path class="st7" d="M110.6,825.9c0,0,6.2,31.8,1.8,48.4l12.1-5l12,9.4c0,0,8.1-30.7,1.7-48.8
			C131.7,811.9,110.6,825.9,110.6,825.9z"/>
		<path class="st0" d="M116.3,821.3c0,0,12.8,5.9,21.5,7s29.8-1.9,29.8-1.9l-0.6,15.5c0,0-12,5.8-26.2,4.9
			c-19.6-1.2-34-11.1-34-11.1L116.3,821.3z"/>
		<path class="st6" d="M294.4,840.5c0,0,0.3,21.2-5.6,36.1c0,0,11.9,5.6,27.8,6.4c13.4,1.2,23-8.7,23-8.7s-2.5-17.2-1.1-30
			c0.9-8.6-17,0-18.1-0.2C319.6,843.9,294.4,840.5,294.4,840.5z"/>
		<path class="st7" d="M294.4,840.5c0,0,0.3,21.2-5.6,36.1c0,0,11.9,5.6,27.8,6.4c6.7-19.9,4.9-38.7,3.9-38.9
			C319.6,843.9,294.4,840.5,294.4,840.5z"/>
		<path class="st0" d="M293.5,829.5c0,0,13.5,4,22.3,3.9c8.8-0.1,29.3-6.1,29.3-6.1l1.6,15.4c0,0-11,7.4-25.2,8.6
			c-19.6,1.6-35.2-6.1-35.2-6.1L293.5,829.5z"/>
		<path class="st8" d="M83.8,718.6l-23.7,71c0,0,10.8,21.8,22.9,25.7c12.1,3.9,26.8-1.5,26.8-1.5l1.4,18.9l33.3,9.6
			c0,0,15.2-1.5,21.1-4.7c0.1-9.7,1.9-12,1.9-12s20.9,4.1,41.2,3.1c26.6-1.3,83.5-29.9,83.5-29.9l1.2,37.2c0,0,3.2,12.1,20.9,10.5
			c27.5-2.4,32.2-11.8,32.2-11.8c-5.6-22.9,12.7-66.1,1.2-97.1c0,0-0.9,19.8-79.2,23.5C190,764.8,147,750.1,147,750.1L83.8,718.6z"
			/>
		<path class="st8" d="M293.5,798.6l-12.8,38.3c0,0-15,7.3-25.8,5.5c-12-2-19.7-13.3-19.3-14.4c3.3-9.2,18.5-47.8,18.5-47.8
			L293.5,798.6z"/>
		<path class="st2" d="M148.9,753.5c2,11.4-3.8,38.5-4.4,48c-2,27.8,0.5,40.9,0.5,40.9s-25.1-2.9-36.5-10.7
			c3.1-20.9-1.4-29.3-5.7-39.6c-11.7,11.5-15.9,24.4-15.9,24.4c-16,0.6-32.6-10.4-34.6-16.9c6.3-11.6,9.6-26.3,14.7-44.9
			c6.8-16.3,11-33.9,15.7-41.5L148.9,753.5z"/>
		<path class="st0" d="M357.6,755.8c0,0-15.6,10.5-33.4,17.8c-30.4,12.5-100,14.4-181.2,1.9c-67.5-10.4-77.3-45-77.3-45l13.5-11.3
			c0,0,0.3,44.4,75.9,49.6c75.6,5.2,156.9,3.5,172.1-6.9c15.2-10.5,25.1-16.4,25.1-16.4L357.6,755.8z"/>
		<path class="st5" d="M85.7,706.3c0,0,33.2,40.8,61,43.2s124.2,11.8,171.9,0.1c22.2-5.4,30.5-15.2,30.5-15.2s4.8,8,6.7,14.5
			c0,0-22.2,24-69.5,27.9c-54.3,4.4-118.9-4.6-143.7-7c-34.4-3.3-61.1-47.1-61.1-47.1L85.7,706.3z"/>
		<path class="st9" d="M146.2,745.9c-2.2,16.4-4,23.7-4,23.7s-24.9-2.6-48.6-17c-19.6-11.9-21.5-19.7-21.5-19.7
			c11.8-13.8,11.2-24.3,11.2-24.3c-2.4,1.2,5.1,15.7,23.6,25C121.7,741,134.6,745.7,146.2,745.9z"/>
		<path class="st0" d="M357.4,731.4c0,0-10.6,11.9-26.7,20.1c-21.3,10.9-95.1,21.3-185.3,4.7c-79.8-14.7-69.4-53.7-69.4-53.7l4-3.2
			c0,0,0.3,44.4,75.9,49.6c75.6,5.2,156.9,3.5,172.1-6.9s25.1-16.4,25.1-16.4L357.4,731.4z"/>
		<path class="st2" d="M233.3,831.6l2.5-12.6l35.9-8.1c0,0-3.5,17.8-11.3,31.7C247.1,843.4,233.3,831.6,233.3,831.6z"/>
		<path class="st2" d="M289.8,839.1c3.4-18.8,1-35.9,1-35.9l3.8,0c11,0.1,20,8.9,20.3,20l-0.6,23.5
			C297.6,848.3,289.8,839.1,289.8,839.1z"/>
		<path class="st2" d="M166.7,821.6l-0.2,3.9c0,0,12.7,5.8,42.2,3.3s90.1-18.5,89.1-24.8s-42,13.4-83.9,7.7
			c-9.1-1.2-27.4-2.5-34.8-3.8C172.2,806.5,167.1,814.7,166.7,821.6z"/>
		<path class="st6" d="M99.3,646.3L97,725.1l50.9,25.7c0,0,79.1,12.4,133.4,6.1c50-5.8,70.7-23.7,70.6-28.3
			c-8.1-15-24.9-41.4-58.8-49.3c-39.1-9.2-92.7,6.1-92.7,6.1l-7.3-53.9L99.3,646.3z"/>
		<path class="st7" d="M159.9,639.9c0,0-11.2,9.4-11.9,46.1c0,1.9-0.2,15.9-0.1,17.8c0.4,7.3-0.1,20.3,1.4,28.5l-60.4-11.9
			c-8.1-24.3,10.5-80.4,10.5-80.4L159.9,639.9z"/>
		<path class="st1" d="M153.6,532.9l-24.1,11.9l-21.4-73.3c0,0,4.7-4.6,12.8,2.1C129.1,480.3,153.6,532.9,153.6,532.9z"/>
		<polygon class="st3" points="139.3,531.7 145.5,530.4 154.9,528.2 161.4,532 172.2,532.2 180.8,535.5 166.3,541.7 144.1,546.8 
			131.7,539.3 		"/>
		<path class="st1" d="M180.3,535.5c0,0,3.6,15.5,11.7,33.6c12.8,28.4-37.3-9.1-37.3-9.1l8.6-21.8l8.4-0.5L180.3,535.5z"/>
		<path class="st4" d="M109.9,553.7c0,0-10.6-82.6-1.7-82.2c8.9,0.5,21.4,73.3,21.4,73.3l1.6-5.5l12.4-3.2l1.6,5.4l7.3-4.6l5.1-4
			l5.9,4.9l-0.7,13.7c0,0,19.8,5.8,25.1,15.2c12.4,21.6,5.1,64.9,5.1,64.9l-35.9,7l-25.6-62L109.9,553.7z"/>
		<path class="st0" d="M105.4,514c0,0,9.4,0.3,17.1-2.5s13.8-15.5,13.8-15.5l1.9,5.6l2.9,0.7c0,0-8.4,12.5-15.8,16.5
			c-7.3,4-19.7,2.5-19.7,2.5L105.4,514z"/>
		<path class="st1" d="M109.9,553.7l19.7-8.9c0,0,3.8,3.4,13,5.3c9.2,1.8,20.2,1.3,20.2,1.3s17.6,4,26.5,12.5
			c20.8,19.8,3.6,62.2,10.7,85.3c0,0-26.2,22.8-54.2,20.6c-19.5-1.6-48.2-13.4-54.4-19.3l19.4-55.2L109.9,553.7z"/>
		<path class="st5" d="M29.6,593.8c0,0,51.3-16.4,80.3-40.1c17.6-14.4,42.6,11,46.6,23.2s9.8,39.8,7.3,53.9
			c-2.5,13.9-17.2,24.4-46,18.7c-33.3-6.6-52-8.9-71.6-18.9C28.6,621.8,29.6,593.8,29.6,593.8z"/>
		<path class="st4" d="M99.9,603.1c4.9,19.2-1.8,43.3-1.8,43.3l-34.3-7.6c0,0,10.5-5.6,12.6-23.1c2.2-17.5-11.7-38.1-11.7-38.1
			s16.6-6.5,29.6-13.4c12.7-6.7,23.8-19,30.9-12.8C143.3,567.1,92.1,572.5,99.9,603.1z"/>
		<path class="st9" d="M55.5,626.2c0,0,36.1,4.6,59.7,7.7c41.3,5.4,46.2-25.7,46.2-25.7s5.8,12.1,2.4,22.6
			c-3.4,10.7-6.7,22.4-30.6,20.7c-23.9-1.7-69.6-10.3-87-20.9C30.3,621.1,55.5,626.2,55.5,626.2z"/>
		
			<ellipse transform="matrix(0.1934 -0.9811 0.9811 0.1934 -480.2741 606.7481)" class="st9" cx="128.9" cy="595.5" rx="18.4" ry="14.6"/>
		
			<ellipse transform="matrix(0.1934 -0.9811 0.9811 0.1934 -481.9956 603.986)" class="st0" cx="126.3" cy="595.1" rx="18.2" ry="14.1"/>
		<ellipse transform="matrix(0.1934 -0.9811 0.9811 0.1934 -488.1451 600.2004)" class="st3" cx="121" cy="597" rx="11" ry="9.3"/>
		<path class="st0" d="M143.9,682.9c-30.6-2.2-51.9-24.6-51.9-24.6l-1.6,11.8c0,0,21,23.1,53.3,24.2c24.9,0.8,54.6-23.2,54.6-23.2
			l1-12.8C199.4,658.3,164.1,684.4,143.9,682.9z"/>
		<path class="st0" d="M40.8,588l23.9-10.4c0,0,17.3,16.2,11.7,38.1c-4.6,17.9-12.6,23.1-12.6,23.1l-28.4-11.6L40.8,588z"/>
		<path class="st3" d="M27.5,594.4c-10.8,10.8-4.5,24,7.8,32.8c16.5,11.8,21.1-5.3,22.3-16.1C61.3,579.9,37,584.8,27.5,594.4z"/>
		<path class="st10" d="M77.4,572.3c0,0,13.5,13.4,12.4,36.9C89,625,77,642.5,77,642.5l-13.3-3.7c0,0,14.6-25.2,13-36.2
			c-2.2-15.8-12.1-25-12.1-25L77.4,572.3z"/>
		<path class="st11" d="M77.4,572.3c0,0,13.5,13.4,12.4,36.9C89,625,77,642.5,77,642.5s11-20.1,11.4-33
			C89,588.4,77.4,572.3,77.4,572.3z"/>
		<path class="st1" d="M198.9,685.4c0,0,18,40.2,59.5,31.7c22.3-4.5,23.3-39.9,23.3-39.9s-20.6-4.4-39.3-1.7
			S198.9,685.4,198.9,685.4z"/>
		<path class="st10" d="M80.3,635.6c0,0,10.2,90.6,55.9,82.1c34.5-6.4,52.9-31.6,58-37s12.8-5.2,7.8,6.6
			c-5,11.8-32.9,59.4-54.6,65.4c-76.4,21.2-77.6-110.2-77.6-110.2L80.3,635.6z"/>
		<path class="st11" d="M80.3,635.6c0,0,10.2,90.6,55.9,82.1c34.5-6.4,52.9-31.6,58-37s-18.1,36.3-45.8,43.9
			c-71.4,19.7-70.9-85.6-70.9-85.6L80.3,635.6z"/>
		<path class="st2" d="M216.7,698.6c0,0,19.8,11.8,33.7,8.3c17.3-4.3,24.2-25.5,24.2-25.5s-3,29-23.8,30.6S216.7,698.6,216.7,698.6z
			"/>
		<path class="st10" d="M165.1,625.1c3.5,1.4,1.9-54.3-21.7-68.8c-25-15.3-33.5-2.6-33.5-2.6s20.4-1.3,30.6,12.1
			C157.6,588.1,161.6,623.6,165.1,625.1z"/>
		<circle class="st10" cx="73.8" cy="634.8" r="10.5"/>
		<path class="st11" d="M84.1,636.8c-1,4.9-5.2,8.3-10,8.5c3.7-1.4,6.6-4.6,7.4-8.7c0.9-4.7-1.1-9.3-4.7-11.8
			C81.9,626.3,85.1,631.5,84.1,636.8z"/>
		<path class="st8" d="M164.1,565.5c0,0,13.1,26,13,44.5c-0.1,18.5-6.2,41.8-6.2,41.8s11-20.6,10.5-41
			C180.7,582.6,164.1,565.5,164.1,565.5z"/>
		<polygon class="st3" points="164.1,536 172.2,533.3 176.5,545.8 172.2,554.6 175.8,569.7 166.2,555.3 170.3,544.9 		"/>
		<polygon class="st2" points="183.3,813.6 214.4,794.2 210.2,765.3 240.1,747.3 241.3,720.3 259.5,753.5 244.3,776.1 252.7,805 
			235.7,823.9 		"/>
		<polygon class="st3" points="188.9,823 223.7,796.8 222.6,769.4 242.5,757 245.5,740.9 252.7,754.7 236.2,775.4 240.9,803.5 
			223.5,819.1 		"/>
		<polygon class="st2" points="326,695.2 317.9,713.9 299.3,719 294.3,736.2 273.2,739.8 298.2,746.9 311,729.6 329.7,723.9 
			335.3,704.1 		"/>
		<polygon class="st3" points="326.8,702.5 321.9,716.1 304.3,722.8 299.3,735.8 308.2,725.7 327.1,720.4 331.6,704.8 		"/>
		<path class="st0" d="M84.2,644.5c0,0,15.2-4.9,22.1-11.3c7.6-7,10-15.9,10-15.9s8.6,9.3,4.3,19.9c-4.9,12.1-22.7,9.7-22.7,9.7
			L84.2,644.5z"/>
	</g>
</g>
</svg>
