<?xml version="1.0" encoding="utf-8"?>
<!-- Generator: Adobe Illustrator 23.0.6, SVG Export Plug-In . SVG Version: 6.00 Build 0)  -->
<svg version="1.1" xmlns="http://www.w3.org/2000/svg" xmlns:xlink="http://www.w3.org/1999/xlink" x="0px" y="0px"
	 viewBox="0 0 590.5 846.5" style="enable-background:new 0 0 590.5 846.5;" xml:space="preserve">
<style type="text/css">
	.st0{fill:#FFFFFF;}
	.st1{fill:#BA31A0;}
	.st2{fill:#EC44B1;}
	.st3{fill:#700C80;}
	.st4{fill:#FED317;}
	.st5{fill:#FEBD19;}
	.st6{fill:#3CE0AA;}
	.st7{fill:#18C396;}
	.st8{fill:#FF5FE2;}
	.st9{fill:#FE9D1D;}
	.st10{fill:#FF483E;}
	.st11{fill:#BE2E3B;}
	.st12{fill:#FED365;}
	.st13{fill:#FEA925;}
	.st14{fill:#FFA4E6;}
	.st15{fill:#F388D3;}
	.st16{fill:#8AF1C0;}
	.st17{fill:#FF8281;}
	.st18{fill:#F46163;}
</style>
<g id="outline-1">
	<path class="st0" d="M164.5,305.3c62.4,0,109,36.9,109,36.9s33.5-74.6,127.4-60.6c68.1,10.2,81.5,76.1,81.5,76.1
		s69.6-10.3,91.2,67.5c17.3,62.4-19.4,103.6-19.4,103.6s32,27.1,35.6,84.2c3.2,51.8-4,119.4-42.1,164.1
		c-77.4,90.7-164.1,71.2-209.4,58.3c-35.3-10.1-50.2-40.5-50.2-40.5s-24.3,40.7-105.2,45.9c-68,4.3-122-32.1-142.5-78.2
		c-20.5-46.1,11.3-105.2,11.3-105.2S6.4,591.3,0.5,523.3S42.6,305.3,164.5,305.3z"/>
	<path class="st0" d="M416.3,564.5c13.7-12.1,55.5-26.2,76.4-20.9c23,5.8,54.3,26.8,70.9,66.4c35.5,84.8-36.7,121.6-36.7,121.6
		s-105.7,76.8-123.4,90.6c-13.1,10.3-33.7,8.6-44.1-5.6c-4.4-5.9-9-12.6-7.8-23.6c1.1-11,23.6-32.2,23.6-32.2l40.4-35.1
		c0,0-66.9,32.3-74,34.9c-7.1,2.6-19.3-4.4-25.2-12.8c-5.8-8.4-10.4-27.4-3.2-34.1c7.1-6.7,71.6-43.3,71.6-43.3s-9.4-16.1-7.9-36.2
		C378.4,614.2,402.6,576.6,416.3,564.5z"/>
	<path class="st0" d="M308.5,560.7c7.7,17.5,10.9,57.6-12.9,70.9c-23.8,13.3-38,21.8-38,21.8s12.8,23.5,18.7,36.5
		c5.8,13-10.8,23.9-21,29.5c-10.3,5.7-20.1,12.7-29.4,5.6c-9.3-7.1-25.5-28-25.5-28s-0.8,80.4-1.2,91c-0.3,10.6-16.1,15.6-24,17.8
		c-7.6,2.2-24.7,2.9-27.1-6.4c-1.7-6.6-46.3-212.4-46.3-212.4L69,547.3c0,0-31.5,4.1-42.6,0.3c-16.3-5.5-32-23.1-22.2-49L47.2,434
		c0,0-43-60.5-38.5-76.6c6-21.6,36.9-4.9,36.9-4.9s35.6,23.1,40.4,27.1c7,5.8,27.4-14.1,41.5-0.7c26.3,24.9,57.4,49.2,62.8,80.2
		c2.4,14,17.4,24.8,17.4,24.8s10.9-10.7,24.5-14.2c13.5-3.4,27.7,5.8,37.5,16.2C285,502.1,300.8,543.2,308.5,560.7z"/>
</g>
<g id="outline-2">
</g>
<g id="outline-3">
</g>
<g id="Rope">
	<path class="st0" d="M324.7,13c3.2,55,32.4,103.6,22.7,171.6c-9.7,68-45.3,95.5-45.3,142.5s8.1,103.6,8.1,103.6l-64.8,9.7
		c0,0-17.8-71.2-3.2-132.8s43.7-103.6,45.3-144.1c1.6-40.5-30.8-113.3-29.1-158.7C258.7-3.9,323.9-0.7,324.7,13z"/>
	<g>
		<g>
			
				<ellipse transform="matrix(0.9592 -0.2827 0.2827 0.9592 -103.7516 93.5336)" class="st1" cx="272.2" cy="406.2" rx="12.2" ry="17"/>
			<path class="st2" d="M277.5,422.3c-0.2,0.1-0.4,0.1-0.5,0.2c-6.4,1.9-13.8-3.8-16.5-12.8c-2.6-9,0.4-17.8,6.9-19.7
				c1.9-0.6,3.8-0.5,5.7,0.2c-6.1,2.2-8.9,10.8-6.3,19.5C268.7,416,272.9,420.8,277.5,422.3z"/>
		</g>
		<g>
			
				<ellipse transform="matrix(0.9592 -0.2827 0.2827 0.9592 -98.509 91.6811)" class="st1" cx="268.4" cy="387.1" rx="12.2" ry="17"/>
			<path class="st2" d="M273.7,403.2c-0.2,0.1-0.4,0.1-0.5,0.2c-6.4,1.9-13.8-3.8-16.5-12.8c-2.6-9,0.4-17.8,6.9-19.7
				c1.9-0.6,3.8-0.5,5.7,0.2c-6.1,2.2-8.9,10.8-6.3,19.5C264.9,397,269.1,401.7,273.7,403.2z"/>
		</g>
		<g>
			
				<ellipse transform="matrix(0.9592 -0.2827 0.2827 0.9592 -93.2178 90.1648)" class="st1" cx="265.8" cy="368.1" rx="12.2" ry="17"/>
			<path class="st2" d="M271.1,384.1c-0.2,0.1-0.4,0.1-0.5,0.2c-6.4,1.9-13.8-3.8-16.5-12.8c-2.6-9,0.4-17.8,6.9-19.7
				c1.9-0.6,3.8-0.5,5.7,0.2c-6.1,2.2-8.9,10.8-6.3,19.5C262.3,377.9,266.5,382.6,271.1,384.1z"/>
		</g>
		<g>
			
				<ellipse transform="matrix(0.9592 -0.2827 0.2827 0.9592 -87.7413 89.9326)" class="st1" cx="267.7" cy="349" rx="12.2" ry="17"/>
			<path class="st2" d="M273.1,365.1c-0.2,0.1-0.4,0.1-0.5,0.2c-6.4,1.9-13.8-3.8-16.5-12.8c-2.6-9,0.4-17.8,6.9-19.7
				c1.9-0.6,3.8-0.5,5.7,0.2c-6.1,2.2-8.9,10.8-6.3,19.5C264.2,358.8,268.4,363.5,273.1,365.1z"/>
		</g>
		
			<ellipse transform="matrix(0.9592 -0.2827 0.2827 0.9592 -82.277 89.6162)" class="st1" cx="269.4" cy="329.9" rx="12.2" ry="17"/>
		<path class="st2" d="M274.7,346c-0.2,0.1-0.4,0.1-0.5,0.2c-6.4,1.9-13.8-3.8-16.5-12.8c-2.6-9,0.4-17.8,6.9-19.7
			c1.9-0.6,3.8-0.5,5.7,0.2c-6.1,2.2-8.9,10.8-6.3,19.5C265.8,339.7,270.1,344.4,274.7,346z"/>
		
			<ellipse transform="matrix(0.9592 -0.2827 0.2827 0.9592 -76.6819 90.2057)" class="st1" cx="274.2" cy="310.8" rx="12.2" ry="17"/>
		<path class="st2" d="M279.5,326.9c-0.2,0.1-0.4,0.1-0.5,0.2c-6.4,1.9-13.8-3.8-16.5-12.8c-2.6-9,0.4-17.8,6.9-19.7
			c1.9-0.6,3.8-0.5,5.7,0.2c-6.1,2.2-8.9,10.8-6.3,19.5C270.7,320.6,274.9,325.3,279.5,326.9z"/>
		
			<ellipse transform="matrix(0.9592 -0.2827 0.2827 0.9592 -71.099 90.7109)" class="st1" cx="278.7" cy="291.7" rx="12.2" ry="17"/>
		<path class="st2" d="M284.1,307.8c-0.2,0.1-0.4,0.1-0.5,0.2c-6.4,1.9-13.8-3.8-16.5-12.8c-2.6-9,0.4-17.8,6.9-19.7
			c1.9-0.6,3.8-0.5,5.7,0.2c-6.1,2.2-8.9,10.8-6.3,19.5C275.2,301.5,279.5,306.2,284.1,307.8z"/>
		<ellipse transform="matrix(0.9592 -0.2827 0.2827 0.9592 -65.45 91.6739)" class="st1" cx="284.9" cy="272.6" rx="12.2" ry="17"/>
		<path class="st2" d="M290.2,288.7c-0.2,0.1-0.4,0.1-0.5,0.2c-6.4,1.9-13.8-3.8-16.5-12.8c-2.6-9,0.4-17.8,6.9-19.7
			c1.9-0.6,3.8-0.5,5.7,0.2c-6.1,2.2-8.9,10.8-6.3,19.5C281.4,282.4,285.6,287.2,290.2,288.7z"/>
		<ellipse transform="matrix(0.9592 -0.2827 0.2827 0.9592 -59.7625 92.9039)" class="st1" cx="292" cy="253.5" rx="12.2" ry="17"/>
		<path class="st2" d="M297.3,269.6c-0.2,0.1-0.4,0.1-0.5,0.2c-6.4,1.9-13.8-3.8-16.5-12.8c-2.6-9,0.4-17.8,6.9-19.7
			c1.9-0.6,3.8-0.5,5.7,0.2c-6.1,2.2-8.9,10.8-6.3,19.5C288.5,263.3,292.7,268.1,297.3,269.6z"/>
		
			<ellipse transform="matrix(0.9592 -0.2827 0.2827 0.9592 -54.0475 94.3247)" class="st1" cx="299.8" cy="234.4" rx="12.2" ry="17"/>
		<path class="st2" d="M305.1,250.5c-0.2,0.1-0.4,0.1-0.5,0.2c-6.4,1.9-13.8-3.8-16.5-12.8c-2.6-9,0.4-17.8,6.9-19.7
			c1.9-0.6,3.8-0.5,5.7,0.2c-6.1,2.2-8.9,10.8-6.3,19.5C296.3,244.2,300.5,249,305.1,250.5z"/>
		
			<ellipse transform="matrix(0.9592 -0.2827 0.2827 0.9592 -48.3196 95.8344)" class="st1" cx="307.9" cy="215.3" rx="12.2" ry="17"/>
		<path class="st2" d="M313.2,231.4c-0.2,0.1-0.4,0.1-0.5,0.2c-6.4,1.9-13.8-3.8-16.5-12.8c-2.6-9,0.4-17.8,6.9-19.7
			c1.9-0.6,3.8-0.5,5.7,0.2c-6.1,2.2-8.9,10.8-6.3,19.5C304.4,225.1,308.6,229.9,313.2,231.4z"/>
		<ellipse transform="matrix(0.9592 -0.2827 0.2827 0.9592 -42.6706 96.7974)" class="st1" cx="314" cy="196.2" rx="12.2" ry="17"/>
		<path class="st2" d="M319.4,212.3c-0.2,0.1-0.4,0.1-0.5,0.2c-6.4,1.9-13.8-3.8-16.5-12.8c-2.6-9,0.4-17.8,6.9-19.7
			c1.9-0.6,3.8-0.5,5.7,0.2c-6.1,2.2-8.9,10.8-6.3,19.5C310.5,206,314.8,210.8,319.4,212.3z"/>
		
			<ellipse transform="matrix(0.9592 -0.2827 0.2827 0.9592 -37.1651 96.7661)" class="st1" cx="316.7" cy="177.2" rx="12.2" ry="17"/>
		<path class="st2" d="M322,193.2c-0.2,0.1-0.4,0.1-0.5,0.2c-6.4,1.9-13.8-3.8-16.5-12.8c-2.6-9,0.4-17.8,6.9-19.7
			c1.9-0.6,3.8-0.5,5.7,0.2c-6.1,2.2-8.9,10.8-6.3,19.5C313.2,187,317.4,191.7,322,193.2z"/>
		
			<ellipse transform="matrix(0.9592 -0.2827 0.2827 0.9592 -31.7657 95.9999)" class="st1" cx="316.7" cy="158.1" rx="12.2" ry="17"/>
		<path class="st2" d="M322.1,174.2c-0.2,0.1-0.4,0.1-0.5,0.2c-6.4,1.9-13.8-3.8-16.5-12.8c-2.6-9,0.4-17.8,6.9-19.7
			c1.9-0.6,3.8-0.5,5.7,0.2c-6.1,2.2-8.9,10.8-6.3,19.5C313.2,167.9,317.5,172.6,322.1,174.2z"/>
		<ellipse transform="matrix(0.9592 -0.2827 0.2827 0.9592 -26.4324 94.7759)" class="st1" cx="315.2" cy="139" rx="12.2" ry="17"/>
		<path class="st2" d="M320.5,155.1c-0.2,0.1-0.4,0.1-0.5,0.2c-6.4,1.9-13.8-3.8-16.5-12.8c-2.6-9,0.4-17.8,6.9-19.7
			c1.9-0.6,3.8-0.5,5.7,0.2c-6.1,2.2-8.9,10.8-6.3,19.5C311.6,148.8,315.9,153.5,320.5,155.1z"/>
		
			<ellipse transform="matrix(0.9592 -0.2827 0.2827 0.9592 -21.1779 93.0052)" class="st1" cx="311.7" cy="119.9" rx="12.2" ry="17"/>
		<path class="st2" d="M317,136c-0.2,0.1-0.4,0.1-0.5,0.2c-6.4,1.9-13.8-3.8-16.5-12.8c-2.6-9,0.4-17.8,6.9-19.7
			c1.9-0.6,3.8-0.5,5.7,0.2c-6.1,2.2-8.9,10.8-6.3,19.5C308.1,129.7,312.4,134.4,317,136z"/>
		<ellipse transform="matrix(0.9592 -0.2827 0.2827 0.9592 -16.0116 90.6233)" class="st1" cx="306" cy="100.8" rx="12.2" ry="17"/>
		<path class="st2" d="M311.3,116.9c-0.2,0.1-0.4,0.1-0.5,0.2c-6.4,1.9-13.8-3.8-16.5-12.8c-2.6-9,0.4-17.8,6.9-19.7
			c1.9-0.6,3.8-0.5,5.7,0.2c-6.1,2.2-8.9,10.8-6.3,19.5C302.5,110.6,306.7,115.3,311.3,116.9z"/>
		
			<ellipse transform="matrix(0.9592 -0.2827 0.2827 0.9592 -10.8526 88.1914)" class="st1" cx="300.1" cy="81.7" rx="12.2" ry="17"/>
		<path class="st2" d="M305.5,97.8c-0.2,0.1-0.4,0.1-0.5,0.2c-6.4,1.9-13.8-3.8-16.5-12.8c-2.6-9,0.4-17.8,6.9-19.7
			c1.9-0.6,3.8-0.5,5.7,0.2c-6.1,2.2-8.9,10.8-6.3,19.5C296.6,91.5,300.9,96.2,305.5,97.8z"/>
		<ellipse transform="matrix(0.9592 -0.2827 0.2827 0.9592 -5.6702 85.9211)" class="st1" cx="294.9" cy="62.6" rx="12.2" ry="17"/>
		<path class="st2" d="M300.2,78.7c-0.2,0.1-0.4,0.1-0.5,0.2c-6.4,1.9-13.8-3.8-16.5-12.8c-2.6-9,0.4-17.8,6.9-19.7
			c1.9-0.6,3.8-0.5,5.7,0.2c-6.1,2.2-8.9,10.8-6.3,19.5C291.3,72.4,295.6,77.2,300.2,78.7z"/>
		<ellipse transform="matrix(0.9592 -0.2827 0.2827 0.9592 -0.4275 84.0687)" class="st1" cx="291.1" cy="43.5" rx="12.2" ry="17"/>
		<path class="st2" d="M296.4,59.6c-0.2,0.1-0.4,0.1-0.5,0.2c-6.4,1.9-13.8-3.8-16.5-12.8c-2.6-9,0.4-17.8,6.9-19.7
			c1.9-0.6,3.8-0.5,5.7,0.2c-6.1,2.2-8.9,10.8-6.3,19.5C287.5,53.3,291.8,58.1,296.4,59.6z"/>
		<ellipse transform="matrix(0.9592 -0.2827 0.2827 0.9592 4.8636 82.5523)" class="st1" cx="288.5" cy="24.4" rx="12.2" ry="17"/>
		<path class="st2" d="M293.8,40.5c-0.2,0.1-0.4,0.1-0.5,0.2c-6.4,1.9-13.8-3.8-16.5-12.8c-2.6-9,0.4-17.8,6.9-19.7
			c1.9-0.6,3.8-0.5,5.7,0.2c-6.1,2.2-8.9,10.8-6.3,19.5C284.9,34.2,289.2,39,293.8,40.5z"/>
	</g>
</g>
<g id="pinata-1">
	<g>
		<path class="st3" d="M378.7,778.3c0,0,1.3,5.8,12.6,17.6c7.3,7.7,17.2,4.1,17.2,4.1s-15.2,14.9-21.4,18.1c-4,2.1-7.2,1.7-16-3.9
			c-8.7-5.7-12.6-14.5-9.2-18.7C368.5,787.4,378.7,778.3,378.7,778.3z"/>
		<path class="st3" d="M343.9,708.5c0,0-4,7.9,5.7,21.1c7.3,10,12,9,12,9s-19.5,9.1-24.9,10.8c-4.1,1.3-6.8,0.9-13.1-7.4
			s-7.7-13-3.6-16.5C327.9,718.6,343.9,708.5,343.9,708.5z"/>
		<path class="st4" d="M340.5,712.2c0,0-2.1,10.3,3.2,17.6s15.5,13.1,15.5,13.1c14.3-14.1,105-52.2,105-52.2l-14.1-43.5L340.5,712.2
			z"/>
		<path class="st5" d="M425,687.9l-70.3,38l-9.9,5.1c-7.8-6.6-9.2-23.4-9.2-23.4c21.9-1.8,58.8-28,58.8-28L425,687.9z"/>
		<path class="st0" d="M384.9,683.4c0,0,2,13.1,5.6,20.5s16.9,22.4,16.9,22.4l-13,4.9c0,0-12.6-7.5-19.3-19.1
			c-9.2-16-6.5-28.6-6.5-28.6L384.9,683.4z"/>
		<path class="st4" d="M379.2,781c0,0,0.7,10.9,8,16.8c7.3,5.9,19.2,9,19.2,9c10.6-18,95.7-76.7,95.7-76.7l-30.4-44L379.2,781z"/>
		<path class="st5" d="M457.3,733.7l-60.2,57.2l-8,7.6c-9.6-4.5-16.1-20.8-16.1-20.8c21.4-7.7,51.4-44,51.4-44L457.3,733.7z"/>
		<path class="st0" d="M415.8,740.7c0,0,6.1,11.7,11.9,17.6c5.8,5.9,23.2,15.9,23.2,15.9l-13.3,10.1c0,0-8.6-0.5-18.6-9.3
			c-13.9-12.2-18.5-29-18.5-29L415.8,740.7z"/>
		<path class="st6" d="M401.6,674c0,0-17,10.2-29,13.5c0,0,0.3,13.4,9.9,25.8c7.8,10.8,15.5,11.3,15.5,11.3s23.3-12.1,30.4-15.5
			c8.2-4-13.5-12.9-14.1-13.5C413.7,694.8,401.6,674,401.6,674z"/>
		<path class="st7" d="M401.6,674c0,0-17,10.2-29,13.5c0,0,0.3,13.4,9.9,25.8c18.3-5,32.4-17.1,31.8-17.8
			C413.7,694.8,401.6,674,401.6,674z"/>
		<path class="st0" d="M408.1,667.6c0,0,2.1,13.9,6,21.8s18,23.9,18,23.9l-9.2,3.8c0,0-14.8-5.9-21.9-18.3
			c-9.8-17.1-9.2-24.1-9.2-24.1L408.1,667.6z"/>
		<path class="st6" d="M435.3,723.6c0,0-15,15-29.8,21.1c0,0,4.2,12.4,14.7,24.4c8.5,10.5,22.3,10.5,22.3,10.5s10.6-13.7,20.8-21.6
			c6.9-5.3-11.8-12.2-12.4-13.1C450.4,744.1,435.3,723.6,435.3,723.6z"/>
		<path class="st7" d="M435.3,723.6c0,0-15,15-29.8,21.1c0,0,4.2,12.4,14.7,24.4c18.9-9,31.2-23.4,30.7-24.3
			C450.4,744.1,435.3,723.6,435.3,723.6z"/>
		<path class="st0" d="M442.5,715.3c0,0,6.5,12.5,12.7,18.7c6.2,6.2,24.7,16.8,24.7,16.8l-9.9,11.9c0,0-13-2.7-23.7-12.1
			c-14.8-13-20.1-29.6-20.1-29.6L442.5,715.3z"/>
		<path class="st8" d="M419.3,588.8c5.3,7.2,11.7,15.3,19.4,24.1c3.7,4.2,7.6,8.6,11.9,13.2c2.7,2.9,5.5,5.8,8.4,8.7
			c1.6,1.6,3.3,3.3,4.9,5c3.3,3.3,6.7,6.6,10.3,9.9c26,24.4,43.2,35.1,54.3,39.3c5.5,2.1,9.4,2.7,12.2,2.7c4-0.1,5.5-1.4,5.5-1.4
			c-0.3,0.7-0.7,1.4-1,2c-1.1,2.1-2.4,4.2-3.8,6.1c-1.2,1.8-2.6,3.5-4,5.1c-1.4,1.6-2.8,3.2-4.4,4.8c-18.9,19.4-47.6,33.1-57.4,48.6
			c0,0-0.3,0.1-1,0.2c-1.4,0.1-4.2,0.1-8.6-1.4c-0.4-0.2-0.9-0.3-1.4-0.5c-3.9-1.5-8.8-4.2-14.7-8.8c-1.1-0.8-2.2-1.7-3.3-2.6
			c-0.6-0.5-1.3-1.1-1.9-1.6c-3.4-2.9-5.5-5.8-6.8-8.5c-1.6-3.4-1.9-6.4-1.7-8.7c0.1-1.4,0.4-2.5,0.7-3.4c0.4-1.1,0.7-1.7,0.7-1.7
			l4.2-4.3l15.1-15.6l3.6-3.7l0.1-0.1l0.5-0.6l2.3-2.4c0,0-1-0.3-2.6-1c-2.9-1-7.9-2.9-14.1-5.3c-4.9-1.9-10.6-4.3-16.6-6.8
			c-6.5-2.8-13.3-5.9-19.8-9.2c-0.4-0.2-0.9-0.4-1.3-0.7c-0.1-0.1-0.3-0.1-0.4-0.2c-0.1-0.1-0.3-0.1-0.4-0.2c-0.6-0.3-1.2-0.6-1.8-1
			c-0.1-0.1-0.3-0.1-0.4-0.2c-0.4-0.2-0.8-0.4-1.2-0.7"/>
		<path class="st8" d="M464.7,693.8l-36.4,17.4c0,0-15.7-5.7-21.9-14.7c-6.9-10-4.2-23.4-3.1-23.9c8.9-4,47.2-20,47.2-20
			L464.7,693.8z"/>
		<path class="st0" d="M540.1,710.1c0,0-2.7-0.6-7.1-1.7c-7-1.9-18.1-5.2-28.9-9.9c-13.2-5.7-30.1-18.2-48.9-36.1
			c-0.7-0.6-1.4-1.3-2-2c-2.1-2-4.2-4.1-6.3-6.2c-1-1-2.1-2.1-3.1-3.1c-0.4-0.4-0.7-0.7-1.1-1.1c-2-2.1-4.1-4.2-6.2-6.5
			c-3.2-3.4-6.5-7-9.8-10.7c-2.3-2.6-4.6-5.2-6.9-7.8c-5.6-6.4-11.2-13.2-16.8-20.3l7.5-7.2c5.5,6.2,11,12.3,16.5,18.2
			c2.7,2.9,5.3,5.7,7.9,8.5c3.9,4.1,7.7,8.1,11.5,11.9c1.9,2,3.8,3.9,5.7,5.8c27.9,28.1,52,48.5,62.5,50.6c13.1,2.6,22.6,4.9,26.8,6
			c1.6,0.4,2.4,0.6,2.4,0.6l-1.6,4.9L540.1,710.1z"/>
		<path class="st5" d="M543.8,704c0,0-0.6,0-1.6,0c-1.1,0-2.7-0.2-4.8-0.4c-11.2-1.4-35.8-7.1-62.1-30.1c-8.2-7.1-16.2-15-24-23.1
			c-0.8-0.8-1.6-1.6-2.4-2.5c-1.1-1.1-2.2-2.3-3.2-3.4c-1.9-2-3.7-4-5.6-6c-3.1-3.4-6.2-6.9-9.1-10.3c-2.5-2.8-4.9-5.6-7.2-8.4
			c-5.7-6.8-11.1-13.4-16.2-19.6l23.1-6.2c8,9.6,9.7,11.3,19.4,22c3.4,3.8,6.9,7.6,10.5,11.3c2.1,2.3,4.3,4.5,6.5,6.8
			c1.4,1.5,2.9,3,4.3,4.4c14.1,14.2,28.3,27.2,41.1,36c1.7,1.2,3.3,2.2,4.9,3.2c19.4,12.2,32.1,11.4,32.1,11.4s-0.4,1.4-1.1,3.6
			C547.4,695.8,545.8,700.5,543.8,704z"/>
		<path class="st0" d="M557.5,693c0,0-3.5,0.2-9.1-0.3c-1-0.1-2.2-0.2-3.3-0.3c-1.4-0.2-2.9-0.4-4.5-0.6c-3.8-0.6-7.9-1.4-12.2-2.7
			c-1.3-0.4-2.6-0.8-3.9-1.2c-12.7-4.3-36.7-20.5-64.3-47.4c-1.7-1.7-3.5-3.4-5.3-5.2c-3.4-3.4-6.8-6.9-10.2-10.6
			c-4-4.2-9-8.3-13-12.9c-5.4-6.3-10.6-11.9-16-18.9l9-9.3c10.5,11.9,21.2,23.4,31.4,34.1c2.5,2.6,5,5.2,7.4,7.7
			c1.8,1.8,3.6,3.6,5.3,5.4c1.8,1.8,3.6,3.6,5.4,5.4c24.7,24.3,45.5,41.3,55.1,43.3c13,2.6,22.4,4.9,26.7,5.9
			c1.7,0.4,2.5,0.6,2.5,0.6L557.5,693z"/>
		<path class="st2" d="M399.2,673.6l10.8-7l30.7,20.2c0,0-15.2,9.9-30.6,14C400.3,691.7,399.2,673.6,399.2,673.6z"/>
		<path class="st2" d="M433.1,719.3c15.9-10.7,26.5-24.3,26.5-24.3l2.6,2.8c7.6,8,7.5,20.6-0.2,28.4l-17.3,15.9
			C431.9,731.4,433.1,719.3,433.1,719.3z"/>
		<path class="st2" d="M394.7,638.9c2,2.5,3.8,4.9,5.2,6.8c3.4,4.6,7.1,8.9,10.9,12.8c2.6,2.6,5.2,5.1,7.8,7.4c0,0,0.1,0.1,0.1,0.1
			c1.3,1.1,2.6,2.2,3.9,3.3c8.5,7.1,17.1,12.9,24.2,17.5c4.1,2.7,7.7,4.9,10.5,6.9c0.8,0.5,1.5,1,2.1,1.5c0.1,0.1,0.2,0.2,0.3,0.2
			c0.2,0.2,0.4,0.3,0.6,0.5c0.1,0.1,0.2,0.1,0.2,0.2c0.2,0.2,0.4,0.3,0.6,0.5c1.7,1.4,2.7,2.5,2.6,3.4c0,0.2-0.1,0.5-0.2,0.7
			c-0.6,0.9-2.8,0.6-6-0.4c-0.3-0.1-0.5-0.2-0.8-0.3c-0.4-0.1-0.8-0.3-1.2-0.4c-0.5-0.2-1-0.4-1.6-0.6c-1.3-0.6-2.8-1.2-4.3-2
			c-4.1-2-8.8-4.5-13.9-7.4c-8.6-4.9-18.1-10.8-27.1-16.9c-0.3-0.2-0.5-0.3-0.8-0.5c-0.5-0.3-0.9-0.6-1.4-1
			c-0.6-0.4-1.3-0.9-1.9-1.3c-0.2-0.2-0.5-0.3-0.7-0.5"/>
		<path class="st6" d="M555.7,687.1c-2.4,2.5-18.6,1.7-43.2-12.6c-7.9-4.6-16.7-10.6-26.3-18.4c-6.2-5.1-12.5-10.8-18.7-16.9
			c-1.6-1.5-3.1-3.1-4.7-4.7c-2.3-2.3-4.5-4.6-6.7-7c-4.1-4.3-8.1-8.7-11.9-13.1c-8.4-9.5-3.8-5.9-10.6-14.3
			c0,0,58.2-45.4,64.8-40.7c13.5,9.5,32.1,24.4,45.2,41.6c2.4,3.1,4.6,6.3,6.5,9.5c7.1,11.9,10.2,23.8,11.1,34.9
			c0.4,4.4,0.4,8.8,0.1,12.9c-0.7,10.6-3,19.9-5.1,27C556.1,685.8,555.9,686.5,555.7,687.1z"/>
		<path class="st1" d="M498.9,611.9c18.8,12.9,44.9-11,44.9-11s-11.2-17.9-26.1-29.4c-4.6-3.5-9.9-7.2-15-10.6
			C491.1,553.3,463.9,588,498.9,611.9z"/>
		<path class="st2" d="M483.1,569.1c0,0,5.3,22.4,17.5,30c15.2,9.4,35.1-0.4,35.1-0.4s-22.9,18-38.6,4.2
			C481.5,589,483.1,569.1,483.1,569.1z"/>
		<path class="st8" d="M395,617.3l9.1-3.8l2.7-13.4l17.1-6.3l14.5-22.3l38.5-16.1l24.2,4l7.7,4.1l-12.7,16.9c-1.3,1.8-1.9,4-1.5,6.1
			l4.7,25.7l-14.7,7.8l-8.7,16l-27.2,9.3l-18.3,21.2l-22.5-1.5L394,654.2l-2-3.2l5.2-5.8l-9-2.8L395,617.3z"/>
		<path class="st3" d="M397.9,619.5l9.1-3.8l3.1-13.3l16.4-5.6l15.6-22.1l36.1-13.9l23.2,5.3l-11.1,12.1c-1.7,1.9-2.4,4.4-1.9,6.9
			l4.9,23.8l-13.3,4.8l-9.7,18.2l-24.5,5.2l-18.2,22.8l-15.8-1.9l-11.6-6.9l3.7-10.3l-10.6-0.5L397.9,619.5z"/>
		<polygon class="st2" points="561.7,645.2 542.6,652.4 525.9,642.6 510.1,651 492.9,638.3 505.2,661.2 526.5,658.4 543.6,667.9 
			561.7,658.1 		"/>
		<polygon class="st3" points="557,650.8 543.8,656.8 526.7,648.9 513.9,654.3 527.3,653.7 544.3,663.5 558.6,655.9 		"/>
		<path class="st0" d="M307.4,358.2c-0.1,0-0.3,0.1-0.5,0.1c0,0,0-0.1,0-0.1H307.4z"/>
		<path class="st8" d="M307.4,358.2c-0.1,0-0.3,0.1-0.5,0.1c0,0,0-0.1,0-0.1H307.4z"/>
		<path class="st2" d="M307.4,358.2c-0.1,0-0.3,0.1-0.5,0.1c0,0,0-0.1,0-0.1H307.4z"/>
		<path class="st0" d="M306.9,358.2h0.5C307.2,358.2,307.1,358.2,306.9,358.2C306.9,358.2,306.9,358.2,306.9,358.2z"/>
		<path class="st3" d="M151.5,761c0,0,6.6,6.8,23.3,1.4c12.6-4.1,13.2-9.1,13.2-9.1s0.2,24,0.3,28.6c0.1,4.6-6.1,10.2-15.5,12.1
			c-10.9,2.2-16.8-5.1-18.1-10.8C152.3,772.2,151.5,761,151.5,761z"/>
		<path class="st4" d="M154.5,763.4c0,0,9.2,5.9,18.3,3.4c9.1-2.4,18.5-10.2,18.5-10.2c-8.3-19.1-5.6-122.5-5.6-122.5l-53.5-1.3
			L154.5,763.4z"/>
		<path class="st5" d="M162.3,672.4l12.2,93.3c-9.3,5.1-26.3,0.8-26.3,0.8c6.4-21.9-5.3-67.5-5.3-67.5L162.3,672.4z"/>
		<path class="st4" d="M154.5,763.4c0,0,9.2,5.9,18.3,3.4c9.1-2.4,18.5-10.2,18.5-10.2c-8.3-19.1-5.6-122.5-5.6-122.5l-53.5-1.3
			L154.5,763.4z"/>
		<path class="st5" d="M162.3,672.4l12.2,93.3c-9.3,5.1-26.3,0.8-26.3,0.8c6.4-21.9-5.3-67.5-5.3-67.5L162.3,672.4z"/>
		<path class="st0" d="M144.5,711.5c0,0,13.1,1.4,21.3-0.2c8.1-1.6,26-10.6,26-10.6l1.4,13.8c0,0-10.4,8-23.3,11.4
			c-17.9,4.8-29.4,1.3-29.4,1.3L144.5,711.5z"/>
		<path class="st0" d="M220,701.3c0,0,12.9-2.8,20.1-7c7.2-4.1,21.3-18.3,21.3-18.3l4.8,14.5c0,0-2.7,8.5-13.9,16
			c-15.4,10.2-31.1,11.1-31.1,11.1L220,701.3z"/>
		<polygon class="st3" points="222,713.2 232,709.2 246,711.5 254.7,701.1 262.6,697.4 263.7,686.2 233.7,698.1 		"/>
		<path class="st6" d="M135,674.2c0,0,9,33.6,7.2,47.1c0,0,12.5,2.7,29.1-1.7c14.2-3.2,18-10.7,18-10.7s-3.7-38-0.9-47.6
			s-21,6.8-21.9,7.1C165.5,668.8,135,674.2,135,674.2z"/>
		<path class="st7" d="M135,674.2c0,0,9,33.6,7.2,47.1c0,0,12.5,2.7,29.1-1.7c6.2-27.3-3.9-51.4-4.9-51.1
			C165.5,668.8,135,674.2,135,674.2z"/>
		<path class="st8" d="M232.9,483l5.2,4.1l11.1-2.9l5.8,13.3l9.9,6l-0.1,14.5l9.8,3.6l4.8,15.5l13.6,14.7l0,11.1l6.8,11.9l-4.4,12
			l8.6,8.8c0,0-3.5,15.9-11.2,23.5c-12.8,12.6-8.2,0.1-8.2,0.1l-56.7-133.6L232.9,483z"/>
		<path class="st0" d="M137.1,668.8c0,0,14,1.5,22.6-0.2c8.7-1.7,27.7-11.2,27.7-11.2l1.5,14.7c0,0-11.1,8.5-24.8,12.1
			c-19,5.1-31.3,1.3-31.3,1.3L137.1,668.8z"/>
		<path class="st6" d="M196.6,671.5c0,0,20.9,24.8,25.2,41.4c0,0,3.1-9.6,10.4-12.1c3.3-1.2,12.8,4.2,12.8,4.2l6.5-11.6l6.8-1.1
			l5.4-6.2c0,0-16.7-26.3-19.3-37c-2.4-9.7-18.4,10.5-19.3,11C224.3,660.6,196.6,671.5,196.6,671.5z"/>
		<path class="st7" d="M196.6,671.5c0,0,20.9,24.8,25.2,41.4l8.1-10.2l15,2.4c0,0-7.9-30.8-22.3-43.4S196.6,671.5,196.6,671.5z"/>
		<path class="st0" d="M199.3,664.7c0,0,14-1.1,22.2-4.4s25.1-16.2,25.1-16.2l7.1,13.8c0,0-7.6,10.9-20.5,17.1
			c-17.7,8.5-35.1,6.9-35.1,6.9L199.3,664.7z"/>
		<path class="st8" d="M288,623.1C287.9,623.1,287.9,623.2,288,623.1c-1.6,1.2-3,2.2-4.4,3.1c-17.3,10.8-37.5,17.4-37.5,17.4
			s0,0.1,0,0.2c0,0.7,0.2,3.9,4.2,11.2c-3.6,5.6-16.1,14.4-16.1,14.4l-33.7,7.9l-10.5-15.8c0,0-10.2,11.9-22.6,14.4
			c-12.5,2.5-32.5-11.2-32.5-11.2l-8.7-46.2l-3.4-18.1l-0.5-2.7l-0.3-1.4l-1-5.2l5.8-0.3l27.1-1.3l0.2,0l31-1.5l4.9-0.2l1.6-0.1
			c0,0,1.3-0.2,3.7-0.8c8.4-2,53.6-16.3,85.6-31.9c2.6-1.3,14.8,20.3,14.8,20.3l-6.4,13.5l8.7,8.4
			C297.8,596.9,292.5,619.6,288,623.1z"/>
		<path class="st2" d="M194.7,589.6c7.3,9,15.5,35.4,19.6,44.1c11.9,25.3,20.4,35.5,20.4,35.5s-23.4,9.7-37.1,8.4
			c-7.5-19.8-15.5-25-24.3-31.8c-4.6,15.7-2,29.1-2,29.1c-13.7,8.4-33.5,6.8-38.5,2.1c-0.1-13.2-4.5-27.7-9-46.4
			c-2-17.5-6.9-35-6.5-43.9L194.7,589.6z"/>
		<path class="st0" d="M292.7,569.7c-1.5,0.8-4.1,2.3-5.7,3.2c-4.1,2.2-8.4,4.5-12.8,6.7c-3.1,1.5-6.2,3.1-9.3,4.6
			c-19.5,9.5-41.2,18.8-64.5,27.5c-36.5,13.6-60.4,11.2-74.3,6.6c-10.5-3.5-15.2-8.2-15.2-8.2l6-15.8l0.3-0.7c0,0,0.3,0.6,1.1,1.6
			c0.9,1.2,2.3,3,4.4,4.9c7.6,7.1,23.7,16.6,52.4,11c9.4-1.9,20.3-5.4,32.6-11.2c16.9-8,33.9-16.5,50.1-25.1
			c3.5-1.8,6.9-3.7,10.2-5.5c5-2.7,9.8-5.3,14.5-8c1.1-0.6,4.5-2.6,4.5-2.6L292.7,569.7z"/>
		<path class="st5" d="M289.1,562.8l0.9,1.7c-0.6,0.3-4.9,2.5-6.8,3.5c-4.1,2.1-8.2,4.2-12.3,6.2c-3.4,1.7-6.7,3.3-10,4.8
			c-26.8,12.7-51.1,22.4-63.6,28c-7,3.1-14.6,4.2-22.2,4.2c-16.3-0.1-32.6-5.7-43-10.2c-5-2.1-8.6-4-10.2-4.8
			c-0.6-0.3-0.9-0.5-0.9-0.5l-2.6-9.6l-1.9-6.8c0,0,161.1-33.9,161.2-33.9l3.6,1.7l8.2,6.6L289.1,562.8z"/>
		<path class="st9" d="M188.6,584.3c6,15.4,8.1,22.7,8.1,22.7s-23,9.9-50.7,8.9c-22.9-0.8-28.4-6.7-28.4-6.7
			c3.6-17.8-2.1-26.7-2.1-26.7c-1.5,2.2,12.1,11.3,32.8,10.3C164.8,592,178.4,589.8,188.6,584.3z"/>
		<path class="st0" d="M286.8,551.4c0,0-11.9,6.5-15.8,8.6c-5.1,2.7-10.4,5.4-15.9,8.1c-18.6,9.1-39.4,17.8-62,25.5
			c-28.7,9.7-48,10.4-61,7.4c-3.8-0.9-7.1-2.1-9.9-3.5c-1.4-0.7-2.7-1.5-3.9-2.2c-0.5-0.3-0.9-0.6-1.3-0.9
			c-8.7-6.2-10.6-13.8-10.6-13.8l1.9-4.8c0,0,3,5.3,10.2,10.3c2.3,1.6,5.1,3.2,8.3,4.6c10.8,4.6,27.1,6.9,50.2-0.1
			c2.4-0.7,4.9-1.6,7.5-2.5c0.2-0.1,0.4-0.1,0.5-0.2c4.3-1.6,8.9-3.5,13.7-5.8c23.5-11.1,47.1-23.2,68.4-35c3-1.6,5.9-3.3,8.8-4.9
			L286.8,551.4z"/>
		<path class="st2" d="M291.6,619.6c-1.8,1.4-2,2.3-3.7,3.6c0,0-0.1,0-0.1,0.1c-1.5,1.1-2.9,2.1-4.3,3c-20.9,14.1-34,17-37.5,17.6
			c-0.6,0.1-0.9,0.1-0.9,0.1l-1.7-3.5c-3-6.2-2.5-15.8,4-18.1c2.6-0.9,6.4-2.4,10.6-4.3c4.4-1.9,9.4-4.1,13.8-6
			c3-1.3,5.7-2.5,7.9-3.3c5.3-2.1,16.9-6.8,16.9-6.8S295,617,291.6,619.6z"/>
		<path class="st6" d="M281.8,547.2c0,0-4.3,2.1-5.2,2.5c-5.2,2.8-10.5,5.5-15.7,8.2c-29.4,14.7-57.4,25.7-65.8,28.9
			c-1.7,0.6-2.6,1-2.6,1l-3.2,0.1l-4.9,0.2l-30.5,1.3l-0.2,0l-18.2,0.8l-2.9-5.5l-33.5-64.4l74.6-58.6l32.4,43.2l0.2,0.3l49,0.4
			l1.9,1.6c0,0,2,6.1,1.1,6.5l1.8,9l10.7,2.9l2.9,12.3L281.8,547.2z"/>
		<path class="st7" d="M148.9,485.1c0,0-5.2,13.7,12.1,46.1c0.9,1.7,7.5,14,8.5,15.6c3.9,6.2,9.8,17.7,15.1,24.2l-58.6,19.1
			c-18.9-17.3-30-75.3-30-75.3L148.9,485.1z"/>
		<path class="st1" d="M91.3,394.7l-15.2,22.1l-54.4-53.5c0,0,1.9-6.3,12.2-4.4C44.2,360.8,91.3,394.7,91.3,394.7z"/>
		<polygon class="st3" points="78.1,400.7 82.9,396.5 90.1,390 97.6,390.2 107.1,385 116.3,383.7 106.6,396.3 89.8,411.5 75.2,411 
					"/>
		<path class="st1" d="M115.8,384c0,0,10.7,11.8,26.6,23.6c25,18.6-37,10.2-37,10.2l-3.1-23.2l7-4.6L115.8,384z"/>
		<path class="st4" d="M63.2,434.2c0,0-49.5-67-41.6-70.9s54.4,53.5,54.4,53.5l-1.3-5.6l9.3-8.9l4,3.9l4.1-7.6l2.5-6l7.6,1.3l6,12.3
			c0,0,20.1-4.6,29.4,1c21.3,12.8,36.1,54.2,36.1,54.2l-27.9,23.6l-52.6-41.7L63.2,434.2z"/>
		<path class="st0" d="M39.9,401.8c0,0,8.4-4.3,13.7-10.5c5.3-6.1,4.5-20.3,4.5-20.3l4.4,3.9l2.9-0.8c0,0-1.2,15.1-5.7,22.1
			s-16,11.8-16,11.8L39.9,401.8z"/>
		<path class="st1" d="M63.2,434.2l12.8-17.4c0,0,5,1.2,13.9-1.8s18.3-8.7,18.3-8.7s17.3-5.1,29.2-2c27.8,7.1,33.5,52.6,50.9,69.3
			c0,0-11.7,32.7-37.3,44.4c-17.7,8.1-48.6,11.8-56.9,9.7L84.2,470L63.2,434.2z"/>
		<path class="st5" d="M12.7,508.4c0,0,36.8-39.4,50.5-74.2c8.3-21.1,42.5-11.2,52-2.4s28,29.9,32.6,43.5c4.6,13.4-3.1,29.7-31,38.8
			c-32.3,10.5-49.8,17.6-71.7,18.5C25.5,533.3,12.7,508.4,12.7,508.4z"/>
		<path class="st4" d="M78.6,482.3C92.2,496.7,98.1,521,98.1,521L64.4,531c0,0,6.4-10-0.2-26.3s-28.8-27.6-28.8-27.6
			s11.3-13.8,19.3-26.1c7.8-12.1,11.5-28.2,20.8-26.3C98.9,429.6,56.9,459.3,78.6,482.3z"/>
		<path class="st9" d="M51.1,524c0,0,33.7-13.6,55.8-22.3c38.7-15.4,27.8-45,27.8-45s10.9,7.7,13.1,18.6c2.2,11,5.1,22.8-16.6,33
			c-21.7,10.2-65.8,24.9-86.2,24.2C26.6,531.9,51.1,524,51.1,524z"/>
		
			<ellipse transform="matrix(0.9509 -0.3096 0.3096 0.9509 -137.9479 53.688)" class="st9" cx="100.2" cy="461.4" rx="14.6" ry="18.4"/>
		
			<ellipse transform="matrix(0.9509 -0.3096 0.3096 0.9509 -138.3582 52.9973)" class="st0" cx="97.8" cy="462.4" rx="14.1" ry="18.2"/>
		<ellipse transform="matrix(0.9509 -0.3096 0.3096 0.9509 -139.8559 52.0309)" class="st3" cx="94" cy="466.6" rx="9.3" ry="11"/>
		<path class="st0" d="M155.9,530.4c-27.8,12.9-57.3,3.8-57.3,3.8l4.4,11.1c0,0,29.6,10,58.3-4.9c22.1-11.4,36.4-46.9,36.4-46.9
			l-5.4-11.7C192.4,481.9,174.3,521.9,155.9,530.4z"/>
		<path class="st0" d="M19.6,497.8l15.8-20.7c0,0,23,5.7,28.8,27.6c4.7,17.8,0.2,26.3,0.2,26.3L34,534.8L19.6,497.8z"/>
		<path class="st3" d="M11.1,510C7,524.7,18.9,533.1,34,534.8c20.1,2.3,15.8-15,11.7-24.9C33.6,480.8,14.8,496.9,11.1,510z"/>
		<path class="st10" d="M43.9,466.3c0,0,18.3,5.1,28.8,26.2c7.1,14.2,5.1,35.3,5.1,35.3L64.4,531c0,0,0.4-29.1-6.3-38
			c-9.6-12.7-22.7-15.9-22.7-15.9L43.9,466.3z"/>
		<path class="st11" d="M43.9,466.3c0,0,18.3,5.1,28.8,26.2c7.1,14.2,5.1,35.3,5.1,35.3s-0.2-22.9-6.2-34.4
			C61.9,474.7,43.9,466.3,43.9,466.3z"/>
		<path class="st1" d="M258.3,513.9c-26.2,8.8-53.2-8.2-53.2-8.2s0.3-0.3,1-1c3.4-3.4,11.1-10.2,22.4-19.6c0.8-0.7,6.9,6.3,6.9,6.3
			l9.9-2.7l6.1,12l9.4,5.2L258.3,513.9z"/>
		<path class="st10" d="M77.4,520.1c0,0,53.1,74.1,88.9,44.4c27-22.4,30.8-53.4,32.6-60.6c1.8-7.2,8.6-10.8,10,1.9
			c1.4,12.7,0.2,67.9-15.8,83.7c-56.4,55.8-121.5-58.4-121.5-58.4L77.4,520.1z"/>
		<path class="st11" d="M77.4,520.1c0,0,53.1,74.1,88.9,44.4c27-22.4,30.8-53.4,32.6-60.6c1.8-7.2,1.9,40.5-18.6,60.7
			c-52.8,52-103.6-40.1-103.6-40.1L77.4,520.1z"/>
		<path class="st10" d="M146.2,469.6c3.8-0.4-24.8-48.4-52.5-49.5c-29.3-1.2-30.5,14.1-30.5,14.1s17.1-11.1,32.6-4.4
			C121.7,441,142.5,470,146.2,469.6z"/>
		<circle class="st10" cx="71.2" cy="522.6" r="10.5"/>
		<path class="st11" d="M81.2,519.4c1.5,4.7-0.5,9.8-4.6,12.3c2.5-3,3.5-7.2,2.2-11.2c-1.5-4.5-5.5-7.6-9.9-8
			C74.2,511.2,79.5,514.2,81.2,519.4z"/>
		<path class="st8" d="M116.3,418.1c0,0,24.1,16.3,33.1,32.5c9,16.2,15,39.5,15,39.5s-0.5-23.3-10.9-40.9
			C139.1,424.9,116.3,418.1,116.3,418.1z"/>
		<polygon class="st3" points="101.9,392.4 107.7,386.1 117.5,394.8 118.1,404.7 128.6,416 113.2,408.1 111.7,397.1 		"/>
		<path class="st0" d="M307.4,358.2c-0.1,0-0.3,0.1-0.5,0.1c0,0,0-0.1,0-0.1H307.4z"/>
		<path class="st12" d="M429,552.7c0,0-25.9-58.3-31.6-104.4c-8.8-72,20.8-144.1,20.8-144.1l-60.4,36.7c0,0,7.8,70.3,15.1,102.5
			c14.6,64.3,56.1,110.1,56.1,110.1V552.7z"/>
		<path class="st13" d="M357.7,340.4c0,0,0,44,15.1,103.1C391,514.3,429,553.6,429,553.6s-41-64.9-48.6-112.5
			c-13.8-86.6,3.2-115.2,3.2-115.2L357.7,340.4z"/>
		<path class="st14" d="M413.2,564.2c0,0-68.4-3.1-84.6-56C307,437.5,237.9,424,237.9,424l-8.1,43.2c0,0,51.8-7.6,79.3,49.1
			c28.8,59.3,103.1,49.1,103.1,49.1L413.2,564.2z"/>
		<path class="st15" d="M237.9,424c0,0,69.4,11.7,90.7,84.2c13.5,45.9,84.6,56,84.6,56s-72.2,0.6-91.9-54.4
			c-25.5-71.3-87.2-65.3-87.2-65.3L237.9,424z"/>
		<path class="st14" d="M80.9,660.4c3.2,51.3-17.5,87.3-17.5,87.3l49.5,19.7c0,0-3.5-84.5-14-122.5c-15.7-56.9-63-79.4-63-79.4
			S77.6,607.6,80.9,660.4z"/>
		<path class="st15" d="M35.9,565.5c0,0,47.3,22.5,63,79.4c10.5,38,14,122.5,14,122.5l-20.3-8c0,0,7-68.5-0.4-107.7
			C82.1,598.1,35.9,565.5,35.9,565.5z"/>
		<path class="st16" d="M350.2,420.8l-20.5,27c0,0,3.8,28.4,11.9,47.5c13.5,31.8,48.6,42.1,48.6,42.1s-22.7-21-33.5-48.6
			C350.7,473.7,350.2,420.8,350.2,420.8z"/>
		<path class="st6" d="M390.1,537.4c0,0-29.4-5.9-48.3-39.9c-10.8-19.4-12.1-49.6-12.1-49.6l10.8-14c0,0-3.2,36.2,6.5,57.2
			C361.1,521.5,390.1,537.4,390.1,537.4z"/>
		<path class="st16" d="M264.9,651.8c0,0,40.9-9.8,51.8-29.1c14-24.8,11.9-51.8,11.9-51.8l25.9,8.6c0,0-1.1,33.5-22.7,52.9
			C308.5,653.3,264.9,651.8,264.9,651.8z"/>
		<path class="st6" d="M354.5,579.5c0,0-1.1,33.5-22.7,52.9c-23.3,21-66.9,19.4-66.9,19.4s41.1-3.6,62.1-25.9
			c17.3-18.3,15.1-50.7,15.1-50.7L354.5,579.5z"/>
		<path class="st17" d="M372.8,590.4c0,0-8.9,48.3-30.9,62.2c-28.1,17.9-59.7,17-59.7,17l11.6,29.7c0,0,39-3.3,60.3-29.7
			C377.3,641.2,372.8,590.4,372.8,590.4z"/>
		<path class="st18" d="M372.8,590.4c0,0-8.9,48.3-30.9,62.2c-28.1,17.9-59.7,17-59.7,17l6.4,15.6c0,0,36.2-3.6,57.2-25.4
			C373.4,631.3,372.8,590.4,372.8,590.4z"/>
		<path class="st17" d="M485.6,411.9l58.3-4c0,0-37.5,19.7-55.9,49.4c-21.9,35.3-22.9,91.5-22.9,91.5s-14.5-49.7-11.1-78.5
			C458.4,433.5,485.6,411.9,485.6,411.9z"/>
		<path class="st18" d="M485.6,411.9c0,0-27.3,21.6-31.6,58.3c-3.4,28.9,11.1,78.5,11.1,78.5s-8.2-63.6-1.1-85.8
			c10.3-31.8,42.1-52.3,42.1-52.3L485.6,411.9z"/>
		<path class="st8" d="M440.6,505c0,0-8.1-33.5-2.2-56.1c5.5-20.9,24.8-33.5,24.8-33.5l-29.1-16.2c0,0-10.8,18.3-11.9,43.2
			C421,469.5,440.6,505,440.6,505z"/>
		<path class="st2" d="M463.2,415.4c0,0-19.4,12.6-24.8,33.5c-5.9,22.7,2.2,56.1,2.2,56.1s-12.4-41.3-8.4-59.9
			c4-18.6,17-37.2,17-37.2L463.2,415.4z"/>
		<path class="st8" d="M219.4,441.9c0,0-7.3-27.8-2.6-46.9c4.3-17.5,20.2-28.3,20.2-28.3L223.5,340c0,0-22.6,17-20.4,49.9
			C204.6,412.5,219.4,441.9,219.4,441.9z"/>
		<path class="st2" d="M219.4,441.9c0,0-14.8-29.4-16.3-52c-2.2-32.8,20.4-49.9,20.4-49.9l5.4,9.6c0,0-19.1,14.4-18.9,38.3
			S219.4,441.9,219.4,441.9z"/>
		<path class="st8" d="M304.5,433.6c0,0,18-20.5,30.4-50.8c11.6-28.3,10.2-61.3,10.2-61.3l-36.7,14.2c0,0,8.5,13.9,7.9,41.8
			C315.7,401,304.5,433.6,304.5,433.6z"/>
		<path class="st2" d="M345.9,320.4c0,0,0.6,34-11,62.4c-12.4,30.4-30.4,50.8-30.4,50.8s18.2-35.2,24.1-54.3
			c9.9-31.9,5.9-53.5,5.9-53.5L345.9,320.4z"/>
		<path class="st12" d="M202.2,458.6c0,0-24-41.1-28-73.9c-3.6-29.5,6.1-59.9,6.1-59.9l-35.9-2.5c0,0,0,35.1,12.5,71.3
			C166,420.1,202.2,458.6,202.2,458.6z"/>
		<path class="st13" d="M144.3,322.2c0,0,0,35.1,12.5,71.3c9.2,26.7,45.4,65.1,45.4,65.1s-31.8-43.2-39.1-69.3
			c-10.6-38-3.1-66.2-3.1-66.2L144.3,322.2z"/>
		<path class="st12" d="M488.9,542.2c0,0,19.3-55.5,26.7-64.8c22.7-28.3,54.2-21,54.2-21l-9.7-34c0,0-44.5,3.2-60.7,48.6
			C493,488.8,488.9,542.2,488.9,542.2z"/>
		<path class="st13" d="M560.1,422.4c0,0-44.5,3.2-60.7,48.6c-6.4,17.8-10.5,71.2-10.5,71.2s9.7-52.1,18.3-69.1
			c20-39.4,56.1-37.8,56.1-37.8L560.1,422.4z"/>
		<path class="st16" d="M280,709l8.1,32.4c0,0-28.2-0.8-46.9,16.2c-25.9,23.5-38.9,59.9-38.9,59.9s1.7-46.3,24.3-72.9
			C254.1,712.2,280,709,280,709z"/>
		<path class="st6" d="M280,709c0,0-25.9,3.2-53.4,35.6c-22.6,26.6-24.3,72.9-24.3,72.9s4.9-43.2,34.5-71.2
			c25-23.6,46.4-24.3,46.4-24.3L280,709z"/>
		<path class="st16" d="M433.8,325.3c0,0,18.1,36.6,40.5,48.6c31.3,16.7,65.8,14.6,65.8,14.6s-38.3,16.1-76.6,7.6
			c-31.3-7-44.3-27-44.3-27L433.8,325.3z"/>
		<path class="st6" d="M540.1,388.4c0,0-38.3,16.1-76.6,7.6c-31.3-7-44.3-27-44.3-27l5.4-16.7c0,0,11.2,26.6,38.9,33.5
			C504.5,396,540.1,388.4,540.1,388.4z"/>
		<path class="st14" d="M554.5,721.9l-24.4,8.4c0,0-1.6,10.2-24.8,39.9c-15.9,20.5-55.7,36.7-55.7,36.7s39.9-4.8,63.8-28.2
			C541.1,751.7,554.5,721.9,554.5,721.9z"/>
		<path class="st15" d="M449.7,806.9c0,0,39.7-16.2,55.7-36.7c23.1-29.7,24.8-39.9,24.8-39.9l9.6-3.4c0,0-10.7,30.1-32.1,49.5
			C473.5,807.4,449.7,806.9,449.7,806.9z"/>
		<path class="st8" d="M527.2,515.2L511,541.1c0,0,24.1,11.9,35.6,28.6c11.9,17.3,21,50.2,21,50.2s-0.9-44.5-9.7-63.7
			C546.1,530.4,527.2,515.2,527.2,515.2z"/>
		<path class="st2" d="M567.7,619.9c0,0-9.2-32.9-21-50.2C535.1,553,511,541.1,511,541.1l6.5-11.3c0,0,26.9,22.8,34.5,34.5
			C563.3,581.6,567.7,619.9,567.7,619.9z"/>
		<path class="st0" d="M86.9,524.7c0,0,12.8-10.5,14-19.9c1.2-9.4-0.1-17.8-0.1-17.8s14.1,4.9,14.9,16.3
			c0.8,11.3-16.2,17.8-16.2,17.8L86.9,524.7z"/>
		<path class="st17" d="M249.3,789.9c0,0,23.7-31.3,49.6-31.3c40.5,0,56.1,18.3,56.1,18.3l-20,19.4c0,0-12.4-23.7-36.7-23.7
			C267.6,772.7,249.3,789.9,249.3,789.9z"/>
		<path class="st18" d="M355,777c0,0-16.2-22.1-56.7-19.4c-25.9,1.7-49.1,32.4-49.1,32.4s28.6-28.1,52.3-26.4
			c36.6,2.5,45.3,21.6,45.3,21.6L355,777z"/>
	</g>
</g>
<g id="pinata-2">
</g>
<g id="pinata-3">
</g>
</svg>
