<svg id="Layer_1" data-name="Layer 1" xmlns="http://www.w3.org/2000/svg" viewBox="0 0 153.571 156.211"><defs><style>.cls-1{fill:#ffc735;stroke-width:2.144px;}.cls-1,.cls-10,.cls-11,.cls-12,.cls-14,.cls-15,.cls-16,.cls-17,.cls-18,.cls-19,.cls-3,.cls-6,.cls-7,.cls-8{stroke:#001741;stroke-miterlimit:10;}.cls-2{fill:#001741;}.cls-3,.cls-4{fill:#fbe2e0;}.cls-14,.cls-15,.cls-19,.cls-3,.cls-7{stroke-width:2px;}.cls-15,.cls-5{fill:#7b3122;}.cls-16,.cls-17,.cls-18,.cls-6,.cls-7,.cls-9{fill:#fff;}.cls-6{stroke-width:1.114px;}.cls-10,.cls-12,.cls-14,.cls-19,.cls-8{fill:none;}.cls-11,.cls-8{stroke-width:0.754px;}.cls-10{stroke-width:0.753px;}.cls-11{fill:#8ccef1;}.cls-12{stroke-width:0.569px;}.cls-13{fill:#fb97ae;}.cls-16{stroke-width:1.703px;}.cls-17{stroke-width:1.578px;}.cls-18{stroke-width:1.668px;}.cls-19{stroke-linecap:round;}</style></defs><title>so-cool</title><circle class="cls-1" cx="76.064" cy="89.889" r="65.25"/><path class="cls-2" d="M48.839,30.845A62.061,62.061,0,1,0,141.032,87.6c.032.879.053,1.769.053,2.658A65.245,65.245,0,1,1,48.839,30.845Z"/><path class="cls-2" d="M77.447,120.36,65.168,146.779s-18.408-.984-16.93-5.768c9.488-30.7,15.4-45.923,15.4-45.923s6.364,3.162,17.03,3.3,14.488-4.067,14.488-4.067l5.823,50.779a46.863,46.863,0,0,1-8.93,2.6,37.082,37.082,0,0,1-9.674,0Z"/><path class="cls-3" d="M18.3,31.5c-1.435-2.79-12.937.235-13.313-5.742-.246-3.922-6.7-8.638-2.649-11.835,3.394-2.677,7.347,3.523,9.85,6.553,2.125,2.57,7.453,6.056,7.453,6.056Z"/><path class="cls-3" d="M134.615,91.767s2.713,10.376,7.131,8.036c2.992-1.585,5.093.708,8.337.642,3.349-.069,2.492-3.346,2.068-4.262-1.043-2.256-4.265-3.383-7.885-4.038-3.071-.555-8.773-4.866-8.773-4.866Z"/><polygon class="cls-3" points="88.657 57.007 74.756 57.007 74.058 36.624 87.959 36.624 88.657 57.007"/><path class="cls-4" d="M90.9,22.22c.022,12.961.381,19.485-8.927,22.151-5.59,1.6-15.7-5.486-22.152-18.137C54.4,15.605,60.087,6.2,71.85,4.2S90.883,10.151,90.9,22.22Z"/><path class="cls-5" d="M66.592,24.339c-.333-.238-.89-2.232,2.92-3.1s4.406-.3,3.727,1.007S66.925,24.576,66.592,24.339Z"/><path class="cls-5" d="M77.437,20.979c-1.132-.376-.959-2.3,2.974-3.264s3.567.876,3.36,1.531S78.568,21.356,77.437,20.979Z"/><path class="cls-2" d="M75.59,23.042c-.27.222-.1,1.895,1.082,3.91,1.322,2.249,4.007,3.657,3.971,4.4-.1,2.043-4.516,3.057-5.032,1.9-.664-1.487.547-2.557-.09-2.314a2.2,2.2,0,0,0-.412,3.839c2.026.882,7.088-.744,6.942-3.421-.088-1.6-2.394-2.13-3.909-4.213C76.485,24.865,75.873,22.81,75.59,23.042Z"/><path class="cls-6" d="M75.546,37.987a9.18,9.18,0,0,0,5.1-.376A10.187,10.187,0,0,0,84.7,35.062s.557,5.013-2.876,6S75.546,37.987,75.546,37.987Z"/><path class="cls-7" d="M90.205,44.923l-5.781,3.344a29.4,29.4,0,0,0-4.186,9.768c-.883,3.909-3.186,27.791-2.419,33.674.559,4.279,1.373,13.848,5.4,16,2.068,1.107,15.707-2.286,14.7-6.139-6.331-24.158-.465-34.977-.465-34.977Z"/><line class="cls-8" x1="84.467" y1="19.487" x2="88.834" y2="18.033"/><path class="cls-2" d="M65.881,25.56c.322-1.358,5.444-3.235,7-2.491a3.919,3.919,0,0,1-.67,7.131C66.614,32.614,65.56,26.917,65.881,25.56Z"/><polygon class="cls-9" points="70.485 23.186 67.941 30.306 69.005 30.709 71.517 23.175 70.485 23.186"/><path class="cls-2" d="M84.9,18.949c-1.1-.852-6.266.915-7.009,2.475a3.919,3.919,0,0,0,5.011,5.117C88.776,24.89,86.009,19.8,84.9,18.949Z"/><polygon class="cls-9" points="82.989 18.707 80.103 26.414 81.354 26.802 83.866 18.919 82.989 18.707"/><path class="cls-10" d="M65.881,25.56c.322-1.358,5.444-3.235,7-2.491a3.919,3.919,0,0,1-.67,7.131C66.614,32.614,65.56,26.917,65.881,25.56Z"/><path class="cls-10" d="M84.9,18.949c-1.1-.852-6.266.915-7.009,2.475a3.919,3.919,0,0,0,5.011,5.117C88.776,24.89,86.009,19.8,84.9,18.949Z"/><line class="cls-11" x1="61.888" y1="27.682" x2="66.509" y2="26.252"/><path class="cls-12" d="M73.673,23.81a2.669,2.669,0,0,1,1.7-1.2,5.6,5.6,0,0,1,2.051-.191"/><ellipse class="cls-13" cx="69.292" cy="35.663" rx="2.923" ry="3.474" transform="translate(-7.573 22.818) rotate(-17.747)"/><ellipse class="cls-13" cx="88.592" cy="28.842" rx="2.923" ry="3.474" transform="translate(-4.575 28.376) rotate(-17.747)"/><path class="cls-14" d="M90.9,22.22c-.182,13.229-.852,20.533-8.771,22.638-5.15,1.369-15.853-5.973-22.308-18.624C54.4,15.605,60.087,6.2,71.85,4.2S91.068,10.152,90.9,22.22Z"/><path class="cls-15" d="M59.364,12.472S51.7,19.265,62.505,31.277c1.66,1.846-2.372-8.213-1.992-11.554.46-4.055,1.993-7.06,2.2-8.18C63.5,7.157,59.364,12.472,59.364,12.472Z"/><path class="cls-15" d="M88.192,9.492c.278-.377,5.294,9.063,2.635,14.007-1.127,2.1-2.16-5.923-4.37-8.466C77.911,5.2,88.192,9.492,88.192,9.492Z"/><path class="cls-15" d="M60.508,17.441c3.111,1.435,7.026-6.813,14.762-1.52,7.923,5.42,15.244-2.779,15.011-8.34-.177-4.241-5.206-1.042-9.31-3.54-2.84-1.729-6-4.422-14.185-2.2C59.974,3.689,52.843,13.905,60.508,17.441Z"/><path class="cls-16" d="M78.285,48.174c2.478.954,2.64,13.616,2.894,23.783a196.177,196.177,0,0,1-1.593,21.659c-.873,7.351-3.138,13.765-3.906,14.512-1.612,1.569-17.36-2.922-15.349-11.4,1.3-5.488,4.1-13.561,3.907-18.232-.572-14.012-.93-19.721-.93-19.721L71.68,46.872Z"/><path class="cls-7" d="M69.826,43.6l.679-.467c.656-.451,1.706-1.136,2.338-.4a35.191,35.191,0,0,0,5.36,4.93,1.815,1.815,0,0,1,.078,2.716l-3.02,3.051A22.963,22.963,0,0,1,69.8,46.376C69.068,44.982,69.155,44.059,69.826,43.6Z"/><path class="cls-7" d="M91.878,44.24c.015-1.028-2.515-2.423-3.745-.644a17.291,17.291,0,0,1-3.243,3.775,1.655,1.655,0,0,0-.305,2.495l3.026,3.371S91.813,48.437,91.878,44.24Z"/><path class="cls-17" d="M10.743,29.392c-.2,1,4.67,4.55,5.827,4.587S22.147,29.4,21.9,28.015s-5.3-4.821-6.141-4.5S10.951,28.357,10.743,29.392Z"/><path class="cls-18" d="M139.671,89.331c.136-1.106-5.081-4.712-6.264-4.69s-5.258,5-4.905,6.49,5.8,4.873,6.64,4.478C138.072,94.224,139.507,90.666,139.671,89.331Z"/><line class="cls-19" x1="87.68" y1="59.151" x2="87.68" y2="65.244"/><path class="cls-7" d="M85.4,62.36l7.86-.139s.186,7.674-3.628,7.953C84.694,70.536,85.4,62.36,85.4,62.36Z"/><path class="cls-2" d="M20.424,25.105s10.3,8.181,21.209,12.186a115.286,115.286,0,0,0,17.4,4.93c2.418.372,6.87,0,9.86,1.86,2.46,1.532,2.546,4.688,4.465,9.117,2.419,5.581,3.721,14.883,3.721,19.535,0,11.581-3.07,25.395-6.139,26.79s-9.582-4.651-10.419-6.884,0-7.648.651-10.837c1.535-7.535-1.209-22.093-1.209-22.093S42.006,51.616,35.866,48.64,14.1,33.849,14.1,33.849Z"/><path class="cls-2" d="M18.936,23.988c-1.97-.255-7.07,5.768-6.512,8.373.364,1.7,5.4,5.023,6.7,4.279,0,0,6.244-5.4,5.767-7.442S20.906,24.244,18.936,23.988Z"/><path class="cls-2" d="M87.308,56.36c-1.439,3.186-3.163,18.419-3.535,26.605s-.372,12.465,1.3,15.07,11.937,3.893,13.209-2.047c.559-2.6-1.488-3.907-1.488-11.349A93.926,93.926,0,0,1,98.843,67.9L111.494,80.36l18.892,13.808,6.855-7.434L120.4,71.774s-14.933-18.186-16.9-20.065c-3.907-3.721-10.605-7.069-10.605-7.069C93.345,44.266,89.912,50.593,87.308,56.36Z"/><path class="cls-2" d="M125.42,90.408c-.482-1.917,5.032-9.049,6.549-8.689s5.965,3.874,6.148,5.311-3.679,7.792-5.735,8.124S125.9,92.325,125.42,90.408Z"/></svg>