<svg id="Layer_1" data-name="Layer 1" xmlns="http://www.w3.org/2000/svg" viewBox="0 0 236.869 154.771"><defs><style>.cls-1{fill:#fb97ae;}.cls-2,.cls-5{fill:#bde8fb;}.cls-10,.cls-11,.cls-12,.cls-14,.cls-15,.cls-16,.cls-17,.cls-18,.cls-2,.cls-4,.cls-5,.cls-8,.cls-9{stroke:#001741;stroke-miterlimit:10;}.cls-16,.cls-18,.cls-19,.cls-2,.cls-21{stroke-linecap:round;}.cls-18,.cls-2{stroke-width:12.607px;}.cls-3{fill:#001741;}.cls-4,.cls-6{fill:#fbe2e0;}.cls-14,.cls-15,.cls-16,.cls-4,.cls-5{stroke-width:1.914px;}.cls-15,.cls-7{fill:#7b3122;}.cls-13,.cls-8{fill:#fff;}.cls-8{stroke-width:1.153px;}.cls-9{fill:#f1d4d2;stroke-width:0.663px;}.cls-10{fill:#8ccef1;}.cls-10,.cls-12{stroke-width:0.722px;}.cls-11,.cls-12,.cls-14,.cls-16,.cls-18,.cls-19,.cls-21{fill:none;}.cls-11{stroke-width:0.544px;}.cls-17,.cls-20{fill:#407fff;}.cls-17{stroke-width:2.532px;}.cls-19,.cls-21{stroke:#407fff;stroke-linejoin:round;}.cls-19{stroke-width:2.5px;}.cls-21{stroke-width:2.663px;}</style></defs><title>svg</title><path class="cls-1" d="M143.059,42.794a6.65,6.65,0,0,1,1.468-3.216,4.034,4.034,0,0,1,6.506,1.78c1.169,3.631-2.206,12.675-2.206,12.675s-9.28-2.51-11.563-5.565a4.034,4.034,0,0,1,2.316-6.336,6.651,6.651,0,0,1,3.472.666"/><path class="cls-1" d="M203.262,32.465a6.644,6.644,0,0,1,2.919-1.994,4.034,4.034,0,0,1,4.648,4.888c-.877,3.712-8.443,9.709-8.443,9.709s-6.644-6.948-7.018-10.744a4.033,4.033,0,0,1,5.258-4.225,6.646,6.646,0,0,1,2.627,2.365"/><path class="cls-1" d="M139.744,24.461a4.439,4.439,0,0,1,1.544-1.788,2.7,2.7,0,0,1,3.84,2.361c.07,2.549-3.79,7.719-3.79,7.719s-5.483-3.35-6.375-5.738a2.7,2.7,0,0,1,2.673-3.63,4.44,4.44,0,0,1,2.1,1.077"/><path class="cls-1" d="M146.265,8.987a2.625,2.625,0,0,1,1.1-.867,1.594,1.594,0,0,1,1.969,1.8c-.243,1.489-3.062,4.064-3.062,4.064s-2.813-2.557-3.066-4.044a1.6,1.6,0,0,1,1.957-1.812,2.62,2.62,0,0,1,1.1.86"/><path class="cls-1" d="M211.01,21.729a2.625,2.625,0,0,1,1.1-.867,1.594,1.594,0,0,1,1.969,1.8c-.243,1.489-3.061,4.064-3.061,4.064s-2.814-2.557-3.067-4.044a1.6,1.6,0,0,1,1.957-1.812,2.626,2.626,0,0,1,1.1.86"/><path class="cls-1" d="M202.629,14.644a2.625,2.625,0,0,1,1.1-.867,1.6,1.6,0,0,1,1.969,1.8c-.243,1.489-3.062,4.064-3.062,4.064s-2.813-2.557-3.066-4.044a1.6,1.6,0,0,1,1.957-1.812,2.62,2.62,0,0,1,1.1.86"/><path class="cls-1" d="M192.018.917a2.623,2.623,0,0,1,1.1-.867,1.594,1.594,0,0,1,1.968,1.8c-.243,1.489-3.061,4.064-3.061,4.064s-2.814-2.557-3.067-4.044A1.6,1.6,0,0,1,190.913.057a2.627,2.627,0,0,1,1.1.86"/><path class="cls-2" d="M6.3,69.814s15.579-27.1,61.382-17.99,56.8,79.277,99.814,87.828c45.058,8.957,63.065-25.252,63.065-25.252"/><path class="cls-3" d="M175.145,123.151l-4.4,15.1s-20.01-2.028-17.827-6.291c2.554-4.986,7.677-32.912,7.677-32.912s6.089,3.025,16.294,3.161,13.862-3.891,13.862-3.891l3.693,35.529a21.061,21.061,0,0,1-8.179,3.775,66.339,66.339,0,0,1-9.858.629Z"/><polygon class="cls-4" points="184.525 62.612 171.225 62.612 170.558 43.11 183.858 43.11 184.525 62.612"/><path class="cls-5" d="M202.91,71.736,209.125,70s-8.561-15.055-12.431-16.41a64.382,64.382,0,0,0-10.687-2.534l-5.531,3.2a28.145,28.145,0,0,0-4,9.346c-.845,3.74-3.049,26.59-2.315,32.219.534,4.094,1.313,13.25,5.163,15.309,1.978,1.059,15.029-2.188,14.062-5.874-6.058-23.114.826-35.752.826-35.752Z"/><path class="cls-6" d="M188.994,30.13c-2.119,12.219-2.857,18.426-12.069,19.4-5.532.586-13.888-7.761-17.884-20.75C155.684,17.871,162.6,9.949,174.012,10S190.967,18.752,188.994,30.13Z"/><path class="cls-7" d="M164.757,27.924c-.327-.213-.939-2.1,2.669-3.082s4.2-.462,3.6.816S165.085,28.138,164.757,27.924Z"/><path class="cls-7" d="M176.164,25.319c-.888-.716-.091-2.381,3.758-1.931s2.905,1.978,2.5,2.5S177.052,26.035,176.164,25.319Z"/><path class="cls-3" d="M174.427,28.377c-.291.165-.409,1.769.374,3.864.875,2.337,3.173,4.108,3.016,4.8-.432,1.909-4.76,2.136-5.056.964-.381-1.511.938-2.32.3-2.2a2.105,2.105,0,0,0-1.021,3.55c1.764,1.166,6.8.469,7.106-2.078.182-1.525-1.9-2.4-2.988-4.616C174.97,30.243,174.732,28.205,174.427,28.377Z"/><path class="cls-8" d="M171.641,42.871a10.168,10.168,0,0,0,5.993-.448,10.881,10.881,0,0,0,4.321-3.5s-.553,6.12-4.167,6.881S171.641,42.871,171.641,42.871Z"/><path class="cls-9" d="M165.642,29.233c.486-1.13,5.22-1.981,6.461-1.1a3.456,3.456,0,0,1-1.668,6.091C165.205,35.471,165.156,30.363,165.642,29.233Z"/><path class="cls-9" d="M183.168,26.385c-.83-.908-5.581-.158-6.463,1.084a3.454,3.454,0,0,0,3.573,5.206C185.627,32.134,184,27.293,183.168,26.385Z"/><line class="cls-10" x1="160.747" y1="30.489" x2="165.339" y2="29.904"/><path class="cls-11" d="M172.493,28.785a2.549,2.549,0,0,1,1.8-.848,5.356,5.356,0,0,1,1.965.158"/><line class="cls-12" x1="183.38" y1="26.492" x2="187.735" y2="25.842"/><ellipse class="cls-13" cx="169.1" cy="31.065" rx="2.609" ry="2.014" transform="translate(-2.653 23.277) rotate(-7.813)"/><ellipse class="cls-13" cx="180.218" cy="29.372" rx="2.609" ry="2.014" transform="translate(-2.32 24.773) rotate(-7.813)"/><ellipse class="cls-3" cx="169.238" cy="31.939" rx="1.057" ry="1.108" transform="translate(-2.771 23.304) rotate(-7.813)"/><ellipse class="cls-3" cx="180.046" cy="30.203" rx="1.057" ry="1.108" transform="translate(-2.434 24.757) rotate(-7.813)"/><ellipse class="cls-1" cx="166.436" cy="38.686" rx="2.797" ry="3.324" transform="translate(-3.714 22.985) rotate(-7.813)"/><ellipse class="cls-1" cx="186.081" cy="33.779" rx="2.797" ry="3.324" transform="translate(-2.865 25.61) rotate(-7.813)"/><path class="cls-14" d="M188.994,30.13c-2.355,12.438-4.192,19.211-12,19.887-5.079.44-13.954-8.245-17.95-21.234C155.684,17.871,162.6,9.949,174.012,10S191.142,18.783,188.994,30.13Z"/><path class="cls-15" d="M160.879,15.737s-8.345,5.138-.144,18.242c1.261,2.013-.879-8.132.03-11.219,1.1-3.745,3.044-6.325,3.419-7.346C165.655,11.411,160.879,15.737,160.879,15.737Z"/><path class="cls-15" d="M188.54,17.687c.324-.31,3.494,9.415.172,13.636-1.409,1.791-1.059-5.938-2.721-8.7C179.56,11.941,188.54,17.687,188.54,17.687Z"/><path class="cls-15" d="M161.137,20.609c2.695,1.866,7.746-5.261,14.164,1,6.572,6.416,14.825-.1,15.523-5.383.533-4.026-4.734-1.841-8.19-4.873-2.391-2.1-4.926-5.157-13-4.415C162.9,7.56,154.5,16.012,161.137,20.609Z"/><path class="cls-5" d="M174.6,54.161c2.372.912,2.527,13.028,2.77,22.756a187.908,187.908,0,0,1-1.524,20.723c-.836,7.033-3,13.17-3.738,13.885-1.542,1.5-16.609-2.8-14.685-10.9,1.246-5.252,3.92-12.977,3.738-17.445-.547-13.407-3.753-12.436-3.753-12.436L149.453,77.7l-7.21-4.973s10.939-16.658,14.918-19.145,10.971-1.44,10.971-1.44Z"/><path class="cls-5" d="M166.508,49.783l.65-.447c.627-.431,1.632-1.087,2.237-.381a33.649,33.649,0,0,0,5.129,4.717,1.737,1.737,0,0,1,.074,2.6l-2.889,2.919a21.969,21.969,0,0,1-5.227-6.749C165.783,51.107,165.867,50.224,166.508,49.783Z"/><path class="cls-5" d="M187.607,50.4c.015-.983-2.406-2.318-3.583-.616a16.527,16.527,0,0,1-3.1,3.612,1.584,1.584,0,0,0-.292,2.387l2.9,3.225S187.545,54.412,187.607,50.4Z"/><line class="cls-16" x1="183.591" y1="64.664" x2="183.591" y2="70.494"/><path class="cls-5" d="M181.41,67.734l7.521-.133s.178,7.343-3.471,7.61C180.734,75.557,181.41,67.734,181.41,67.734Z"/><circle class="cls-13" cx="174.334" cy="68.936" r="1.103"/><circle class="cls-13" cx="174.334" cy="75.166" r="1.103"/><circle class="cls-13" cx="173.978" cy="82.109" r="1.103"/><circle class="cls-13" cx="173.444" cy="88.695" r="1.103"/><circle class="cls-13" cx="172.91" cy="95.672" r="1.103"/><rect class="cls-17" x="139.35" y="55.917" width="81.097" height="46.644" rx="5.873" transform="translate(-12.269 37.838) rotate(-11.614)"/><path class="cls-13" d="M150.553,92.53l2.83-1.784a.886.886,0,0,1,1.4.39c1.318,2.21,2.926,2.9,4.91,2.488,2.273-.468,3.27-1.838,2.907-3.607-.452-2.2-3.322-2.626-6.223-3.383-3.876-.934-7.367-2.36-8.3-6.906-.638-3.1.9-7.142,6.711-8.336a9.148,9.148,0,0,1,9.865,3.538.883.883,0,0,1-.232,1.439l-3.023,1.937a.957.957,0,0,1-1.454-.3c-1.521-2.095-2.831-2.616-4.346-2.3-1.7.349-2.456,1.407-2.167,2.814.356,1.733,2.5,2.271,5.412,3.1,5.144,1.425,8.221,2.673,9.119,7.038.681,3.319-1,7.951-7.385,9.265-4.944,1.015-8.462-.555-10.409-3.99A.967.967,0,0,1,150.553,92.53Z"/><path class="cls-13" d="M179.926,92.736a27.86,27.86,0,0,1-3.56-5.247l-8.838-17.023a.818.818,0,0,1,.636-1.3l3.138-.646a1.052,1.052,0,0,1,1.3.637l8.165,16.673c.072.173.3.164.288-.06l.82-18.519a1.051,1.051,0,0,1,.941-1.1l2.886-.594c.721-.147,1.128.183,1.095.942l-1.235,19.055a24.524,24.524,0,0,1-1.086,6.241,1.308,1.308,0,0,1-1.051.93l-2.164.445A1.308,1.308,0,0,1,179.926,92.736Z"/><path class="cls-13" d="M204.228,88.944c-6.206,1.276-10.916-2.794-12.658-11.274-1.795-8.731.959-14,7.165-15.274,4.942-1.015,8.075,1.238,10.509,5.211a.9.9,0,0,1-.425,1.4l-3.408,1.716a.936.936,0,0,1-1.383-.506c-1.321-2.586-2.65-3.743-4.381-3.386-2.742.563-3.684,4.4-2.593,9.708s3.4,8.513,6.255,7.928c3.03-.623,3.62-2.512,3.192-5.506a.2.2,0,0,0-.26-.173l-3.465.712a.932.932,0,0,1-1.217-.8l-.482-2.346a.931.931,0,0,1,.8-1.217l7.9-1.624a.934.934,0,0,1,1.219.8l.4,1.948C212.883,83.481,210.326,87.691,204.228,88.944Z"/><path class="cls-4" d="M132.7,78.756c.113-5.434,5.375-5.973,8.912-3.308,3.444,2.6,4.07,10.232.863,11.382S132.582,84.19,132.7,78.756Z"/><path class="cls-4" d="M224.554,86.253c-3.59,3.444-9.666-1.186-8.892-5.165s4.971-7.717,7.791-6.386S228.143,82.81,224.554,86.253Z"/><path class="cls-18" d="M6.3,69.814s15.579-27.1,61.382-17.99,56.8,79.277,99.814,87.828c45.058,8.957,63.065-25.252,63.065-25.252"/><path class="cls-19" d="M6.3,69.814s15.579-27.1,61.382-17.99,56.8,79.277,99.814,87.828c45.058,8.957,63.065-25.252,63.065-25.252"/><rect class="cls-20" x="60.917" y="47.264" width="7.19" height="7.19" transform="translate(11.156 -11.603) rotate(11.244)"/><line class="cls-21" x1="7.415" y1="39.508" x2="121.444" y2="62.178"/><circle class="cls-20" cx="7.963" cy="39.617" r="2.68"/><circle class="cls-20" cx="121.444" cy="62.178" r="2.68"/><rect class="cls-20" x="165.061" y="137.253" width="7.19" height="7.19" transform="translate(306.61 311.88) rotate(-168.756)"/><line class="cls-21" x1="225.753" y1="152.2" x2="111.724" y2="129.529"/><circle class="cls-20" cx="225.206" cy="152.091" r="2.68"/><circle class="cls-20" cx="111.724" cy="129.529" r="2.68"/></svg>