<?xml version="1.0" encoding="utf-8"?>
<!-- Generator: Adobe Illustrator 23.0.6, SVG Export Plug-In . SVG Version: 6.00 Build 0)  -->
<svg version="1.1" id="Layer_1" xmlns="http://www.w3.org/2000/svg" xmlns:xlink="http://www.w3.org/1999/xlink" x="0px" y="0px"
	 viewBox="0 0 556.2 490.9" style="enable-background:new 0 0 556.2 490.9;" xml:space="preserve">
<style type="text/css">
	.st0{fill:#FFFFFF;}
</style>
<g>
	<path class="st0" d="M43.4,111.3c-0.5-3.7-0.4-8.6,1.1-13.7L57,53.1H44.7l0.9-4c16-0.2,36.2-5.6,45.9-29h5.3l-8.1,28.1h20.8
		l-1.1,4.9H87.2l-13,45.7c-0.7,2.5-1.1,5.6-1.1,8.8c0,5.3,2.3,8.4,7.2,8.4c7.2,0,13.5-8.3,19.5-20.2l2.8,1.2
		c-8.1,19.9-19.7,28.5-36.8,28.5C48.5,125.6,44.3,116.8,43.4,111.3z"/>
	<path class="st0" d="M157.2,109.2c0-3.9,1.4-9.1,2.5-12l6-16.4c1.9-5.3,6.5-17.4,6.5-20.4c0-1.6-1.2-2.3-2.3-2.3
		c-6.9,0-21.1,17.2-27.6,39.2l-7.9,27.1h-29.2l30.6-105.9c0.7-2.3,1.1-5.1,1.1-6.5c0-3.2-1.6-4.6-8.1-4.6h-5.3l0.9-3.3l47-4.2
		l-15.5,52.9l-6.5,18.6l0.5,0.2c11.4-17.6,20.8-25.9,33.2-25.9c11.8,0,17.4,7.2,17.4,17.1c0,4.6-3,13.5-4.7,18.1l-5.5,14.1
		c-1.4,3.7-4.6,11.3-4.6,15.5c0,2.5,0.9,4.6,3.7,4.6c3.5,0,7-2.8,13.9-14.2l3,2.1c-6.7,13.2-16.4,22.5-29.9,22.5
		C163,125.6,157.2,119.1,157.2,109.2z"/>
	<path class="st0" d="M215.2,114.5c-0.2-4.6,0.9-9.3,1.9-12.7L229.5,61c0.7-2.5,1.2-4.4,1.2-5.8c0-3.3-2.5-4.2-7.7-4.2h-6l1.1-3.5
		l44.1-2.5c0,5.5-0.7,11.3-4.2,22.5L248.3,99c-1.1,3.2-3,8.6-3,12c0,2.6,0.7,4.2,3.5,4.2c3.2,0,8.3-3.5,14.9-15.3l3.2,2.1
		c-6.7,13.2-17.8,23.6-34.5,23.6C218.4,125.6,215.4,118.4,215.2,114.5z M234.2,23.4c0-8.3,7.2-16,15.8-16c8.8,0,16,7.7,16,16
		c0,8.4-7.2,16-16,16C241.8,39.4,234.2,31.8,234.2,23.4z"/>
	<path class="st0" d="M271,105.5c0-8.3,5.3-13.5,12.5-13.5c5.3,0,11.4,3.5,11.3,11.3c-0.2,8.4-7.9,9.5-7.9,12
		c0,3.7,9.7,6.5,18.5,6.5c10.6,0,16.5-4,16.5-10.7c0-6.5-4.4-10.4-15.5-13.9c-15.1-4.7-23.9-9.8-23.4-23.4
		c0.7-19.3,14.8-28.8,36.8-28.8c17.8,0,29.4,8.4,29.4,18.3c0,6.9-4.2,11.6-11.6,11.6c-5.1,0-10.7-3.5-10.6-10
		c0.2-7.2,4.7-7.7,4.7-10.6c0-3-5.8-5.3-12.1-5.3c-12.1,0-17.1,3.9-17.6,9.1c-0.7,6.5,3.3,9.1,19.3,14.2
		c15.1,4.9,22.7,12.3,22.7,24.3c0,18.8-14.2,29.2-39.2,29.2C286.8,125.7,271,117.5,271,105.5z"/>
	<path class="st0" d="M44.8,270c0-7.4,2.3-15.1,4.7-23.7l6-20.6c0.7-2.5,1.1-4.4,1.1-5.8c0-3.3-2.3-4.2-7.6-4.2h-5.8l1.1-3.5
		l44.1-1.2c0,5.5-2.3,14.2-4.6,22.3l-3.5,12.1c-2.5,8.8-5.3,20.8-5.3,26.4c0,5.8,1.9,9.3,6.9,9.3c6.2,0,13-11.3,16-21.6l12.8-47.5
		h30.1l-9,34.8c-2.6,10.2-5.1,18.6-5.1,24.4c0,7.4,3.2,10.4,7.9,10.4c12.7,0,27.8-26,27.8-42.7c0-5.8-4.9-8.8-7.7-11.6
		c-3.2-3.2-4.7-6.2-4.7-9.7c0-5.1,4-8.1,8.3-8.1c7.4,0,12,7.9,12,17.6c0,26.9-17.4,63-47,63c-16.5,0-24.4-6.9-25.1-20.9h-0.4
		C91.1,283.5,83.5,290,68.6,290C54.9,290,44.8,283.7,44.8,270z"/>
	<path class="st0" d="M181.1,278.9c-0.2-4.6,0.9-9.3,1.9-12.7l12.3-40.8c0.7-2.5,1.2-4.4,1.2-5.8c0-3.3-2.5-4.2-7.7-4.2h-6l1.1-3.5
		l44.1-2.5c0,5.5-0.7,11.3-4.2,22.5l-9.7,31.5c-1.1,3.2-3,8.6-3,12c0,2.6,0.7,4.2,3.5,4.2c3.2,0,8.3-3.5,14.9-15.3l3.2,2.1
		c-6.7,13.2-17.8,23.6-34.5,23.6C184.3,290,181.3,282.8,181.1,278.9z M200.1,187.8c0-8.3,7.2-16,15.8-16c8.8,0,16,7.7,16,16
		c0,8.4-7.2,16-16,16C207.7,203.8,200.1,196.3,200.1,187.8z"/>
	<path class="st0" d="M240.4,278.9c-0.2-4.6,0.7-9.1,1.8-12.7l23.9-83.9c0.7-2.5,1.2-4.6,1.2-6.2c0-3.5-2.3-4.2-7.6-4.2h-5.1
		l1.1-3.5l45.7-3.7l-28.1,98.7c-0.9,3-2.8,8.6-2.8,12c0,2.6,0.7,4.2,3.5,4.2c3.2,0,8.3-3.5,14.9-15.3l3.2,2.1
		c-6.7,13.2-17.8,23.6-34.5,23.6C243.6,290,240.6,282.8,240.4,278.9z"/>
	<path class="st0" d="M297.5,278.9c-0.2-4.6,0.7-9.1,1.8-12.7l23.9-83.9c0.7-2.5,1.2-4.6,1.2-6.2c0-3.5-2.3-4.2-7.6-4.2h-5.1
		l1.1-3.5l45.7-3.7l-28.1,98.7c-0.9,3-2.8,8.6-2.8,12c0,2.6,0.7,4.2,3.5,4.2c3.2,0,8.3-3.5,14.9-15.3l3.2,2.1
		c-6.7,13.2-17.8,23.6-34.5,23.6C300.7,290,297.7,282.8,297.5,278.9z"/>
	<path class="st0" d="M391.3,261.9c0-4.9,0.7-9.8,1.9-14.1l18.8-65.9c0.7-2.6,1.2-4.6,1.2-5.8c-0.2-3.3-2.3-4-7.6-4h-3.5l1.1-3.5
		l42.4-4l-12.5,43.6c0,0-4.2,13.2-6.5,19.9h0.7c5.8-10.7,14.1-17.6,25.7-17.6c9.7,0,18.1,5.8,18.1,24.8
		c-0.2,23.9-14.8,55.2-48.7,55.2C399.9,290.4,391.3,278.2,391.3,261.9z M440.9,251.5c1.9-8.3,3.2-15.3,3.2-20.9
		c0-4.9-0.7-8.4-4.2-8.4c-5.6,0-14.1,10.2-20,29.4c-1.9,6.3-4,16.7-4,21.8c0,9,2.3,12.1,6.7,12.1
		C430.3,285.4,437.2,267.5,440.9,251.5z"/>
	<path class="st0" d="M477.8,260.3c0-29.5,24.4-51,57.7-51c12.3,0,20.8,6.3,20.8,16.4c0,22.9-34.5,27.4-47.1,29.4
		c-0.2,1.1-0.5,6-0.5,7c0,9.1,2.1,18.5,12.5,18.5c6.9,0,15.7-3.9,24.3-16.5l3.2,2.3c-9.8,14.9-22.5,24.1-40.6,24.1
		C490.1,290.4,477.8,279.5,477.8,260.3z M533,221.2c0-5.5-1.8-7.9-4.6-7.9c-8.8,0-15.7,16-19,37.6C526.2,247.8,533,235.8,533,221.2z
		"/>
	<path class="st0" d="M0,476.6c0-8.3,5.3-13.7,13-13.7c8.3,0,12.3,5.3,12.3,14.1c0,6.2-2.5,9,0.4,9c4.2,0,9.1-9.8,12.1-22.9
		l19.3-81.8H45.9l1.2-4.9h11.3L60,369c6.9-32,31.5-38.9,45.5-38.9c17.9,0,26.9,8.8,26.9,18.5c0,7.7-5.3,15.3-13.9,15.3
		c-6.7,0-11.8-4.9-11.8-11.4c0-10,6.2-11.6,6.2-14.9c0-2.3-1.2-3.2-4-3.2c-2.1,0-9.7,0.9-16.2,27.6l-3.5,14.4h17.4l-1.2,4.9H88.1
		l-10,40.3c-15.5,63.1-35.5,69.3-58,69.3C8.1,490.9,0,484.9,0,476.6z"/>
	<path class="st0" d="M104.3,439.2c0-5.6,2.6-12.3,5.3-19.7l10.7-29.4c0.9-2.6,1.2-4.4,1.2-5.8c0-3.2-2.5-4.2-7.7-4.2h-5.5l1.1-3.5
		l43.3-1.6c0.2,5.5-0.7,11.6-4.6,22.2l-8.6,22.5c-2.3,6.2-5.3,13.9-5.3,18.3c0,2.8,0.9,4.4,3.3,4.4c7.9,0,20-22.2,26-41.5l7.4-24.1
		h29.5L185.9,424c-1.2,4.2-4,11.6-4,16c0,3.7,2.3,4,3.7,4c3.5,0,8.3-4,13.9-14.2l3,2.1c-6.7,13.2-15.7,22.5-31,22.5
		c-13.7,0-17.4-8.1-17.4-14.6c0-2.3,0.4-5.1,1.4-8.3l1.1-3.2l-0.5-0.2c-7.4,16.2-17.2,26.2-35,26.2
		C110.3,454.5,104.3,448,104.3,439.2z"/>
	<path class="st0" d="M259.6,438.1c0-3.9,1.4-9.1,2.5-12l6.2-16.7c4.2-11.4,6.5-16.9,6.5-20c0-1.4-1.2-2.3-2.5-2.3
		c-6.9,0-21.1,17.2-27.6,39.2l-7.9,27.1H207l19.3-63.1c0.5-1.9,1.1-4.4,1.1-5.8c0-3.2-1.6-4.6-8.1-4.6h-5.6l1.1-3.5l42.7-1.4
		c0,7-1.1,14.1-4.6,22.5l-1.2,3l0.5,0.2c11.4-17.6,20.8-25.9,33.2-25.9c11.8,0,17.4,7.2,17.4,17.1c0,4.6-3,13.5-4.7,18.1l-5.5,14.1
		c-1.4,3.7-4.6,11.3-4.6,15.5c0,2.5,0.9,4.6,3.7,4.6c3.5,0,7-2.8,13.9-14.2l3,2.1c-6.7,13.2-16.4,22.5-29.9,22.5
		C265.4,454.5,259.6,448,259.6,438.1z"/>
	<path class="st0" d="M313.4,440.2c0-8.3,6.7-14.9,14.9-14.9c8.3,0,14.9,6.7,14.9,14.9s-6.7,14.8-14.9,14.8
		C320.1,455,313.4,448.5,313.4,440.2z M334.3,370c-0.2-6.5-0.2-14.6,1.4-20.4c4-14.2,12.7-17.4,22.3-17.4c10.7,0,15.1,8.8,12.8,19.2
		c-1.4,6.3-6.7,14.2-12,23c-9.1,15.1-18.8,30.6-21.6,39h-4C335.7,404.7,334.5,387.6,334.3,370z"/>
</g>
</svg>
