<?xml version="1.0" encoding="utf-8"?>
<!-- Generator: Adobe Illustrator 23.1.1, SVG Export Plug-In . SVG Version: 6.00 Build 0)  -->
<svg version="1.1" id="Layer_1" xmlns="http://www.w3.org/2000/svg" xmlns:xlink="http://www.w3.org/1999/xlink" x="0px" y="0px"
	 viewBox="0 0 142.2 142.6" style="enable-background:new 0 0 142.2 142.6;" xml:space="preserve">
<style type="text/css">
	.st0{fill:#FF6365;stroke:#001741;stroke-width:6;stroke-miterlimit:10;}
	.st1{fill:#001741;}
	.st2{fill:#FF6365;}
	.st3{fill:#FFFFFF;stroke:#001741;stroke-width:6.025;stroke-miterlimit:10;}
	.st4{fill:#FFFFFF;}
	.st5{fill:none;stroke:#001741;stroke-width:4;stroke-linecap:round;stroke-miterlimit:10;}
</style>
<title>very-small</title>
<path class="st0" d="M133.4,139.6H8.8c-3.2,0-5.8-2.6-5.8-5.8V9.2C3,6,5.6,3.4,8.8,3.4h18.1l3.9,2.7h79.4l4.8-2.7h13.5
	c1.3,0,2.6,0.4,3.6,1.3l4.9,3.9c1.4,1.1,2.2,2.8,2.2,4.5v120.7C139.2,137,136.6,139.6,133.4,139.6
	C133.4,139.6,133.4,139.6,133.4,139.6z"/>
<path class="st1" d="M39.5,0h65.3c0.9,0,1.7,0.8,1.7,1.7v31.8c0,2.6-2.1,4.7-4.7,4.7l0,0H42.5c-2.6,0-4.7-2.1-4.7-4.7V1.7
	C37.8,0.8,38.5,0,39.5,0z"/>
<path class="st2" d="M87,6.6h10.9c1,0,1.9,0.8,1.9,1.9v23.8c0,1-0.8,1.9-1.9,1.9H87c-1,0-1.9-0.8-1.9-1.9V8.5
	C85.1,7.4,86,6.6,87,6.6z"/>
<path class="st3" d="M30.6,64.6h81.7c5,0,9.1,4.1,9.1,9.1v60.9c0,2.6-2.1,4.7-4.7,4.7H26.2c-2.6,0-4.7-2.1-4.7-4.7l0,0V73.7
	C21.5,68.7,25.6,64.6,30.6,64.6z"/>
<path class="st4" d="M72.4,24.2l-1.2-2.4c0,0-0.1,0-0.1,0l-0.4,0.5c0,0,0,0,0,0.1v1.7c0,0.1-0.1,0.2-0.2,0.3c0,0,0,0-0.1,0h-1.1
	c-0.1,0-0.2-0.1-0.3-0.2c0,0,0,0,0-0.1V18c0-0.1,0.1-0.2,0.2-0.3c0,0,0,0,0.1,0h1.1c0.1,0,0.2,0.1,0.3,0.2c0,0,0,0,0,0.1v1.9
	c0,0,0,0.1,0.1,0l1.4-2c0.1-0.1,0.2-0.2,0.3-0.2h1.2c0.2,0,0.3,0.1,0.2,0.3l-1.6,2.2c0,0,0,0.1,0,0.1l1.9,3.8c0.1,0.2,0,0.3-0.2,0.3
	h-1.3C72.5,24.4,72.4,24.3,72.4,24.2z"/>
<path class="st4" d="M78.1,20.9c0.8,0.1,1.4,0.9,1.4,1.7c0,1.2-0.8,1.8-2.4,1.8h-2c-0.1,0-0.2-0.1-0.3-0.2c0,0,0,0,0-0.1V18
	c0-0.1,0.1-0.2,0.2-0.3c0,0,0,0,0.1,0h2c1.4,0,2.2,0.7,2.2,1.8C79.3,20.2,78.8,20.8,78.1,20.9C78.1,20.9,78.1,20.9,78.1,20.9z
	 M76.5,18.9C76.5,18.9,76.4,18.9,76.5,18.9C76.4,19,76.4,19,76.5,18.9l-0.1,1.5c0,0,0,0.1,0,0.1c0,0,0,0,0,0h0.4
	c0.5,0,0.6-0.3,0.6-0.8s-0.2-0.7-0.7-0.7L76.5,18.9z M77.8,22.5c0-0.6-0.3-0.9-0.9-0.9h-0.4c0,0-0.1,0-0.1,0c0,0,0,0,0,0v1.5
	c0,0,0,0.1,0,0.1c0,0,0,0,0,0h0.4C77.5,23.2,77.8,23,77.8,22.5L77.8,22.5z"/>
<path class="st1" d="M37.4,85.9c0.2,0.7,0.4,1.4,0.6,2.1l0.7,2.5c0,0.1,0.1,0.1,0.1,0l0.4-6.8c0-0.3,0.2-0.5,0.5-0.5c0,0,0,0,0,0
	h1.6c0.3,0,0.5,0.2,0.5,0.4c0,0,0,0.1,0,0.1l-0.8,9.2c-0.1,1.2-0.3,2.5-0.6,3.7c-0.1,0.3-0.3,0.5-0.6,0.4h-1.1
	c-0.3,0-0.5-0.1-0.6-0.4c-0.4-0.9-0.6-1.8-0.9-2.7L36.5,91c0,0,0-0.1-0.1-0.1c0,0-0.1,0-0.1,0.1l-0.8,2.8c-0.3,0.9-0.6,1.8-1,2.7
	c-0.1,0.3-0.3,0.4-0.6,0.4h-1c-0.3,0-0.5-0.2-0.6-0.4c-0.4-1.2-0.6-2.4-0.8-3.7l-0.8-9.2c-0.1-0.3,0.1-0.5,0.4-0.6
	c0.1,0,0.1,0,0.2,0h1.7c0.3,0,0.5,0.2,0.6,0.5c0,0,0,0,0,0l0.4,6.9c0,0.1,0.1,0.1,0.1,0l0.7-2.6c0.3-1,0.4-1.6,0.6-2.1
	c0.1-0.3,0.3-0.4,0.6-0.4h0.6C37.1,85.5,37.4,85.7,37.4,85.9z"/>
<path class="st1" d="M52.1,85.8H47c-0.1,0-0.1,0-0.1,0.1c0,0,0,0,0,0v2.4c0,0.1,0,0.1,0.1,0.1c0,0,0,0,0,0h4.2
	c0.3,0,0.5,0.2,0.5,0.4c0,0,0,0.1,0,0.1v1.6c0,0.3-0.2,0.5-0.4,0.5c0,0-0.1,0-0.1,0H47c-0.1,0-0.1,0-0.1,0.1c0,0,0,0,0,0v2.8
	c0,0.1,0,0.1,0.1,0.1c0,0,0,0,0,0h5.1c0.3,0,0.5,0.2,0.5,0.4c0,0,0,0.1,0,0.1v1.6c0,0.3-0.2,0.5-0.4,0.5c0,0-0.1,0-0.1,0h-8
	c-0.3,0-0.5-0.2-0.5-0.4c0,0,0-0.1,0-0.1V83.7c0-0.3,0.2-0.5,0.4-0.5c0,0,0.1,0,0.1,0h8c0.3,0,0.5,0.2,0.5,0.4c0,0,0,0.1,0,0.1v1.6
	c0,0.3-0.2,0.5-0.4,0.5C52.2,85.8,52.1,85.8,52.1,85.8z"/>
<path class="st1" d="M62.1,89.7c1.7,0.3,2.9,1.8,2.8,3.5c0,2.5-1.7,3.7-5,3.7h-4.2c-0.3,0-0.5-0.2-0.5-0.4c0,0,0-0.1,0-0.1V83.7
	c0-0.3,0.2-0.5,0.4-0.5c0,0,0.1,0,0.1,0H60c2.9,0,4.5,1.4,4.5,3.7C64.5,88.3,63.5,89.5,62.1,89.7C62,89.7,62,89.7,62.1,89.7z
	 M58.7,85.6c-0.1,0-0.1,0-0.1,0.1c0,0,0,0,0,0v3c0,0.1,0,0.1,0.1,0.1c0,0,0,0,0,0h0.8c1,0,1.3-0.6,1.3-1.7s-0.5-1.5-1.5-1.5H58.7z
	 M61.4,93c0-1.3-0.6-1.8-1.8-1.8h-0.8c-0.1,0-0.1,0-0.1,0.1c0,0,0,0,0,0v3.1c0,0.1,0,0.1,0.1,0.1c0,0,0,0,0,0h0.8
	C60.8,94.5,61.4,94.1,61.4,93z"/>
<path class="st1" d="M66.6,93.2l2.1-0.8c0.4-0.1,0.6,0,0.7,0.4c0.4,1.2,1,1.7,2,1.7c1,0,1.6-0.4,1.6-1.3c0-0.9-1.2-1.3-2.5-1.9
	c-2.1-0.9-3.8-2.1-3.8-4.8c0-1.8,1.3-3.8,4.6-3.8c2.1-0.1,4.1,1.1,5,3c0.1,0.2,0.1,0.5-0.2,0.7c0,0-0.1,0-0.1,0.1l-2.3,0.8
	c-0.3,0.1-0.6,0-0.7-0.2c0,0,0-0.1,0-0.1c-0.5-1.2-1.1-1.5-1.8-1.5c-0.7,0-1.1,0.3-1.1,0.9c0,0.8,0.9,1.2,2.2,1.9
	c2.9,1.5,4.2,2.4,4.2,4.7c0,1.9-1.4,4.2-5,4.2c-2.8,0-4.5-1.2-5.2-3.4C66.1,93.6,66.2,93.3,66.6,93.2C66.5,93.2,66.6,93.2,66.6,93.2
	z"/>
<path class="st1" d="M87.3,85.6H85c-0.1,0-0.1,0-0.1,0.1c0,0,0,0,0,0v8.5c0,0.1,0,0.1,0.1,0.1c0,0,0,0,0,0h2.3
	c0.3,0,0.5,0.2,0.5,0.4c0,0,0,0.1,0,0.1v1.4c0,0.3-0.2,0.5-0.4,0.5c0,0-0.1,0-0.1,0h-8.2c-0.3,0-0.5-0.2-0.5-0.4c0,0,0-0.1,0-0.1V95
	c0-0.3,0.2-0.5,0.4-0.5c0,0,0.1,0,0.1,0h2.3c0.1,0,0.1,0,0.1-0.1c0,0,0,0,0,0v-8.5c0-0.1,0-0.1-0.1-0.1c0,0,0,0,0,0h-2.3
	c-0.3,0-0.5-0.2-0.5-0.4c0,0,0-0.1,0-0.1v-1.4c0-0.3,0.2-0.5,0.4-0.5c0,0,0.1,0,0.1,0h8.2c0.3,0,0.5,0.2,0.5,0.4c0,0,0,0.1,0,0.1
	v1.4c0,0.3-0.2,0.5-0.4,0.5C87.3,85.6,87.3,85.6,87.3,85.6z"/>
<path class="st1" d="M99.7,83.7v1.6c0,0.3-0.2,0.5-0.4,0.5c0,0-0.1,0-0.1,0h-2.4c-0.1,0-0.1,0-0.1,0.1c0,0,0,0,0,0v10.4
	c0,0.3-0.2,0.5-0.4,0.5c0,0-0.1,0-0.1,0h-2.3c-0.3,0-0.5-0.2-0.5-0.4c0,0,0-0.1,0-0.1V86c0-0.1,0-0.1-0.1-0.1c0,0,0,0,0,0h-2.4
	c-0.3,0-0.5-0.2-0.5-0.4c0,0,0-0.1,0-0.1v-1.6c0-0.3,0.2-0.5,0.4-0.5c0,0,0.1,0,0.1,0h8.5c0.3,0,0.5,0.2,0.5,0.4
	C99.7,83.6,99.7,83.6,99.7,83.7z"/>
<path class="st1" d="M110.6,85.8h-5.1c-0.1,0-0.1,0-0.1,0.1c0,0,0,0,0,0v2.4c0,0.1,0,0.1,0.1,0.1c0,0,0,0,0,0h4.2
	c0.3,0,0.5,0.2,0.5,0.4c0,0,0,0.1,0,0.1v1.6c0,0.3-0.2,0.5-0.4,0.5c0,0-0.1,0-0.1,0h-4.2c-0.1,0-0.1,0-0.1,0.1c0,0,0,0,0,0v2.8
	c0,0.1,0,0.1,0.1,0.1c0,0,0,0,0,0h5.1c0.3,0,0.5,0.2,0.5,0.4c0,0,0,0.1,0,0.1v1.6c0,0.3-0.2,0.5-0.4,0.5c0,0-0.1,0-0.1,0h-8
	c-0.3,0-0.5-0.2-0.5-0.4c0,0,0-0.1,0-0.1V83.7c0-0.3,0.2-0.5,0.4-0.5c0,0,0.1,0,0.1,0h8c0.3,0,0.5,0.2,0.5,0.4c0,0,0,0.1,0,0.1v1.6
	c0,0.3-0.2,0.5-0.4,0.5C110.7,85.8,110.6,85.8,110.6,85.8z"/>
<path class="st1" d="M35.7,118c0,2.8-1.3,4.1-3.3,4.1h-2.1c-0.2,0-0.3-0.1-0.3-0.3c0,0,0,0,0-0.1v-7.6c0-0.2,0.1-0.3,0.3-0.3
	c0,0,0,0,0.1,0h2.1C34.4,113.9,35.7,115.1,35.7,118z M33.6,118c0-1.8-0.5-2.5-1.4-2.5h-0.2c0,0-0.1,0-0.1,0.1c0,0,0,0,0,0v4.8
	c0,0,0,0.1,0.1,0.1c0,0,0,0,0,0h0.2C33.1,120.5,33.6,119.8,33.6,118z"/>
<path class="st1" d="M36.4,118c0-2.6,1.2-4.3,3.2-4.3c2,0,3.2,1.7,3.2,4.3c0,2.6-1.2,4.3-3.2,4.3C37.6,122.3,36.4,120.5,36.4,118z
	 M40.7,118c0-1.6-0.3-2.6-1.1-2.6c-0.8,0-1.1,1-1.1,2.6s0.3,2.6,1.1,2.6C40.4,120.6,40.7,119.5,40.7,118z"/>
<path class="st1" d="M49.1,117.6v4.1c0,0.2-0.1,0.3-0.3,0.3c0,0,0,0-0.1,0h-1.1c-0.2,0-0.3-0.1-0.3-0.3c0,0,0,0,0-0.1v-7.6
	c0-0.2,0.1-0.3,0.3-0.3c0,0,0,0,0.1,0h1.2c0.1,0,0.3,0.1,0.4,0.2c0.2,0.3,0.4,0.7,0.6,1.1l1.4,3.3c0,0.1,0.1,0,0.1,0v-4.2
	c0-0.2,0.1-0.3,0.3-0.3c0,0,0,0,0.1,0h1.1c0.2,0,0.3,0.1,0.3,0.3c0,0,0,0,0,0.1v7.6c0,0.2-0.1,0.3-0.3,0.3c0,0,0,0-0.1,0h-1.1
	c-0.2,0-0.3-0.1-0.4-0.2c-0.3-0.4-0.5-0.8-0.7-1.3L49.1,117.6C49.1,117.5,49.1,117.5,49.1,117.6z"/>
<path class="st1" d="M53.9,118c0-2.6,1.2-4.3,3.2-4.3c2,0,3.2,1.7,3.2,4.3c0,2.6-1.2,4.3-3.2,4.3C55.1,122.3,53.9,120.5,53.9,118z
	 M58.2,118c0-1.6-0.3-2.6-1.1-2.6c-0.8,0-1.1,1-1.1,2.6s0.3,2.6,1.1,2.6C57.9,120.6,58.2,119.5,58.2,118L58.2,118z"/>
<path class="st1" d="M66.9,114.2v1c0,0.2-0.1,0.3-0.3,0.3c0,0,0,0-0.1,0h-1.4c0,0-0.1,0-0.1,0.1c0,0,0,0,0,0v6.2
	c0,0.2-0.1,0.3-0.3,0.3c0,0,0,0-0.1,0h-1.4c-0.2,0-0.3-0.1-0.3-0.3c0,0,0,0,0-0.1v-6.2c0,0,0-0.1-0.1-0.1c0,0,0,0,0,0h-1.4
	c-0.2,0-0.3-0.1-0.3-0.3c0,0,0,0,0-0.1v-1c0-0.2,0.1-0.3,0.3-0.3c0,0,0,0,0.1,0h5C66.7,113.9,66.9,114,66.9,114.2
	C66.9,114.2,66.9,114.2,66.9,114.2z"/>
<path class="st1" d="M78,115.5h-3c0,0-0.1,0-0.1,0.1c0,0,0,0,0,0v1.4c0,0,0,0.1,0.1,0.1c0,0,0,0,0,0h2.5c0.2,0,0.3,0.1,0.3,0.3
	c0,0,0,0,0,0.1v1c0,0.2-0.1,0.3-0.3,0.3c0,0,0,0-0.1,0H75c0,0-0.1,0-0.1,0.1c0,0,0,0,0,0v1.6c0,0,0,0.1,0.1,0.1c0,0,0,0,0,0h3
	c0.2,0,0.3,0.1,0.3,0.3c0,0,0,0,0,0.1v1c0,0.2-0.1,0.3-0.3,0.3c0,0,0,0-0.1,0h-4.8c-0.2,0-0.3-0.1-0.3-0.3c0,0,0,0,0-0.1v-7.6
	c0-0.2,0.1-0.3,0.3-0.3c0,0,0,0,0.1,0H78c0.2,0,0.3,0.1,0.3,0.3c0,0,0,0,0,0.1v1C78.3,115.3,78.2,115.5,78,115.5
	C78,115.5,78,115.5,78,115.5z"/>
<path class="st1" d="M83.7,121.8l-1.1-2.7c0,0,0-0.1-0.1-0.1h-0.5c0,0-0.1,0-0.1,0.1c0,0,0,0,0,0v2.6c0,0.2-0.1,0.3-0.3,0.3
	c0,0,0,0-0.1,0h-1.4c-0.2,0-0.3-0.1-0.3-0.3c0,0,0,0,0-0.1v-7.6c0-0.2,0.1-0.3,0.3-0.3c0,0,0,0,0.1,0h2.5c1.8,0,2.8,0.8,2.8,2.6
	c0.1,0.9-0.3,1.8-1.2,2.3c0,0-0.1,0.1,0,0.1c0.3,0.5,0.6,1,0.8,1.5l0.6,1.4c0.1,0.2,0,0.4-0.2,0.4H84
	C83.9,122.1,83.7,122,83.7,121.8z M81.9,115.6v1.9c0,0,0,0.1,0.1,0.1c0,0,0,0,0,0h0.6c0.6,0,0.9-0.3,0.9-1s-0.3-1-0.9-1L81.9,115.6
	C81.9,115.5,81.9,115.5,81.9,115.6C81.9,115.6,81.9,115.6,81.9,115.6z"/>
<path class="st1" d="M90.7,121.8l-0.3-1.2c0,0,0-0.1-0.1-0.1h-1.9c0,0-0.1,0-0.1,0.1l-0.3,1.2c0,0.2-0.2,0.3-0.4,0.3h-1.2
	c-0.2,0-0.3-0.1-0.3-0.4l1.5-5.5c0.2-0.8,0.5-1.5,0.9-2.1c0.1-0.1,0.2-0.2,0.4-0.2h0.8c0.2,0,0.3,0.1,0.4,0.2
	c0.4,0.7,0.7,1.4,0.9,2.1l1.5,5.5c0.1,0.2,0,0.4-0.3,0.4h-1.3C90.9,122.1,90.7,122,90.7,121.8z M88.8,119.2H90c0,0,0.1,0,0.1-0.1
	l-0.6-2.6c0,0,0,0,0,0c0,0,0,0,0,0L88.8,119.2C88.8,119.1,88.8,119.2,88.8,119.2L88.8,119.2z"/>
<path class="st1" d="M93.5,119.9l1.3-0.5c0.2-0.1,0.3,0,0.4,0.2c0.2,0.7,0.6,1,1.2,1c0.6,0,0.9-0.3,0.9-0.8c0-0.5-0.7-0.8-1.5-1.1
	c-1.2-0.6-2.3-1.3-2.3-2.8c0-1.1,0.8-2.2,2.7-2.2c1.3-0.1,2.5,0.6,3,1.8c0.1,0.1,0,0.3-0.1,0.4c0,0-0.1,0-0.1,0l-1.4,0.5
	c-0.2,0.1-0.3,0-0.4-0.1c0,0,0,0,0-0.1c-0.3-0.7-0.6-0.9-1.1-0.9s-0.7,0.2-0.7,0.5c0,0.5,0.5,0.7,1.3,1.1c1.7,0.9,2.5,1.4,2.5,2.8
	c0,1.1-0.9,2.5-3,2.5c-1.4,0.2-2.7-0.7-3.1-2C93.2,120.1,93.3,119.9,93.5,119.9C93.5,119.9,93.5,119.9,93.5,119.9z"/>
<path class="st1" d="M105.7,115.5h-3c0,0-0.1,0-0.1,0.1c0,0,0,0,0,0v1.4c0,0,0,0.1,0.1,0.1c0,0,0,0,0,0h2.5c0.2,0,0.3,0.1,0.3,0.3
	c0,0,0,0,0,0.1v1c0,0.2-0.1,0.3-0.3,0.3c0,0,0,0-0.1,0h-2.5c0,0-0.1,0-0.1,0.1c0,0,0,0,0,0v1.6c0,0,0,0.1,0.1,0.1c0,0,0,0,0,0h3
	c0.2,0,0.3,0.1,0.3,0.3c0,0,0,0,0,0.1v1c0,0.2-0.1,0.3-0.3,0.3c0,0,0,0-0.1,0h-4.8c-0.2,0-0.3-0.1-0.3-0.3c0,0,0,0,0-0.1v-7.6
	c0-0.2,0.1-0.3,0.3-0.3c0,0,0,0,0.1,0h4.8c0.2,0,0.3,0.1,0.3,0.3c0,0,0,0,0,0.1v1C106.1,115.3,105.9,115.5,105.7,115.5
	C105.8,115.5,105.7,115.5,105.7,115.5z"/>
<path class="st1" d="M109,121c0-0.7,0.6-1.3,1.3-1.3c0.7,0,1.3,0.6,1.3,1.3c0,0.7-0.6,1.3-1.3,1.3C109.6,122.2,109,121.7,109,121z
	 M109.5,118.6l-0.2-2.1v-2.3c0-0.2,0.1-0.3,0.3-0.3c0,0,0,0,0.1,0h1.4c0.2,0,0.3,0.1,0.3,0.3c0,0,0,0,0,0.1v2.3l-0.2,2.1
	c0,0.2-0.2,0.3-0.3,0.3c0,0,0,0,0,0h-0.9C109.6,118.9,109.5,118.8,109.5,118.6C109.5,118.6,109.5,118.6,109.5,118.6L109.5,118.6z"/>
<line class="st5" x1="31.6" y1="105" x2="111.4" y2="105"/>
<g>
	<path class="st4" d="M48.3,24.5h-5.6c-0.3,0-0.4-0.1-0.4-0.4v-1.9c0-1.1,0.8-1.9,2.1-2.8l0.7-0.5c1.3-0.9,1.5-1.2,1.5-2
		c0-0.6-0.4-1-1-1c-0.6,0-1.1,0.4-1.4,1c-0.1,0.2-0.3,0.3-0.5,0.2l-1.1-0.5c-0.2-0.1-0.3-0.3-0.2-0.5c0.5-1.2,1.6-2,3.2-2
		c2,0,3.2,1.1,3.2,2.7c0,1.5-0.5,2.2-2.2,3.2l-0.7,0.4c-1.1,0.7-1.5,1.1-1.5,1.7v0.4c0,0.1,0,0.1,0.1,0.1h3.9c0.3,0,0.4,0.1,0.4,0.4
		v0.9C48.7,24.4,48.5,24.5,48.3,24.5z"/>
	<path class="st4" d="M55.3,22.8h1.8c0.3,0,0.4,0.1,0.4,0.4v0.9c0,0.3-0.1,0.4-0.4,0.4h-6c-0.3,0-0.4-0.1-0.4-0.4v-0.9
		c0-0.3,0.1-0.4,0.4-0.4h2c0,0,0.1,0,0.1-0.1v-6.1c0-0.1,0-0.1-0.1-0.1c-0.4,0.2-1,0.3-1.4,0.4c-0.3,0-0.4-0.1-0.4-0.3l-0.1-1
		c0-0.3,0.1-0.4,0.4-0.4c0.7-0.1,1.4-0.3,1.9-0.6c0.2-0.1,0.3-0.1,0.5-0.1h1c0.3,0,0.4,0.1,0.4,0.4L55.3,22.8
		C55.2,22.8,55.2,22.8,55.3,22.8z"/>
	<path class="st4" d="M66,18.9c0,3.6-1.1,5.8-3.9,5.8c-1.5,0-2.6-0.6-3.2-2c-0.1-0.2,0-0.4,0.2-0.5l1.3-0.4c0.2-0.1,0.4,0,0.5,0.3
		c0.3,0.7,0.6,1,1.2,1c1,0,1.7-0.8,1.8-3c0-0.1,0-0.1-0.1,0c-0.6,0.6-1.3,0.9-1.9,0.9c-1.9,0-3.2-1.3-3.2-3.3c0-2.1,1.6-3.3,3.6-3.3
		C64.4,14.2,66,15.5,66,18.9z M63.8,18c0,0,0-0.1,0-0.1c-0.2-1.4-0.6-2-1.6-2c-0.9,0-1.5,0.5-1.5,1.6c0,1,0.5,1.6,1.2,1.6
		C62.7,19.1,63.3,18.8,63.8,18z"/>
</g>
</svg>
