<svg id="Layer_1" data-name="Layer 1" xmlns="http://www.w3.org/2000/svg" viewBox="0 0 142.186 142.608"><defs><style>.cls-1,.cls-3{fill:#ff6365;}.cls-1,.cls-4,.cls-6{stroke:#001741;stroke-miterlimit:10;}.cls-1{stroke-width:6px;}.cls-2{fill:#001741;}.cls-4,.cls-5{fill:#fff;}.cls-4{stroke-width:6.025px;}.cls-6{fill:none;stroke-linecap:round;stroke-width:4px;}</style></defs><title>very-small</title><path class="cls-1" d="M133.4,139.608H8.788A5.788,5.788,0,0,1,3,133.82V9.21A5.788,5.788,0,0,1,8.788,3.422h18.1L30.775,6.11h79.441L115,3.422h13.513a5.791,5.791,0,0,1,3.6,1.253L137,8.553a5.789,5.789,0,0,1,2.191,4.535V133.82A5.788,5.788,0,0,1,133.4,139.608Z"/><path class="cls-2" d="M39.469,0h65.323a1.684,1.684,0,0,1,1.684,1.684V33.5a4.731,4.731,0,0,1-4.731,4.731H42.517A4.731,4.731,0,0,1,37.786,33.5V1.684A1.684,1.684,0,0,1,39.469,0Z"/><rect class="cls-3" x="85.125" y="6.594" width="14.634" height="27.57" rx="1.878"/><path class="cls-4" d="M30.615,64.6h81.7a9.1,9.1,0,0,1,9.1,9.1v60.871a4.668,4.668,0,0,1-4.668,4.668H26.183a4.668,4.668,0,0,1-4.668-4.668V73.7A9.1,9.1,0,0,1,30.615,64.6Z"/><path class="cls-5" d="M48.6,21.184c0,2.208-1.732,3.421-3.753,3.421-2.223,0-3.9-1.285-3.9-4.85,0-3.666,1.169-5.832,4.085-5.832A3.449,3.449,0,0,1,48.5,16.017a.374.374,0,0,1-.246.534l-1.673.591a.366.366,0,0,1-.52-.259c-.26-.694-.477-.91-1.025-.91-.809,0-1.429.563-1.559,2.5-.015.087.072.087.145.015a2.534,2.534,0,0,1,1.645-.708A3.194,3.194,0,0,1,48.6,21.184Zm-2.555,0c0-.823-.375-1.342-.953-1.342a2.061,2.061,0,0,0-1.573.837.167.167,0,0,0-.043.115c.115,1.155.447,1.762,1.386,1.762C45.572,22.556,46.048,22.151,46.048,21.184Z"/><path class="cls-5" d="M49.7,22.165a.366.366,0,0,1,.274-.5l1.616-.491a.376.376,0,0,1,.5.288c.26.809.651,1.054,1.2,1.054.722,0,1.1-.592,1.1-1.487,0-1.082-.462-1.5-1.1-1.5a2.63,2.63,0,0,0-1.4.462A.438.438,0,0,1,51.32,20l-.967-.664a.535.535,0,0,1-.231-.5l.419-4.3a.406.406,0,0,1,.432-.39h4.951a.365.365,0,0,1,.405.4v1.213a.365.365,0,0,1-.405.4H52.475c-.044,0-.1.043-.1.086l-.145,1.444c0,.072.029.1.1.057a2.752,2.752,0,0,1,1.4-.317c1.7,0,3.262,1.054,3.262,3.594a3.468,3.468,0,0,1-3.7,3.58A3.371,3.371,0,0,1,49.7,22.165Z"/><path class="cls-5" d="M65.974,20.751v1.112a.365.365,0,0,1-.4.4h-.477a.077.077,0,0,0-.087.086v1.631a.366.366,0,0,1-.4.4H63.044a.366.366,0,0,1-.4-.4V22.353a.076.076,0,0,0-.087-.086H58.627a.366.366,0,0,1-.4-.4v-.91a.89.89,0,0,1,.145-.5l2.569-4.229a11.857,11.857,0,0,1,1.386-1.877.632.632,0,0,1,.49-.2H64.6a.365.365,0,0,1,.4.4V20.26a.084.084,0,0,0,.087.087h.477A.364.364,0,0,1,65.974,20.751Zm-5.254-.4h1.833a.083.083,0,0,0,.087-.087V17.027c0-.087-.057-.115-.1-.029l-1.876,3.248C60.633,20.3,60.663,20.347,60.72,20.347Z"/><path class="cls-5" d="M71.459,24.2l-1.165-2.388c-.019-.047-.056-.038-.085,0l-.366.508a.129.129,0,0,0-.019.066v1.738a.238.238,0,0,1-.263.264H68.442a.238.238,0,0,1-.263-.264V17.978a.238.238,0,0,1,.263-.263h1.119a.238.238,0,0,1,.263.263v1.89c0,.046.038.065.066.018l1.372-2a.358.358,0,0,1,.32-.169h1.166c.215,0,.291.141.169.32l-1.58,2.2a.073.073,0,0,0-.009.075l1.9,3.77c.095.188.01.31-.187.31H71.77A.319.319,0,0,1,71.459,24.2Z"/><path class="cls-5" d="M77.187,20.9a1.665,1.665,0,0,1,1.372,1.7c0,1.194-.828,1.787-2.4,1.787H74.15a.238.238,0,0,1-.264-.264V17.978a.238.238,0,0,1,.264-.263h2.021c1.382,0,2.152.658,2.152,1.8a1.245,1.245,0,0,1-1.136,1.345C77.139,20.873,77.139,20.892,77.187,20.9Zm-1.6-1.992a.05.05,0,0,0-.056.056V20.4a.05.05,0,0,0,.056.057h.4c.48,0,.649-.311.649-.827s-.235-.724-.733-.724Zm1.288,3.581c0-.62-.272-.884-.884-.884h-.4a.05.05,0,0,0-.056.057v1.476a.05.05,0,0,0,.056.056h.4C76.594,23.2,76.876,23,76.876,22.49Z"/><path class="cls-2" d="M37.437,85.932a19.558,19.558,0,0,1,.605,2.085l.662,2.455c.019.1.136.1.136,0l.39-6.84a.523.523,0,0,1,.565-.526h1.579a.486.486,0,0,1,.526.565l-.76,9.178a17.794,17.794,0,0,1-.643,3.663.6.6,0,0,1-.623.429H38.821a.614.614,0,0,1-.623-.409,20.032,20.032,0,0,1-.877-2.709l-.779-2.845a.079.079,0,0,0-.157,0L35.606,93.8a25.027,25.027,0,0,1-.955,2.728.616.616,0,0,1-.623.409h-.955a.594.594,0,0,1-.624-.429,18.634,18.634,0,0,1-.78-3.683l-.779-9.158a.465.465,0,0,1,.507-.565h1.734a.523.523,0,0,1,.565.526l.429,6.918c0,.1.117.116.136.019L34.943,88c.273-.974.429-1.6.6-2.065a.594.594,0,0,1,.623-.41h.644A.593.593,0,0,1,37.437,85.932Z"/><path class="cls-2" d="M52.112,85.834H47.045a.112.112,0,0,0-.116.117v2.416a.1.1,0,0,0,.116.117h4.209a.493.493,0,0,1,.546.546v1.636a.493.493,0,0,1-.546.546H47.045a.1.1,0,0,0-.116.117V94.1a.112.112,0,0,0,.116.117h5.067a.494.494,0,0,1,.546.545V96.4a.494.494,0,0,1-.546.546H44.065a.493.493,0,0,1-.546-.546V83.652a.493.493,0,0,1,.546-.546h8.047a.494.494,0,0,1,.546.546v1.636A.494.494,0,0,1,52.112,85.834Z"/><path class="cls-2" d="M62.052,89.712A3.45,3.45,0,0,1,64.9,93.239c0,2.474-1.715,3.7-4.969,3.7h-4.17a.493.493,0,0,1-.546-.546V83.652a.493.493,0,0,1,.546-.546h4.19c2.864,0,4.462,1.364,4.462,3.742a2.582,2.582,0,0,1-2.359,2.786C61.956,89.653,61.956,89.692,62.052,89.712ZM58.74,85.581a.1.1,0,0,0-.116.117v2.981a.1.1,0,0,0,.116.117h.838c.994,0,1.344-.643,1.344-1.715s-.487-1.5-1.519-1.5Zm2.67,7.424c0-1.286-.566-1.832-1.832-1.832H58.74a.1.1,0,0,0-.116.117v3.059a.1.1,0,0,0,.116.117h.818C60.825,94.466,61.41,94.057,61.41,93.005Z"/><path class="cls-2" d="M66.576,93.18l2.143-.779c.351-.137.565,0,.682.37.409,1.227,1.032,1.734,2.007,1.734,1.013,0,1.578-.448,1.578-1.266,0-.916-1.247-1.345-2.533-1.93-2.085-.935-3.838-2.124-3.838-4.754,0-1.831,1.286-3.761,4.559-3.761A5.134,5.134,0,0,1,76.2,85.815a.48.48,0,0,1-.293.721l-2.279.837a.514.514,0,0,1-.721-.331c-.526-1.15-1.091-1.52-1.773-1.52-.663,0-1.111.312-1.111.916,0,.819.877,1.228,2.222,1.91,2.922,1.461,4.189,2.357,4.189,4.735,0,1.909-1.443,4.15-5.027,4.15-2.845,0-4.5-1.228-5.183-3.371A.51.51,0,0,1,66.576,93.18Z"/><path class="cls-2" d="M87.252,85.639h-2.26a.1.1,0,0,0-.117.117v8.535a.1.1,0,0,0,.117.117h2.26a.493.493,0,0,1,.546.546V96.4a.493.493,0,0,1-.546.546H79.088a.493.493,0,0,1-.546-.546V94.954a.493.493,0,0,1,.546-.546h2.26a.1.1,0,0,0,.117-.117V85.756a.1.1,0,0,0-.117-.117h-2.26a.493.493,0,0,1-.546-.545V83.652a.493.493,0,0,1,.546-.546h8.164a.493.493,0,0,1,.546.546v1.442A.493.493,0,0,1,87.252,85.639Z"/><path class="cls-2" d="M99.666,83.652v1.636a.493.493,0,0,1-.545.546H96.686a.1.1,0,0,0-.118.117V96.4a.493.493,0,0,1-.546.546H93.7a.494.494,0,0,1-.546-.546V85.951a.1.1,0,0,0-.117-.117H90.605a.493.493,0,0,1-.545-.546V83.652a.493.493,0,0,1,.545-.546h8.516A.493.493,0,0,1,99.666,83.652Z"/><path class="cls-2" d="M110.581,85.834h-5.066a.113.113,0,0,0-.117.117v2.416a.1.1,0,0,0,.117.117h4.209a.494.494,0,0,1,.546.546v1.636a.494.494,0,0,1-.546.546h-4.209a.1.1,0,0,0-.117.117V94.1a.113.113,0,0,0,.117.117h5.066a.493.493,0,0,1,.546.545V96.4a.493.493,0,0,1-.546.546h-8.047a.493.493,0,0,1-.546-.546V83.652a.493.493,0,0,1,.546-.546h8.047a.493.493,0,0,1,.546.546v1.636A.493.493,0,0,1,110.581,85.834Z"/><path class="cls-2" d="M35.713,117.983c0,2.841-1.293,4.1-3.28,4.1H30.308a.292.292,0,0,1-.324-.323v-7.555a.293.293,0,0,1,.324-.323h2.125C34.42,113.882,35.713,115.13,35.713,117.983Zm-2.079,0c0-1.779-.485-2.484-1.352-2.484h-.207a.061.061,0,0,0-.069.07V120.4a.061.061,0,0,0,.069.069h.207C33.149,120.466,33.634,119.773,33.634,117.983Z"/><path class="cls-2" d="M36.44,117.971c0-2.553,1.156-4.262,3.165-4.262,2.033,0,3.188,1.709,3.188,4.262,0,2.576-1.155,4.286-3.188,4.286C37.6,122.257,36.44,120.547,36.44,117.971Zm4.274,0c0-1.559-.335-2.587-1.109-2.587-.751,0-1.085,1.028-1.085,2.587s.334,2.611,1.085,2.611C40.379,120.582,40.714,119.542,40.714,117.971Z"/><path class="cls-2" d="M49.052,117.613v4.147a.292.292,0,0,1-.323.323H47.666a.292.292,0,0,1-.323-.323v-7.555a.292.292,0,0,1,.323-.323h1.155a.434.434,0,0,1,.381.174,4.764,4.764,0,0,1,.6,1.1l1.409,3.269c.023.069.081.046.081-.023v-4.194a.292.292,0,0,1,.323-.323h1.063a.292.292,0,0,1,.323.323v7.555a.292.292,0,0,1-.323.323H51.535a.43.43,0,0,1-.392-.2,6.3,6.3,0,0,1-.694-1.282l-1.316-3.015C49.109,117.521,49.052,117.544,49.052,117.613Z"/><path class="cls-2" d="M53.925,117.971c0-2.553,1.155-4.262,3.165-4.262,2.032,0,3.187,1.709,3.187,4.262,0,2.576-1.155,4.286-3.187,4.286C55.08,122.257,53.925,120.547,53.925,117.971Zm4.273,0c0-1.559-.335-2.587-1.108-2.587-.751,0-1.086,1.028-1.086,2.587s.335,2.611,1.086,2.611C57.863,120.582,58.2,119.542,58.2,117.971Z"/><path class="cls-2" d="M66.884,114.205v.971a.292.292,0,0,1-.323.323H65.116a.061.061,0,0,0-.069.07v6.191a.292.292,0,0,1-.323.323H63.35a.293.293,0,0,1-.325-.323v-6.191a.061.061,0,0,0-.069-.07H61.513a.292.292,0,0,1-.324-.323v-.971a.293.293,0,0,1,.324-.323h5.048A.292.292,0,0,1,66.884,114.205Z"/><path class="cls-2" d="M77.994,115.5h-3a.066.066,0,0,0-.069.07V117a.061.061,0,0,0,.069.069h2.494a.294.294,0,0,1,.325.324v.97a.293.293,0,0,1-.325.323H74.991a.061.061,0,0,0-.069.07v1.64a.065.065,0,0,0,.069.069h3a.292.292,0,0,1,.323.323v.971a.292.292,0,0,1-.323.323h-4.77a.292.292,0,0,1-.324-.323v-7.555a.293.293,0,0,1,.324-.323h4.77a.292.292,0,0,1,.323.323v.971A.292.292,0,0,1,77.994,115.5Z"/><path class="cls-2" d="M83.664,121.841l-1.143-2.657a.088.088,0,0,0-.082-.058H81.92a.061.061,0,0,0-.069.07v2.564a.293.293,0,0,1-.325.323H80.152a.292.292,0,0,1-.323-.323v-7.555a.292.292,0,0,1,.323-.323H82.67c1.8,0,2.8.8,2.8,2.622a2.349,2.349,0,0,1-1.155,2.3c-.046.023-.058.058-.024.092a12.217,12.217,0,0,1,.786,1.456l.635,1.351c.1.231,0,.381-.242.381H84.033A.365.365,0,0,1,83.664,121.841Zm-1.813-6.272v1.871a.061.061,0,0,0,.069.069h.6c.6,0,.866-.288.866-1s-.266-1.005-.866-1.005h-.6A.061.061,0,0,0,81.851,115.569Z"/><path class="cls-2" d="M90.721,121.806l-.278-1.166a.073.073,0,0,0-.069-.058H88.468a.075.075,0,0,0-.07.058l-.265,1.166a.329.329,0,0,1-.358.277h-1.2c-.23,0-.335-.127-.276-.358l1.455-5.475a8.872,8.872,0,0,1,.866-2.148.412.412,0,0,1,.381-.22h.844a.412.412,0,0,1,.381.22,9.239,9.239,0,0,1,.9,2.137l1.49,5.486c.058.231-.035.358-.266.358H91.078A.329.329,0,0,1,90.721,121.806Zm-1.9-2.645h1.19c.046,0,.069-.023.057-.081l-.612-2.587a.046.046,0,0,0-.092,0l-.6,2.587C88.757,119.138,88.78,119.161,88.826,119.161Z"/><path class="cls-2" d="M93.492,119.854l1.271-.462c.208-.081.335,0,.4.22.242.727.612,1.028,1.189,1.028.6,0,.936-.266.936-.751,0-.543-.739-.8-1.5-1.144-1.235-.554-2.275-1.259-2.275-2.818,0-1.086.762-2.229,2.7-2.229a3.044,3.044,0,0,1,2.98,1.79.284.284,0,0,1-.174.427l-1.351.5a.305.305,0,0,1-.427-.2c-.312-.682-.647-.9-1.052-.9s-.658.185-.658.543c0,.486.52.728,1.318,1.133,1.732.866,2.483,1.4,2.483,2.806,0,1.132-.856,2.461-2.981,2.461a2.857,2.857,0,0,1-3.072-2A.3.3,0,0,1,93.492,119.854Z"/><path class="cls-2" d="M105.711,115.5h-3a.066.066,0,0,0-.069.07V117a.061.061,0,0,0,.069.069H105.2a.293.293,0,0,1,.324.324v.97a.292.292,0,0,1-.324.323h-2.494a.061.061,0,0,0-.069.07v1.64a.065.065,0,0,0,.069.069h3a.292.292,0,0,1,.323.323v.971a.292.292,0,0,1-.323.323H100.94a.292.292,0,0,1-.323-.323v-7.555a.292.292,0,0,1,.323-.323h4.771a.292.292,0,0,1,.323.323v.971A.292.292,0,0,1,105.711,115.5Z"/><path class="cls-2" d="M108.979,120.986a1.271,1.271,0,1,1,1.282,1.271A1.308,1.308,0,0,1,108.979,120.986Zm.485-2.391-.208-2.137v-2.253a.292.292,0,0,1,.323-.323h1.363a.293.293,0,0,1,.324.323v2.253l-.2,2.137a.325.325,0,0,1-.346.312h-.912A.326.326,0,0,1,109.464,118.6Z"/><line class="cls-6" x1="31.583" y1="105.031" x2="111.352" y2="105.031"/></svg>