<svg id="Layer_1" data-name="Layer 1" xmlns="http://www.w3.org/2000/svg" viewBox="0 0 147.048 170.728"><defs><style>.cls-1{fill:#7be9c8;stroke-width:2.144px;}.cls-1,.cls-10,.cls-11,.cls-12,.cls-14,.cls-15,.cls-16,.cls-17,.cls-18,.cls-3,.cls-5,.cls-8,.cls-9{stroke:#001741;}.cls-1,.cls-10,.cls-11,.cls-12,.cls-14,.cls-15,.cls-16,.cls-17,.cls-18,.cls-3,.cls-5,.cls-8{stroke-miterlimit:10;}.cls-2{fill:#001741;}.cls-17,.cls-3,.cls-4{fill:#fbe2e0;}.cls-14,.cls-15,.cls-16,.cls-3,.cls-8,.cls-9{stroke-width:2px;}.cls-13,.cls-5{fill:#fff;}.cls-5{stroke-width:1.254px;}.cls-6{fill:#fb97ae;}.cls-15,.cls-7{fill:#7b3122;}.cls-18,.cls-8,.cls-9{fill:#bde8fb;}.cls-16,.cls-9{stroke-linecap:round;}.cls-9{stroke-linejoin:round;}.cls-10{fill:#f1d4d2;stroke-width:0.693px;}.cls-11{fill:#8ccef1;stroke-width:0.754px;}.cls-12,.cls-14,.cls-16{fill:none;}.cls-12{stroke-width:0.569px;}.cls-17{stroke-width:1.882px;}.cls-18{stroke-width:1.742px;}</style></defs><title>what-even</title><circle class="cls-1" cx="66.322" cy="104.406" r="65.25"/><path class="cls-2" d="M39.1,45.362a62.061,62.061,0,1,0,92.192,56.756c.032.879.054,1.769.054,2.658A65.246,65.246,0,1,1,39.1,45.362Z"/><path class="cls-2" d="M69.468,83.342a9.975,9.975,0,0,1-3.73-1.519,9.664,9.664,0,0,1-2.7-2.7,9.9,9.9,0,0,1-1.443-3.5,10.483,10.483,0,0,1,1.481-7.671A9.893,9.893,0,0,1,65.722,65.2a9.7,9.7,0,0,1,3.516-1.5,9.986,9.986,0,0,1,4.029-.021,9.74,9.74,0,0,1,3.7,1.515,9.992,9.992,0,0,1,4.2,6.248,10.119,10.119,0,0,1-1.482,7.67,10.08,10.08,0,0,1-6.219,4.207A9.787,9.787,0,0,1,69.468,83.342ZM76.987,59.05l-6.1-1.178.2-19.192L77,38.286a23.654,23.654,0,0,0,4.567-.746,10.95,10.95,0,0,0,4.056-2.073A13.374,13.374,0,0,0,88.9,31.4a23.186,23.186,0,0,0,2.221-6.73,31.019,31.019,0,0,0,.657-7.215,12.223,12.223,0,0,0-1.294-5.226,8.684,8.684,0,0,0-3.3-3.433A16.866,16.866,0,0,0,81.776,6.89a16.37,16.37,0,0,0-5.142-.256,16.948,16.948,0,0,0-4.164,1.04l-4.765,11-5.273-1.018L65.807.181a89.432,89.432,0,0,1,9.512-.1A70.012,70.012,0,0,1,85.491,1.341q13.328,2.574,19.1,9.125t3.732,17.1a27.153,27.153,0,0,1-2.529,7.377,21.306,21.306,0,0,1-4.529,5.945A22.366,22.366,0,0,1,94.753,45a27.333,27.333,0,0,1-8.429,1.967L80.9,47.4Z"/><path class="cls-2" d="M83.573,99.039a9.07,9.07,0,0,1-2.065-3.031,8.811,8.811,0,0,1-.691-3.411,9.058,9.058,0,0,1,.669-3.385,9.56,9.56,0,0,1,4.985-5.074,8.975,8.975,0,0,1,3.392-.749,8.828,8.828,0,0,1,3.424.63,9.092,9.092,0,0,1,3.066,2.012A8.906,8.906,0,0,1,98.4,89.043a9.1,9.1,0,0,1,.041,6.856,9.209,9.209,0,0,1-4.985,5.073,9.181,9.181,0,0,1-6.836.06A8.89,8.89,0,0,1,83.573,99.039Zm17.932-14.645-4.036-3.966,9.816-14.457,4.685,2.678a21.7,21.7,0,0,0,3.841,1.733,9.969,9.969,0,0,0,4.121.468,12.192,12.192,0,0,0,4.532-1.438,21.156,21.156,0,0,0,5.072-3.987,28.252,28.252,0,0,0,4.131-5.144,11.133,11.133,0,0,0,1.648-4.618,7.892,7.892,0,0,0-.776-4.264,15.318,15.318,0,0,0-3.144-4.168,14.848,14.848,0,0,0-3.772-2.783,15.433,15.433,0,0,0-3.682-1.307l-9.154,5.945L111.3,45.66,122.656,34.1a81.062,81.062,0,0,1,7.267,4.713,63.707,63.707,0,0,1,7.084,6.075q8.815,8.661,9.895,16.536t-5.773,14.85A24.748,24.748,0,0,1,135.5,80.6a19.432,19.432,0,0,1-6.428,2.232,20.392,20.392,0,0,1-7.013-.152,24.88,24.88,0,0,1-7.384-2.751l-4.333-2.408Z"/><path class="cls-2" d="M58.681,133.482l-2.6,31.628s-14.672,2.31-15.628-2.605c-1.954-10.046-1.581-44.372-1.581-44.372s8.527-1.249,19.1-2.66,13.743-6.13,13.743-6.13l13.761,52.418a47.952,47.952,0,0,1-7.814,3.349,11.134,11.134,0,0,1-7.814-.372Z"/><polygon class="cls-3" points="59.85 73.367 46.097 75.389 42.442 55.324 56.196 53.302 59.85 73.367"/><path class="cls-4" d="M62.381,40.8c-.888,12.931-1.932,19.469-10.46,21.47C46.261,63.6,36.648,55.7,31.1,42.627c-4.664-10.983,1.669-19.962,13.543-21.138S63.207,28.763,62.381,40.8Z"/><path class="cls-5" d="M49.645,57s-.015-3.444,2.495-3.207a11.678,11.678,0,0,0,5.053-.957,6,6,0,0,1-2.5,2.826C53.6,56.266,51.036,55.94,49.645,57Z"/><ellipse class="cls-6" cx="59.035" cy="46.797" rx="2.923" ry="3.474" transform="translate(-8.808 14.049) rotate(-12.637)"/><path class="cls-7" d="M39.886,39.513c-.335-.234-.912-2.223,2.888-3.133s4.4-.345,3.737.97S40.221,39.747,39.886,39.513Z"/><path class="cls-2" d="M50.373,39.873c-.3.185-.351,1.865.558,4.019,1.015,2.4,3.491,4.151,3.357,4.881C53.919,50.785,49.41,51.209,49.05,50c-.463-1.562.879-2.463.215-2.306a2.2,2.2,0,0,0-.913,3.751c1.893,1.141,7.124.2,7.331-2.477.125-1.6-2.092-2.427-3.32-4.691C51.02,41.8,50.683,39.68,50.373,39.873Z"/><path class="cls-8" d="M64.889,63.511c-3.92-.834-5.264-2.324-5.264-2.324l-5.234,4.149A29.414,29.414,0,0,0,51.67,75.608c-.3,4,.89,27.959,2.5,33.668,1.174,4.153,4.163,12.12,7.665,15.046,4.283,3.578,15.818-3.119,13.648-8.212C65.7,93.135,69.162,80.747,69.162,80.747"/><path class="cls-9" d="M67.8,81.417l1.465,10.926L58.96,92.319l-.242,8.2s15.865,2.7,18.873.469c4.748-3.518-3.772-34.939-9.685-38.066C63.834,60.773,57.48,61.4,57.48,61.4"/><path class="cls-10" d="M40.905,41.108c.407-1.22,5.262-2.522,6.632-1.711a3.611,3.611,0,0,1-1.2,6.49C41,47.643,40.5,42.328,40.905,41.108Z"/><path class="cls-10" d="M58.907,36.6c-.944-.872-5.826.326-6.636,1.7a3.611,3.611,0,0,0,4.18,5.108C61.974,42.372,59.852,37.474,58.907,36.6Z"/><line class="cls-11" x1="34.273" y1="41.548" x2="40.649" y2="41.833"/><path class="cls-12" d="M48,40.039A2.664,2.664,0,0,1,49.8,39a5.6,5.6,0,0,1,2.06-.008"/><path class="cls-13" d="M47.235,41.675c.191.85-1.076,1.326-2.545,1.656s-2.585.387-2.776-.463,1.15-1.23,2.619-1.559S47.044,40.825,47.235,41.675Z"/><path class="cls-13" d="M58.823,39.025c.19.85-.786,1.313-2.255,1.643s-2.875.4-3.066-.45,1.175-1.133,2.644-1.463S58.632,38.175,58.823,39.025Z"/><ellipse class="cls-2" cx="45.711" cy="42.058" rx="1.017" ry="1.065" transform="translate(-8.822 71.798) rotate(-71.224)"/><ellipse class="cls-2" cx="57.51" cy="39.401" rx="0.957" ry="1.002" transform="translate(-7.227 13.536) rotate(-12.637)"/><ellipse class="cls-6" cx="41.695" cy="50.894" rx="2.923" ry="3.474" transform="translate(-10.124 10.355) rotate(-12.637)"/><path class="cls-14" d="M62.016,41.086c-1.035,13.82-3.8,19.559-8.3,21.068C48.66,63.846,36.648,55.7,31.1,42.627c-4.664-10.983,1.669-19.962,13.543-21.138S62.735,31.476,62.016,41.086Z"/><path class="cls-15" d="M31.441,30.682s-7.54,6.932,3.483,18.745c1.694,1.815-2.521-8.168-2.2-11.516.386-4.062,1.864-7.1,2.046-8.219C35.481,25.293,31.441,30.682,31.441,30.682Z"/><path class="cls-15" d="M59.7,30.309c.271-.383,3.735,7.574,2.071,12.273-.8,2.245.375-5.146-3-7.748C48.451,26.875,59.7,30.309,59.7,30.309Z"/><path class="cls-15" d="M32.675,35.629c3.137,1.379,6.9-6.94,14.732-1.789,8.021,5.275,15.191-3.057,14.857-8.613-.255-4.236-5.224-.946-9.373-3.369-2.872-1.677-6.081-4.311-14.223-1.941C31.89,21.889,24.948,32.234,32.675,35.629Z"/><path class="cls-8" d="M48.3,66.137c2.59.582,4.593,13.087,6.323,23.109a196.634,196.634,0,0,1,1.573,21.66c.2,7.4-1.1,14.075-1.754,14.926-1.367,1.786-17.6-.366-16.843-9.042.49-5.62,2.082-14.014,1.214-18.607-2.6-13.78-6.9-20.048-6.9-20.048l5.523-13.6,3.864.5Z"/><path class="cls-8" d="M63.286,60.522c-.134-1.019-2.84-2.031-3.8-.093a17.221,17.221,0,0,1-2.659,4.207,1.655,1.655,0,0,0,.061,2.513l3.484,2.895S63.832,64.683,63.286,60.522Z"/><line class="cls-16" x1="59.195" y1="75.631" x2="60.082" y2="81.659"/><path class="cls-8" d="M57.407,79.137l7.757-1.281s1.3,7.566-2.433,8.4C57.9,87.328,57.407,79.137,57.407,79.137Z"/><circle class="cls-13" cx="50.273" cy="81.455" r="1.153"/><circle class="cls-13" cx="51.22" cy="87.897" r="1.153"/><circle class="cls-13" cx="51.907" cy="95.13" r="1.153"/><circle class="cls-13" cx="52.356" cy="102.022" r="1.153"/><circle class="cls-13" cx="52.865" cy="109.318" r="1.153"/><path class="cls-9" d="M38.256,63.665c-13.432,3.291-3.863,40.245,5.373,40.392,6.577.1,11.019-27.382,11.019-27.382L46.1,75.389l-3.311,8.859-1.234-5.836"/><path class="cls-8" d="M39.269,62.84l.605-.561c.583-.541,1.522-1.372,2.254-.735a35.2,35.2,0,0,0,6.021,4.1,1.815,1.815,0,0,1,.472,2.676l-2.544,3.457a22.956,22.956,0,0,1-6.431-6.184C38.721,64.319,38.673,63.393,39.269,62.84Z"/><path class="cls-3" d="M49.536,76c2.059-2.367-5.5-14.968.4-16.027,5.771-1.036,4.632-7.874,8.389-4.335,4.3,4.051,1.066,7.148-.819,10.6-1.6,2.926-2.859,9.168-2.859,9.168Z"/><path class="cls-8" d="M48.088,67.317c-1.3.293-3.271,7.64-2.769,8.967s8.156,3.925,9.7,2.924,3.3-8.492,2.516-9.276S49.431,67.015,48.088,67.317Z"/><path class="cls-17" d="M53.823,98.435s-5.03,2.839-9.613.5c-5.857-3-4.973-8.289-1.366-7.48,3.294.739,3.567-1.7,6.5-.926,3.5.918,7.231,4.229,7.231,4.229Z"/><path class="cls-18" d="M51.243,99.819c.453,1.078,7.046,1.692,8.1,1.066s2.092-7.589.995-8.769-7.781-1.592-8.33-.8S50.775,98.707,51.243,99.819Z"/></svg>