<?xml version="1.0" encoding="utf-8"?>
<!-- Generator: Adobe Illustrator 23.0.4, SVG Export Plug-In . SVG Version: 6.00 Build 0)  -->
<svg version="1.1" id="Layer_1" xmlns="http://www.w3.org/2000/svg" xmlns:xlink="http://www.w3.org/1999/xlink" x="0px" y="0px"
	 viewBox="0 0 432 432" style="enable-background:new 0 0 432 432;" xml:space="preserve">
<style type="text/css">
	.st0{fill:#FB5E58;}
	.st1{fill:#FFFFFF;}
	.st2{fill:#FFF0F6;}
</style>
<path class="st0" d="M339.1,339.7H98.5c-7.3,0-13.2-5.9-13.2-13.2V258c0-7.3,5.9-13.2,13.2-13.2h240.6c7.3,0,13.2,5.9,13.2,13.2
	v68.5C352.2,333.8,346.3,339.7,339.1,339.7z"/>
<g>
	<path class="st1" d="M100.9,324.6h0.9c4.5,0,6.6-2,6.6-7.8V273h-7.5v-3.3h7.5v-10c0-13.3,6.8-25.4,25.1-25.4
		c13,0,19.2,5.9,19.2,14.2c0,5.4-3.4,9.9-8.9,9.9c-4.7,0-8.5-3-8.5-8c0-5.5,3.6-8,7.2-8.5c2.5-0.4,4.9,0.4,4.9-0.8
		c0-0.9-2.9-3.3-7.2-3.3c-4.1,0-8.7,2.1-8.7,14.7v17.2h12v3.3h-12v43.8c0,5.8,1.3,7.8,7.2,7.8h2.8v2.8h-40.5V324.6z"/>
	<path class="st1" d="M152.5,306.7v-27c0-3.9-1.2-7.2-6.8-7.2h-0.5v-2.8l30.2-1.8v40.6c0,8.2,2.5,10.7,6.2,10.7
		c7,0,8.8-11.4,8.8-22.5v-17.1c0-3.7-1.1-7.1-5.3-7.1h-0.7v-2.8l29.2-1.8v48.5c0,3.8,1.4,7.2,6.4,7.2h0.8v3l-30.4,2l0.7-14.6h-0.5
		c-1.8,5.5-6.6,14.6-20.5,14.6C157,328.6,152.5,319.4,152.5,306.7z"/>
	<path class="st1" d="M224.7,324.6h0.5c5.3,0,6.8-3.4,6.8-7.4v-37.5c0-4.2-2.4-7.2-7-7.2h-0.4v-2.8l30.4-1.6l-0.7,14.5h0.5
		c1.2-5.3,7-14.6,20.4-14.6c12.9,0,17.8,8.9,17.8,21.3v27.8c0,4.2,1.2,7.5,6.6,7.5h0.3v2.8h-36v-2.8h1.6c2.9,0,4.7-3,4.7-7.5v-28.1
		c0-7.1-1.3-11.7-5.8-11.7c-7.2,0-9.2,11.6-9.2,22.6v17.2c0,4.5,1.4,7.5,4.6,7.5h0.9v2.8h-36V324.6z"/>
	<path class="st1" d="M308.3,263.4c-1.4-4.7-2.6-9.6-2.6-12.8c0-9.1,5-15.4,13.9-15.4c8.7,0,13.5,5.8,13.5,15.4
		c0,3.2-1.1,7.9-2.4,12.8c-3.9,13.2-10.1,29.1-10.1,33.5h-2.2C318.5,292.5,312.4,276.6,308.3,263.4z M308.2,317.2
		c0-6,5.7-11.7,11.7-11.7c5.8,0,11.4,5.7,11.4,11.7s-5.7,11.4-11.4,11.4C313.9,328.6,308.2,323.3,308.2,317.2z"/>
</g>
<g>
	<path class="st2" d="M49.8,66.7c-1.8-5.3-5-7.6-9.2-7.9v-1.9H71v1.9h-0.3c-2.2,0-3.6,1.4-3.6,3.2c0,1.6,0.4,3.8,1.2,6.2l9.6,29.3
		L84.3,80L79,66c-1.3-3.5-2.6-6.7-6.6-7.2v-1.9h30.4v1.9h-1.3c-3.3,0-4.7,1.9-4.7,3.7c0,1.6,0.3,3.4,1.3,6.1l11,26.8l7-23.6
		c1.2-4,1.7-6.7,1.7-8.9s-1.2-4.1-5.4-4.1h-0.5v-1.9h17.7v1.9c-4.8,0.2-7.9,4.5-9.4,9.5l-15.6,51.3h-4.7l-14-35.8l-13.4,35.8h-4.3
		L49.8,66.7z"/>
	<path class="st2" d="M120.5,98.6c0-12.5,10.1-21.4,21.8-21.4c11,0,19.7,8.6,19.7,20.2c0,1-0.1,1.9,0,2.2h-24.6
		c-0.2,10.7,3.4,15.2,9.6,15.2c4.5,0,9.5-2.3,13.4-9.3l1.7,1.1c-4.5,8.2-10.4,13.1-19.9,13.1C129.7,119.6,120.5,111.7,120.5,98.6z
		 M141.4,97.5c3.7,0,4.5-1.2,4.5-4.8c0-8.4-1.3-13.4-3.9-13.4c-3.1,0-4.5,5.5-4.6,18.3H141.4z"/>
	<path class="st2" d="M167.9,103.3V63.3c0-4.2-1.3-5.4-3.8-5.4H163V56l20.2-1.2v25.6c0,3.8-0.4,8.8-0.4,8.8h0.4
		c1.6-5.6,5.9-11.5,13.6-11.5c8.8,0,16,6.7,16,20.6c0,12.4-6.9,20.7-20,20.7c-5.6,0-10.3-2.1-15.4-9.5h-0.4l-4.7,9.9h-5
		C168.1,115.3,167.9,108.5,167.9,103.3z M195.5,98.6c0-14.7-3.5-15.1-5.1-15.1c-4.7,0-6.7,8.4-6.7,15c0,13.2,3,18.2,6.5,18.2
		C194,116.7,195.5,110.9,195.5,98.6z"/>
	<path class="st2" d="M221.9,116.3c-1.5,0-2.2,0.7-3,2.7h-1.4v-15.2h2c2.1,7.4,8.3,13.4,15.3,13.4c4.5,0,6.3-2.3,6.3-4.8
		c0-3-2.3-4.6-8-6.2c-8.7-2.5-15.3-6.2-15.3-14.6c0-9.4,7.5-13.8,15.9-13.8c6.5,0,8.7,2.2,10.7,2.2c1.7,0,2.3-0.9,3-2.2h1.4v12.2h-2
		c-1.8-5.1-7.1-10.1-12.7-10.1c-3.1,0-5.1,2-5.1,4.3c0,4.5,3.7,5,8.3,6.5c6.5,2.1,15.1,5.1,15.1,14c0,8-6.1,14.6-18,14.6
		C227.4,119.1,224.5,116.3,221.9,116.3z"/>
	<path class="st2" d="M254.9,116.3h0.9c2.6,0,4.2-2.1,4.2-5.3V86.1c0-2.7-1-5.3-4.7-5.3h-0.6V79l21-1.1V111c0,2.9,0.8,5.3,4.4,5.3
		h0.7v1.9h-25.8V116.3z M259.1,66.7c0-4.2,3.7-8.2,8.1-8.2c4.5,0,8.2,3.9,8.2,8.2c0,4.3-3.7,8.2-8.2,8.2
		C262.9,74.8,259.1,71,259.1,66.7z"/>
	<path class="st2" d="M287.1,107.3V81.2H281V80c9-1.9,16.2-6,19.1-15.5h2.8V79h9.7v2.2h-9.7v24.4c0,4.3,0.6,7.3,3.9,7.3
		c3,0,4.6-1.8,4.6-10.2h1.9c0.3,12.1-3.1,16.7-13.4,16.7C291.6,119.4,287.1,115.5,287.1,107.3z"/>
	<path class="st2" d="M315.5,98.6c0-12.5,10.1-21.4,21.8-21.4c11,0,19.7,8.6,19.7,20.2c0,1-0.1,1.9,0,2.2h-24.5
		c-0.2,10.7,3.4,15.2,9.6,15.2c4.5,0,9.5-2.3,13.4-9.3l1.7,1.1c-4.5,8.2-10.4,13.1-19.9,13.1C324.7,119.6,315.5,111.7,315.5,98.6z
		 M336.4,97.5c3.7,0,4.5-1.2,4.5-4.8c0-8.4-1.3-13.4-3.9-13.4c-3.1,0-4.5,5.5-4.6,18.3H336.4z"/>
	<path class="st2" d="M365.3,116.3c-1.5,0-2.2,0.7-3,2.7h-1.4v-15.2h2c2.1,7.4,8.3,13.4,15.3,13.4c4.5,0,6.3-2.3,6.3-4.8
		c0-3-2.3-4.6-8-6.2c-8.7-2.5-15.3-6.2-15.3-14.6c0-9.4,7.5-13.8,15.9-13.8c6.5,0,8.7,2.2,10.7,2.2c1.7,0,2.3-0.9,3-2.2h1.4v12.2h-2
		c-1.8-5.1-7.1-10.1-12.7-10.1c-3.1,0-5.1,2-5.1,4.3c0,4.5,3.7,5,8.3,6.5c6.5,2.1,15.1,5.1,15.1,14c0,8-6.1,14.6-18,14.6
		C370.7,119.1,367.9,116.3,365.3,116.3z"/>
</g>
<g>
	<path class="st2" d="M50.7,204.2c-1.4,0-2,0.7-2.7,2.5h-1.3v-14h1.8c1.9,6.8,7.6,12.3,14.1,12.3c4.1,0,5.8-2.1,5.8-4.4
		c0-2.7-2.1-4.2-7.3-5.7c-8-2.3-14.1-5.7-14.1-13.4c0-8.6,6.9-12.7,14.6-12.7c5.9,0,8,2,9.8,2c1.6,0,2.1-0.8,2.7-2.1h1.3v11.2h-1.8
		c-1.6-4.7-6.5-9.3-11.7-9.3c-2.9,0-4.7,1.8-4.7,3.9c0,4.1,3.4,4.6,7.6,6c5.9,1.9,13.8,4.7,13.8,12.8c0,7.3-5.6,13.4-16.5,13.4
		C55.7,206.7,53.1,204.2,50.7,204.2z"/>
	<path class="st2" d="M81.1,204.2h0.3c3.3,0,4.3-2.1,4.3-4.6v-44.9c0-2.5-0.8-4.5-4.5-4.5h0.1v-1.8l18.3-0.4v22l0.1,8h0.3
		c0.8-3.4,4.4-9.1,12.7-9.1c8.1,0,11.1,5.6,11.1,13.3v17.4c0,2.6,0.7,4.7,4.1,4.7h0.2v1.7h-22.5v-1.7h1c2.1,0,3-1.9,3-4.7v-17.6
		c0-4.4-0.8-7.3-3.6-7.3c-4.5,0-5.8,7.2-5.8,14.1v10.8c0,3,0.9,4.7,2.9,4.7h0.6v1.7H81.1V204.2z"/>
	<path class="st2" d="M129.8,188c0-11.5,9.4-19.7,20.6-19.7c11.1,0,20.7,8.2,20.7,19.6c0,11.7-10,19.3-21.1,19.3
		C138.9,207.1,129.8,199.7,129.8,188z M155,187.8c0-12.4-1.4-17.7-4.6-17.7c-3.5,0-4.7,5.3-4.7,17.5c0,13.1,1.2,17.7,4.4,17.7
		C153.3,205.3,155,200.8,155,187.8z"/>
	<path class="st2" d="M177.3,193v-16.9c0-2.5-0.7-4.5-4.3-4.5h-0.3v-1.7l18.9-1.2v25.4c0,5.1,1.6,6.7,3.9,6.7
		c4.4,0,5.5-7.2,5.5-14.1v-10.7c0-2.3-0.7-4.4-3.3-4.4h-0.4v-1.7l18.3-1.2v30.3c0,2.4,0.9,4.5,4,4.5h0.5v1.9l-19,1.2l0.4-9.1h-0.3
		c-1.2,3.5-4.1,9.1-12.8,9.1C180.1,206.7,177.3,201,177.3,193z"/>
	<path class="st2" d="M221.6,204.2h0.9c3,0,4.5-1.5,4.5-5.3v-42.2c0-4.3-1-5.8-5.8-5.8h-0.2V149l20.2-1.7v51.6
		c0,4.4,1.9,5.3,4.9,5.3h0.3v1.7h-24.9V204.2z"/>
	<path class="st2" d="M248.8,187.2c0-10.9,6.6-18.6,16.1-18.6c6.5,0,9.3,3.3,10.2,5.8h0.2c-0.3-2.1-0.6-6.4-0.6-9.1v-9.8
		c0-3.5-1-4.7-4.5-4.7h-1.7v-1.7l20.3-1.2v51c0,3.8,1.6,4.8,4.4,4.8h0.4v1.9l-18.2,1.1l0.4-8.3h-0.2c-2.2,6.2-6.3,8.5-11.6,8.5
		C255.3,206.7,248.8,200.1,248.8,187.2z M275.5,188.6c0-7.4-0.6-16-5.4-16c-2.6,0-5.3,3.3-5.3,14.3c0,11.4,2.2,14.9,5.1,14.9
		C273.8,201.9,275.5,194.4,275.5,188.6z"/>
	<path class="st2" d="M309.6,192.3v-36.8c0-3.9-1.2-4.9-3.5-4.9h-1v-1.7l18.5-1.1v23.5c0,3.5-0.4,8.1-0.4,8.1h0.3
		c1.5-5.1,5.4-10.5,12.5-10.5c8.1,0,14.7,6.2,14.7,18.9c0,11.3-6.3,19-18.3,19c-5.1,0-9.5-1.9-14.1-8.7h-0.4l-4.4,9H309
		C309.8,203.2,309.6,197,309.6,192.3z M334.9,187.9c0-13.5-3.2-13.8-4.7-13.8c-4.3,0-6.2,7.7-6.2,13.7c0,12.1,2.8,16.7,6,16.7
		C333.6,204.5,334.9,199.2,334.9,187.9z"/>
	<path class="st2" d="M354.1,187.9c0-11.4,9.3-19.7,20-19.7c10.1,0,18.1,7.9,18.1,18.5c0,0.9-0.1,1.7,0,2h-22.5
		c-0.2,9.8,3.1,14,8.8,14c4.1,0,8.7-2.1,12.3-8.6l1.6,1c-4.1,7.5-9.5,12-18.3,12C362.6,207.1,354.1,199.9,354.1,187.9z M373.4,186.9
		c3.4,0,4.1-1.1,4.1-4.4c0-7.7-1.2-12.3-3.6-12.3c-2.9,0-4.1,5-4.2,16.8H373.4z"/>
</g>
</svg>
